0
SECTION
2
HEADER
9
$INSUNITS
70
4
0
ENDSEC
0
SECTION
2
TABLES
0
TABLE
2
LTYPE
0
LTYPE
72
65
70
64
2
CONTINUOUS
3
______
73
0
40
0
0
ENDTAB
0
TABLE
2
LAYER
0
ENDTAB
0
ENDSEC
0
SECTION
2
ENTITIES
0
LINE
8
0
10
40.8078521
20
-136.3126524
11
62.9637643
21
-81.4748454
0
LINE
8
0
10
64.4144675
20
-80.4745521
11
125.0210592
21
-79.2321976
0
LINE
8
0
10
125.6532208
20
-79.3483673
11
180.8771557
21
-101.6602853
0
LINE
8
0
10
181.4765262
20
-101.7767911
11
187.5752428
21
-101.7767911
0
LINE
8
0
10
204.7752428
20
-101.7767911
11
210.8739594
21
-101.7767911
0
LINE
8
0
10
211.4733299
20
-101.6602853
11
266.6972648
21
-79.3483673
0
LINE
8
0
10
267.3294264
20
-79.2321976
11
327.9360181
21
-80.4745521
0
LINE
8
0
10
329.3867213
20
-81.4748454
11
351.5426335
21
-136.3126524
0
LINE
8
0
10
350.6585098
20
-138.3955171
11
222.6246264
21
-190.1245638
0
LINE
8
0
10
222.0252559
20
-190.2410696
11
213.7752428
21
-190.2410696
0
LINE
8
0
10
178.5752428
20
-190.2410696
11
170.3252297
21
-190.2410696
0
LINE
8
0
10
169.7258592
20
-190.1245638
11
41.6919758
21
-138.3955171
0
ARC
8
0
10
64.4472585
20
-82.074216
40
1.6
50
91.1743248
51
157.9999988
0
ARC
8
0
10
125.0538502
20
-80.8318615
40
1.6
50
68.0000006
51
91.1743248
0
ARC
8
0
10
181.4765262
20
-100.1767911
40
1.6
50
248.0000006
51
270
0
ARC
8
0
10
210.8739594
20
-100.1767911
40
1.6
50
270
51
291.9999994
0
ARC
8
0
10
267.2966354
20
-80.8318615
40
1.6
50
88.8256752
51
111.9999994
0
ARC
8
0
10
327.9032271
20
-82.074216
40
1.6
50
22.0000012
51
88.8256752
0
ARC
8
0
10
350.0591393
20
-136.912023
40
1.6
50
292.0000012
51
21.9999994
0
ARC
8
0
10
222.0252559
20
-188.6410696
40
1.6
50
270
51
291.9999994
0
ARC
8
0
10
170.3252297
20
-188.6410696
40
1.6
50
248.0000006
51
270
0
ARC
8
0
10
42.2913463
20
-136.912023
40
1.6
50
158.0000006
51
247.9999988
0
LINE
8
0
10
190.7752428
20
-107.2596662
11
201.5752428
21
-107.2596662
0
LINE
8
0
10
203.1752428
20
-105.6596662
11
203.1752428
21
-103.3767911
0
LINE
8
0
10
189.1752428
20
-103.3767911
11
189.1752428
21
-105.6596662
0
ARC
8
0
10
187.5752428
20
-103.3767911
40
1.6
50
0
51
90
0
ARC
8
0
10
190.7752428
20
-105.6596662
40
1.6
50
180
51
270
0
ARC
8
0
10
201.5752428
20
-105.6596662
40
1.6
50
270
51
0
0
ARC
8
0
10
204.7752428
20
-103.3767911
40
1.6
50
90
51
180
0
LINE
8
0
10
180.9752428
20
-123.7996662
11
181.3752428
21
-123.7996662
0
LINE
8
0
10
182.1752428
20
-122.9996662
11
182.1752428
21
-108.5996662
0
LINE
8
0
10
181.3752428
20
-107.7996662
11
180.9752428
21
-107.7996662
0
LINE
8
0
10
180.1752428
20
-108.5996662
11
180.1752428
21
-122.9996662
0
ARC
8
0
10
63.7055114
20
-81.7745307
40
0.8
50
157.9999988
51
158.0000006
0
ARC
8
0
10
328.6449742
20
-81.7745307
40
0.8
50
21.9999994
51
22.0000012
0
ARC
8
0
10
350.3588246
20
-137.6537701
40
0.8
50
291.9999994
51
292.0000012
0
ARC
8
0
10
41.991661
20
-137.6537701
40
0.8
50
247.9999988
51
248.0000006
0
ARC
8
0
10
181.3752428
20
-122.9996662
40
0.8
50
270
51
0
0
ARC
8
0
10
181.3752428
20
-108.5996662
40
0.8
50
0
51
90
0
ARC
8
0
10
180.9752428
20
-108.5996662
40
0.8
50
90
51
180
0
ARC
8
0
10
180.9752428
20
-122.9996662
40
0.8
50
180
51
270
0
LINE
8
0
10
210.9752428
20
-123.7996662
11
211.3752428
21
-123.7996662
0
LINE
8
0
10
212.1752428
20
-122.9996662
11
212.1752428
21
-108.5996662
0
LINE
8
0
10
211.3752428
20
-107.7996662
11
210.9752428
21
-107.7996662
0
LINE
8
0
10
210.1752428
20
-108.5996662
11
210.1752428
21
-122.9996662
0
ARC
8
0
10
211.3752428
20
-122.9996662
40
0.8
50
270
51
0
0
ARC
8
0
10
211.3752428
20
-108.5996662
40
0.8
50
0
51
90
0
ARC
8
0
10
210.9752428
20
-108.5996662
40
0.8
50
90
51
180
0
ARC
8
0
10
210.9752428
20
-122.9996662
40
0.8
50
180
51
270
0
LINE
8
0
10
180.9752428
20
-178.2996662
11
181.3752428
21
-178.2996662
0
LINE
8
0
10
182.1752428
20
-177.4996662
11
182.1752428
21
-150.0996662
0
LINE
8
0
10
181.3752428
20
-149.2996662
11
180.9752428
21
-149.2996662
0
LINE
8
0
10
180.1752428
20
-150.0996662
11
180.1752428
21
-177.4996662
0
ARC
8
0
10
181.3752428
20
-177.4996662
40
0.8
50
270
51
0
0
ARC
8
0
10
181.3752428
20
-150.0996662
40
0.8
50
0
51
90
0
ARC
8
0
10
180.9752428
20
-150.0996662
40
0.8
50
90
51
180
0
ARC
8
0
10
180.9752428
20
-177.4996662
40
0.8
50
180
51
270
0
LINE
8
0
10
210.9752428
20
-178.2996662
11
211.3752428
21
-178.2996662
0
LINE
8
0
10
212.1752428
20
-177.4996662
11
212.1752428
21
-150.0996662
0
LINE
8
0
10
211.3752428
20
-149.2996662
11
210.9752428
21
-149.2996662
0
LINE
8
0
10
210.1752428
20
-150.0996662
11
210.1752428
21
-177.4996662
0
ARC
8
0
10
211.3752428
20
-177.4996662
40
0.8
50
270
51
0
0
ARC
8
0
10
211.3752428
20
-150.0996662
40
0.8
50
0
51
90
0
ARC
8
0
10
210.9752428
20
-150.0996662
40
0.8
50
90
51
180
0
ARC
8
0
10
210.9752428
20
-177.4996662
40
0.8
50
180
51
270
0
LINE
8
0
10
212.1752428
20
-188.6410696
11
212.1752428
21
-182.3996662
0
LINE
8
0
10
210.5752428
20
-180.7996662
11
181.7752428
21
-180.7996662
0
LINE
8
0
10
180.1752428
20
-182.3996662
11
180.1752428
21
-188.6410696
0
ARC
8
0
10
213.7752428
20
-188.6410696
40
1.6
50
180
51
270
0
ARC
8
0
10
210.5752428
20
-182.3996662
40
1.6
50
0
51
90
0
ARC
8
0
10
181.7752428
20
-182.3996662
40
1.6
50
90
51
180
0
ARC
8
0
10
178.5752428
20
-188.6410696
40
1.6
50
270
51
0
0
CIRCLE
8
0
10
185.6752428
20
-104.7996662
40
1.1
0
CIRCLE
8
0
10
206.6752428
20
-104.7996662
40
1.1
0
CIRCLE
8
0
10
185.6752428
20
-176.7996662
40
1.1
0
CIRCLE
8
0
10
206.6752428
20
-176.7996662
40
1.1
0
CIRCLE
8
0
10
173.7232828
20
-103.2458522
40
1.1
0
CIRCLE
8
0
10
175.9129728
20
-184.0499688
40
1.1
0
CIRCLE
8
0
10
96.8515372
20
-90.630595
40
1.1
0
CIRCLE
8
0
10
106.9059689
20
-141.8248173
40
1.1
0
CIRCLE
8
0
10
218.6272028
20
-103.2458522
40
1.1
0
CIRCLE
8
0
10
216.4375128
20
-184.0499688
40
1.1
0
CIRCLE
8
0
10
295.4989484
20
-90.630595
40
1.1
0
CIRCLE
8
0
10
285.4445167
20
-141.8248173
40
1.1
0
ENDSEC
0
EOF