0
SECTION
2
HEADER
9
$INSUNITS
70
4
0
ENDSEC
0
SECTION
2
TABLES
0
TABLE
2
LTYPE
0
LTYPE
72
65
70
64
2
CONTINUOUS
3
______
73
0
40
0
0
ENDTAB
0
TABLE
2
LAYER
0
ENDTAB
0
ENDSEC
0
SECTION
2
ENTITIES
0
LINE
8
0
10
40.8078521
20
-136.3126524
11
62.9637643
21
-81.4748454
0
LINE
8
0
10
64.4144675
20
-80.4745521
11
125.0210592
21
-79.2321976
0
LINE
8
0
10
125.6532208
20
-79.3483673
11
180.8771557
21
-101.6602853
0
LINE
8
0
10
181.4765262
20
-101.7767911
11
187.5752428
21
-101.7767911
0
LINE
8
0
10
204.7752428
20
-101.7767911
11
210.8739594
21
-101.7767911
0
LINE
8
0
10
211.4733299
20
-101.6602853
11
266.6972648
21
-79.3483673
0
LINE
8
0
10
267.3294264
20
-79.2321976
11
327.9360181
21
-80.4745521
0
LINE
8
0
10
329.3867213
20
-81.4748454
11
351.5426335
21
-136.3126524
0
LINE
8
0
10
350.6585098
20
-138.3955171
11
222.6246264
21
-190.1245638
0
LINE
8
0
10
222.0252559
20
-190.2410696
11
213.7752428
21
-190.2410696
0
LINE
8
0
10
178.5752428
20
-190.2410696
11
170.3252297
21
-190.2410696
0
LINE
8
0
10
169.7258592
20
-190.1245638
11
41.6919758
21
-138.3955171
0
ARC
8
0
10
64.4472585
20
-82.074216
40
1.6
50
91.1743248
51
157.9999988
0
ARC
8
0
10
125.0538502
20
-80.8318615
40
1.6
50
68.0000006
51
91.1743248
0
ARC
8
0
10
181.4765262
20
-100.1767911
40
1.6
50
248.0000006
51
270
0
ARC
8
0
10
210.8739594
20
-100.1767911
40
1.6
50
270
51
291.9999994
0
ARC
8
0
10
267.2966354
20
-80.8318615
40
1.6
50
88.8256752
51
111.9999994
0
ARC
8
0
10
327.9032271
20
-82.074216
40
1.6
50
22.0000012
51
88.8256752
0
ARC
8
0
10
350.0591393
20
-136.912023
40
1.6
50
292.0000012
51
21.9999994
0
ARC
8
0
10
222.0252559
20
-188.6410696
40
1.6
50
270
51
291.9999994
0
ARC
8
0
10
170.3252297
20
-188.6410696
40
1.6
50
248.0000006
51
270
0
ARC
8
0
10
42.2913463
20
-136.912023
40
1.6
50
158.0000006
51
247.9999988
0
LINE
8
0
10
190.7752428
20
-107.2596662
11
201.5752428
21
-107.2596662
0
LINE
8
0
10
203.1752428
20
-105.6596662
11
203.1752428
21
-103.3767911
0
LINE
8
0
10
189.1752428
20
-103.3767911
11
189.1752428
21
-105.6596662
0
ARC
8
0
10
187.5752428
20
-103.3767911
40
1.6
50
0
51
90
0
ARC
8
0
10
190.7752428
20
-105.6596662
40
1.6
50
180
51
270
0
ARC
8
0
10
201.5752428
20
-105.6596662
40
1.6
50
270
51
0
0
ARC
8
0
10
204.7752428
20
-103.3767911
40
1.6
50
90
51
180
0
LINE
8
0
10
180.9752428
20
-123.7996662
11
181.3752428
21
-123.7996662
0
LINE
8
0
10
182.1752428
20
-122.9996662
11
182.1752428
21
-108.5996662
0
LINE
8
0
10
181.3752428
20
-107.7996662
11
180.9752428
21
-107.7996662
0
LINE
8
0
10
180.1752428
20
-108.5996662
11
180.1752428
21
-122.9996662
0
ARC
8
0
10
63.7055114
20
-81.7745307
40
0.8
50
157.9999988
51
158.0000006
0
ARC
8
0
10
328.6449742
20
-81.7745307
40
0.8
50
21.9999994
51
22.0000012
0
ARC
8
0
10
350.3588246
20
-137.6537701
40
0.8
50
291.9999994
51
292.0000012
0
ARC
8
0
10
41.991661
20
-137.6537701
40
0.8
50
247.9999988
51
248.0000006
0
ARC
8
0
10
181.3752428
20
-122.9996662
40
0.8
50
270
51
0
0
ARC
8
0
10
181.3752428
20
-108.5996662
40
0.8
50
0
51
90
0
ARC
8
0
10
180.9752428
20
-108.5996662
40
0.8
50
90
51
180
0
ARC
8
0
10
180.9752428
20
-122.9996662
40
0.8
50
180
51
270
0
LINE
8
0
10
210.9752428
20
-123.7996662
11
211.3752428
21
-123.7996662
0
LINE
8
0
10
212.1752428
20
-122.9996662
11
212.1752428
21
-108.5996662
0
LINE
8
0
10
211.3752428
20
-107.7996662
11
210.9752428
21
-107.7996662
0
LINE
8
0
10
210.1752428
20
-108.5996662
11
210.1752428
21
-122.9996662
0
ARC
8
0
10
211.3752428
20
-122.9996662
40
0.8
50
270
51
0
0
ARC
8
0
10
211.3752428
20
-108.5996662
40
0.8
50
0
51
90
0
ARC
8
0
10
210.9752428
20
-108.5996662
40
0.8
50
90
51
180
0
ARC
8
0
10
210.9752428
20
-122.9996662
40
0.8
50
180
51
270
0
LINE
8
0
10
180.9752428
20
-178.2996662
11
181.3752428
21
-178.2996662
0
LINE
8
0
10
182.1752428
20
-177.4996662
11
182.1752428
21
-150.0996662
0
LINE
8
0
10
181.3752428
20
-149.2996662
11
180.9752428
21
-149.2996662
0
LINE
8
0
10
180.1752428
20
-150.0996662
11
180.1752428
21
-177.4996662
0
ARC
8
0
10
181.3752428
20
-177.4996662
40
0.8
50
270
51
0
0
ARC
8
0
10
181.3752428
20
-150.0996662
40
0.8
50
0
51
90
0
ARC
8
0
10
180.9752428
20
-150.0996662
40
0.8
50
90
51
180
0
ARC
8
0
10
180.9752428
20
-177.4996662
40
0.8
50
180
51
270
0
LINE
8
0
10
210.9752428
20
-178.2996662
11
211.3752428
21
-178.2996662
0
LINE
8
0
10
212.1752428
20
-177.4996662
11
212.1752428
21
-150.0996662
0
LINE
8
0
10
211.3752428
20
-149.2996662
11
210.9752428
21
-149.2996662
0
LINE
8
0
10
210.1752428
20
-150.0996662
11
210.1752428
21
-177.4996662
0
ARC
8
0
10
211.3752428
20
-177.4996662
40
0.8
50
270
51
0
0
ARC
8
0
10
211.3752428
20
-150.0996662
40
0.8
50
0
51
90
0
ARC
8
0
10
210.9752428
20
-150.0996662
40
0.8
50
90
51
180
0
ARC
8
0
10
210.9752428
20
-177.4996662
40
0.8
50
180
51
270
0
LINE
8
0
10
212.1752428
20
-188.6410696
11
212.1752428
21
-182.3996662
0
LINE
8
0
10
210.5752428
20
-180.7996662
11
181.7752428
21
-180.7996662
0
LINE
8
0
10
180.1752428
20
-182.3996662
11
180.1752428
21
-188.6410696
0
ARC
8
0
10
213.7752428
20
-188.6410696
40
1.6
50
180
51
270
0
ARC
8
0
10
210.5752428
20
-182.3996662
40
1.6
50
0
51
90
0
ARC
8
0
10
181.7752428
20
-182.3996662
40
1.6
50
90
51
180
0
ARC
8
0
10
178.5752428
20
-188.6410696
40
1.6
50
270
51
0
0
CIRCLE
8
0
10
185.6752428
20
-104.7996662
40
1.1
0
CIRCLE
8
0
10
206.6752428
20
-104.7996662
40
1.1
0
CIRCLE
8
0
10
185.6752428
20
-176.7996662
40
1.1
0
CIRCLE
8
0
10
206.6752428
20
-176.7996662
40
1.1
0
CIRCLE
8
0
10
173.7232828
20
-103.2458522
40
1.1
0
CIRCLE
8
0
10
175.9129728
20
-184.0499688
40
1.1
0
CIRCLE
8
0
10
96.8515372
20
-90.630595
40
1.1
0
CIRCLE
8
0
10
106.9059689
20
-141.8248173
40
1.1
0
CIRCLE
8
0
10
218.6272028
20
-103.2458522
40
1.1
0
CIRCLE
8
0
10
216.4375128
20
-184.0499688
40
1.1
0
CIRCLE
8
0
10
295.4989484
20
-90.630595
40
1.1
0
CIRCLE
8
0
10
285.4445167
20
-141.8248173
40
1.1
0
LINE
8
0
10
43.5416121
20
-135.1522402
11
60.2309215
21
-141.8951588
0
LINE
8
0
10
60.2309215
20
-141.8951588
11
66.9738401
21
-125.2058494
0
LINE
8
0
10
66.9738401
20
-125.2058494
11
50.2845307
21
-118.4629308
0
LINE
8
0
10
50.2845307
20
-118.4629308
11
43.5416121
21
-135.1522402
0
LINE
8
0
10
50.6591374
20
-117.535747
11
67.3484468
21
-124.2786656
0
LINE
8
0
10
67.3484468
20
-124.2786656
11
74.0913654
21
-107.5893562
0
LINE
8
0
10
74.0913654
20
-107.5893562
11
57.402056
21
-100.8464376
0
LINE
8
0
10
57.402056
20
-100.8464376
11
50.6591374
21
-117.535747
0
LINE
8
0
10
57.7766627
20
-99.9192537
11
74.4659721
21
-106.6621723
0
LINE
8
0
10
74.4659721
20
-106.6621723
11
81.2088907
21
-89.9728629
0
LINE
8
0
10
81.2088907
20
-89.9728629
11
64.5195813
21
-83.2299443
0
LINE
8
0
10
64.5195813
20
-83.2299443
11
57.7766627
21
-99.9192537
0
LINE
8
0
10
61.1581054
20
-142.2697655
11
77.8474148
21
-149.0126841
0
LINE
8
0
10
77.8474148
20
-149.0126841
11
84.5903334
21
-132.3233747
0
LINE
8
0
10
84.5903334
20
-132.3233747
11
67.901024
21
-125.5804561
0
LINE
8
0
10
67.901024
20
-125.5804561
11
61.1581054
21
-142.2697655
0
LINE
8
0
10
68.2756306
20
-124.6532722
11
84.96494
21
-131.3961908
0
LINE
8
0
10
84.96494
20
-131.3961908
11
91.7078586
21
-114.7068814
0
LINE
8
0
10
91.7078586
20
-114.7068814
11
75.0185492
21
-107.9639628
0
LINE
8
0
10
75.0185492
20
-107.9639628
11
68.2756306
21
-124.6532722
0
LINE
8
0
10
75.3931559
20
-107.036779
11
92.0824653
21
-113.7796976
0
LINE
8
0
10
92.0824653
20
-113.7796976
11
98.8253839
21
-97.0903882
0
LINE
8
0
10
98.8253839
20
-97.0903882
11
82.1360745
21
-90.3474696
0
LINE
8
0
10
82.1360745
20
-90.3474696
11
75.3931559
21
-107.036779
0
LINE
8
0
10
83.7568663
20
-137.0557455
11
100.4461757
21
-143.7986641
0
LINE
8
0
10
100.4461757
20
-143.7986641
11
107.1890943
21
-127.1093547
0
LINE
8
0
10
107.1890943
20
-127.1093547
11
90.4997849
21
-120.3664361
0
LINE
8
0
10
90.4997849
20
-120.3664361
11
83.7568663
21
-137.0557455
0
LINE
8
0
10
90.8743916
20
-119.4392522
11
107.563701
21
-126.1821708
0
LINE
8
0
10
107.563701
20
-126.1821708
11
114.3066196
21
-109.4928614
0
LINE
8
0
10
114.3066196
20
-109.4928614
11
97.6173102
21
-102.7499428
0
LINE
8
0
10
97.6173102
20
-102.7499428
11
90.8743916
21
-119.4392522
0
LINE
8
0
10
97.9919168
20
-101.822759
11
114.6812262
21
-108.5656776
0
LINE
8
0
10
114.6812262
20
-108.5656776
11
121.4241448
21
-91.8763682
0
LINE
8
0
10
121.4241448
20
-91.8763682
11
104.7348354
21
-85.1334496
0
LINE
8
0
10
104.7348354
20
-85.1334496
11
97.9919168
21
-101.822759
0
LINE
8
0
10
104.9321222
20
-135.3650241
11
121.6214316
21
-142.1079427
0
LINE
8
0
10
121.6214316
20
-142.1079427
11
128.3643502
21
-125.4186333
0
LINE
8
0
10
128.3643502
20
-125.4186333
11
111.6750408
21
-118.6757147
0
LINE
8
0
10
111.6750408
20
-118.6757147
11
104.9321222
21
-135.3650241
0
LINE
8
0
10
112.0496474
20
-117.7485309
11
128.7389568
21
-124.4914495
0
LINE
8
0
10
128.7389568
20
-124.4914495
11
135.4818754
21
-107.8021401
0
LINE
8
0
10
135.4818754
20
-107.8021401
11
118.792566
21
-101.0592215
0
LINE
8
0
10
118.792566
20
-101.0592215
11
112.0496474
21
-117.7485309
0
LINE
8
0
10
119.1671727
20
-100.1320377
11
135.8564821
21
-106.8749563
0
LINE
8
0
10
135.8564821
20
-106.8749563
11
142.5994007
21
-90.1856469
0
LINE
8
0
10
142.5994007
20
-90.1856469
11
125.9100913
21
-83.4427283
0
LINE
8
0
10
125.9100913
20
-83.4427283
11
119.1671727
21
-100.1320377
0
LINE
8
0
10
121.1251103
20
-146.0058481
11
137.8144197
21
-152.7487667
0
LINE
8
0
10
137.8144197
20
-152.7487667
11
144.5573383
21
-136.0594573
0
LINE
8
0
10
144.5573383
20
-136.0594573
11
127.8680289
21
-129.3165387
0
LINE
8
0
10
127.8680289
20
-129.3165387
11
121.1251103
21
-146.0058481
0
LINE
8
0
10
128.2426356
20
-128.3893548
11
144.931945
21
-135.1322734
0
LINE
8
0
10
144.931945
20
-135.1322734
11
151.6748636
21
-118.442964
0
LINE
8
0
10
151.6748636
20
-118.442964
11
134.9855542
21
-111.7000454
0
LINE
8
0
10
134.9855542
20
-111.7000454
11
128.2426356
21
-128.3893548
0
LINE
8
0
10
135.3601609
20
-110.7728616
11
152.0494703
21
-117.5157802
0
LINE
8
0
10
152.0494703
20
-117.5157802
11
158.7923889
21
-100.8264708
0
LINE
8
0
10
158.7923889
20
-100.8264708
11
142.1030795
21
-94.0835522
0
LINE
8
0
10
142.1030795
20
-94.0835522
11
135.3601609
21
-110.7728616
0
LINE
8
0
10
138.7416036
20
-153.1233733
11
155.430913
21
-159.8662919
0
LINE
8
0
10
155.430913
20
-159.8662919
11
162.1738316
21
-143.1769825
0
LINE
8
0
10
162.1738316
20
-143.1769825
11
145.4845222
21
-136.4340639
0
LINE
8
0
10
145.4845222
20
-136.4340639
11
138.7416036
21
-153.1233733
0
LINE
8
0
10
145.8591288
20
-135.5068801
11
162.5484382
21
-142.2497987
0
LINE
8
0
10
162.5484382
20
-142.2497987
11
169.2913568
21
-125.5604893
0
LINE
8
0
10
169.2913568
20
-125.5604893
11
152.6020474
21
-118.8175707
0
LINE
8
0
10
152.6020474
20
-118.8175707
11
145.8591288
21
-135.5068801
0
LINE
8
0
10
152.9766541
20
-117.8903869
11
169.6659635
21
-124.6333055
0
LINE
8
0
10
169.6659635
20
-124.6333055
11
176.4088821
21
-107.9439961
0
LINE
8
0
10
176.4088821
20
-107.9439961
11
159.7195727
21
-101.2010775
0
LINE
8
0
10
159.7195727
20
-101.2010775
11
152.9766541
21
-117.8903869
0
LINE
8
0
10
117.5308837
20
-165.0458464
11
134.2201931
21
-171.788765
0
LINE
8
0
10
134.2201931
20
-171.788765
11
140.9631117
21
-155.0994556
0
LINE
8
0
10
140.9631117
20
-155.0994556
11
124.2738023
21
-148.356537
0
LINE
8
0
10
124.2738023
20
-148.356537
11
117.5308837
21
-165.0458464
0
LINE
8
0
10
135.1473769
20
-172.1633716
11
151.8366863
21
-178.9062902
0
LINE
8
0
10
151.8366863
20
-178.9062902
11
158.5796049
21
-162.2169808
0
LINE
8
0
10
158.5796049
20
-162.2169808
11
141.8902955
21
-155.4740622
0
LINE
8
0
10
141.8902955
20
-155.4740622
11
135.1473769
21
-172.1633716
0
LINE
8
0
10
152.7638702
20
-179.2808969
11
169.4531796
21
-186.0238155
0
LINE
8
0
10
169.4531796
20
-186.0238155
11
176.1960982
21
-169.3345061
0
LINE
8
0
10
176.1960982
20
-169.3345061
11
159.5067888
21
-162.5915875
0
LINE
8
0
10
159.5067888
20
-162.5915875
11
152.7638702
21
-179.2808969
0
LINE
8
0
10
332.1195641
20
-141.8951588
11
348.8088735
21
-135.1522402
0
LINE
8
0
10
348.8088735
20
-135.1522402
11
342.0659549
21
-118.4629308
0
LINE
8
0
10
342.0659549
20
-118.4629308
11
325.3766455
21
-125.2058494
0
LINE
8
0
10
325.3766455
20
-125.2058494
11
332.1195641
21
-141.8951588
0
LINE
8
0
10
325.0020388
20
-124.2786656
11
341.6913482
21
-117.535747
0
LINE
8
0
10
341.6913482
20
-117.535747
11
334.9484296
21
-100.8464376
0
LINE
8
0
10
334.9484296
20
-100.8464376
11
318.2591202
21
-107.5893562
0
LINE
8
0
10
318.2591202
20
-107.5893562
11
325.0020388
21
-124.2786656
0
LINE
8
0
10
317.8845135
20
-106.6621723
11
334.5738229
21
-99.9192537
0
LINE
8
0
10
334.5738229
20
-99.9192537
11
327.8309043
21
-83.2299443
0
LINE
8
0
10
327.8309043
20
-83.2299443
11
311.1415949
21
-89.9728629
0
LINE
8
0
10
311.1415949
20
-89.9728629
11
317.8845135
21
-106.6621723
0
LINE
8
0
10
314.5030708
20
-149.0126841
11
331.1923802
21
-142.2697655
0
LINE
8
0
10
331.1923802
20
-142.2697655
11
324.4494616
21
-125.5804561
0
LINE
8
0
10
324.4494616
20
-125.5804561
11
307.7601522
21
-132.3233747
0
LINE
8
0
10
307.7601522
20
-132.3233747
11
314.5030708
21
-149.0126841
0
LINE
8
0
10
307.3855456
20
-131.3961908
11
324.074855
21
-124.6532722
0
LINE
8
0
10
324.074855
20
-124.6532722
11
317.3319364
21
-107.9639628
0
LINE
8
0
10
317.3319364
20
-107.9639628
11
300.642627
21
-114.7068814
0
LINE
8
0
10
300.642627
20
-114.7068814
11
307.3855456
21
-131.3961908
0
LINE
8
0
10
300.2680203
20
-113.7796976
11
316.9573297
21
-107.036779
0
LINE
8
0
10
316.9573297
20
-107.036779
11
310.2144111
21
-90.3474696
0
LINE
8
0
10
310.2144111
20
-90.3474696
11
293.5251017
21
-97.0903882
0
LINE
8
0
10
293.5251017
20
-97.0903882
11
300.2680203
21
-113.7796976
0
LINE
8
0
10
291.9043099
20
-143.7986641
11
308.5936193
21
-137.0557455
0
LINE
8
0
10
308.5936193
20
-137.0557455
11
301.8507007
21
-120.3664361
0
LINE
8
0
10
301.8507007
20
-120.3664361
11
285.1613913
21
-127.1093547
0
LINE
8
0
10
285.1613913
20
-127.1093547
11
291.9043099
21
-143.7986641
0
LINE
8
0
10
284.7867846
20
-126.1821708
11
301.476094
21
-119.4392522
0
LINE
8
0
10
301.476094
20
-119.4392522
11
294.7331754
21
-102.7499428
0
LINE
8
0
10
294.7331754
20
-102.7499428
11
278.043866
21
-109.4928614
0
LINE
8
0
10
278.043866
20
-109.4928614
11
284.7867846
21
-126.1821708
0
LINE
8
0
10
277.6692594
20
-108.5656776
11
294.3585688
21
-101.822759
0
LINE
8
0
10
294.3585688
20
-101.822759
11
287.6156502
21
-85.1334496
0
LINE
8
0
10
287.6156502
20
-85.1334496
11
270.9263408
21
-91.8763682
0
LINE
8
0
10
270.9263408
20
-91.8763682
11
277.6692594
21
-108.5656776
0
LINE
8
0
10
270.729054
20
-142.1079427
11
287.4183634
21
-135.3650241
0
LINE
8
0
10
287.4183634
20
-135.3650241
11
280.6754448
21
-118.6757147
0
LINE
8
0
10
280.6754448
20
-118.6757147
11
263.9861354
21
-125.4186333
0
LINE
8
0
10
263.9861354
20
-125.4186333
11
270.729054
21
-142.1079427
0
LINE
8
0
10
263.6115288
20
-124.4914495
11
280.3008382
21
-117.7485309
0
LINE
8
0
10
280.3008382
20
-117.7485309
11
273.5579196
21
-101.0592215
0
LINE
8
0
10
273.5579196
20
-101.0592215
11
256.8686102
21
-107.8021401
0
LINE
8
0
10
256.8686102
20
-107.8021401
11
263.6115288
21
-124.4914495
0
LINE
8
0
10
256.4940035
20
-106.8749563
11
273.1833129
21
-100.1320377
0
LINE
8
0
10
273.1833129
20
-100.1320377
11
266.4403943
21
-83.4427283
0
LINE
8
0
10
266.4403943
20
-83.4427283
11
249.7510849
21
-90.1856469
0
LINE
8
0
10
249.7510849
20
-90.1856469
11
256.4940035
21
-106.8749563
0
LINE
8
0
10
254.5360659
20
-152.7487667
11
271.2253753
21
-146.0058481
0
LINE
8
0
10
271.2253753
20
-146.0058481
11
264.4824567
21
-129.3165387
0
LINE
8
0
10
264.4824567
20
-129.3165387
11
247.7931473
21
-136.0594573
0
LINE
8
0
10
247.7931473
20
-136.0594573
11
254.5360659
21
-152.7487667
0
LINE
8
0
10
247.4185406
20
-135.1322734
11
264.10785
21
-128.3893548
0
LINE
8
0
10
264.10785
20
-128.3893548
11
257.3649314
21
-111.7000454
0
LINE
8
0
10
257.3649314
20
-111.7000454
11
240.675622
21
-118.442964
0
LINE
8
0
10
240.675622
20
-118.442964
11
247.4185406
21
-135.1322734
0
LINE
8
0
10
240.3010153
20
-117.5157802
11
256.9903247
21
-110.7728616
0
LINE
8
0
10
256.9903247
20
-110.7728616
11
250.2474061
21
-94.0835522
0
LINE
8
0
10
250.2474061
20
-94.0835522
11
233.5580967
21
-100.8264708
0
LINE
8
0
10
233.5580967
20
-100.8264708
11
240.3010153
21
-117.5157802
0
LINE
8
0
10
236.9195726
20
-159.8662919
11
253.608882
21
-153.1233733
0
LINE
8
0
10
253.608882
20
-153.1233733
11
246.8659634
21
-136.4340639
0
LINE
8
0
10
246.8659634
20
-136.4340639
11
230.176654
21
-143.1769825
0
LINE
8
0
10
230.176654
20
-143.1769825
11
236.9195726
21
-159.8662919
0
LINE
8
0
10
229.8020474
20
-142.2497987
11
246.4913568
21
-135.5068801
0
LINE
8
0
10
246.4913568
20
-135.5068801
11
239.7484382
21
-118.8175707
0
LINE
8
0
10
239.7484382
20
-118.8175707
11
223.0591288
21
-125.5604893
0
LINE
8
0
10
223.0591288
20
-125.5604893
11
229.8020474
21
-142.2497987
0
LINE
8
0
10
222.6845221
20
-124.6333055
11
239.3738315
21
-117.8903869
0
LINE
8
0
10
239.3738315
20
-117.8903869
11
232.6309129
21
-101.2010775
0
LINE
8
0
10
232.6309129
20
-101.2010775
11
215.9416035
21
-107.9439961
0
LINE
8
0
10
215.9416035
20
-107.9439961
11
222.6845221
21
-124.6333055
0
LINE
8
0
10
258.1302925
20
-171.788765
11
274.8196019
21
-165.0458464
0
LINE
8
0
10
274.8196019
20
-165.0458464
11
268.0766833
21
-148.356537
0
LINE
8
0
10
268.0766833
20
-148.356537
11
251.3873739
21
-155.0994556
0
LINE
8
0
10
251.3873739
20
-155.0994556
11
258.1302925
21
-171.788765
0
LINE
8
0
10
240.5137993
20
-178.9062902
11
257.2031087
21
-172.1633716
0
LINE
8
0
10
257.2031087
20
-172.1633716
11
250.4601901
21
-155.4740622
0
LINE
8
0
10
250.4601901
20
-155.4740622
11
233.7708807
21
-162.2169808
0
LINE
8
0
10
233.7708807
20
-162.2169808
11
240.5137993
21
-178.9062902
0
LINE
8
0
10
222.897306
20
-186.0238155
11
239.5866154
21
-179.2808969
0
LINE
8
0
10
239.5866154
20
-179.2808969
11
232.8436968
21
-162.5915875
0
LINE
8
0
10
232.8436968
20
-162.5915875
11
216.1543874
21
-169.3345061
0
LINE
8
0
10
216.1543874
20
-169.3345061
11
222.897306
21
-186.0238155
0
ENDSEC
0
EOF