0
SECTION
2
HEADER
9
$INSUNITS
70
4
0
ENDSEC
0
SECTION
2
TABLES
0
TABLE
2
LTYPE
0
LTYPE
72
65
70
64
2
CONTINUOUS
3
______
73
0
40
0
0
ENDTAB
0
TABLE
2
LAYER
0
ENDTAB
0
ENDSEC
0
SECTION
2
ENTITIES
0
LINE
8
0
10
44.0941893
20
-136.4540306
11
76.5456243
21
-149.5652614
0
LINE
8
0
10
42.9890348
20
-133.8504497
11
63.2177909
21
-83.7825215
0
LINE
8
0
10
65.8213718
20
-82.677367
11
97.3456228
21
-95.4139912
0
LINE
8
0
10
79.1492052
20
-148.4601069
11
82.6330465
21
-139.837297
0
LINE
8
0
10
85.2366273
20
-138.7321425
11
99.1443852
21
-144.3512414
0
LINE
8
0
10
101.7479661
20
-143.2460869
11
103.8083024
21
-138.1465756
0
LINE
8
0
10
119.9443838
20
-90.1999712
11
106.0366259
21
-84.5808723
0
LINE
8
0
10
103.433045
20
-85.6860268
11
99.9492037
21
-94.3088367
0
LINE
8
0
10
106.4118833
20
-137.0414211
11
119.3924572
21
-142.2859134
0
LINE
8
0
10
143.2268993
20
-91.3020006
11
143.9011912
21
-89.6330697
0
LINE
8
0
10
143.9011912
20
-89.6330697
11
127.2118818
21
-82.890151
0
LINE
8
0
10
124.6083009
20
-83.9953055
11
122.5479647
21
-89.0948167
0
LINE
8
0
10
119.8233198
20
-146.5584253
11
121.4922508
21
-147.2327172
0
LINE
8
0
10
120.4976117
20
-144.8894943
11
119.8233198
21
-146.5584253
0
LINE
8
0
10
144.3320539
20
-93.9055815
11
175.8563049
21
-106.6422057
0
LINE
8
0
10
157.10731
20
-158.3865309
11
176.9614594
21
-109.2457866
0
LINE
8
0
10
118.0834609
20
-166.3476368
11
168.1513891
21
-186.5763928
0
LINE
8
0
10
122.5974053
20
-149.8362981
11
116.9783064
21
-163.7440559
0
LINE
8
0
10
158.2124645
20
-160.9901117
11
175.643521
21
-168.0327157
0
LINE
8
0
10
170.75497
20
-185.4712383
11
176.7486755
21
-170.6362966
0
LINE
8
0
10
315.8048613
20
-149.5652614
11
348.2562963
21
-136.4540306
0
LINE
8
0
10
329.1326947
20
-83.7825215
11
349.3614508
21
-133.8504497
0
LINE
8
0
10
295.0048628
20
-95.4139912
11
326.5291138
21
-82.677367
0
LINE
8
0
10
309.7174391
20
-139.837297
11
313.2012804
21
-148.4601069
0
LINE
8
0
10
293.2061004
20
-144.3512414
11
307.1138583
21
-138.7321425
0
LINE
8
0
10
288.5421832
20
-138.1465756
11
290.6025195
21
-143.2460869
0
LINE
8
0
10
292.4012819
20
-94.3088367
11
288.9174406
21
-85.6860268
0
LINE
8
0
10
286.3138597
20
-84.5808723
11
272.4061018
21
-90.1999712
0
LINE
8
0
10
272.9580284
20
-142.2859134
11
285.9386023
21
-137.0414211
0
LINE
8
0
10
269.8025209
20
-89.0948167
11
267.7421847
21
-83.9953055
0
LINE
8
0
10
265.1386038
20
-82.890151
11
250.3036621
21
-88.8838565
0
LINE
8
0
10
249.1985076
20
-91.4874374
11
249.8727994
21
-93.1563683
0
LINE
8
0
10
270.8582348
20
-147.2327172
11
272.5271658
21
-146.5584253
0
LINE
8
0
10
272.5271658
20
-146.5584253
11
271.8528739
21
-144.8894943
0
LINE
8
0
10
216.4941807
20
-106.6422057
11
249.8727994
21
-93.1563683
0
LINE
8
0
10
215.3890262
20
-109.2457866
11
235.2431756
21
-158.3865309
0
LINE
8
0
10
224.1990965
20
-186.5763928
11
274.2670247
21
-166.3476368
0
LINE
8
0
10
275.3721792
20
-163.7440559
11
269.7530803
21
-149.8362981
0
LINE
8
0
10
216.7069646
20
-168.0327157
11
234.1380211
21
-160.9901117
0
LINE
8
0
10
215.6018101
20
-170.6362966
11
221.5955156
21
-185.4712383
0
ARC
8
0
10
347.5070831
20
-134.5996629
40
2
50
291.9999994
51
21.9999994
0
ARC
8
0
10
327.278327
20
-84.5317347
40
2
50
21.9999994
51
111.9999994
0
ARC
8
0
10
294.2556496
20
-93.5596235
40
2
50
201.9999994
51
291.9999994
0
ARC
8
0
10
287.0630729
20
-86.43524
40
2
50
21.9999994
51
111.9999994
0
ARC
8
0
10
271.6568887
20
-88.3456035
40
2
50
201.9999994
51
291.9999994
0
ARC
8
0
10
265.887817
20
-84.7445187
40
2
50
21.9999994
51
111.9999994
0
ARC
8
0
10
251.0528753
20
-90.7382242
40
2
50
111.9999994
51
201.9999994
0
ARC
8
0
10
217.2433939
20
-108.4965734
40
2
50
111.9999994
51
201.9999994
0
ARC
8
0
10
233.3888079
20
-159.135744
40
2
50
291.9999994
51
21.9999994
0
ARC
8
0
10
217.4561778
20
-169.8870834
40
2
50
111.9999994
51
201.9999994
0
ARC
8
0
10
223.4498833
20
-184.7220251
40
2
50
201.9999994
51
291.9999994
0
ARC
8
0
10
273.5178115
20
-164.4932691
40
2
50
291.9999994
51
21.9999994
0
ARC
8
0
10
271.607448
20
-149.0870849
40
2
50
111.9999994
51
201.9999994
0
ARC
8
0
10
273.7072416
20
-144.1402811
40
2
50
111.9999994
51
201.9999994
0
ARC
8
0
10
286.6878155
20
-138.8957888
40
2
50
21.9999994
51
111.9999994
0
ARC
8
0
10
292.4568872
20
-142.4968737
40
2
50
201.9999994
51
291.9999994
0
ARC
8
0
10
307.8630714
20
-140.5865102
40
2
50
21.9999994
51
111.9999994
0
ARC
8
0
10
315.0556481
20
-147.7108937
40
2
50
201.9999994
51
291.9999994
0
ARC
8
0
10
77.2948375
20
-147.7108937
40
2
50
248.0000006
51
338.0000006
0
ARC
8
0
10
84.4874142
20
-140.5865102
40
2
50
68.0000006
51
158.0000006
0
ARC
8
0
10
99.8935984
20
-142.4968737
40
2
50
248.0000006
51
338.0000006
0
ARC
8
0
10
105.6626701
20
-138.8957888
40
2
50
68.0000006
51
158.0000006
0
ARC
8
0
10
118.643244
20
-144.1402811
40
2
50
338.0000006
51
68.0000006
0
ARC
8
0
10
120.7430376
20
-149.0870849
40
2
50
338.0000006
51
68.0000006
0
ARC
8
0
10
118.8326741
20
-164.4932691
40
2
50
158.0000006
51
248.0000006
0
ARC
8
0
10
168.9006023
20
-184.7220251
40
2
50
248.0000006
51
338.0000006
0
ARC
8
0
10
174.8943078
20
-169.8870834
40
2
50
338.0000006
51
68.0000006
0
ARC
8
0
10
158.9616777
20
-159.135744
40
2
50
158.0000006
51
248.0000006
0
ARC
8
0
10
175.1070917
20
-108.4965734
40
2
50
338.0000006
51
68.0000006
0
ARC
8
0
10
145.0812671
20
-92.0512138
40
2
50
158.0000006
51
248.0000006
0
ARC
8
0
10
126.4626686
20
-84.7445187
40
2
50
68.0000006
51
158.0000006
0
ARC
8
0
10
120.6935969
20
-88.3456035
40
2
50
248.0000006
51
338.0000006
0
ARC
8
0
10
105.2874127
20
-86.43524
40
2
50
68.0000006
51
158.0000006
0
ARC
8
0
10
98.094836
20
-93.5596235
40
2
50
248.0000006
51
338.0000006
0
ARC
8
0
10
65.0721586
20
-84.5317347
40
2
50
68.0000006
51
158.0000006
0
ARC
8
0
10
44.8434025
20
-134.5996629
40
2
50
158.0000006
51
248.0000006
0
LINE
8
0
10
46.145193
20
-134.0470856
11
59.1257669
21
-139.2915779
0
LINE
8
0
10
59.1257669
20
-139.2915779
11
64.3702592
21
-126.311004
0
LINE
8
0
10
64.3702592
20
-126.311004
11
51.3896853
21
-121.0665117
0
LINE
8
0
10
51.3896853
20
-121.0665117
11
46.145193
21
-134.0470856
0
LINE
8
0
10
53.2627183
20
-116.4305924
11
66.2432922
21
-121.6750847
0
LINE
8
0
10
66.2432922
20
-121.6750847
11
71.4877845
21
-108.6945108
0
LINE
8
0
10
71.4877845
20
-108.6945108
11
58.5072106
21
-103.4500185
0
LINE
8
0
10
58.5072106
20
-103.4500185
11
53.2627183
21
-116.4305924
0
LINE
8
0
10
60.3802436
20
-98.8140991
11
73.3608175
21
-104.0585914
0
LINE
8
0
10
73.3608175
20
-104.0585914
11
78.6053098
21
-91.0780175
0
LINE
8
0
10
78.6053098
20
-91.0780175
11
65.6247359
21
-85.8335252
0
LINE
8
0
10
65.6247359
20
-85.8335252
11
60.3802436
21
-98.8140991
0
LINE
8
0
10
63.7616863
20
-141.1646109
11
76.7422602
21
-146.4091032
0
LINE
8
0
10
76.7422602
20
-146.4091032
11
81.9867525
21
-133.4285293
0
LINE
8
0
10
81.9867525
20
-133.4285293
11
69.0061786
21
-128.184037
0
LINE
8
0
10
69.0061786
20
-128.184037
11
63.7616863
21
-141.1646109
0
LINE
8
0
10
70.8792115
20
-123.5481176
11
83.8597854
21
-128.7926099
0
LINE
8
0
10
83.8597854
20
-128.7926099
11
89.1042777
21
-115.812036
0
LINE
8
0
10
89.1042777
20
-115.812036
11
76.1237038
21
-110.5675437
0
LINE
8
0
10
76.1237038
20
-110.5675437
11
70.8792115
21
-123.5481176
0
LINE
8
0
10
77.9967368
20
-105.9316244
11
90.9773107
21
-111.1761167
0
LINE
8
0
10
90.9773107
20
-111.1761167
11
96.221803
21
-98.1955428
0
LINE
8
0
10
96.221803
20
-98.1955428
11
83.2412291
21
-92.9510505
0
LINE
8
0
10
83.2412291
20
-92.9510505
11
77.9967368
21
-105.9316244
0
LINE
8
0
10
86.3604472
20
-135.9505909
11
99.3410211
21
-141.1950832
0
LINE
8
0
10
99.3410211
20
-141.1950832
11
104.5855134
21
-128.2145093
0
LINE
8
0
10
104.5855134
20
-128.2145093
11
91.6049395
21
-122.970017
0
LINE
8
0
10
91.6049395
20
-122.970017
11
86.3604472
21
-135.9505909
0
LINE
8
0
10
93.4779725
20
-118.3340976
11
106.4585464
21
-123.5785899
0
LINE
8
0
10
106.4585464
20
-123.5785899
11
111.7030387
21
-110.598016
0
LINE
8
0
10
111.7030387
20
-110.598016
11
98.7224648
21
-105.3535237
0
LINE
8
0
10
98.7224648
20
-105.3535237
11
93.4779725
21
-118.3340976
0
LINE
8
0
10
100.5954977
20
-100.7176044
11
113.5760716
21
-105.9620967
0
LINE
8
0
10
113.5760716
20
-105.9620967
11
118.8205639
21
-92.9815228
0
LINE
8
0
10
118.8205639
20
-92.9815228
11
105.83999
21
-87.7370305
0
LINE
8
0
10
105.83999
20
-87.7370305
11
100.5954977
21
-100.7176044
0
LINE
8
0
10
107.5357031
20
-134.2598695
11
120.516277
21
-139.5043618
0
LINE
8
0
10
120.516277
20
-139.5043618
11
125.7607693
21
-126.5237879
0
LINE
8
0
10
125.7607693
20
-126.5237879
11
112.7801954
21
-121.2792956
0
LINE
8
0
10
112.7801954
20
-121.2792956
11
107.5357031
21
-134.2598695
0
LINE
8
0
10
114.6532283
20
-116.6433763
11
127.6338022
21
-121.8878686
0
LINE
8
0
10
127.6338022
20
-121.8878686
11
132.8782945
21
-108.9072947
0
LINE
8
0
10
132.8782945
20
-108.9072947
11
119.8977206
21
-103.6628024
0
LINE
8
0
10
119.8977206
20
-103.6628024
11
114.6532283
21
-116.6433763
0
LINE
8
0
10
121.7707536
20
-99.0268831
11
134.7513275
21
-104.2713754
0
LINE
8
0
10
134.7513275
20
-104.2713754
11
139.9958198
21
-91.2908015
0
LINE
8
0
10
139.9958198
20
-91.2908015
11
127.0152459
21
-86.0463092
0
LINE
8
0
10
127.0152459
20
-86.0463092
11
121.7707536
21
-99.0268831
0
LINE
8
0
10
123.7286912
20
-144.9006935
11
136.7092651
21
-150.1451858
0
LINE
8
0
10
136.7092651
20
-150.1451858
11
141.9537574
21
-137.1646119
0
LINE
8
0
10
141.9537574
20
-137.1646119
11
128.9731835
21
-131.9201196
0
LINE
8
0
10
128.9731835
20
-131.9201196
11
123.7286912
21
-144.9006935
0
LINE
8
0
10
130.8462165
20
-127.2842002
11
143.8267904
21
-132.5286925
0
LINE
8
0
10
143.8267904
20
-132.5286925
11
149.0712827
21
-119.5481186
0
LINE
8
0
10
149.0712827
20
-119.5481186
11
136.0907088
21
-114.3036263
0
LINE
8
0
10
136.0907088
20
-114.3036263
11
130.8462165
21
-127.2842002
0
LINE
8
0
10
137.9637418
20
-109.667707
11
150.9443157
21
-114.9121993
0
LINE
8
0
10
150.9443157
20
-114.9121993
11
156.188808
21
-101.9316254
0
LINE
8
0
10
156.188808
20
-101.9316254
11
143.2082341
21
-96.6871331
0
LINE
8
0
10
143.2082341
20
-96.6871331
11
137.9637418
21
-109.667707
0
LINE
8
0
10
141.3451845
20
-152.0182187
11
154.3257584
21
-157.262711
0
LINE
8
0
10
154.3257584
20
-157.262711
11
159.5702507
21
-144.2821371
0
LINE
8
0
10
159.5702507
20
-144.2821371
11
146.5896768
21
-139.0376448
0
LINE
8
0
10
146.5896768
20
-139.0376448
11
141.3451845
21
-152.0182187
0
LINE
8
0
10
148.4627097
20
-134.4017255
11
161.4432836
21
-139.6462178
0
LINE
8
0
10
161.4432836
20
-139.6462178
11
166.6877759
21
-126.6656439
0
LINE
8
0
10
166.6877759
20
-126.6656439
11
153.707202
21
-121.4211516
0
LINE
8
0
10
153.707202
20
-121.4211516
11
148.4627097
21
-134.4017255
0
LINE
8
0
10
155.580235
20
-116.7852323
11
168.5608089
21
-122.0297246
0
LINE
8
0
10
168.5608089
20
-122.0297246
11
173.8053012
21
-109.0491507
0
LINE
8
0
10
173.8053012
20
-109.0491507
11
160.8247273
21
-103.8046584
0
LINE
8
0
10
160.8247273
20
-103.8046584
11
155.580235
21
-116.7852323
0
LINE
8
0
10
120.1344646
20
-163.9406918
11
133.1150385
21
-169.1851841
0
LINE
8
0
10
133.1150385
20
-169.1851841
11
138.3595308
21
-156.2046102
0
LINE
8
0
10
138.3595308
20
-156.2046102
11
125.3789569
21
-150.9601179
0
LINE
8
0
10
125.3789569
20
-150.9601179
11
120.1344646
21
-163.9406918
0
LINE
8
0
10
137.7509578
20
-171.058217
11
150.7315317
21
-176.3027093
0
LINE
8
0
10
150.7315317
20
-176.3027093
11
155.976024
21
-163.3221354
0
LINE
8
0
10
155.976024
20
-163.3221354
11
142.9954501
21
-158.0776431
0
LINE
8
0
10
142.9954501
20
-158.0776431
11
137.7509578
21
-171.058217
0
LINE
8
0
10
155.3674511
20
-178.1757423
11
168.348025
21
-183.4202346
0
LINE
8
0
10
168.348025
20
-183.4202346
11
173.5925173
21
-170.4396607
0
LINE
8
0
10
173.5925173
20
-170.4396607
11
160.6119434
21
-165.1951684
0
LINE
8
0
10
160.6119434
20
-165.1951684
11
155.3674511
21
-178.1757423
0
LINE
8
0
10
333.2247187
20
-139.2915779
11
346.2052926
21
-134.0470856
0
LINE
8
0
10
346.2052926
20
-134.0470856
11
340.9608003
21
-121.0665117
0
LINE
8
0
10
340.9608003
20
-121.0665117
11
327.9802264
21
-126.311004
0
LINE
8
0
10
327.9802264
20
-126.311004
11
333.2247187
21
-139.2915779
0
LINE
8
0
10
326.1071934
20
-121.6750847
11
339.0877673
21
-116.4305924
0
LINE
8
0
10
339.0877673
20
-116.4305924
11
333.843275
21
-103.4500185
0
LINE
8
0
10
333.843275
20
-103.4500185
11
320.8627011
21
-108.6945108
0
LINE
8
0
10
320.8627011
20
-108.6945108
11
326.1071934
21
-121.6750847
0
LINE
8
0
10
318.9896681
20
-104.0585914
11
331.970242
21
-98.8140991
0
LINE
8
0
10
331.970242
20
-98.8140991
11
326.7257497
21
-85.8335252
0
LINE
8
0
10
326.7257497
20
-85.8335252
11
313.7451758
21
-91.0780175
0
LINE
8
0
10
313.7451758
20
-91.0780175
11
318.9896681
21
-104.0585914
0
LINE
8
0
10
315.6082254
20
-146.4091032
11
328.5887993
21
-141.1646109
0
LINE
8
0
10
328.5887993
20
-141.1646109
11
323.344307
21
-128.184037
0
LINE
8
0
10
323.344307
20
-128.184037
11
310.3637331
21
-133.4285293
0
LINE
8
0
10
310.3637331
20
-133.4285293
11
315.6082254
21
-146.4091032
0
LINE
8
0
10
308.4907002
20
-128.7926099
11
321.4712741
21
-123.5481176
0
LINE
8
0
10
321.4712741
20
-123.5481176
11
316.2267818
21
-110.5675437
0
LINE
8
0
10
316.2267818
20
-110.5675437
11
303.2462079
21
-115.812036
0
LINE
8
0
10
303.2462079
20
-115.812036
11
308.4907002
21
-128.7926099
0
LINE
8
0
10
301.3731749
20
-111.1761167
11
314.3537488
21
-105.9316244
0
LINE
8
0
10
314.3537488
20
-105.9316244
11
309.1092565
21
-92.9510505
0
LINE
8
0
10
309.1092565
20
-92.9510505
11
296.1286826
21
-98.1955428
0
LINE
8
0
10
296.1286826
20
-98.1955428
11
301.3731749
21
-111.1761167
0
LINE
8
0
10
293.0094645
20
-141.1950832
11
305.9900384
21
-135.9505909
0
LINE
8
0
10
305.9900384
20
-135.9505909
11
300.7455461
21
-122.970017
0
LINE
8
0
10
300.7455461
20
-122.970017
11
287.7649722
21
-128.2145093
0
LINE
8
0
10
287.7649722
20
-128.2145093
11
293.0094645
21
-141.1950832
0
LINE
8
0
10
285.8919392
20
-123.5785899
11
298.8725131
21
-118.3340976
0
LINE
8
0
10
298.8725131
20
-118.3340976
11
293.6280208
21
-105.3535237
0
LINE
8
0
10
293.6280208
20
-105.3535237
11
280.6474469
21
-110.598016
0
LINE
8
0
10
280.6474469
20
-110.598016
11
285.8919392
21
-123.5785899
0
LINE
8
0
10
278.774414
20
-105.9620967
11
291.7549879
21
-100.7176044
0
LINE
8
0
10
291.7549879
20
-100.7176044
11
286.5104956
21
-87.7370305
0
LINE
8
0
10
286.5104956
20
-87.7370305
11
273.5299217
21
-92.9815228
0
LINE
8
0
10
273.5299217
20
-92.9815228
11
278.774414
21
-105.9620967
0
LINE
8
0
10
271.8342086
20
-139.5043618
11
284.8147825
21
-134.2598695
0
LINE
8
0
10
284.8147825
20
-134.2598695
11
279.5702902
21
-121.2792956
0
LINE
8
0
10
279.5702902
20
-121.2792956
11
266.5897163
21
-126.5237879
0
LINE
8
0
10
266.5897163
20
-126.5237879
11
271.8342086
21
-139.5043618
0
LINE
8
0
10
264.7166834
20
-121.8878686
11
277.6972573
21
-116.6433763
0
LINE
8
0
10
277.6972573
20
-116.6433763
11
272.452765
21
-103.6628024
0
LINE
8
0
10
272.452765
20
-103.6628024
11
259.4721911
21
-108.9072947
0
LINE
8
0
10
259.4721911
20
-108.9072947
11
264.7166834
21
-121.8878686
0
LINE
8
0
10
257.5991581
20
-104.2713754
11
270.579732
21
-99.0268831
0
LINE
8
0
10
270.579732
20
-99.0268831
11
265.3352397
21
-86.0463092
0
LINE
8
0
10
265.3352397
20
-86.0463092
11
252.3546658
21
-91.2908015
0
LINE
8
0
10
252.3546658
20
-91.2908015
11
257.5991581
21
-104.2713754
0
LINE
8
0
10
255.6412205
20
-150.1451858
11
268.6217944
21
-144.9006935
0
LINE
8
0
10
268.6217944
20
-144.9006935
11
263.3773021
21
-131.9201196
0
LINE
8
0
10
263.3773021
20
-131.9201196
11
250.3967282
21
-137.1646119
0
LINE
8
0
10
250.3967282
20
-137.1646119
11
255.6412205
21
-150.1451858
0
LINE
8
0
10
248.5236952
20
-132.5286925
11
261.5042691
21
-127.2842002
0
LINE
8
0
10
261.5042691
20
-127.2842002
11
256.2597768
21
-114.3036263
0
LINE
8
0
10
256.2597768
20
-114.3036263
11
243.2792029
21
-119.5481186
0
LINE
8
0
10
243.2792029
20
-119.5481186
11
248.5236952
21
-132.5286925
0
LINE
8
0
10
241.4061699
20
-114.9121993
11
254.3867438
21
-109.667707
0
LINE
8
0
10
254.3867438
20
-109.667707
11
249.1422515
21
-96.6871331
0
LINE
8
0
10
249.1422515
20
-96.6871331
11
236.1616776
21
-101.9316254
0
LINE
8
0
10
236.1616776
20
-101.9316254
11
241.4061699
21
-114.9121993
0
LINE
8
0
10
238.0247272
20
-157.262711
11
251.0053011
21
-152.0182187
0
LINE
8
0
10
251.0053011
20
-152.0182187
11
245.7608088
21
-139.0376448
0
LINE
8
0
10
245.7608088
20
-139.0376448
11
232.7802349
21
-144.2821371
0
LINE
8
0
10
232.7802349
20
-144.2821371
11
238.0247272
21
-157.262711
0
LINE
8
0
10
230.907202
20
-139.6462178
11
243.8877759
21
-134.4017255
0
LINE
8
0
10
243.8877759
20
-134.4017255
11
238.6432836
21
-121.4211516
0
LINE
8
0
10
238.6432836
20
-121.4211516
11
225.6627097
21
-126.6656439
0
LINE
8
0
10
225.6627097
20
-126.6656439
11
230.907202
21
-139.6462178
0
LINE
8
0
10
223.7896767
20
-122.0297246
11
236.7702506
21
-116.7852323
0
LINE
8
0
10
236.7702506
20
-116.7852323
11
231.5257583
21
-103.8046584
0
LINE
8
0
10
231.5257583
20
-103.8046584
11
218.5451844
21
-109.0491507
0
LINE
8
0
10
218.5451844
20
-109.0491507
11
223.7896767
21
-122.0297246
0
LINE
8
0
10
259.2354471
20
-169.1851841
11
272.216021
21
-163.9406918
0
LINE
8
0
10
272.216021
20
-163.9406918
11
266.9715287
21
-150.9601179
0
LINE
8
0
10
266.9715287
20
-150.9601179
11
253.9909548
21
-156.2046102
0
LINE
8
0
10
253.9909548
20
-156.2046102
11
259.2354471
21
-169.1851841
0
LINE
8
0
10
241.6189539
20
-176.3027093
11
254.5995278
21
-171.058217
0
LINE
8
0
10
254.5995278
20
-171.058217
11
249.3550355
21
-158.0776431
0
LINE
8
0
10
249.3550355
20
-158.0776431
11
236.3744616
21
-163.3221354
0
LINE
8
0
10
236.3744616
20
-163.3221354
11
241.6189539
21
-176.3027093
0
LINE
8
0
10
224.0024606
20
-183.4202346
11
236.9830345
21
-178.1757423
0
LINE
8
0
10
236.9830345
20
-178.1757423
11
231.7385422
21
-165.1951684
0
LINE
8
0
10
231.7385422
20
-165.1951684
11
218.7579683
21
-170.4396607
0
LINE
8
0
10
218.7579683
20
-170.4396607
11
224.0024606
21
-183.4202346
0
ENDSEC
0
EOF