0
SECTION
2
HEADER
9
$INSUNITS
70
4
0
ENDSEC
0
SECTION
2
TABLES
0
TABLE
2
LTYPE
0
LTYPE
72
65
70
64
2
CONTINUOUS
3
______
73
0
40
0
0
ENDTAB
0
TABLE
2
LAYER
0
ENDTAB
0
ENDSEC
0
SECTION
2
ENTITIES
0
LINE
8
0
10
44.0941893
20
-136.4540306
11
76.5456243
21
-149.5652614
0
LINE
8
0
10
42.9890348
20
-133.8504497
11
63.2177909
21
-83.7825215
0
LINE
8
0
10
65.8213718
20
-82.677367
11
97.3456228
21
-95.4139912
0
LINE
8
0
10
79.1492052
20
-148.4601069
11
82.6330465
21
-139.837297
0
LINE
8
0
10
85.2366273
20
-138.7321425
11
99.1443852
21
-144.3512414
0
LINE
8
0
10
101.7479661
20
-143.2460869
11
103.8083024
21
-138.1465756
0
LINE
8
0
10
119.9443838
20
-90.1999712
11
106.0366259
21
-84.5808723
0
LINE
8
0
10
103.433045
20
-85.6860268
11
99.9492037
21
-94.3088367
0
LINE
8
0
10
106.4118833
20
-137.0414211
11
119.3924572
21
-142.2859134
0
LINE
8
0
10
143.2268993
20
-91.3020006
11
143.9011912
21
-89.6330697
0
LINE
8
0
10
143.9011912
20
-89.6330697
11
127.2118818
21
-82.890151
0
LINE
8
0
10
124.6083009
20
-83.9953055
11
122.5479647
21
-89.0948167
0
LINE
8
0
10
119.8233198
20
-146.5584253
11
121.4922508
21
-147.2327172
0
LINE
8
0
10
120.4976117
20
-144.8894943
11
119.8233198
21
-146.5584253
0
LINE
8
0
10
144.3320539
20
-93.9055815
11
175.8563049
21
-106.6422057
0
LINE
8
0
10
157.10731
20
-158.3865309
11
176.9614594
21
-109.2457866
0
LINE
8
0
10
118.0834609
20
-166.3476368
11
168.1513891
21
-186.5763928
0
LINE
8
0
10
122.5974053
20
-149.8362981
11
116.9783064
21
-163.7440559
0
LINE
8
0
10
158.2124645
20
-160.9901117
11
175.643521
21
-168.0327157
0
LINE
8
0
10
170.75497
20
-185.4712383
11
176.7486755
21
-170.6362966
0
LINE
8
0
10
315.8048613
20
-149.5652614
11
348.2562963
21
-136.4540306
0
LINE
8
0
10
329.1326947
20
-83.7825215
11
349.3614508
21
-133.8504497
0
LINE
8
0
10
295.0048628
20
-95.4139912
11
326.5291138
21
-82.677367
0
LINE
8
0
10
309.7174391
20
-139.837297
11
313.2012804
21
-148.4601069
0
LINE
8
0
10
293.2061004
20
-144.3512414
11
307.1138583
21
-138.7321425
0
LINE
8
0
10
288.5421832
20
-138.1465756
11
290.6025195
21
-143.2460869
0
LINE
8
0
10
292.4012819
20
-94.3088367
11
288.9174406
21
-85.6860268
0
LINE
8
0
10
286.3138597
20
-84.5808723
11
272.4061018
21
-90.1999712
0
LINE
8
0
10
272.9580284
20
-142.2859134
11
285.9386023
21
-137.0414211
0
LINE
8
0
10
269.8025209
20
-89.0948167
11
267.7421847
21
-83.9953055
0
LINE
8
0
10
265.1386038
20
-82.890151
11
250.3036621
21
-88.8838565
0
LINE
8
0
10
249.1985076
20
-91.4874374
11
249.8727994
21
-93.1563683
0
LINE
8
0
10
270.8582348
20
-147.2327172
11
272.5271658
21
-146.5584253
0
LINE
8
0
10
272.5271658
20
-146.5584253
11
271.8528739
21
-144.8894943
0
LINE
8
0
10
216.4941807
20
-106.6422057
11
249.8727994
21
-93.1563683
0
LINE
8
0
10
215.3890262
20
-109.2457866
11
235.2431756
21
-158.3865309
0
LINE
8
0
10
224.1990965
20
-186.5763928
11
274.2670247
21
-166.3476368
0
LINE
8
0
10
275.3721792
20
-163.7440559
11
269.7530803
21
-149.8362981
0
LINE
8
0
10
216.7069646
20
-168.0327157
11
234.1380211
21
-160.9901117
0
LINE
8
0
10
215.6018101
20
-170.6362966
11
221.5955156
21
-185.4712383
0
ARC
8
0
10
347.5070831
20
-134.5996629
40
2
50
291.9999994
51
21.9999994
0
ARC
8
0
10
327.278327
20
-84.5317347
40
2
50
21.9999994
51
111.9999994
0
ARC
8
0
10
294.2556496
20
-93.5596235
40
2
50
201.9999994
51
291.9999994
0
ARC
8
0
10
287.0630729
20
-86.43524
40
2
50
21.9999994
51
111.9999994
0
ARC
8
0
10
271.6568887
20
-88.3456035
40
2
50
201.9999994
51
291.9999994
0
ARC
8
0
10
265.887817
20
-84.7445187
40
2
50
21.9999994
51
111.9999994
0
ARC
8
0
10
251.0528753
20
-90.7382242
40
2
50
111.9999994
51
201.9999994
0
ARC
8
0
10
217.2433939
20
-108.4965734
40
2
50
111.9999994
51
201.9999994
0
ARC
8
0
10
233.3888079
20
-159.135744
40
2
50
291.9999994
51
21.9999994
0
ARC
8
0
10
217.4561778
20
-169.8870834
40
2
50
111.9999994
51
201.9999994
0
ARC
8
0
10
223.4498833
20
-184.7220251
40
2
50
201.9999994
51
291.9999994
0
ARC
8
0
10
273.5178115
20
-164.4932691
40
2
50
291.9999994
51
21.9999994
0
ARC
8
0
10
271.607448
20
-149.0870849
40
2
50
111.9999994
51
201.9999994
0
ARC
8
0
10
273.7072416
20
-144.1402811
40
2
50
111.9999994
51
201.9999994
0
ARC
8
0
10
286.6878155
20
-138.8957888
40
2
50
21.9999994
51
111.9999994
0
ARC
8
0
10
292.4568872
20
-142.4968737
40
2
50
201.9999994
51
291.9999994
0
ARC
8
0
10
307.8630714
20
-140.5865102
40
2
50
21.9999994
51
111.9999994
0
ARC
8
0
10
315.0556481
20
-147.7108937
40
2
50
201.9999994
51
291.9999994
0
ARC
8
0
10
77.2948375
20
-147.7108937
40
2
50
248.0000006
51
338.0000006
0
ARC
8
0
10
84.4874142
20
-140.5865102
40
2
50
68.0000006
51
158.0000006
0
ARC
8
0
10
99.8935984
20
-142.4968737
40
2
50
248.0000006
51
338.0000006
0
ARC
8
0
10
105.6626701
20
-138.8957888
40
2
50
68.0000006
51
158.0000006
0
ARC
8
0
10
118.643244
20
-144.1402811
40
2
50
338.0000006
51
68.0000006
0
ARC
8
0
10
120.7430376
20
-149.0870849
40
2
50
338.0000006
51
68.0000006
0
ARC
8
0
10
118.8326741
20
-164.4932691
40
2
50
158.0000006
51
248.0000006
0
ARC
8
0
10
168.9006023
20
-184.7220251
40
2
50
248.0000006
51
338.0000006
0
ARC
8
0
10
174.8943078
20
-169.8870834
40
2
50
338.0000006
51
68.0000006
0
ARC
8
0
10
158.9616777
20
-159.135744
40
2
50
158.0000006
51
248.0000006
0
ARC
8
0
10
175.1070917
20
-108.4965734
40
2
50
338.0000006
51
68.0000006
0
ARC
8
0
10
145.0812671
20
-92.0512138
40
2
50
158.0000006
51
248.0000006
0
ARC
8
0
10
126.4626686
20
-84.7445187
40
2
50
68.0000006
51
158.0000006
0
ARC
8
0
10
120.6935969
20
-88.3456035
40
2
50
248.0000006
51
338.0000006
0
ARC
8
0
10
105.2874127
20
-86.43524
40
2
50
68.0000006
51
158.0000006
0
ARC
8
0
10
98.094836
20
-93.5596235
40
2
50
248.0000006
51
338.0000006
0
ARC
8
0
10
65.0721586
20
-84.5317347
40
2
50
68.0000006
51
158.0000006
0
ARC
8
0
10
44.8434025
20
-134.5996629
40
2
50
158.0000006
51
248.0000006
0
LINE
8
0
10
46.0801034
20
-134.0747145
11
59.1533958
21
-139.3566675
0
LINE
8
0
10
59.1533958
20
-139.3566675
11
64.4353488
21
-126.2833751
0
LINE
8
0
10
64.4353488
20
-126.2833751
11
51.3620564
21
-121.0014221
0
LINE
8
0
10
51.3620564
20
-121.0014221
11
46.0801034
21
-134.0747145
0
LINE
8
0
10
53.1976287
20
-116.4582213
11
66.2709211
21
-121.7401743
0
LINE
8
0
10
66.2709211
20
-121.7401743
11
71.5528741
21
-108.6668819
0
LINE
8
0
10
71.5528741
20
-108.6668819
11
58.4795817
21
-103.3849289
0
LINE
8
0
10
58.4795817
20
-103.3849289
11
53.1976287
21
-116.4582213
0
LINE
8
0
10
60.315154
20
-98.841728
11
73.3884464
21
-104.123681
0
LINE
8
0
10
73.3884464
20
-104.123681
11
78.6703994
21
-91.0503886
0
LINE
8
0
10
78.6703994
20
-91.0503886
11
65.597107
21
-85.7684356
0
LINE
8
0
10
65.597107
20
-85.7684356
11
60.315154
21
-98.841728
0
LINE
8
0
10
63.6965967
20
-141.1922398
11
76.7698891
21
-146.4741928
0
LINE
8
0
10
76.7698891
20
-146.4741928
11
82.0518421
21
-133.4009004
0
LINE
8
0
10
82.0518421
20
-133.4009004
11
68.9785497
21
-128.1189474
0
LINE
8
0
10
68.9785497
20
-128.1189474
11
63.6965967
21
-141.1922398
0
LINE
8
0
10
70.8141219
20
-123.5757465
11
83.8874143
21
-128.8576995
0
LINE
8
0
10
83.8874143
20
-128.8576995
11
89.1693673
21
-115.7844071
0
LINE
8
0
10
89.1693673
20
-115.7844071
11
76.0960749
21
-110.5024541
0
LINE
8
0
10
76.0960749
20
-110.5024541
11
70.8141219
21
-123.5757465
0
LINE
8
0
10
77.9316472
20
-105.9592533
11
91.0049396
21
-111.2412063
0
LINE
8
0
10
91.0049396
20
-111.2412063
11
96.2868926
21
-98.1679139
0
LINE
8
0
10
96.2868926
20
-98.1679139
11
83.2136002
21
-92.8859609
0
LINE
8
0
10
83.2136002
20
-92.8859609
11
77.9316472
21
-105.9592533
0
LINE
8
0
10
86.2953576
20
-135.9782198
11
99.36865
21
-141.2601728
0
LINE
8
0
10
99.36865
20
-141.2601728
11
104.650603
21
-128.1868804
0
LINE
8
0
10
104.650603
20
-128.1868804
11
91.5773106
21
-122.9049274
0
LINE
8
0
10
91.5773106
20
-122.9049274
11
86.2953576
21
-135.9782198
0
LINE
8
0
10
93.4128829
20
-118.3617265
11
106.4861753
21
-123.6436795
0
LINE
8
0
10
106.4861753
20
-123.6436795
11
111.7681283
21
-110.5703871
0
LINE
8
0
10
111.7681283
20
-110.5703871
11
98.6948359
21
-105.2884341
0
LINE
8
0
10
98.6948359
20
-105.2884341
11
93.4128829
21
-118.3617265
0
LINE
8
0
10
100.5304081
20
-100.7452333
11
113.6037005
21
-106.0271863
0
LINE
8
0
10
113.6037005
20
-106.0271863
11
118.8856535
21
-92.9538939
0
LINE
8
0
10
118.8856535
20
-92.9538939
11
105.8123611
21
-87.6719409
0
LINE
8
0
10
105.8123611
20
-87.6719409
11
100.5304081
21
-100.7452333
0
LINE
8
0
10
107.4706135
20
-134.2874984
11
120.5439059
21
-139.5694514
0
LINE
8
0
10
120.5439059
20
-139.5694514
11
125.8258589
21
-126.496159
0
LINE
8
0
10
125.8258589
20
-126.496159
11
112.7525665
21
-121.214206
0
LINE
8
0
10
112.7525665
20
-121.214206
11
107.4706135
21
-134.2874984
0
LINE
8
0
10
114.5881387
20
-116.6710052
11
127.6614311
21
-121.9529582
0
LINE
8
0
10
127.6614311
20
-121.9529582
11
132.9433841
21
-108.8796658
0
LINE
8
0
10
132.9433841
20
-108.8796658
11
119.8700917
21
-103.5977128
0
LINE
8
0
10
119.8700917
20
-103.5977128
11
114.5881387
21
-116.6710052
0
LINE
8
0
10
121.705664
20
-99.054512
11
134.7789564
21
-104.336465
0
LINE
8
0
10
134.7789564
20
-104.336465
11
140.0609094
21
-91.2631726
0
LINE
8
0
10
140.0609094
20
-91.2631726
11
126.987617
21
-85.9812196
0
LINE
8
0
10
126.987617
20
-85.9812196
11
121.705664
21
-99.054512
0
LINE
8
0
10
123.6636016
20
-144.9283224
11
136.736894
21
-150.2102754
0
LINE
8
0
10
136.736894
20
-150.2102754
11
142.018847
21
-137.136983
0
LINE
8
0
10
142.018847
20
-137.136983
11
128.9455546
21
-131.85503
0
LINE
8
0
10
128.9455546
20
-131.85503
11
123.6636016
21
-144.9283224
0
LINE
8
0
10
130.7811269
20
-127.3118291
11
143.8544193
21
-132.5937821
0
LINE
8
0
10
143.8544193
20
-132.5937821
11
149.1363723
21
-119.5204897
0
LINE
8
0
10
149.1363723
20
-119.5204897
11
136.0630799
21
-114.2385367
0
LINE
8
0
10
136.0630799
20
-114.2385367
11
130.7811269
21
-127.3118291
0
LINE
8
0
10
137.8986522
20
-109.6953359
11
150.9719446
21
-114.9772889
0
LINE
8
0
10
150.9719446
20
-114.9772889
11
156.2538976
21
-101.9039965
0
LINE
8
0
10
156.2538976
20
-101.9039965
11
143.1806052
21
-96.6220435
0
LINE
8
0
10
143.1806052
20
-96.6220435
11
137.8986522
21
-109.6953359
0
LINE
8
0
10
141.2800949
20
-152.0458476
11
154.3533873
21
-157.3278006
0
LINE
8
0
10
154.3533873
20
-157.3278006
11
159.6353403
21
-144.2545082
0
LINE
8
0
10
159.6353403
20
-144.2545082
11
146.5620479
21
-138.9725552
0
LINE
8
0
10
146.5620479
20
-138.9725552
11
141.2800949
21
-152.0458476
0
LINE
8
0
10
148.3976201
20
-134.4293544
11
161.4709125
21
-139.7113074
0
LINE
8
0
10
161.4709125
20
-139.7113074
11
166.7528655
21
-126.638015
0
LINE
8
0
10
166.7528655
20
-126.638015
11
153.6795731
21
-121.356062
0
LINE
8
0
10
153.6795731
20
-121.356062
11
148.3976201
21
-134.4293544
0
LINE
8
0
10
155.5151454
20
-116.8128612
11
168.5884378
21
-122.0948142
0
LINE
8
0
10
168.5884378
20
-122.0948142
11
173.8703908
21
-109.0215218
0
LINE
8
0
10
173.8703908
20
-109.0215218
11
160.7970984
21
-103.7395688
0
LINE
8
0
10
160.7970984
20
-103.7395688
11
155.5151454
21
-116.8128612
0
LINE
8
0
10
120.069375
20
-163.9683207
11
133.1426674
21
-169.2502737
0
LINE
8
0
10
133.1426674
20
-169.2502737
11
138.4246204
21
-156.1769813
0
LINE
8
0
10
138.4246204
20
-156.1769813
11
125.351328
21
-150.8950283
0
LINE
8
0
10
125.351328
20
-150.8950283
11
120.069375
21
-163.9683207
0
LINE
8
0
10
137.6858682
20
-171.0858459
11
150.7591606
21
-176.3677989
0
LINE
8
0
10
150.7591606
20
-176.3677989
11
156.0411136
21
-163.2945065
0
LINE
8
0
10
156.0411136
20
-163.2945065
11
142.9678212
21
-158.0125535
0
LINE
8
0
10
142.9678212
20
-158.0125535
11
137.6858682
21
-171.0858459
0
LINE
8
0
10
155.3023615
20
-178.2033712
11
168.3756539
21
-183.4853242
0
LINE
8
0
10
168.3756539
20
-183.4853242
11
173.6576069
21
-170.4120318
0
LINE
8
0
10
173.6576069
20
-170.4120318
11
160.5843145
21
-165.1300788
0
LINE
8
0
10
160.5843145
20
-165.1300788
11
155.3023615
21
-178.2033712
0
LINE
8
0
10
333.1970898
20
-139.3566675
11
346.2703822
21
-134.0747145
0
LINE
8
0
10
346.2703822
20
-134.0747145
11
340.9884292
21
-121.0014221
0
LINE
8
0
10
340.9884292
20
-121.0014221
11
327.9151368
21
-126.2833751
0
LINE
8
0
10
327.9151368
20
-126.2833751
11
333.1970898
21
-139.3566675
0
LINE
8
0
10
326.0795645
20
-121.7401743
11
339.1528569
21
-116.4582213
0
LINE
8
0
10
339.1528569
20
-116.4582213
11
333.8709039
21
-103.3849289
0
LINE
8
0
10
333.8709039
20
-103.3849289
11
320.7976115
21
-108.6668819
0
LINE
8
0
10
320.7976115
20
-108.6668819
11
326.0795645
21
-121.7401743
0
LINE
8
0
10
318.9620392
20
-104.123681
11
332.0353316
21
-98.841728
0
LINE
8
0
10
332.0353316
20
-98.841728
11
326.7533786
21
-85.7684356
0
LINE
8
0
10
326.7533786
20
-85.7684356
11
313.6800862
21
-91.0503886
0
LINE
8
0
10
313.6800862
20
-91.0503886
11
318.9620392
21
-104.123681
0
LINE
8
0
10
315.5805965
20
-146.4741928
11
328.6538889
21
-141.1922398
0
LINE
8
0
10
328.6538889
20
-141.1922398
11
323.3719359
21
-128.1189474
0
LINE
8
0
10
323.3719359
20
-128.1189474
11
310.2986435
21
-133.4009004
0
LINE
8
0
10
310.2986435
20
-133.4009004
11
315.5805965
21
-146.4741928
0
LINE
8
0
10
308.4630713
20
-128.8576995
11
321.5363637
21
-123.5757465
0
LINE
8
0
10
321.5363637
20
-123.5757465
11
316.2544107
21
-110.5024541
0
LINE
8
0
10
316.2544107
20
-110.5024541
11
303.1811183
21
-115.7844071
0
LINE
8
0
10
303.1811183
20
-115.7844071
11
308.4630713
21
-128.8576995
0
LINE
8
0
10
301.345546
20
-111.2412063
11
314.4188384
21
-105.9592533
0
LINE
8
0
10
314.4188384
20
-105.9592533
11
309.1368854
21
-92.8859609
0
LINE
8
0
10
309.1368854
20
-92.8859609
11
296.063593
21
-98.1679139
0
LINE
8
0
10
296.063593
20
-98.1679139
11
301.345546
21
-111.2412063
0
LINE
8
0
10
292.9818356
20
-141.2601728
11
306.055128
21
-135.9782198
0
LINE
8
0
10
306.055128
20
-135.9782198
11
300.773175
21
-122.9049274
0
LINE
8
0
10
300.773175
20
-122.9049274
11
287.6998826
21
-128.1868804
0
LINE
8
0
10
287.6998826
20
-128.1868804
11
292.9818356
21
-141.2601728
0
LINE
8
0
10
285.8643103
20
-123.6436795
11
298.9376027
21
-118.3617265
0
LINE
8
0
10
298.9376027
20
-118.3617265
11
293.6556497
21
-105.2884341
0
LINE
8
0
10
293.6556497
20
-105.2884341
11
280.5823573
21
-110.5703871
0
LINE
8
0
10
280.5823573
20
-110.5703871
11
285.8643103
21
-123.6436795
0
LINE
8
0
10
278.7467851
20
-106.0271863
11
291.8200775
21
-100.7452333
0
LINE
8
0
10
291.8200775
20
-100.7452333
11
286.5381245
21
-87.6719409
0
LINE
8
0
10
286.5381245
20
-87.6719409
11
273.4648321
21
-92.9538939
0
LINE
8
0
10
273.4648321
20
-92.9538939
11
278.7467851
21
-106.0271863
0
LINE
8
0
10
271.8065797
20
-139.5694514
11
284.8798721
21
-134.2874984
0
LINE
8
0
10
284.8798721
20
-134.2874984
11
279.5979191
21
-121.214206
0
LINE
8
0
10
279.5979191
20
-121.214206
11
266.5246267
21
-126.496159
0
LINE
8
0
10
266.5246267
20
-126.496159
11
271.8065797
21
-139.5694514
0
LINE
8
0
10
264.6890545
20
-121.9529582
11
277.7623469
21
-116.6710052
0
LINE
8
0
10
277.7623469
20
-116.6710052
11
272.4803939
21
-103.5977128
0
LINE
8
0
10
272.4803939
20
-103.5977128
11
259.4071015
21
-108.8796658
0
LINE
8
0
10
259.4071015
20
-108.8796658
11
264.6890545
21
-121.9529582
0
LINE
8
0
10
257.5715292
20
-104.336465
11
270.6448216
21
-99.054512
0
LINE
8
0
10
270.6448216
20
-99.054512
11
265.3628686
21
-85.9812196
0
LINE
8
0
10
265.3628686
20
-85.9812196
11
252.2895762
21
-91.2631726
0
LINE
8
0
10
252.2895762
20
-91.2631726
11
257.5715292
21
-104.336465
0
LINE
8
0
10
255.6135916
20
-150.2102754
11
268.686884
21
-144.9283224
0
LINE
8
0
10
268.686884
20
-144.9283224
11
263.404931
21
-131.85503
0
LINE
8
0
10
263.404931
20
-131.85503
11
250.3316386
21
-137.136983
0
LINE
8
0
10
250.3316386
20
-137.136983
11
255.6135916
21
-150.2102754
0
LINE
8
0
10
248.4960663
20
-132.5937821
11
261.5693587
21
-127.3118291
0
LINE
8
0
10
261.5693587
20
-127.3118291
11
256.2874057
21
-114.2385367
0
LINE
8
0
10
256.2874057
20
-114.2385367
11
243.2141133
21
-119.5204897
0
LINE
8
0
10
243.2141133
20
-119.5204897
11
248.4960663
21
-132.5937821
0
LINE
8
0
10
241.378541
20
-114.9772889
11
254.4518334
21
-109.6953359
0
LINE
8
0
10
254.4518334
20
-109.6953359
11
249.1698804
21
-96.6220435
0
LINE
8
0
10
249.1698804
20
-96.6220435
11
236.096588
21
-101.9039965
0
LINE
8
0
10
236.096588
20
-101.9039965
11
241.378541
21
-114.9772889
0
LINE
8
0
10
237.9970983
20
-157.3278006
11
251.0703907
21
-152.0458476
0
LINE
8
0
10
251.0703907
20
-152.0458476
11
245.7884377
21
-138.9725552
0
LINE
8
0
10
245.7884377
20
-138.9725552
11
232.7151453
21
-144.2545082
0
LINE
8
0
10
232.7151453
20
-144.2545082
11
237.9970983
21
-157.3278006
0
LINE
8
0
10
230.8795731
20
-139.7113074
11
243.9528655
21
-134.4293544
0
LINE
8
0
10
243.9528655
20
-134.4293544
11
238.6709125
21
-121.356062
0
LINE
8
0
10
238.6709125
20
-121.356062
11
225.5976201
21
-126.638015
0
LINE
8
0
10
225.5976201
20
-126.638015
11
230.8795731
21
-139.7113074
0
LINE
8
0
10
223.7620478
20
-122.0948142
11
236.8353402
21
-116.8128612
0
LINE
8
0
10
236.8353402
20
-116.8128612
11
231.5533872
21
-103.7395688
0
LINE
8
0
10
231.5533872
20
-103.7395688
11
218.4800948
21
-109.0215218
0
LINE
8
0
10
218.4800948
20
-109.0215218
11
223.7620478
21
-122.0948142
0
LINE
8
0
10
259.2078182
20
-169.2502737
11
272.2811106
21
-163.9683207
0
LINE
8
0
10
272.2811106
20
-163.9683207
11
266.9991576
21
-150.8950283
0
LINE
8
0
10
266.9991576
20
-150.8950283
11
253.9258652
21
-156.1769813
0
LINE
8
0
10
253.9258652
20
-156.1769813
11
259.2078182
21
-169.2502737
0
LINE
8
0
10
241.591325
20
-176.3677989
11
254.6646174
21
-171.0858459
0
LINE
8
0
10
254.6646174
20
-171.0858459
11
249.3826644
21
-158.0125535
0
LINE
8
0
10
249.3826644
20
-158.0125535
11
236.309372
21
-163.2945065
0
LINE
8
0
10
236.309372
20
-163.2945065
11
241.591325
21
-176.3677989
0
LINE
8
0
10
223.9748317
20
-183.4853242
11
237.0481241
21
-178.2033712
0
LINE
8
0
10
237.0481241
20
-178.2033712
11
231.7661711
21
-165.1300788
0
LINE
8
0
10
231.7661711
20
-165.1300788
11
218.6928787
21
-170.4120318
0
LINE
8
0
10
218.6928787
20
-170.4120318
11
223.9748317
21
-183.4853242
0
ENDSEC
0
EOF