%TF.GenerationSoftware,KiCad,Pcbnew,8.0.3*%
%TF.CreationDate,2024-06-30T16:48:01+02:00*%
%TF.ProjectId,kbd,6b62642e-6b69-4636-9164-5f7063625858,2*%
%TF.SameCoordinates,Original*%
%TF.FileFunction,Paste,Top*%
%TF.FilePolarity,Positive*%
%FSLAX46Y46*%
G04 Gerber Fmt 4.6, Leading zero omitted, Abs format (unit mm)*
G04 Created by KiCad (PCBNEW 8.0.3) date 2024-06-30 16:48:01*
%MOMM*%
%LPD*%
G01*
G04 APERTURE LIST*
G04 Aperture macros list*
%AMRoundRect*
0 Rectangle with rounded corners*
0 $1 Rounding radius*
0 $2 $3 $4 $5 $6 $7 $8 $9 X,Y pos of 4 corners*
0 Add a 4 corners polygon primitive as box body*
4,1,4,$2,$3,$4,$5,$6,$7,$8,$9,$2,$3,0*
0 Add four circle primitives for the rounded corners*
1,1,$1+$1,$2,$3*
1,1,$1+$1,$4,$5*
1,1,$1+$1,$6,$7*
1,1,$1+$1,$8,$9*
0 Add four rect primitives between the rounded corners*
20,1,$1+$1,$2,$3,$4,$5,0*
20,1,$1+$1,$4,$5,$6,$7,0*
20,1,$1+$1,$6,$7,$8,$9,0*
20,1,$1+$1,$8,$9,$2,$3,0*%
G04 Aperture macros list end*
%ADD10RoundRect,0.250000X-0.138144X0.325448X-0.325448X-0.138144X0.138144X-0.325448X0.325448X0.138144X0*%
%ADD11RoundRect,0.250000X-0.325448X0.138144X-0.138144X-0.325448X0.325448X-0.138144X0.138144X0.325448X0*%
%ADD12R,1.000000X0.800000*%
%ADD13R,0.700000X1.500000*%
G04 APERTURE END LIST*
D10*
%TO.C,D15*%
X180673644Y-106166361D03*
X179737128Y-108484321D03*
%TD*%
D11*
%TO.C,D30*%
X294689960Y-97216260D03*
X295626476Y-99534220D03*
%TD*%
D10*
%TO.C,D3*%
X103090145Y-95312755D03*
X102153629Y-97630715D03*
%TD*%
%TO.C,D5*%
X113589114Y-120046773D03*
X112652598Y-122364733D03*
%TD*%
%TO.C,D18*%
X198290135Y-113283888D03*
X197353619Y-115601848D03*
%TD*%
%TO.C,D13*%
X166438592Y-141399351D03*
X165502076Y-143717311D03*
%TD*%
%TO.C,D17*%
X191172611Y-130900381D03*
X190236095Y-133218341D03*
%TD*%
D11*
%TO.C,D28*%
X308925012Y-132449246D03*
X309861528Y-134767206D03*
%TD*%
%TO.C,D35*%
X264439243Y-123782856D03*
X265375759Y-126100816D03*
%TD*%
%TO.C,D39*%
X239705223Y-113283889D03*
X240641739Y-115601849D03*
%TD*%
%TO.C,D27*%
X317288723Y-102430278D03*
X318225239Y-104748238D03*
%TD*%
D10*
%TO.C,D11*%
X157363129Y-113142032D03*
X156426613Y-115459992D03*
%TD*%
D11*
%TO.C,D41*%
X257534502Y-167556873D03*
X258471018Y-169874833D03*
%TD*%
%TO.C,D25*%
X331523772Y-137663264D03*
X332460288Y-139981224D03*
%TD*%
%TO.C,D23*%
X342022741Y-112929248D03*
X342959257Y-115247208D03*
%TD*%
%TO.C,D32*%
X280632231Y-113142031D03*
X281568747Y-115459991D03*
%TD*%
D10*
%TO.C,D20*%
X180460860Y-167556871D03*
X179524344Y-169874831D03*
%TD*%
%TO.C,D14*%
X173556118Y-123782856D03*
X172619602Y-126100816D03*
%TD*%
D11*
%TO.C,D40*%
X275150994Y-160439345D03*
X276087510Y-162757305D03*
%TD*%
D10*
%TO.C,D21*%
X198077353Y-174674397D03*
X197140837Y-176992357D03*
%TD*%
%TO.C,D7*%
X129070349Y-132449246D03*
X128133833Y-134767206D03*
%TD*%
%TO.C,D16*%
X184055087Y-148516874D03*
X183118571Y-150834834D03*
%TD*%
%TO.C,D1*%
X88855095Y-130545741D03*
X87918579Y-132863701D03*
%TD*%
D11*
%TO.C,D31*%
X287749756Y-130758523D03*
X288686272Y-133076483D03*
%TD*%
D10*
%TO.C,D6*%
X120706637Y-102430281D03*
X119770121Y-104748241D03*
%TD*%
D11*
%TO.C,D42*%
X239918008Y-174674397D03*
X240854524Y-176992357D03*
%TD*%
%TO.C,D29*%
X301807487Y-114832752D03*
X302744003Y-117150712D03*
%TD*%
D10*
%TO.C,D10*%
X150245605Y-130758525D03*
X149309089Y-133076485D03*
%TD*%
%TO.C,D8*%
X136187873Y-114832753D03*
X135251357Y-117150713D03*
%TD*%
D11*
%TO.C,D26*%
X324406249Y-120046772D03*
X325342765Y-122364732D03*
%TD*%
%TO.C,D24*%
X334905216Y-95312755D03*
X335841732Y-97630715D03*
%TD*%
D10*
%TO.C,D2*%
X95972619Y-112929248D03*
X95036103Y-115247208D03*
%TD*%
%TO.C,D4*%
X106471588Y-137663265D03*
X105535072Y-139981225D03*
%TD*%
%TO.C,D19*%
X162844365Y-160439348D03*
X161907849Y-162757308D03*
%TD*%
D11*
%TO.C,D22*%
X349140267Y-130545740D03*
X350076783Y-132863700D03*
%TD*%
%TO.C,D37*%
X253940274Y-148516874D03*
X254876790Y-150834834D03*
%TD*%
%TO.C,D36*%
X257321717Y-106166362D03*
X258258233Y-108484322D03*
%TD*%
%TO.C,D33*%
X273514706Y-95525540D03*
X274451222Y-97843500D03*
%TD*%
D10*
%TO.C,D12*%
X164480656Y-95525539D03*
X163544140Y-97843499D03*
%TD*%
%TO.C,D9*%
X143305400Y-97216261D03*
X142368884Y-99534221D03*
%TD*%
D11*
%TO.C,D34*%
X271556768Y-141399349D03*
X272493284Y-143717309D03*
%TD*%
%TO.C,D38*%
X246822750Y-130900381D03*
X247759266Y-133218341D03*
%TD*%
D12*
%TO.C,PWR1*%
X222647682Y-179090315D03*
X215347681Y-179090318D03*
X222647680Y-181300316D03*
X215347682Y-181300316D03*
D13*
X216747681Y-178440316D03*
X219747681Y-178440316D03*
X221247681Y-178440316D03*
%TD*%
M02*
