%TF.GenerationSoftware,KiCad,Pcbnew,8.0.3*%
%TF.CreationDate,2024-06-30T16:48:01+02:00*%
%TF.ProjectId,kbd,6b62642e-6b69-4636-9164-5f7063625858,2*%
%TF.SameCoordinates,Original*%
%TF.FileFunction,Other,Comment*%
%FSLAX46Y46*%
G04 Gerber Fmt 4.6, Leading zero omitted, Abs format (unit mm)*
G04 Created by KiCad (PCBNEW 8.0.3) date 2024-06-30 16:48:01*
%MOMM*%
%LPD*%
G01*
G04 APERTURE LIST*
%ADD10C,0.150000*%
G04 APERTURE END LIST*
D10*
%TO.C,_139*%
X320221385Y-92306244D02*
G75*
G02*
X316421385Y-92306244I-1900000J0D01*
G01*
X316421385Y-92306244D02*
G75*
G02*
X320221385Y-92306244I1900000J0D01*
G01*
%TO.C,_132*%
X231397679Y-178475316D02*
G75*
G02*
X227597679Y-178475316I-1900000J0D01*
G01*
X227597679Y-178475316D02*
G75*
G02*
X231397679Y-178475316I1900000J0D01*
G01*
%TO.C,_135*%
X121573975Y-92306243D02*
G75*
G02*
X117773975Y-92306243I-1900000J0D01*
G01*
X117773975Y-92306243D02*
G75*
G02*
X121573975Y-92306243I1900000J0D01*
G01*
%TO.C,_137*%
X243349643Y-104921499D02*
G75*
G02*
X239549643Y-104921499I-1900000J0D01*
G01*
X239549643Y-104921499D02*
G75*
G02*
X243349643Y-104921499I1900000J0D01*
G01*
%TO.C,_136*%
X131628408Y-143500467D02*
G75*
G02*
X127828408Y-143500467I-1900000J0D01*
G01*
X127828408Y-143500467D02*
G75*
G02*
X131628408Y-143500467I1900000J0D01*
G01*
%TO.C,_129*%
X210397679Y-106475314D02*
G75*
G02*
X206597679Y-106475314I-1900000J0D01*
G01*
X206597679Y-106475314D02*
G75*
G02*
X210397679Y-106475314I1900000J0D01*
G01*
%TO.C,_140*%
X310166955Y-143500466D02*
G75*
G02*
X306366955Y-143500466I-1900000J0D01*
G01*
X306366955Y-143500466D02*
G75*
G02*
X310166955Y-143500466I1900000J0D01*
G01*
%TO.C,_133*%
X198445721Y-104921500D02*
G75*
G02*
X194645721Y-104921500I-1900000J0D01*
G01*
X194645721Y-104921500D02*
G75*
G02*
X198445721Y-104921500I1900000J0D01*
G01*
%TO.C,_131*%
X210397681Y-178475313D02*
G75*
G02*
X206597681Y-178475313I-1900000J0D01*
G01*
X206597681Y-178475313D02*
G75*
G02*
X210397681Y-178475313I1900000J0D01*
G01*
%TO.C,_138*%
X241159951Y-185725618D02*
G75*
G02*
X237359951Y-185725618I-1900000J0D01*
G01*
X237359951Y-185725618D02*
G75*
G02*
X241159951Y-185725618I1900000J0D01*
G01*
%TO.C,_130*%
X231397681Y-106475313D02*
G75*
G02*
X227597681Y-106475313I-1900000J0D01*
G01*
X227597681Y-106475313D02*
G75*
G02*
X231397681Y-106475313I1900000J0D01*
G01*
%TO.C,_134*%
X200635411Y-185725617D02*
G75*
G02*
X196835411Y-185725617I-1900000J0D01*
G01*
X196835411Y-185725617D02*
G75*
G02*
X200635411Y-185725617I1900000J0D01*
G01*
%TD*%
M02*
