M48
; DRILL file {KiCad 8.0.3} date 2024-06-30T16:48:01+0200
; FORMAT={-:-/ absolute / inch / decimal}
; #@! TF.CreationDate,2024-06-30T16:48:01+02:00
; #@! TF.GenerationSoftware,Kicad,Pcbnew,8.0.3
; #@! TF.FileFunction,Plated,1,2,PTH
FMAT,2
INCH
; #@! TA.AperFunction,Plated,PTH,ViaDrill
T1C0.0118
; #@! TA.AperFunction,Plated,PTH,ComponentDrill
T2C0.0118
; #@! TA.AperFunction,Plated,PTH,ComponentDrill
T3C0.0394
; #@! TA.AperFunction,Plated,PTH,ComponentDrill
T4C0.0430
; #@! TA.AperFunction,Plated,PTH,ComponentDrill
T5C0.0472
; #@! TA.AperFunction,Plated,PTH,ComponentDrill
T6C0.0591
%
G90
G05
T1
X6.9427Y-6.3604
X7.547Y-6.1192
X7.7333Y-4.8574
X7.7463Y-5.4707
X7.7874Y-5.4733
X7.8426Y-6.3539
X8.1726Y-4.5139
X8.1926Y-6.8539
X8.2026Y-6.0439
X8.5926Y-4.5539
X8.6026Y-5.1339
X8.7157Y-5.6174
X8.7957Y-5.6574
X9.0026Y-6.0439
X9.0226Y-6.8639
X9.0526Y-4.4939
X9.4026Y-6.4039
X9.466Y-5.4668
X9.492Y-4.8787
X9.512Y-5.1287
X9.5293Y-5.5167
X9.7226Y-6.1439
X10.0928Y-6.2705
X10.4257Y-5.4811
X11.0263Y-5.2492
T2
X2.8246Y-5.0097
X3.1048Y-4.3161
X3.3851Y-3.6226
X3.5182Y-5.2899
X3.524Y-5.0757
X3.7984Y-4.5963
X3.8043Y-4.3822
X4.0786Y-3.9028
X4.0845Y-3.6886
X4.2176Y-5.3559
X4.4079Y-5.0846
X4.4978Y-4.6624
X4.6881Y-4.3911
X4.778Y-3.9688
X4.9683Y-3.6975
X5.1073Y-5.1507
X5.2416Y-5.0181
X5.3875Y-4.4571
X5.5218Y-4.3245
X5.6678Y-3.7635
X5.7376Y-6.1866
X5.802Y-3.6309
X5.8791Y-5.437
X5.941Y-5.0841
X6.1593Y-4.7434
X6.2212Y-4.3905
X6.4311Y-6.4668
X6.437Y-6.2526
X6.4395Y-4.0499
X6.5014Y-3.697
X6.5726Y-5.7172
X6.5785Y-5.503
X6.8529Y-5.0236
X6.8587Y-4.8095
X7.1247Y-6.747
X7.1306Y-6.5328
X7.1331Y-4.3301
X7.1389Y-4.1159
X7.2721Y-5.7832
X7.5523Y-5.0897
X7.8241Y-6.8131
X7.8325Y-4.3961
X9.4114Y-4.3961
X9.4198Y-6.8131
X9.6916Y-5.0897
X9.9718Y-5.7832
X10.105Y-4.1159
X10.1108Y-4.3301
X10.1133Y-6.5328
X10.1192Y-6.747
X10.3852Y-4.8095
X10.391Y-5.0236
X10.6654Y-5.503
X10.6713Y-5.7172
X10.7425Y-3.697
X10.8044Y-4.0499
X10.8069Y-6.2526
X10.8128Y-6.4668
X11.0227Y-4.3905
X11.0846Y-4.7434
X11.3029Y-5.0841
X11.3648Y-5.437
X11.4419Y-3.6309
X11.5063Y-6.1866
X11.5762Y-3.7635
X11.7221Y-4.3245
X11.8564Y-4.4571
X12.0023Y-5.0181
X12.1366Y-5.1507
X12.2756Y-3.6975
X12.4659Y-3.9688
X12.5558Y-4.3911
X12.7461Y-4.6624
X12.836Y-5.0846
X13.0263Y-5.3559
X13.1594Y-3.6886
X13.1653Y-3.9028
X13.4397Y-4.3822
X13.4455Y-4.5963
X13.7199Y-5.0757
X13.7257Y-5.2899
X13.8589Y-3.6226
X14.1391Y-4.3161
X14.4193Y-5.0097
T3
X7.8739Y-5.0887
X7.8739Y-5.2887
X7.8739Y-5.4887
X7.8739Y-5.6887
X7.8739Y-5.7887
X7.8739Y-4.9887
X7.8739Y-5.1887
X7.8739Y-5.3887
X7.8739Y-5.5887
X7.8739Y-5.8887
X8.1889Y-5.1887
X8.1889Y-5.5887
X8.1889Y-4.9887
X8.1889Y-5.0887
X8.1889Y-5.4887
X8.1889Y-5.8887
X8.1889Y-5.2887
X8.1889Y-5.3887
X8.1889Y-5.6887
X8.1889Y-5.7887
X8.5432Y-5.7274
X8.7007Y-5.7274
X9.055Y-5.1887
X9.055Y-5.0887
X9.055Y-4.9887
X9.055Y-5.3887
X9.055Y-5.4887
X9.055Y-5.5887
X9.055Y-5.7887
X9.055Y-5.8887
X9.055Y-5.2887
X9.055Y-5.6887
X9.37Y-5.0887
X9.37Y-5.1887
X9.37Y-5.4887
X9.37Y-5.5887
X9.37Y-5.8887
X9.37Y-4.9887
X9.37Y-5.3887
X9.37Y-5.7887
X9.37Y-5.2887
X9.37Y-5.6887
T4
X8.322Y-4.6687
X8.322Y-5.0687
X8.322Y-5.4687
X8.322Y-4.4687
X8.322Y-4.8687
X8.322Y-5.2687
X8.322Y-4.3687
X8.322Y-4.5687
X8.322Y-4.7687
X8.322Y-4.9687
X8.322Y-5.1687
X8.322Y-5.3687
X8.322Y-5.5687
X8.922Y-4.4687
X8.922Y-4.6687
X8.922Y-4.8687
X8.922Y-5.0687
X8.922Y-5.2687
X8.922Y-5.4687
X8.922Y-4.3687
X8.922Y-4.7687
X8.922Y-5.1687
X8.922Y-5.5687
X8.922Y-4.5687
X8.922Y-4.9687
X8.922Y-5.3687
T5
X2.8355Y-5.2561
X2.987Y-5.4065
X3.1157Y-4.5625
X3.2672Y-4.7129
X3.3959Y-3.869
X3.529Y-5.5363
X3.5474Y-4.0194
X3.6806Y-5.6867
X3.8092Y-4.8428
X3.9608Y-4.9932
X4.0895Y-4.1492
X4.241Y-4.2996
X4.4187Y-5.331
X4.5703Y-5.4814
X4.699Y-4.6375
X4.8505Y-4.7879
X4.9792Y-3.9439
X5.1307Y-4.0943
X5.2524Y-5.2645
X5.404Y-5.4149
X5.5326Y-4.5709
X5.6842Y-4.7213
X5.7484Y-6.433
X5.8128Y-3.8774
X5.8899Y-5.6834
X5.9Y-6.5834
X5.9644Y-4.0278
X6.0415Y-5.8338
X6.1701Y-4.9898
X6.3217Y-5.1402
X6.442Y-6.7132
X6.4504Y-4.2963
X6.5835Y-5.9636
X6.5935Y-6.8636
X6.6019Y-4.4467
X6.735Y-6.114
X6.8637Y-5.2701
X7.0153Y-5.4205
X7.1356Y-6.9934
X7.1439Y-4.5765
X7.2871Y-7.1438
X7.2955Y-4.7269
X9.735Y-4.724
X9.7433Y-7.1409
X9.9484Y-4.7269
X9.9568Y-7.1438
X10.0152Y-5.4175
X10.2287Y-5.4205
X10.2954Y-6.1111
X10.4285Y-4.4438
X10.4369Y-6.8607
X10.5089Y-6.114
X10.642Y-4.4467
X10.6504Y-6.8636
X10.7087Y-5.1373
X10.9222Y-5.1402
X10.9889Y-5.8309
X11.066Y-4.0248
X11.1305Y-6.5805
X11.2024Y-5.8338
X11.2795Y-4.0278
X11.3439Y-6.5834
X11.3462Y-4.7184
X11.5597Y-4.7213
X11.6265Y-5.412
X11.84Y-5.4149
X11.8997Y-4.0914
X12.1132Y-4.0943
X12.1799Y-4.785
X12.3934Y-4.7879
X12.4601Y-5.4785
X12.6736Y-5.4814
X12.7894Y-4.2967
X13.0029Y-4.2996
X13.0696Y-4.9902
X13.2831Y-4.9932
X13.3499Y-5.6838
X13.483Y-4.0165
X13.5633Y-5.6867
X13.6965Y-4.0194
X13.7632Y-4.71
X13.9767Y-4.7129
X14.0434Y-5.4036
X14.2569Y-5.4065
T6
X2.9724Y-5.0422
X3.2417Y-5.0432
X3.2526Y-4.3487
X3.5219Y-4.3496
X3.5328Y-3.6551
X3.666Y-5.3224
X3.8021Y-3.656
X3.9352Y-5.3234
X3.9462Y-4.6289
X4.2154Y-4.6298
X4.2264Y-3.9353
X4.4957Y-3.9362
X4.5557Y-5.1172
X4.8249Y-5.1181
X4.8359Y-4.4236
X5.1052Y-4.4245
X5.1161Y-3.73
X5.3854Y-3.731
X5.3894Y-5.0506
X5.6586Y-5.0515
X5.6696Y-4.357
X5.8854Y-6.2191
X5.9388Y-4.358
X5.9498Y-3.6635
X6.0269Y-5.4695
X6.1546Y-6.2201
X6.219Y-3.6644
X6.2961Y-5.4705
X6.3071Y-4.776
X6.5763Y-4.7769
X6.5789Y-6.4994
X6.5873Y-4.0824
X6.7204Y-5.7497
X6.8482Y-6.5003
X6.8566Y-4.0833
X6.9897Y-5.7507
X7.0007Y-5.0562
X7.2699Y-5.0571
X7.2725Y-6.7796
X7.2809Y-4.3626
X7.5418Y-6.7805
X7.5501Y-4.3636
X9.6849Y-4.475
X9.6933Y-6.892
X9.8792Y-4.2886
X9.8876Y-6.7056
X9.9651Y-5.1686
X10.1594Y-4.9822
X10.2453Y-5.8621
X10.3784Y-4.1948
X10.3868Y-6.6117
X10.4397Y-5.6758
X10.5728Y-4.0084
X10.5812Y-6.4254
X10.6587Y-4.8883
X10.853Y-4.702
X10.9389Y-5.5819
X11.016Y-3.7759
X11.0804Y-6.3315
X11.1332Y-5.3955
X11.2103Y-3.5895
X11.2747Y-6.1451
X11.2962Y-4.4694
X11.4905Y-4.283
X11.5764Y-5.163
X11.7707Y-4.9766
X11.8496Y-3.8424
X12.044Y-3.656
X12.1299Y-4.536
X12.3242Y-4.3496
X12.4101Y-5.2295
X12.6044Y-5.0432
X12.7394Y-4.0477
X12.9337Y-3.8613
X13.0196Y-4.7413
X13.2139Y-4.5549
X13.2998Y-5.4348
X13.4329Y-3.7675
X13.4941Y-5.2484
X13.6273Y-3.5811
X13.7131Y-4.461
X13.9075Y-4.2747
X13.9934Y-5.1546
X14.1877Y-4.9682
M30
