M48
; DRILL file {KiCad 8.0.3} date 2024-06-30T16:48:01+0200
; FORMAT={-:-/ absolute / inch / decimal}
; #@! TF.CreationDate,2024-06-30T16:48:01+02:00
; #@! TF.GenerationSoftware,Kicad,Pcbnew,8.0.3
; #@! TF.FileFunction,NonPlated,1,2,NPTH
FMAT,2
INCH
; #@! TA.AperFunction,NonPlated,NPTH,ComponentDrill
T1C0.0354
; #@! TA.AperFunction,NonPlated,NPTH,ComponentDrill
T2C0.0709
; #@! TA.AperFunction,NonPlated,NPTH,ComponentDrill
T3C0.0866
; #@! TA.AperFunction,NonPlated,NPTH,ComponentDrill
T4C0.1575
%
G90
G05
T1
X8.5629Y-7.0945
X8.681Y-7.0945
T2
X2.8886Y-5.1162
X3.1688Y-4.4226
X3.2595Y-5.2661
X3.449Y-3.7291
X3.5397Y-4.5725
X3.5821Y-5.3964
X3.8199Y-3.8789
X3.8624Y-4.7029
X3.953Y-5.5463
X4.1426Y-4.0093
X4.2332Y-4.8527
X4.4719Y-5.1911
X4.5135Y-4.1591
X4.7521Y-4.4976
X4.8427Y-5.341
X5.0323Y-3.804
X5.123Y-4.6474
X5.3055Y-5.1246
X5.4032Y-3.9539
X5.5858Y-4.431
X5.6764Y-5.2744
X5.8015Y-6.2931
X5.866Y-3.7375
X5.9431Y-5.5435
X5.9566Y-4.5809
X6.1724Y-6.443
X6.2233Y-4.85
X6.2368Y-3.8873
X6.3139Y-5.6934
X6.4951Y-6.5733
X6.5035Y-4.1564
X6.5941Y-4.9998
X6.6366Y-5.8237
X6.866Y-6.7232
X6.8744Y-4.3062
X6.9168Y-5.1302
X7.0075Y-5.9736
X7.1887Y-6.8536
X7.1971Y-4.4366
X7.2877Y-5.28
X7.5595Y-7.0034
X7.5679Y-4.5865
X9.676Y-4.5865
X9.6844Y-7.0034
X9.9562Y-5.28
X10.0469Y-4.4366
X10.0552Y-6.8536
X10.2364Y-5.9736
X10.3271Y-5.1302
X10.3695Y-4.3062
X10.3779Y-6.7232
X10.6073Y-5.8237
X10.6498Y-4.9998
X10.7404Y-4.1564
X10.7488Y-6.5733
X10.93Y-5.6934
X11.0071Y-3.8873
X11.0206Y-4.85
X11.0715Y-6.443
X11.2873Y-4.5809
X11.3009Y-5.5435
X11.3779Y-3.7375
X11.4424Y-6.2931
X11.5675Y-5.2744
X11.6582Y-4.431
X11.8407Y-3.9539
X11.9384Y-5.1246
X12.121Y-4.6474
X12.2116Y-3.804
X12.4012Y-5.341
X12.4918Y-4.4976
X12.7305Y-4.1591
X12.772Y-5.1911
X13.0107Y-4.8527
X13.1013Y-4.0093
X13.2909Y-5.5463
X13.3815Y-4.7029
X13.424Y-3.8789
X13.6618Y-5.3964
X13.7042Y-4.5725
X13.7949Y-3.7291
X13.9845Y-5.2661
X14.0751Y-4.4226
X14.3553Y-5.1162
T3
X4.7116Y-3.6341
X5.1074Y-5.6496
X7.738Y-4.1308
X7.8242Y-7.312
X8.2086Y-4.1919
X8.2086Y-7.0266
X9.0353Y-7.0266
X9.0353Y-4.1919
X9.4197Y-7.312
X9.5059Y-4.1308
X12.1365Y-5.6496
X12.5323Y-3.6341
T4
X3.074Y-5.1911
X3.3542Y-4.4976
X3.6345Y-3.804
X3.7676Y-5.4713
X4.0478Y-4.7778
X4.328Y-4.0842
X4.6573Y-5.2661
X4.9375Y-4.5725
X5.2177Y-3.8789
X5.491Y-5.1995
X5.7712Y-4.5059
X5.987Y-6.368
X6.0514Y-3.8124
X6.1285Y-5.6184
X6.4087Y-4.9249
X6.6805Y-6.6483
X6.6889Y-4.2313
X6.8221Y-5.8987
X7.1023Y-5.2051
X7.3741Y-6.9285
X7.3825Y-4.5115
X9.8614Y-4.5115
X9.8698Y-6.9285
X10.1416Y-5.2051
X10.4219Y-5.8987
X10.555Y-4.2313
X10.5634Y-6.6483
X10.8352Y-4.9249
X11.1154Y-5.6184
X11.1925Y-3.8124
X11.2569Y-6.368
X11.4727Y-4.5059
X11.7529Y-5.1995
X12.0262Y-3.8789
X12.3064Y-4.5725
X12.5866Y-5.2661
X12.9159Y-4.0842
X13.1961Y-4.7778
X13.4763Y-5.4713
X13.6095Y-3.804
X13.8897Y-4.4976
X14.1699Y-5.1911
M30
