G04 #@! TF.GenerationSoftware,KiCad,Pcbnew,7.0.5-0*
G04 #@! TF.CreationDate,2023-06-04T16:05:39+02:00*
G04 #@! TF.ProjectId,kbd,6b62642e-6b69-4636-9164-5f7063625858,v1.0.0*
G04 #@! TF.SameCoordinates,Original*
G04 #@! TF.FileFunction,Soldermask,Bot*
G04 #@! TF.FilePolarity,Negative*
%FSLAX46Y46*%
G04 Gerber Fmt 4.6, Leading zero omitted, Abs format (unit mm)*
G04 Created by KiCad (PCBNEW 7.0.5-0) date 2023-06-04 16:05:39*
%MOMM*%
%LPD*%
G01*
G04 APERTURE LIST*
G04 Aperture macros list*
%AMRoundRect*
0 Rectangle with rounded corners*
0 $1 Rounding radius*
0 $2 $3 $4 $5 $6 $7 $8 $9 X,Y pos of 4 corners*
0 Add a 4 corners polygon primitive as box body*
4,1,4,$2,$3,$4,$5,$6,$7,$8,$9,$2,$3,0*
0 Add four circle primitives for the rounded corners*
1,1,$1+$1,$2,$3*
1,1,$1+$1,$4,$5*
1,1,$1+$1,$6,$7*
1,1,$1+$1,$8,$9*
0 Add four rect primitives between the rounded corners*
20,1,$1+$1,$2,$3,$4,$5,0*
20,1,$1+$1,$4,$5,$6,$7,0*
20,1,$1+$1,$6,$7,$8,$9,0*
20,1,$1+$1,$8,$9,$2,$3,0*%
G04 Aperture macros list end*
%ADD10C,1.400000*%
%ADD11O,0.400000X4.200000*%
%ADD12O,2.100000X4.200000*%
%ADD13O,5.200000X0.400000*%
%ADD14O,5.200000X4.200000*%
%ADD15C,1.700000*%
%ADD16C,1.500000*%
%ADD17C,0.800000*%
%ADD18C,4.500000*%
%ADD19C,13.400000*%
%ADD20RoundRect,0.300000X0.250000X0.250000X-0.250000X0.250000X-0.250000X-0.250000X0.250000X-0.250000X0*%
G04 APERTURE END LIST*
D10*
G04 #@! TO.C,S13*
X165579992Y-76769836D03*
D11*
X168680000Y-83170000D03*
D12*
X169530000Y-83170000D03*
D13*
X171080000Y-81270000D03*
D14*
X171080000Y-83170000D03*
D13*
X171080000Y-85070000D03*
D12*
X172630000Y-83170000D03*
D11*
X173480000Y-83170000D03*
D10*
X176579992Y-87769836D03*
D15*
X167679992Y-79369836D03*
D16*
X167679992Y-84269836D03*
G04 #@! TD*
D10*
G04 #@! TO.C,S14*
X165579992Y-58999836D03*
D11*
X168680000Y-65400000D03*
D12*
X169530000Y-65400000D03*
D13*
X171080000Y-63500000D03*
D14*
X171080000Y-65400000D03*
D13*
X171080000Y-67300000D03*
D12*
X172630000Y-65400000D03*
D11*
X173480000Y-65400000D03*
D10*
X176579992Y-69999836D03*
D15*
X167679992Y-61599836D03*
D16*
X167679992Y-66499836D03*
G04 #@! TD*
D17*
G04 #@! TO.C,_67*
X155234370Y-92003500D03*
X155711678Y-90851178D03*
X155711678Y-93155822D03*
X156864000Y-90373870D03*
D18*
X156864000Y-92003500D03*
D17*
X156864000Y-93633130D03*
X158016322Y-90851178D03*
X158016322Y-93155822D03*
X158493630Y-92003500D03*
G04 #@! TD*
D10*
G04 #@! TO.C,S34*
X294199992Y-76769836D03*
D11*
X297300000Y-83170000D03*
D12*
X298150000Y-83170000D03*
D13*
X299700000Y-81270000D03*
D14*
X299700000Y-83170000D03*
D13*
X299700000Y-85070000D03*
D12*
X301250000Y-83170000D03*
D11*
X302100000Y-83170000D03*
D10*
X305199992Y-87769836D03*
D15*
X296299992Y-79369836D03*
D16*
X296299992Y-84269836D03*
G04 #@! TD*
D19*
G04 #@! TO.C,_76*
X255275000Y-49460000D03*
G04 #@! TD*
D10*
G04 #@! TO.C,S6*
X112269992Y-58999836D03*
D11*
X115370000Y-65400000D03*
D12*
X116220000Y-65400000D03*
D13*
X117770000Y-63500000D03*
D14*
X117770000Y-65400000D03*
D13*
X117770000Y-67300000D03*
D12*
X119320000Y-65400000D03*
D11*
X120170000Y-65400000D03*
D10*
X123269992Y-69999836D03*
D15*
X114369992Y-61599836D03*
D16*
X114369992Y-66499836D03*
G04 #@! TD*
D10*
G04 #@! TO.C,S7*
X130039992Y-82100836D03*
D11*
X133140000Y-88501000D03*
D12*
X133990000Y-88501000D03*
D13*
X135540000Y-86601000D03*
D14*
X135540000Y-88501000D03*
D13*
X135540000Y-90401000D03*
D12*
X137090000Y-88501000D03*
D11*
X137940000Y-88501000D03*
D10*
X141039992Y-93100836D03*
D15*
X132139992Y-84700836D03*
D16*
X132139992Y-89600836D03*
G04 #@! TD*
D10*
G04 #@! TO.C,S19*
X169133992Y-94539836D03*
D11*
X172234000Y-100940000D03*
D12*
X173084000Y-100940000D03*
D13*
X174634000Y-99040000D03*
D14*
X174634000Y-100940000D03*
D13*
X174634000Y-102840000D03*
D12*
X176184000Y-100940000D03*
D11*
X177034000Y-100940000D03*
D10*
X180133992Y-105539836D03*
D15*
X171233992Y-97139836D03*
D16*
X171233992Y-102039836D03*
G04 #@! TD*
D19*
G04 #@! TO.C,_75*
X245275000Y-79460000D03*
G04 #@! TD*
D17*
G04 #@! TO.C,_71*
X351380370Y-42247500D03*
X351857678Y-41095178D03*
X351857678Y-43399822D03*
X353010000Y-40617870D03*
D18*
X353010000Y-42247500D03*
D17*
X353010000Y-43877130D03*
X354162322Y-41095178D03*
X354162322Y-43399822D03*
X354639630Y-42247500D03*
G04 #@! TD*
D10*
G04 #@! TO.C,S9*
X130039992Y-46560836D03*
D11*
X133140000Y-52961000D03*
D12*
X133990000Y-52961000D03*
D13*
X135540000Y-51061000D03*
D14*
X135540000Y-52961000D03*
D13*
X135540000Y-54861000D03*
D12*
X137090000Y-52961000D03*
D11*
X137940000Y-52961000D03*
D10*
X141039992Y-57560836D03*
D15*
X132139992Y-49160836D03*
D16*
X132139992Y-54060836D03*
G04 #@! TD*
D10*
G04 #@! TO.C,S1*
X94499992Y-94539836D03*
D11*
X97600000Y-100940000D03*
D12*
X98450000Y-100940000D03*
D13*
X100000000Y-99040000D03*
D14*
X100000000Y-100940000D03*
D13*
X100000000Y-102840000D03*
D12*
X101550000Y-100940000D03*
D11*
X102400000Y-100940000D03*
D10*
X105499992Y-105539836D03*
D15*
X96599992Y-97139836D03*
D16*
X96599992Y-102039836D03*
G04 #@! TD*
D10*
G04 #@! TO.C,S11*
X147809992Y-55445836D03*
D11*
X150910000Y-61846000D03*
D12*
X151760000Y-61846000D03*
D13*
X153310000Y-59946000D03*
D14*
X153310000Y-61846000D03*
D13*
X153310000Y-63746000D03*
D12*
X154860000Y-61846000D03*
D11*
X155710000Y-61846000D03*
D10*
X158809992Y-66445836D03*
D15*
X149909992Y-58045836D03*
D16*
X149909992Y-62945836D03*
G04 #@! TD*
D10*
G04 #@! TO.C,S22*
X365279992Y-94539836D03*
D11*
X368380000Y-100940000D03*
D12*
X369230000Y-100940000D03*
D13*
X370780000Y-99040000D03*
D14*
X370780000Y-100940000D03*
D13*
X370780000Y-102840000D03*
D12*
X372330000Y-100940000D03*
D11*
X373180000Y-100940000D03*
D10*
X376279992Y-105539836D03*
D15*
X367379992Y-97139836D03*
D16*
X367379992Y-102039836D03*
G04 #@! TD*
D10*
G04 #@! TO.C,S36*
X294199992Y-41229836D03*
D11*
X297300000Y-47630000D03*
D12*
X298150000Y-47630000D03*
D13*
X299700000Y-45730000D03*
D14*
X299700000Y-47630000D03*
D13*
X299700000Y-49530000D03*
D12*
X301250000Y-47630000D03*
D11*
X302100000Y-47630000D03*
D10*
X305199992Y-52229836D03*
D15*
X296299992Y-43829836D03*
D16*
X296299992Y-48729836D03*
G04 #@! TD*
D10*
G04 #@! TO.C,S12*
X147809992Y-37675836D03*
D11*
X150910000Y-44076000D03*
D12*
X151760000Y-44076000D03*
D13*
X153310000Y-42176000D03*
D14*
X153310000Y-44076000D03*
D13*
X153310000Y-45976000D03*
D12*
X154860000Y-44076000D03*
D11*
X155710000Y-44076000D03*
D10*
X158809992Y-48675836D03*
D15*
X149909992Y-40275836D03*
D16*
X149909992Y-45175836D03*
G04 #@! TD*
D10*
G04 #@! TO.C,S40*
X290645992Y-94539836D03*
D11*
X293746000Y-100940000D03*
D12*
X294596000Y-100940000D03*
D13*
X296146000Y-99040000D03*
D14*
X296146000Y-100940000D03*
D13*
X296146000Y-102840000D03*
D12*
X297696000Y-100940000D03*
D11*
X298546000Y-100940000D03*
D10*
X301645992Y-105539836D03*
D15*
X292745992Y-97139836D03*
D16*
X292745992Y-102039836D03*
G04 #@! TD*
D10*
G04 #@! TO.C,S3*
X94499992Y-58999836D03*
D11*
X97600000Y-65400000D03*
D12*
X98450000Y-65400000D03*
D13*
X100000000Y-63500000D03*
D14*
X100000000Y-65400000D03*
D13*
X100000000Y-67300000D03*
D12*
X101550000Y-65400000D03*
D11*
X102400000Y-65400000D03*
D10*
X105499992Y-69999836D03*
D15*
X96599992Y-61599836D03*
D16*
X96599992Y-66499836D03*
G04 #@! TD*
D10*
G04 #@! TO.C,S15*
X165579992Y-41229836D03*
D11*
X168680000Y-47630000D03*
D12*
X169530000Y-47630000D03*
D13*
X171080000Y-45730000D03*
D14*
X171080000Y-47630000D03*
D13*
X171080000Y-49530000D03*
D12*
X172630000Y-47630000D03*
D11*
X173480000Y-47630000D03*
D10*
X176579992Y-52229836D03*
D15*
X167679992Y-43829836D03*
D16*
X167679992Y-48729836D03*
G04 #@! TD*
D10*
G04 #@! TO.C,S5*
X112269992Y-76769836D03*
D11*
X115370000Y-83170000D03*
D12*
X116220000Y-83170000D03*
D13*
X117770000Y-81270000D03*
D14*
X117770000Y-83170000D03*
D13*
X117770000Y-85070000D03*
D12*
X119320000Y-83170000D03*
D11*
X120170000Y-83170000D03*
D10*
X123269992Y-87769836D03*
D15*
X114369992Y-79369836D03*
D16*
X114369992Y-84269836D03*
G04 #@! TD*
D17*
G04 #@! TO.C,*
X234390000Y-101460000D03*
X234390000Y-102460000D03*
X234390000Y-103460000D03*
X234390000Y-104460000D03*
X234390000Y-105460000D03*
X234390000Y-106460000D03*
X234390000Y-107460000D03*
X234390000Y-108460000D03*
X236390000Y-101460000D03*
X236390000Y-102460000D03*
X236390000Y-103460000D03*
X236390000Y-104460000D03*
X236390000Y-105460000D03*
X236390000Y-106460000D03*
X236390000Y-107460000D03*
X236390000Y-108460000D03*
G04 #@! TD*
D10*
G04 #@! TO.C,S10*
X147809992Y-73215836D03*
D11*
X150910000Y-79616000D03*
D12*
X151760000Y-79616000D03*
D13*
X153310000Y-77716000D03*
D14*
X153310000Y-79616000D03*
D13*
X153310000Y-81516000D03*
D12*
X154860000Y-79616000D03*
D11*
X155710000Y-79616000D03*
D10*
X158809992Y-84215836D03*
D15*
X149909992Y-75815836D03*
D16*
X149909992Y-80715836D03*
G04 #@! TD*
D19*
G04 #@! TO.C,_73*
X225505000Y-79460000D03*
G04 #@! TD*
D10*
G04 #@! TO.C,S30*
X329739992Y-46560836D03*
D11*
X332840000Y-52961000D03*
D12*
X333690000Y-52961000D03*
D13*
X335240000Y-51061000D03*
D14*
X335240000Y-52961000D03*
D13*
X335240000Y-54861000D03*
D12*
X336790000Y-52961000D03*
D11*
X337640000Y-52961000D03*
D10*
X340739992Y-57560836D03*
D15*
X331839992Y-49160836D03*
D16*
X331839992Y-54060836D03*
G04 #@! TD*
D10*
G04 #@! TO.C,S20*
X186903992Y-94539836D03*
D11*
X190004000Y-100940000D03*
D12*
X190854000Y-100940000D03*
D13*
X192404000Y-99040000D03*
D14*
X192404000Y-100940000D03*
D13*
X192404000Y-102840000D03*
D12*
X193954000Y-100940000D03*
D11*
X194804000Y-100940000D03*
D10*
X197903992Y-105539836D03*
D15*
X189003992Y-97139836D03*
D16*
X189003992Y-102039836D03*
G04 #@! TD*
D10*
G04 #@! TO.C,S42*
X255105992Y-94539836D03*
D11*
X258206000Y-100940000D03*
D12*
X259056000Y-100940000D03*
D13*
X260606000Y-99040000D03*
D14*
X260606000Y-100940000D03*
D13*
X260606000Y-102840000D03*
D12*
X262156000Y-100940000D03*
D11*
X263006000Y-100940000D03*
D10*
X266105992Y-105539836D03*
D15*
X257205992Y-97139836D03*
D16*
X257205992Y-102039836D03*
G04 #@! TD*
D14*
G04 #@! TO.C,MCU2*
X371885820Y-39264000D03*
G04 #@! TD*
D10*
G04 #@! TO.C,S28*
X329739992Y-82100836D03*
D11*
X332840000Y-88501000D03*
D12*
X333690000Y-88501000D03*
D13*
X335240000Y-86601000D03*
D14*
X335240000Y-88501000D03*
D13*
X335240000Y-90401000D03*
D12*
X336790000Y-88501000D03*
D11*
X337640000Y-88501000D03*
D10*
X340739992Y-93100836D03*
D15*
X331839992Y-84700836D03*
D16*
X331839992Y-89600836D03*
G04 #@! TD*
D10*
G04 #@! TO.C,S33*
X311969992Y-37675836D03*
D11*
X315070000Y-44076000D03*
D12*
X315920000Y-44076000D03*
D13*
X317470000Y-42176000D03*
D14*
X317470000Y-44076000D03*
D13*
X317470000Y-45976000D03*
D12*
X319020000Y-44076000D03*
D11*
X319870000Y-44076000D03*
D10*
X322969992Y-48675836D03*
D15*
X314069992Y-40275836D03*
D16*
X314069992Y-45175836D03*
G04 #@! TD*
D17*
G04 #@! TO.C,_72*
X312286370Y-92003500D03*
X312763678Y-90851178D03*
X312763678Y-93155822D03*
X313916000Y-90373870D03*
D18*
X313916000Y-92003500D03*
D17*
X313916000Y-93633130D03*
X315068322Y-90851178D03*
X315068322Y-93155822D03*
X315545630Y-92003500D03*
G04 #@! TD*
G04 #@! TO.C,_69*
X266084370Y-46690000D03*
X266561678Y-45537678D03*
X266561678Y-47842322D03*
X267714000Y-45060370D03*
D18*
X267714000Y-46690000D03*
D17*
X267714000Y-48319630D03*
X268866322Y-45537678D03*
X268866322Y-47842322D03*
X269343630Y-46690000D03*
G04 #@! TD*
D10*
G04 #@! TO.C,S32*
X311969992Y-55445836D03*
D11*
X315070000Y-61846000D03*
D12*
X315920000Y-61846000D03*
D13*
X317470000Y-59946000D03*
D14*
X317470000Y-61846000D03*
D13*
X317470000Y-63746000D03*
D12*
X319020000Y-61846000D03*
D11*
X319870000Y-61846000D03*
D10*
X322969992Y-66445836D03*
D15*
X314069992Y-58045836D03*
D16*
X314069992Y-62945836D03*
G04 #@! TD*
D10*
G04 #@! TO.C,S25*
X347509992Y-94539836D03*
D11*
X350610000Y-100940000D03*
D12*
X351460000Y-100940000D03*
D13*
X353010000Y-99040000D03*
D14*
X353010000Y-100940000D03*
D13*
X353010000Y-102840000D03*
D12*
X354560000Y-100940000D03*
D11*
X355410000Y-100940000D03*
D10*
X358509992Y-105539836D03*
D15*
X349609992Y-97139836D03*
D16*
X349609992Y-102039836D03*
G04 #@! TD*
D10*
G04 #@! TO.C,S4*
X112269992Y-94539836D03*
D11*
X115370000Y-100940000D03*
D12*
X116220000Y-100940000D03*
D13*
X117770000Y-99040000D03*
D14*
X117770000Y-100940000D03*
D13*
X117770000Y-102840000D03*
D12*
X119320000Y-100940000D03*
D11*
X120170000Y-100940000D03*
D10*
X123269992Y-105539836D03*
D15*
X114369992Y-97139836D03*
D16*
X114369992Y-102039836D03*
G04 #@! TD*
D10*
G04 #@! TO.C,S21*
X204673992Y-94539836D03*
D11*
X207774000Y-100940000D03*
D12*
X208624000Y-100940000D03*
D13*
X210174000Y-99040000D03*
D14*
X210174000Y-100940000D03*
D13*
X210174000Y-102840000D03*
D12*
X211724000Y-100940000D03*
D11*
X212574000Y-100940000D03*
D10*
X215673992Y-105539836D03*
D15*
X206773992Y-97139836D03*
D16*
X206773992Y-102039836D03*
G04 #@! TD*
D17*
G04 #@! TO.C,_68*
X262530370Y-82230000D03*
X263007678Y-81077678D03*
X263007678Y-83382322D03*
X264160000Y-80600370D03*
D18*
X264160000Y-82230000D03*
D17*
X264160000Y-83859630D03*
X265312322Y-81077678D03*
X265312322Y-83382322D03*
X265789630Y-82230000D03*
G04 #@! TD*
G04 #@! TO.C,_64*
X201436370Y-46690000D03*
X201913678Y-45537678D03*
X201913678Y-47842322D03*
X203066000Y-45060370D03*
D18*
X203066000Y-46690000D03*
D17*
X203066000Y-48319630D03*
X204218322Y-45537678D03*
X204218322Y-47842322D03*
X204695630Y-46690000D03*
G04 #@! TD*
D19*
G04 #@! TO.C,_74*
X215505000Y-49460000D03*
G04 #@! TD*
D17*
G04 #@! TO.C,*
X234390000Y-82460000D03*
X234390000Y-83460000D03*
X234390000Y-84460000D03*
X234390000Y-85460000D03*
X234390000Y-86460000D03*
X234390000Y-87460000D03*
X234390000Y-88460000D03*
X234390000Y-89460000D03*
X234390000Y-90460000D03*
X234390000Y-91460000D03*
X234390000Y-92460000D03*
X234390000Y-93460000D03*
X234390000Y-94460000D03*
X234390000Y-95460000D03*
X234390000Y-96460000D03*
X234390000Y-97460000D03*
X234390000Y-98460000D03*
X236390000Y-82460000D03*
X236390000Y-83460000D03*
X236390000Y-84460000D03*
X236390000Y-85460000D03*
X236390000Y-86460000D03*
X236390000Y-87460000D03*
X236390000Y-88460000D03*
X236390000Y-89460000D03*
X236390000Y-90460000D03*
X236390000Y-91460000D03*
X236390000Y-92460000D03*
X236390000Y-93460000D03*
X236390000Y-94460000D03*
X236390000Y-95460000D03*
X236390000Y-96460000D03*
X236390000Y-97460000D03*
X236390000Y-98460000D03*
G04 #@! TD*
D10*
G04 #@! TO.C,S16*
X183349992Y-76769836D03*
D11*
X186450000Y-83170000D03*
D12*
X187300000Y-83170000D03*
D13*
X188850000Y-81270000D03*
D14*
X188850000Y-83170000D03*
D13*
X188850000Y-85070000D03*
D12*
X190400000Y-83170000D03*
D11*
X191250000Y-83170000D03*
D10*
X194349992Y-87769836D03*
D15*
X185449992Y-79369836D03*
D16*
X185449992Y-84269836D03*
G04 #@! TD*
D17*
G04 #@! TO.C,_66*
X116140370Y-42247500D03*
X116617678Y-41095178D03*
X116617678Y-43399822D03*
X117770000Y-40617870D03*
D18*
X117770000Y-42247500D03*
D17*
X117770000Y-43877130D03*
X118922322Y-41095178D03*
X118922322Y-43399822D03*
X119399630Y-42247500D03*
G04 #@! TD*
D10*
G04 #@! TO.C,S41*
X272875992Y-94539836D03*
D11*
X275976000Y-100940000D03*
D12*
X276826000Y-100940000D03*
D13*
X278376000Y-99040000D03*
D14*
X278376000Y-100940000D03*
D13*
X278376000Y-102840000D03*
D12*
X279926000Y-100940000D03*
D11*
X280776000Y-100940000D03*
D10*
X283875992Y-105539836D03*
D15*
X274975992Y-97139836D03*
D16*
X274975992Y-102039836D03*
G04 #@! TD*
D17*
G04 #@! TO.C,_70*
X244760370Y-105331000D03*
X245237678Y-104178678D03*
X245237678Y-106483322D03*
X246390000Y-103701370D03*
D18*
X246390000Y-105331000D03*
D17*
X246390000Y-106960630D03*
X247542322Y-104178678D03*
X247542322Y-106483322D03*
X248019630Y-105331000D03*
G04 #@! TD*
D14*
G04 #@! TO.C,MCU1*
X98894180Y-47444000D03*
G04 #@! TD*
D10*
G04 #@! TO.C,S23*
X365279992Y-76769836D03*
D11*
X368380000Y-83170000D03*
D12*
X369230000Y-83170000D03*
D13*
X370780000Y-81270000D03*
D14*
X370780000Y-83170000D03*
D13*
X370780000Y-85070000D03*
D12*
X372330000Y-83170000D03*
D11*
X373180000Y-83170000D03*
D10*
X376279992Y-87769836D03*
D15*
X367379992Y-79369836D03*
D16*
X367379992Y-84269836D03*
G04 #@! TD*
D10*
G04 #@! TO.C,S2*
X94499992Y-76769836D03*
D11*
X97600000Y-83170000D03*
D12*
X98450000Y-83170000D03*
D13*
X100000000Y-81270000D03*
D14*
X100000000Y-83170000D03*
D13*
X100000000Y-85070000D03*
D12*
X101550000Y-83170000D03*
D11*
X102400000Y-83170000D03*
D10*
X105499992Y-87769836D03*
D15*
X96599992Y-79369836D03*
D16*
X96599992Y-84269836D03*
G04 #@! TD*
D10*
G04 #@! TO.C,S38*
X276429992Y-58999836D03*
D11*
X279530000Y-65400000D03*
D12*
X280380000Y-65400000D03*
D13*
X281930000Y-63500000D03*
D14*
X281930000Y-65400000D03*
D13*
X281930000Y-67300000D03*
D12*
X283480000Y-65400000D03*
D11*
X284330000Y-65400000D03*
D10*
X287429992Y-69999836D03*
D15*
X278529992Y-61599836D03*
D16*
X278529992Y-66499836D03*
G04 #@! TD*
D10*
G04 #@! TO.C,S27*
X347509992Y-58999836D03*
D11*
X350610000Y-65400000D03*
D12*
X351460000Y-65400000D03*
D13*
X353010000Y-63500000D03*
D14*
X353010000Y-65400000D03*
D13*
X353010000Y-67300000D03*
D12*
X354560000Y-65400000D03*
D11*
X355410000Y-65400000D03*
D10*
X358509992Y-69999836D03*
D15*
X349609992Y-61599836D03*
D16*
X349609992Y-66499836D03*
G04 #@! TD*
D10*
G04 #@! TO.C,S8*
X130039992Y-64330836D03*
D11*
X133140000Y-70731000D03*
D12*
X133990000Y-70731000D03*
D13*
X135540000Y-68831000D03*
D14*
X135540000Y-70731000D03*
D13*
X135540000Y-72631000D03*
D12*
X137090000Y-70731000D03*
D11*
X137940000Y-70731000D03*
D10*
X141039992Y-75330836D03*
D15*
X132139992Y-66930836D03*
D16*
X132139992Y-71830836D03*
G04 #@! TD*
D10*
G04 #@! TO.C,S29*
X329739992Y-64330836D03*
D11*
X332840000Y-70731000D03*
D12*
X333690000Y-70731000D03*
D13*
X335240000Y-68831000D03*
D14*
X335240000Y-70731000D03*
D13*
X335240000Y-72631000D03*
D12*
X336790000Y-70731000D03*
D11*
X337640000Y-70731000D03*
D10*
X340739992Y-75330836D03*
D15*
X331839992Y-66930836D03*
D16*
X331839992Y-71830836D03*
G04 #@! TD*
D10*
G04 #@! TO.C,S35*
X294199992Y-58999836D03*
D11*
X297300000Y-65400000D03*
D12*
X298150000Y-65400000D03*
D13*
X299700000Y-63500000D03*
D14*
X299700000Y-65400000D03*
D13*
X299700000Y-67300000D03*
D12*
X301250000Y-65400000D03*
D11*
X302100000Y-65400000D03*
D10*
X305199992Y-69999836D03*
D15*
X296299992Y-61599836D03*
D16*
X296299992Y-66499836D03*
G04 #@! TD*
D10*
G04 #@! TO.C,S24*
X365279992Y-58999836D03*
D11*
X368380000Y-65400000D03*
D12*
X369230000Y-65400000D03*
D13*
X370780000Y-63500000D03*
D14*
X370780000Y-65400000D03*
D13*
X370780000Y-67300000D03*
D12*
X372330000Y-65400000D03*
D11*
X373180000Y-65400000D03*
D10*
X376279992Y-69999836D03*
D15*
X367379992Y-61599836D03*
D16*
X367379992Y-66499836D03*
G04 #@! TD*
D10*
G04 #@! TO.C,S37*
X276429992Y-76769836D03*
D11*
X279530000Y-83170000D03*
D12*
X280380000Y-83170000D03*
D13*
X281930000Y-81270000D03*
D14*
X281930000Y-83170000D03*
D13*
X281930000Y-85070000D03*
D12*
X283480000Y-83170000D03*
D11*
X284330000Y-83170000D03*
D10*
X287429992Y-87769836D03*
D15*
X278529992Y-79369836D03*
D16*
X278529992Y-84269836D03*
G04 #@! TD*
D17*
G04 #@! TO.C,_65*
X222760370Y-105331000D03*
X223237678Y-104178678D03*
X223237678Y-106483322D03*
X224390000Y-103701370D03*
D18*
X224390000Y-105331000D03*
D17*
X224390000Y-106960630D03*
X225542322Y-104178678D03*
X225542322Y-106483322D03*
X226019630Y-105331000D03*
G04 #@! TD*
D10*
G04 #@! TO.C,S39*
X276429992Y-41229836D03*
D11*
X279530000Y-47630000D03*
D12*
X280380000Y-47630000D03*
D13*
X281930000Y-45730000D03*
D14*
X281930000Y-47630000D03*
D13*
X281930000Y-49530000D03*
D12*
X283480000Y-47630000D03*
D11*
X284330000Y-47630000D03*
D10*
X287429992Y-52229836D03*
D15*
X278529992Y-43829836D03*
D16*
X278529992Y-48729836D03*
G04 #@! TD*
D10*
G04 #@! TO.C,S26*
X347509992Y-76769836D03*
D11*
X350610000Y-83170000D03*
D12*
X351460000Y-83170000D03*
D13*
X353010000Y-81270000D03*
D14*
X353010000Y-83170000D03*
D13*
X353010000Y-85070000D03*
D12*
X354560000Y-83170000D03*
D11*
X355410000Y-83170000D03*
D10*
X358509992Y-87769836D03*
D15*
X349609992Y-79369836D03*
D16*
X349609992Y-84269836D03*
G04 #@! TD*
D10*
G04 #@! TO.C,S18*
X183349992Y-41229836D03*
D11*
X186450000Y-47630000D03*
D12*
X187300000Y-47630000D03*
D13*
X188850000Y-45730000D03*
D14*
X188850000Y-47630000D03*
D13*
X188850000Y-49530000D03*
D12*
X190400000Y-47630000D03*
D11*
X191250000Y-47630000D03*
D10*
X194349992Y-52229836D03*
D15*
X185449992Y-43829836D03*
D16*
X185449992Y-48729836D03*
G04 #@! TD*
D10*
G04 #@! TO.C,S17*
X183349992Y-58999836D03*
D11*
X186450000Y-65400000D03*
D12*
X187300000Y-65400000D03*
D13*
X188850000Y-63500000D03*
D14*
X188850000Y-65400000D03*
D13*
X188850000Y-67300000D03*
D12*
X190400000Y-65400000D03*
D11*
X191250000Y-65400000D03*
D10*
X194349992Y-69999836D03*
D15*
X185449992Y-61599836D03*
D16*
X185449992Y-66499836D03*
G04 #@! TD*
D10*
G04 #@! TO.C,S31*
X311969992Y-73215836D03*
D11*
X315070000Y-79616000D03*
D12*
X315920000Y-79616000D03*
D13*
X317470000Y-77716000D03*
D14*
X317470000Y-79616000D03*
D13*
X317470000Y-81516000D03*
D12*
X319020000Y-79616000D03*
D11*
X319870000Y-79616000D03*
D10*
X322969992Y-84215836D03*
D15*
X314069992Y-75815836D03*
D16*
X314069992Y-80715836D03*
G04 #@! TD*
D17*
G04 #@! TO.C,_63*
X204990370Y-82230000D03*
X205467678Y-81077678D03*
X205467678Y-83382322D03*
X206620000Y-80600370D03*
D18*
X206620000Y-82230000D03*
D17*
X206620000Y-83859630D03*
X207772322Y-81077678D03*
X207772322Y-83382322D03*
X208249630Y-82230000D03*
G04 #@! TD*
D20*
G04 #@! TO.C,D33*
X318720000Y-48136000D03*
X316220000Y-48136000D03*
G04 #@! TD*
G04 #@! TO.C,D5*
X119020000Y-87230000D03*
X116520000Y-87230000D03*
G04 #@! TD*
G04 #@! TO.C,D3*
X101250000Y-69460000D03*
X98750000Y-69460000D03*
G04 #@! TD*
G04 #@! TO.C,D7*
X136790000Y-92561000D03*
X134290000Y-92561000D03*
G04 #@! TD*
G04 #@! TO.C,D20*
X193654000Y-105000000D03*
X191154000Y-105000000D03*
G04 #@! TD*
G04 #@! TO.C,D27*
X354260000Y-69460000D03*
X351760000Y-69460000D03*
G04 #@! TD*
G04 #@! TO.C,D18*
X190100000Y-51690000D03*
X187600000Y-51690000D03*
G04 #@! TD*
G04 #@! TO.C,D35*
X300950000Y-69460000D03*
X298450000Y-69460000D03*
G04 #@! TD*
G04 #@! TO.C,D31*
X318720000Y-83676000D03*
X316220000Y-83676000D03*
G04 #@! TD*
G04 #@! TO.C,D15*
X172330000Y-51690000D03*
X169830000Y-51690000D03*
G04 #@! TD*
G04 #@! TO.C,D24*
X372030000Y-69460000D03*
X369530000Y-69460000D03*
G04 #@! TD*
G04 #@! TO.C,D16*
X190100000Y-87230000D03*
X187600000Y-87230000D03*
G04 #@! TD*
G04 #@! TO.C,D9*
X136790000Y-57021000D03*
X134290000Y-57021000D03*
G04 #@! TD*
G04 #@! TO.C,D34*
X300950000Y-87230000D03*
X298450000Y-87230000D03*
G04 #@! TD*
G04 #@! TO.C,D23*
X372030000Y-87230000D03*
X369530000Y-87230000D03*
G04 #@! TD*
G04 #@! TO.C,D8*
X136790000Y-74791000D03*
X134290000Y-74791000D03*
G04 #@! TD*
G04 #@! TO.C,D21*
X211424000Y-105000000D03*
X208924000Y-105000000D03*
G04 #@! TD*
G04 #@! TO.C,D13*
X172330000Y-87230000D03*
X169830000Y-87230000D03*
G04 #@! TD*
G04 #@! TO.C,D1*
X101250000Y-105000000D03*
X98750000Y-105000000D03*
G04 #@! TD*
G04 #@! TO.C,D4*
X119020000Y-105000000D03*
X116520000Y-105000000D03*
G04 #@! TD*
G04 #@! TO.C,D6*
X119020000Y-69460000D03*
X116520000Y-69460000D03*
G04 #@! TD*
G04 #@! TO.C,D14*
X172330000Y-69460000D03*
X169830000Y-69460000D03*
G04 #@! TD*
G04 #@! TO.C,D29*
X336490000Y-74791000D03*
X333990000Y-74791000D03*
G04 #@! TD*
G04 #@! TO.C,D25*
X354260000Y-105000000D03*
X351760000Y-105000000D03*
G04 #@! TD*
G04 #@! TO.C,D30*
X336490000Y-57021000D03*
X333990000Y-57021000D03*
G04 #@! TD*
G04 #@! TO.C,D22*
X372030000Y-105000000D03*
X369530000Y-105000000D03*
G04 #@! TD*
G04 #@! TO.C,D32*
X318720000Y-65906000D03*
X316220000Y-65906000D03*
G04 #@! TD*
G04 #@! TO.C,D10*
X154560000Y-83676000D03*
X152060000Y-83676000D03*
G04 #@! TD*
G04 #@! TO.C,D19*
X175884000Y-105000000D03*
X173384000Y-105000000D03*
G04 #@! TD*
G04 #@! TO.C,D37*
X283180000Y-87230000D03*
X280680000Y-87230000D03*
G04 #@! TD*
G04 #@! TO.C,D38*
X283180000Y-69460000D03*
X280680000Y-69460000D03*
G04 #@! TD*
G04 #@! TO.C,D39*
X283180000Y-51690000D03*
X280680000Y-51690000D03*
G04 #@! TD*
G04 #@! TO.C,D40*
X297396000Y-105000000D03*
X294896000Y-105000000D03*
G04 #@! TD*
G04 #@! TO.C,D26*
X354260000Y-87230000D03*
X351760000Y-87230000D03*
G04 #@! TD*
G04 #@! TO.C,D12*
X154560000Y-48136000D03*
X152060000Y-48136000D03*
G04 #@! TD*
G04 #@! TO.C,D36*
X300950000Y-51690000D03*
X298450000Y-51690000D03*
G04 #@! TD*
G04 #@! TO.C,D2*
X101250000Y-87230000D03*
X98750000Y-87230000D03*
G04 #@! TD*
G04 #@! TO.C,D42*
X261856000Y-105000000D03*
X259356000Y-105000000D03*
G04 #@! TD*
G04 #@! TO.C,D17*
X190100000Y-69460000D03*
X187600000Y-69460000D03*
G04 #@! TD*
G04 #@! TO.C,D41*
X279626000Y-105000000D03*
X277126000Y-105000000D03*
G04 #@! TD*
G04 #@! TO.C,D28*
X336490000Y-92561000D03*
X333990000Y-92561000D03*
G04 #@! TD*
G04 #@! TO.C,D11*
X154560000Y-65906000D03*
X152060000Y-65906000D03*
G04 #@! TD*
M02*
