G04 #@! TF.GenerationSoftware,KiCad,Pcbnew,7.0.5-0*
G04 #@! TF.CreationDate,2023-06-04T16:05:39+02:00*
G04 #@! TF.ProjectId,kbd,6b62642e-6b69-4636-9164-5f7063625858,v1.0.0*
G04 #@! TF.SameCoordinates,Original*
G04 #@! TF.FileFunction,Legend,Top*
G04 #@! TF.FilePolarity,Positive*
%FSLAX46Y46*%
G04 Gerber Fmt 4.6, Leading zero omitted, Abs format (unit mm)*
G04 Created by KiCad (PCBNEW 7.0.5-0) date 2023-06-04 16:05:39*
%MOMM*%
%LPD*%
G01*
G04 APERTURE LIST*
%ADD10C,0.150000*%
%ADD11C,0.076200*%
%ADD12C,0.127000*%
%ADD13C,0.066040*%
%ADD14C,0.254000*%
G04 APERTURE END LIST*
D10*
X317916601Y-96000009D02*
X318059458Y-96047628D01*
X318059458Y-96047628D02*
X318107077Y-96095247D01*
X318107077Y-96095247D02*
X318154696Y-96190485D01*
X318154696Y-96190485D02*
X318154696Y-96333342D01*
X318154696Y-96333342D02*
X318107077Y-96428580D01*
X318107077Y-96428580D02*
X318059458Y-96476200D01*
X318059458Y-96476200D02*
X317964220Y-96523819D01*
X317964220Y-96523819D02*
X317583268Y-96523819D01*
X317583268Y-96523819D02*
X317583268Y-95523819D01*
X317583268Y-95523819D02*
X317916601Y-95523819D01*
X317916601Y-95523819D02*
X318011839Y-95571438D01*
X318011839Y-95571438D02*
X318059458Y-95619057D01*
X318059458Y-95619057D02*
X318107077Y-95714295D01*
X318107077Y-95714295D02*
X318107077Y-95809533D01*
X318107077Y-95809533D02*
X318059458Y-95904771D01*
X318059458Y-95904771D02*
X318011839Y-95952390D01*
X318011839Y-95952390D02*
X317916601Y-96000009D01*
X317916601Y-96000009D02*
X317583268Y-96000009D01*
X318535649Y-96238104D02*
X319011839Y-96238104D01*
X318440411Y-96523819D02*
X318773744Y-95523819D01*
X318773744Y-95523819D02*
X319107077Y-96523819D01*
X319297554Y-95523819D02*
X319868982Y-95523819D01*
X319583268Y-96523819D02*
X319583268Y-95523819D01*
X320202316Y-96142866D02*
X320964221Y-96142866D01*
X320583268Y-96523819D02*
X320583268Y-95761914D01*
X317916601Y-93200009D02*
X318059458Y-93247628D01*
X318059458Y-93247628D02*
X318107077Y-93295247D01*
X318107077Y-93295247D02*
X318154696Y-93390485D01*
X318154696Y-93390485D02*
X318154696Y-93533342D01*
X318154696Y-93533342D02*
X318107077Y-93628580D01*
X318107077Y-93628580D02*
X318059458Y-93676200D01*
X318059458Y-93676200D02*
X317964220Y-93723819D01*
X317964220Y-93723819D02*
X317583268Y-93723819D01*
X317583268Y-93723819D02*
X317583268Y-92723819D01*
X317583268Y-92723819D02*
X317916601Y-92723819D01*
X317916601Y-92723819D02*
X318011839Y-92771438D01*
X318011839Y-92771438D02*
X318059458Y-92819057D01*
X318059458Y-92819057D02*
X318107077Y-92914295D01*
X318107077Y-92914295D02*
X318107077Y-93009533D01*
X318107077Y-93009533D02*
X318059458Y-93104771D01*
X318059458Y-93104771D02*
X318011839Y-93152390D01*
X318011839Y-93152390D02*
X317916601Y-93200009D01*
X317916601Y-93200009D02*
X317583268Y-93200009D01*
X318535649Y-93438104D02*
X319011839Y-93438104D01*
X318440411Y-93723819D02*
X318773744Y-92723819D01*
X318773744Y-92723819D02*
X319107077Y-93723819D01*
X319297554Y-92723819D02*
X319868982Y-92723819D01*
X319583268Y-93723819D02*
X319583268Y-92723819D01*
X320202316Y-93342866D02*
X320964221Y-93342866D01*
X116386112Y-50175009D02*
X116528969Y-50222628D01*
X116528969Y-50222628D02*
X116576588Y-50270247D01*
X116576588Y-50270247D02*
X116624207Y-50365485D01*
X116624207Y-50365485D02*
X116624207Y-50508342D01*
X116624207Y-50508342D02*
X116576588Y-50603580D01*
X116576588Y-50603580D02*
X116528969Y-50651200D01*
X116528969Y-50651200D02*
X116433731Y-50698819D01*
X116433731Y-50698819D02*
X116052779Y-50698819D01*
X116052779Y-50698819D02*
X116052779Y-49698819D01*
X116052779Y-49698819D02*
X116386112Y-49698819D01*
X116386112Y-49698819D02*
X116481350Y-49746438D01*
X116481350Y-49746438D02*
X116528969Y-49794057D01*
X116528969Y-49794057D02*
X116576588Y-49889295D01*
X116576588Y-49889295D02*
X116576588Y-49984533D01*
X116576588Y-49984533D02*
X116528969Y-50079771D01*
X116528969Y-50079771D02*
X116481350Y-50127390D01*
X116481350Y-50127390D02*
X116386112Y-50175009D01*
X116386112Y-50175009D02*
X116052779Y-50175009D01*
X117005160Y-50413104D02*
X117481350Y-50413104D01*
X116909922Y-50698819D02*
X117243255Y-49698819D01*
X117243255Y-49698819D02*
X117576588Y-50698819D01*
X117767065Y-49698819D02*
X118338493Y-49698819D01*
X118052779Y-50698819D02*
X118052779Y-49698819D01*
X118671827Y-50317866D02*
X119433732Y-50317866D01*
X119052779Y-50698819D02*
X119052779Y-49936914D01*
X127420350Y-36602200D02*
X127325112Y-36649819D01*
X127325112Y-36649819D02*
X127134636Y-36649819D01*
X127134636Y-36649819D02*
X127039398Y-36602200D01*
X127039398Y-36602200D02*
X126991779Y-36554580D01*
X126991779Y-36554580D02*
X126944160Y-36459342D01*
X126944160Y-36459342D02*
X126944160Y-36173628D01*
X126944160Y-36173628D02*
X126991779Y-36078390D01*
X126991779Y-36078390D02*
X127039398Y-36030771D01*
X127039398Y-36030771D02*
X127134636Y-35983152D01*
X127134636Y-35983152D02*
X127325112Y-35983152D01*
X127325112Y-35983152D02*
X127420350Y-36030771D01*
X127848922Y-36649819D02*
X127848922Y-35983152D01*
X127848922Y-36173628D02*
X127896541Y-36078390D01*
X127896541Y-36078390D02*
X127944160Y-36030771D01*
X127944160Y-36030771D02*
X128039398Y-35983152D01*
X128039398Y-35983152D02*
X128134636Y-35983152D01*
X128896541Y-36649819D02*
X128896541Y-36126009D01*
X128896541Y-36126009D02*
X128848922Y-36030771D01*
X128848922Y-36030771D02*
X128753684Y-35983152D01*
X128753684Y-35983152D02*
X128563208Y-35983152D01*
X128563208Y-35983152D02*
X128467970Y-36030771D01*
X128896541Y-36602200D02*
X128801303Y-36649819D01*
X128801303Y-36649819D02*
X128563208Y-36649819D01*
X128563208Y-36649819D02*
X128467970Y-36602200D01*
X128467970Y-36602200D02*
X128420351Y-36506961D01*
X128420351Y-36506961D02*
X128420351Y-36411723D01*
X128420351Y-36411723D02*
X128467970Y-36316485D01*
X128467970Y-36316485D02*
X128563208Y-36268866D01*
X128563208Y-36268866D02*
X128801303Y-36268866D01*
X128801303Y-36268866D02*
X128896541Y-36221247D01*
X129372732Y-36649819D02*
X129372732Y-35649819D01*
X129372732Y-36030771D02*
X129467970Y-35983152D01*
X129467970Y-35983152D02*
X129658446Y-35983152D01*
X129658446Y-35983152D02*
X129753684Y-36030771D01*
X129753684Y-36030771D02*
X129801303Y-36078390D01*
X129801303Y-36078390D02*
X129848922Y-36173628D01*
X129848922Y-36173628D02*
X129848922Y-36459342D01*
X129848922Y-36459342D02*
X129801303Y-36554580D01*
X129801303Y-36554580D02*
X129753684Y-36602200D01*
X129753684Y-36602200D02*
X129658446Y-36649819D01*
X129658446Y-36649819D02*
X129467970Y-36649819D01*
X129467970Y-36649819D02*
X129372732Y-36602200D01*
X130706065Y-36649819D02*
X130706065Y-36126009D01*
X130706065Y-36126009D02*
X130658446Y-36030771D01*
X130658446Y-36030771D02*
X130563208Y-35983152D01*
X130563208Y-35983152D02*
X130372732Y-35983152D01*
X130372732Y-35983152D02*
X130277494Y-36030771D01*
X130706065Y-36602200D02*
X130610827Y-36649819D01*
X130610827Y-36649819D02*
X130372732Y-36649819D01*
X130372732Y-36649819D02*
X130277494Y-36602200D01*
X130277494Y-36602200D02*
X130229875Y-36506961D01*
X130229875Y-36506961D02*
X130229875Y-36411723D01*
X130229875Y-36411723D02*
X130277494Y-36316485D01*
X130277494Y-36316485D02*
X130372732Y-36268866D01*
X130372732Y-36268866D02*
X130610827Y-36268866D01*
X130610827Y-36268866D02*
X130706065Y-36221247D01*
X131182256Y-35983152D02*
X131182256Y-36983152D01*
X131182256Y-36030771D02*
X131277494Y-35983152D01*
X131277494Y-35983152D02*
X131467970Y-35983152D01*
X131467970Y-35983152D02*
X131563208Y-36030771D01*
X131563208Y-36030771D02*
X131610827Y-36078390D01*
X131610827Y-36078390D02*
X131658446Y-36173628D01*
X131658446Y-36173628D02*
X131658446Y-36459342D01*
X131658446Y-36459342D02*
X131610827Y-36554580D01*
X131610827Y-36554580D02*
X131563208Y-36602200D01*
X131563208Y-36602200D02*
X131467970Y-36649819D01*
X131467970Y-36649819D02*
X131277494Y-36649819D01*
X131277494Y-36649819D02*
X131182256Y-36602200D01*
X132087018Y-35983152D02*
X132087018Y-36983152D01*
X132087018Y-36030771D02*
X132182256Y-35983152D01*
X132182256Y-35983152D02*
X132372732Y-35983152D01*
X132372732Y-35983152D02*
X132467970Y-36030771D01*
X132467970Y-36030771D02*
X132515589Y-36078390D01*
X132515589Y-36078390D02*
X132563208Y-36173628D01*
X132563208Y-36173628D02*
X132563208Y-36459342D01*
X132563208Y-36459342D02*
X132515589Y-36554580D01*
X132515589Y-36554580D02*
X132467970Y-36602200D01*
X132467970Y-36602200D02*
X132372732Y-36649819D01*
X132372732Y-36649819D02*
X132182256Y-36649819D01*
X132182256Y-36649819D02*
X132087018Y-36602200D01*
X133134637Y-36649819D02*
X133039399Y-36602200D01*
X133039399Y-36602200D02*
X132991780Y-36506961D01*
X132991780Y-36506961D02*
X132991780Y-35649819D01*
X133896542Y-36602200D02*
X133801304Y-36649819D01*
X133801304Y-36649819D02*
X133610828Y-36649819D01*
X133610828Y-36649819D02*
X133515590Y-36602200D01*
X133515590Y-36602200D02*
X133467971Y-36506961D01*
X133467971Y-36506961D02*
X133467971Y-36126009D01*
X133467971Y-36126009D02*
X133515590Y-36030771D01*
X133515590Y-36030771D02*
X133610828Y-35983152D01*
X133610828Y-35983152D02*
X133801304Y-35983152D01*
X133801304Y-35983152D02*
X133896542Y-36030771D01*
X133896542Y-36030771D02*
X133944161Y-36126009D01*
X133944161Y-36126009D02*
X133944161Y-36221247D01*
X133944161Y-36221247D02*
X133467971Y-36316485D01*
X134372733Y-35983152D02*
X134372733Y-36983152D01*
X134372733Y-36030771D02*
X134467971Y-35983152D01*
X134467971Y-35983152D02*
X134658447Y-35983152D01*
X134658447Y-35983152D02*
X134753685Y-36030771D01*
X134753685Y-36030771D02*
X134801304Y-36078390D01*
X134801304Y-36078390D02*
X134848923Y-36173628D01*
X134848923Y-36173628D02*
X134848923Y-36459342D01*
X134848923Y-36459342D02*
X134801304Y-36554580D01*
X134801304Y-36554580D02*
X134753685Y-36602200D01*
X134753685Y-36602200D02*
X134658447Y-36649819D01*
X134658447Y-36649819D02*
X134467971Y-36649819D01*
X134467971Y-36649819D02*
X134372733Y-36602200D01*
X135706066Y-36649819D02*
X135706066Y-36126009D01*
X135706066Y-36126009D02*
X135658447Y-36030771D01*
X135658447Y-36030771D02*
X135563209Y-35983152D01*
X135563209Y-35983152D02*
X135372733Y-35983152D01*
X135372733Y-35983152D02*
X135277495Y-36030771D01*
X135706066Y-36602200D02*
X135610828Y-36649819D01*
X135610828Y-36649819D02*
X135372733Y-36649819D01*
X135372733Y-36649819D02*
X135277495Y-36602200D01*
X135277495Y-36602200D02*
X135229876Y-36506961D01*
X135229876Y-36506961D02*
X135229876Y-36411723D01*
X135229876Y-36411723D02*
X135277495Y-36316485D01*
X135277495Y-36316485D02*
X135372733Y-36268866D01*
X135372733Y-36268866D02*
X135610828Y-36268866D01*
X135610828Y-36268866D02*
X135706066Y-36221247D01*
X136610828Y-36649819D02*
X136610828Y-35649819D01*
X136610828Y-36602200D02*
X136515590Y-36649819D01*
X136515590Y-36649819D02*
X136325114Y-36649819D01*
X136325114Y-36649819D02*
X136229876Y-36602200D01*
X136229876Y-36602200D02*
X136182257Y-36554580D01*
X136182257Y-36554580D02*
X136134638Y-36459342D01*
X136134638Y-36459342D02*
X136134638Y-36173628D01*
X136134638Y-36173628D02*
X136182257Y-36078390D01*
X136182257Y-36078390D02*
X136229876Y-36030771D01*
X136229876Y-36030771D02*
X136325114Y-35983152D01*
X136325114Y-35983152D02*
X136515590Y-35983152D01*
X136515590Y-35983152D02*
X136610828Y-36030771D01*
X137753686Y-35983152D02*
X137991781Y-36649819D01*
X137991781Y-36649819D02*
X138229876Y-35983152D01*
X139134638Y-36649819D02*
X138563210Y-36649819D01*
X138848924Y-36649819D02*
X138848924Y-35649819D01*
X138848924Y-35649819D02*
X138753686Y-35792676D01*
X138753686Y-35792676D02*
X138658448Y-35887914D01*
X138658448Y-35887914D02*
X138563210Y-35935533D01*
X139563210Y-36554580D02*
X139610829Y-36602200D01*
X139610829Y-36602200D02*
X139563210Y-36649819D01*
X139563210Y-36649819D02*
X139515591Y-36602200D01*
X139515591Y-36602200D02*
X139563210Y-36554580D01*
X139563210Y-36554580D02*
X139563210Y-36649819D01*
X140229876Y-35649819D02*
X140325114Y-35649819D01*
X140325114Y-35649819D02*
X140420352Y-35697438D01*
X140420352Y-35697438D02*
X140467971Y-35745057D01*
X140467971Y-35745057D02*
X140515590Y-35840295D01*
X140515590Y-35840295D02*
X140563209Y-36030771D01*
X140563209Y-36030771D02*
X140563209Y-36268866D01*
X140563209Y-36268866D02*
X140515590Y-36459342D01*
X140515590Y-36459342D02*
X140467971Y-36554580D01*
X140467971Y-36554580D02*
X140420352Y-36602200D01*
X140420352Y-36602200D02*
X140325114Y-36649819D01*
X140325114Y-36649819D02*
X140229876Y-36649819D01*
X140229876Y-36649819D02*
X140134638Y-36602200D01*
X140134638Y-36602200D02*
X140087019Y-36554580D01*
X140087019Y-36554580D02*
X140039400Y-36459342D01*
X140039400Y-36459342D02*
X139991781Y-36268866D01*
X139991781Y-36268866D02*
X139991781Y-36030771D01*
X139991781Y-36030771D02*
X140039400Y-35840295D01*
X140039400Y-35840295D02*
X140087019Y-35745057D01*
X140087019Y-35745057D02*
X140134638Y-35697438D01*
X140134638Y-35697438D02*
X140229876Y-35649819D01*
X126991779Y-38259819D02*
X126991779Y-37259819D01*
X126991779Y-37640771D02*
X127087017Y-37593152D01*
X127087017Y-37593152D02*
X127277493Y-37593152D01*
X127277493Y-37593152D02*
X127372731Y-37640771D01*
X127372731Y-37640771D02*
X127420350Y-37688390D01*
X127420350Y-37688390D02*
X127467969Y-37783628D01*
X127467969Y-37783628D02*
X127467969Y-38069342D01*
X127467969Y-38069342D02*
X127420350Y-38164580D01*
X127420350Y-38164580D02*
X127372731Y-38212200D01*
X127372731Y-38212200D02*
X127277493Y-38259819D01*
X127277493Y-38259819D02*
X127087017Y-38259819D01*
X127087017Y-38259819D02*
X126991779Y-38212200D01*
X127801303Y-37593152D02*
X128039398Y-38259819D01*
X128277493Y-37593152D02*
X128039398Y-38259819D01*
X128039398Y-38259819D02*
X127944160Y-38497914D01*
X127944160Y-38497914D02*
X127896541Y-38545533D01*
X127896541Y-38545533D02*
X127801303Y-38593152D01*
X130039398Y-37783628D02*
X129991779Y-37736009D01*
X129991779Y-37736009D02*
X129896541Y-37688390D01*
X129896541Y-37688390D02*
X129801303Y-37688390D01*
X129801303Y-37688390D02*
X129706065Y-37736009D01*
X129706065Y-37736009D02*
X129658446Y-37783628D01*
X129658446Y-37783628D02*
X129610827Y-37878866D01*
X129610827Y-37878866D02*
X129610827Y-37974104D01*
X129610827Y-37974104D02*
X129658446Y-38069342D01*
X129658446Y-38069342D02*
X129706065Y-38116961D01*
X129706065Y-38116961D02*
X129801303Y-38164580D01*
X129801303Y-38164580D02*
X129896541Y-38164580D01*
X129896541Y-38164580D02*
X129991779Y-38116961D01*
X129991779Y-38116961D02*
X130039398Y-38069342D01*
X130039398Y-37688390D02*
X130039398Y-38069342D01*
X130039398Y-38069342D02*
X130087017Y-38116961D01*
X130087017Y-38116961D02*
X130134636Y-38116961D01*
X130134636Y-38116961D02*
X130229875Y-38069342D01*
X130229875Y-38069342D02*
X130277494Y-37974104D01*
X130277494Y-37974104D02*
X130277494Y-37736009D01*
X130277494Y-37736009D02*
X130182256Y-37593152D01*
X130182256Y-37593152D02*
X130039398Y-37497914D01*
X130039398Y-37497914D02*
X129848922Y-37450295D01*
X129848922Y-37450295D02*
X129658446Y-37497914D01*
X129658446Y-37497914D02*
X129515589Y-37593152D01*
X129515589Y-37593152D02*
X129420351Y-37736009D01*
X129420351Y-37736009D02*
X129372732Y-37926485D01*
X129372732Y-37926485D02*
X129420351Y-38116961D01*
X129420351Y-38116961D02*
X129515589Y-38259819D01*
X129515589Y-38259819D02*
X129658446Y-38355057D01*
X129658446Y-38355057D02*
X129848922Y-38402676D01*
X129848922Y-38402676D02*
X130039398Y-38355057D01*
X130039398Y-38355057D02*
X130182256Y-38259819D01*
X130706065Y-38259819D02*
X130706065Y-37259819D01*
X130801303Y-37878866D02*
X131087017Y-38259819D01*
X131087017Y-37593152D02*
X130706065Y-37974104D01*
X131944160Y-37593152D02*
X131944160Y-38259819D01*
X131515589Y-37593152D02*
X131515589Y-38116961D01*
X131515589Y-38116961D02*
X131563208Y-38212200D01*
X131563208Y-38212200D02*
X131658446Y-38259819D01*
X131658446Y-38259819D02*
X131801303Y-38259819D01*
X131801303Y-38259819D02*
X131896541Y-38212200D01*
X131896541Y-38212200D02*
X131944160Y-38164580D01*
X132420351Y-38259819D02*
X132420351Y-37593152D01*
X132420351Y-37688390D02*
X132467970Y-37640771D01*
X132467970Y-37640771D02*
X132563208Y-37593152D01*
X132563208Y-37593152D02*
X132706065Y-37593152D01*
X132706065Y-37593152D02*
X132801303Y-37640771D01*
X132801303Y-37640771D02*
X132848922Y-37736009D01*
X132848922Y-37736009D02*
X132848922Y-38259819D01*
X132848922Y-37736009D02*
X132896541Y-37640771D01*
X132896541Y-37640771D02*
X132991779Y-37593152D01*
X132991779Y-37593152D02*
X133134636Y-37593152D01*
X133134636Y-37593152D02*
X133229875Y-37640771D01*
X133229875Y-37640771D02*
X133277494Y-37736009D01*
X133277494Y-37736009D02*
X133277494Y-38259819D01*
X134134636Y-38212200D02*
X134039398Y-38259819D01*
X134039398Y-38259819D02*
X133848922Y-38259819D01*
X133848922Y-38259819D02*
X133753684Y-38212200D01*
X133753684Y-38212200D02*
X133706065Y-38116961D01*
X133706065Y-38116961D02*
X133706065Y-37736009D01*
X133706065Y-37736009D02*
X133753684Y-37640771D01*
X133753684Y-37640771D02*
X133848922Y-37593152D01*
X133848922Y-37593152D02*
X134039398Y-37593152D01*
X134039398Y-37593152D02*
X134134636Y-37640771D01*
X134134636Y-37640771D02*
X134182255Y-37736009D01*
X134182255Y-37736009D02*
X134182255Y-37831247D01*
X134182255Y-37831247D02*
X133706065Y-37926485D01*
X134610827Y-38259819D02*
X134610827Y-37259819D01*
X134706065Y-37878866D02*
X134991779Y-38259819D01*
X134991779Y-37593152D02*
X134610827Y-37974104D01*
X135848922Y-38259819D02*
X135848922Y-37736009D01*
X135848922Y-37736009D02*
X135801303Y-37640771D01*
X135801303Y-37640771D02*
X135706065Y-37593152D01*
X135706065Y-37593152D02*
X135515589Y-37593152D01*
X135515589Y-37593152D02*
X135420351Y-37640771D01*
X135848922Y-38212200D02*
X135753684Y-38259819D01*
X135753684Y-38259819D02*
X135515589Y-38259819D01*
X135515589Y-38259819D02*
X135420351Y-38212200D01*
X135420351Y-38212200D02*
X135372732Y-38116961D01*
X135372732Y-38116961D02*
X135372732Y-38021723D01*
X135372732Y-38021723D02*
X135420351Y-37926485D01*
X135420351Y-37926485D02*
X135515589Y-37878866D01*
X135515589Y-37878866D02*
X135753684Y-37878866D01*
X135753684Y-37878866D02*
X135848922Y-37831247D01*
X136229875Y-37593152D02*
X136467970Y-38259819D01*
X136706065Y-37593152D02*
X136467970Y-38259819D01*
X136467970Y-38259819D02*
X136372732Y-38497914D01*
X136372732Y-38497914D02*
X136325113Y-38545533D01*
X136325113Y-38545533D02*
X136229875Y-38593152D01*
X137801304Y-37355057D02*
X137848923Y-37307438D01*
X137848923Y-37307438D02*
X137944161Y-37259819D01*
X137944161Y-37259819D02*
X138182256Y-37259819D01*
X138182256Y-37259819D02*
X138277494Y-37307438D01*
X138277494Y-37307438D02*
X138325113Y-37355057D01*
X138325113Y-37355057D02*
X138372732Y-37450295D01*
X138372732Y-37450295D02*
X138372732Y-37545533D01*
X138372732Y-37545533D02*
X138325113Y-37688390D01*
X138325113Y-37688390D02*
X137753685Y-38259819D01*
X137753685Y-38259819D02*
X138372732Y-38259819D01*
X138991780Y-37259819D02*
X139087018Y-37259819D01*
X139087018Y-37259819D02*
X139182256Y-37307438D01*
X139182256Y-37307438D02*
X139229875Y-37355057D01*
X139229875Y-37355057D02*
X139277494Y-37450295D01*
X139277494Y-37450295D02*
X139325113Y-37640771D01*
X139325113Y-37640771D02*
X139325113Y-37878866D01*
X139325113Y-37878866D02*
X139277494Y-38069342D01*
X139277494Y-38069342D02*
X139229875Y-38164580D01*
X139229875Y-38164580D02*
X139182256Y-38212200D01*
X139182256Y-38212200D02*
X139087018Y-38259819D01*
X139087018Y-38259819D02*
X138991780Y-38259819D01*
X138991780Y-38259819D02*
X138896542Y-38212200D01*
X138896542Y-38212200D02*
X138848923Y-38164580D01*
X138848923Y-38164580D02*
X138801304Y-38069342D01*
X138801304Y-38069342D02*
X138753685Y-37878866D01*
X138753685Y-37878866D02*
X138753685Y-37640771D01*
X138753685Y-37640771D02*
X138801304Y-37450295D01*
X138801304Y-37450295D02*
X138848923Y-37355057D01*
X138848923Y-37355057D02*
X138896542Y-37307438D01*
X138896542Y-37307438D02*
X138991780Y-37259819D01*
X139706066Y-37355057D02*
X139753685Y-37307438D01*
X139753685Y-37307438D02*
X139848923Y-37259819D01*
X139848923Y-37259819D02*
X140087018Y-37259819D01*
X140087018Y-37259819D02*
X140182256Y-37307438D01*
X140182256Y-37307438D02*
X140229875Y-37355057D01*
X140229875Y-37355057D02*
X140277494Y-37450295D01*
X140277494Y-37450295D02*
X140277494Y-37545533D01*
X140277494Y-37545533D02*
X140229875Y-37688390D01*
X140229875Y-37688390D02*
X139658447Y-38259819D01*
X139658447Y-38259819D02*
X140277494Y-38259819D01*
X140610828Y-37259819D02*
X141229875Y-37259819D01*
X141229875Y-37259819D02*
X140896542Y-37640771D01*
X140896542Y-37640771D02*
X141039399Y-37640771D01*
X141039399Y-37640771D02*
X141134637Y-37688390D01*
X141134637Y-37688390D02*
X141182256Y-37736009D01*
X141182256Y-37736009D02*
X141229875Y-37831247D01*
X141229875Y-37831247D02*
X141229875Y-38069342D01*
X141229875Y-38069342D02*
X141182256Y-38164580D01*
X141182256Y-38164580D02*
X141134637Y-38212200D01*
X141134637Y-38212200D02*
X141039399Y-38259819D01*
X141039399Y-38259819D02*
X140753685Y-38259819D01*
X140753685Y-38259819D02*
X140658447Y-38212200D01*
X140658447Y-38212200D02*
X140610828Y-38164580D01*
X127134636Y-39869819D02*
X127039398Y-39822200D01*
X127039398Y-39822200D02*
X126991779Y-39726961D01*
X126991779Y-39726961D02*
X126991779Y-38869819D01*
X127896541Y-39822200D02*
X127801303Y-39869819D01*
X127801303Y-39869819D02*
X127610827Y-39869819D01*
X127610827Y-39869819D02*
X127515589Y-39822200D01*
X127515589Y-39822200D02*
X127467970Y-39726961D01*
X127467970Y-39726961D02*
X127467970Y-39346009D01*
X127467970Y-39346009D02*
X127515589Y-39250771D01*
X127515589Y-39250771D02*
X127610827Y-39203152D01*
X127610827Y-39203152D02*
X127801303Y-39203152D01*
X127801303Y-39203152D02*
X127896541Y-39250771D01*
X127896541Y-39250771D02*
X127944160Y-39346009D01*
X127944160Y-39346009D02*
X127944160Y-39441247D01*
X127944160Y-39441247D02*
X127467970Y-39536485D01*
X128229875Y-39203152D02*
X128610827Y-39203152D01*
X128372732Y-39869819D02*
X128372732Y-39012676D01*
X128372732Y-39012676D02*
X128420351Y-38917438D01*
X128420351Y-38917438D02*
X128515589Y-38869819D01*
X128515589Y-38869819D02*
X128610827Y-38869819D01*
X128801304Y-39203152D02*
X129182256Y-39203152D01*
X128944161Y-38869819D02*
X128944161Y-39726961D01*
X128944161Y-39726961D02*
X128991780Y-39822200D01*
X128991780Y-39822200D02*
X129087018Y-39869819D01*
X129087018Y-39869819D02*
X129182256Y-39869819D01*
X130229876Y-39822200D02*
X130325114Y-39869819D01*
X130325114Y-39869819D02*
X130515590Y-39869819D01*
X130515590Y-39869819D02*
X130610828Y-39822200D01*
X130610828Y-39822200D02*
X130658447Y-39726961D01*
X130658447Y-39726961D02*
X130658447Y-39679342D01*
X130658447Y-39679342D02*
X130610828Y-39584104D01*
X130610828Y-39584104D02*
X130515590Y-39536485D01*
X130515590Y-39536485D02*
X130372733Y-39536485D01*
X130372733Y-39536485D02*
X130277495Y-39488866D01*
X130277495Y-39488866D02*
X130229876Y-39393628D01*
X130229876Y-39393628D02*
X130229876Y-39346009D01*
X130229876Y-39346009D02*
X130277495Y-39250771D01*
X130277495Y-39250771D02*
X130372733Y-39203152D01*
X130372733Y-39203152D02*
X130515590Y-39203152D01*
X130515590Y-39203152D02*
X130610828Y-39250771D01*
X131087019Y-39869819D02*
X131087019Y-39203152D01*
X131087019Y-38869819D02*
X131039400Y-38917438D01*
X131039400Y-38917438D02*
X131087019Y-38965057D01*
X131087019Y-38965057D02*
X131134638Y-38917438D01*
X131134638Y-38917438D02*
X131087019Y-38869819D01*
X131087019Y-38869819D02*
X131087019Y-38965057D01*
X131991780Y-39869819D02*
X131991780Y-38869819D01*
X131991780Y-39822200D02*
X131896542Y-39869819D01*
X131896542Y-39869819D02*
X131706066Y-39869819D01*
X131706066Y-39869819D02*
X131610828Y-39822200D01*
X131610828Y-39822200D02*
X131563209Y-39774580D01*
X131563209Y-39774580D02*
X131515590Y-39679342D01*
X131515590Y-39679342D02*
X131515590Y-39393628D01*
X131515590Y-39393628D02*
X131563209Y-39298390D01*
X131563209Y-39298390D02*
X131610828Y-39250771D01*
X131610828Y-39250771D02*
X131706066Y-39203152D01*
X131706066Y-39203152D02*
X131896542Y-39203152D01*
X131896542Y-39203152D02*
X131991780Y-39250771D01*
X132848923Y-39822200D02*
X132753685Y-39869819D01*
X132753685Y-39869819D02*
X132563209Y-39869819D01*
X132563209Y-39869819D02*
X132467971Y-39822200D01*
X132467971Y-39822200D02*
X132420352Y-39726961D01*
X132420352Y-39726961D02*
X132420352Y-39346009D01*
X132420352Y-39346009D02*
X132467971Y-39250771D01*
X132467971Y-39250771D02*
X132563209Y-39203152D01*
X132563209Y-39203152D02*
X132753685Y-39203152D01*
X132753685Y-39203152D02*
X132848923Y-39250771D01*
X132848923Y-39250771D02*
X132896542Y-39346009D01*
X132896542Y-39346009D02*
X132896542Y-39441247D01*
X132896542Y-39441247D02*
X132420352Y-39536485D01*
X150149112Y-93200009D02*
X150291969Y-93247628D01*
X150291969Y-93247628D02*
X150339588Y-93295247D01*
X150339588Y-93295247D02*
X150387207Y-93390485D01*
X150387207Y-93390485D02*
X150387207Y-93533342D01*
X150387207Y-93533342D02*
X150339588Y-93628580D01*
X150339588Y-93628580D02*
X150291969Y-93676200D01*
X150291969Y-93676200D02*
X150196731Y-93723819D01*
X150196731Y-93723819D02*
X149815779Y-93723819D01*
X149815779Y-93723819D02*
X149815779Y-92723819D01*
X149815779Y-92723819D02*
X150149112Y-92723819D01*
X150149112Y-92723819D02*
X150244350Y-92771438D01*
X150244350Y-92771438D02*
X150291969Y-92819057D01*
X150291969Y-92819057D02*
X150339588Y-92914295D01*
X150339588Y-92914295D02*
X150339588Y-93009533D01*
X150339588Y-93009533D02*
X150291969Y-93104771D01*
X150291969Y-93104771D02*
X150244350Y-93152390D01*
X150244350Y-93152390D02*
X150149112Y-93200009D01*
X150149112Y-93200009D02*
X149815779Y-93200009D01*
X150768160Y-93438104D02*
X151244350Y-93438104D01*
X150672922Y-93723819D02*
X151006255Y-92723819D01*
X151006255Y-92723819D02*
X151339588Y-93723819D01*
X151530065Y-92723819D02*
X152101493Y-92723819D01*
X151815779Y-93723819D02*
X151815779Y-92723819D01*
X152434827Y-93342866D02*
X153196732Y-93342866D01*
X150149112Y-96000009D02*
X150291969Y-96047628D01*
X150291969Y-96047628D02*
X150339588Y-96095247D01*
X150339588Y-96095247D02*
X150387207Y-96190485D01*
X150387207Y-96190485D02*
X150387207Y-96333342D01*
X150387207Y-96333342D02*
X150339588Y-96428580D01*
X150339588Y-96428580D02*
X150291969Y-96476200D01*
X150291969Y-96476200D02*
X150196731Y-96523819D01*
X150196731Y-96523819D02*
X149815779Y-96523819D01*
X149815779Y-96523819D02*
X149815779Y-95523819D01*
X149815779Y-95523819D02*
X150149112Y-95523819D01*
X150149112Y-95523819D02*
X150244350Y-95571438D01*
X150244350Y-95571438D02*
X150291969Y-95619057D01*
X150291969Y-95619057D02*
X150339588Y-95714295D01*
X150339588Y-95714295D02*
X150339588Y-95809533D01*
X150339588Y-95809533D02*
X150291969Y-95904771D01*
X150291969Y-95904771D02*
X150244350Y-95952390D01*
X150244350Y-95952390D02*
X150149112Y-96000009D01*
X150149112Y-96000009D02*
X149815779Y-96000009D01*
X150768160Y-96238104D02*
X151244350Y-96238104D01*
X150672922Y-96523819D02*
X151006255Y-95523819D01*
X151006255Y-95523819D02*
X151339588Y-96523819D01*
X151530065Y-95523819D02*
X152101493Y-95523819D01*
X151815779Y-96523819D02*
X151815779Y-95523819D01*
X152434827Y-96142866D02*
X153196732Y-96142866D01*
X152815779Y-96523819D02*
X152815779Y-95761914D01*
X136162493Y-103008819D02*
X136162493Y-103723104D01*
X136162493Y-103723104D02*
X136114874Y-103865961D01*
X136114874Y-103865961D02*
X136019636Y-103961200D01*
X136019636Y-103961200D02*
X135876779Y-104008819D01*
X135876779Y-104008819D02*
X135781541Y-104008819D01*
X137114874Y-104008819D02*
X136638684Y-104008819D01*
X136638684Y-104008819D02*
X136638684Y-103008819D01*
X138019636Y-103913580D02*
X137972017Y-103961200D01*
X137972017Y-103961200D02*
X137829160Y-104008819D01*
X137829160Y-104008819D02*
X137733922Y-104008819D01*
X137733922Y-104008819D02*
X137591065Y-103961200D01*
X137591065Y-103961200D02*
X137495827Y-103865961D01*
X137495827Y-103865961D02*
X137448208Y-103770723D01*
X137448208Y-103770723D02*
X137400589Y-103580247D01*
X137400589Y-103580247D02*
X137400589Y-103437390D01*
X137400589Y-103437390D02*
X137448208Y-103246914D01*
X137448208Y-103246914D02*
X137495827Y-103151676D01*
X137495827Y-103151676D02*
X137591065Y-103056438D01*
X137591065Y-103056438D02*
X137733922Y-103008819D01*
X137733922Y-103008819D02*
X137829160Y-103008819D01*
X137829160Y-103008819D02*
X137972017Y-103056438D01*
X137972017Y-103056438D02*
X138019636Y-103104057D01*
X138733922Y-103008819D02*
X138733922Y-103723104D01*
X138733922Y-103723104D02*
X138686303Y-103865961D01*
X138686303Y-103865961D02*
X138591065Y-103961200D01*
X138591065Y-103961200D02*
X138448208Y-104008819D01*
X138448208Y-104008819D02*
X138352970Y-104008819D01*
X139686303Y-104008819D02*
X139210113Y-104008819D01*
X139210113Y-104008819D02*
X139210113Y-103008819D01*
X140591065Y-103913580D02*
X140543446Y-103961200D01*
X140543446Y-103961200D02*
X140400589Y-104008819D01*
X140400589Y-104008819D02*
X140305351Y-104008819D01*
X140305351Y-104008819D02*
X140162494Y-103961200D01*
X140162494Y-103961200D02*
X140067256Y-103865961D01*
X140067256Y-103865961D02*
X140019637Y-103770723D01*
X140019637Y-103770723D02*
X139972018Y-103580247D01*
X139972018Y-103580247D02*
X139972018Y-103437390D01*
X139972018Y-103437390D02*
X140019637Y-103246914D01*
X140019637Y-103246914D02*
X140067256Y-103151676D01*
X140067256Y-103151676D02*
X140162494Y-103056438D01*
X140162494Y-103056438D02*
X140305351Y-103008819D01*
X140305351Y-103008819D02*
X140400589Y-103008819D01*
X140400589Y-103008819D02*
X140543446Y-103056438D01*
X140543446Y-103056438D02*
X140591065Y-103104057D01*
X141305351Y-103008819D02*
X141305351Y-103723104D01*
X141305351Y-103723104D02*
X141257732Y-103865961D01*
X141257732Y-103865961D02*
X141162494Y-103961200D01*
X141162494Y-103961200D02*
X141019637Y-104008819D01*
X141019637Y-104008819D02*
X140924399Y-104008819D01*
X142257732Y-104008819D02*
X141781542Y-104008819D01*
X141781542Y-104008819D02*
X141781542Y-103008819D01*
X143162494Y-103913580D02*
X143114875Y-103961200D01*
X143114875Y-103961200D02*
X142972018Y-104008819D01*
X142972018Y-104008819D02*
X142876780Y-104008819D01*
X142876780Y-104008819D02*
X142733923Y-103961200D01*
X142733923Y-103961200D02*
X142638685Y-103865961D01*
X142638685Y-103865961D02*
X142591066Y-103770723D01*
X142591066Y-103770723D02*
X142543447Y-103580247D01*
X142543447Y-103580247D02*
X142543447Y-103437390D01*
X142543447Y-103437390D02*
X142591066Y-103246914D01*
X142591066Y-103246914D02*
X142638685Y-103151676D01*
X142638685Y-103151676D02*
X142733923Y-103056438D01*
X142733923Y-103056438D02*
X142876780Y-103008819D01*
X142876780Y-103008819D02*
X142972018Y-103008819D01*
X142972018Y-103008819D02*
X143114875Y-103056438D01*
X143114875Y-103056438D02*
X143162494Y-103104057D01*
X143876780Y-103008819D02*
X143876780Y-103723104D01*
X143876780Y-103723104D02*
X143829161Y-103865961D01*
X143829161Y-103865961D02*
X143733923Y-103961200D01*
X143733923Y-103961200D02*
X143591066Y-104008819D01*
X143591066Y-104008819D02*
X143495828Y-104008819D01*
X144829161Y-104008819D02*
X144352971Y-104008819D01*
X144352971Y-104008819D02*
X144352971Y-103008819D01*
X145733923Y-103913580D02*
X145686304Y-103961200D01*
X145686304Y-103961200D02*
X145543447Y-104008819D01*
X145543447Y-104008819D02*
X145448209Y-104008819D01*
X145448209Y-104008819D02*
X145305352Y-103961200D01*
X145305352Y-103961200D02*
X145210114Y-103865961D01*
X145210114Y-103865961D02*
X145162495Y-103770723D01*
X145162495Y-103770723D02*
X145114876Y-103580247D01*
X145114876Y-103580247D02*
X145114876Y-103437390D01*
X145114876Y-103437390D02*
X145162495Y-103246914D01*
X145162495Y-103246914D02*
X145210114Y-103151676D01*
X145210114Y-103151676D02*
X145305352Y-103056438D01*
X145305352Y-103056438D02*
X145448209Y-103008819D01*
X145448209Y-103008819D02*
X145543447Y-103008819D01*
X145543447Y-103008819D02*
X145686304Y-103056438D01*
X145686304Y-103056438D02*
X145733923Y-103104057D01*
X330692980Y-36602200D02*
X330597742Y-36649819D01*
X330597742Y-36649819D02*
X330407266Y-36649819D01*
X330407266Y-36649819D02*
X330312028Y-36602200D01*
X330312028Y-36602200D02*
X330264409Y-36554580D01*
X330264409Y-36554580D02*
X330216790Y-36459342D01*
X330216790Y-36459342D02*
X330216790Y-36173628D01*
X330216790Y-36173628D02*
X330264409Y-36078390D01*
X330264409Y-36078390D02*
X330312028Y-36030771D01*
X330312028Y-36030771D02*
X330407266Y-35983152D01*
X330407266Y-35983152D02*
X330597742Y-35983152D01*
X330597742Y-35983152D02*
X330692980Y-36030771D01*
X331121552Y-36649819D02*
X331121552Y-35983152D01*
X331121552Y-36173628D02*
X331169171Y-36078390D01*
X331169171Y-36078390D02*
X331216790Y-36030771D01*
X331216790Y-36030771D02*
X331312028Y-35983152D01*
X331312028Y-35983152D02*
X331407266Y-35983152D01*
X332169171Y-36649819D02*
X332169171Y-36126009D01*
X332169171Y-36126009D02*
X332121552Y-36030771D01*
X332121552Y-36030771D02*
X332026314Y-35983152D01*
X332026314Y-35983152D02*
X331835838Y-35983152D01*
X331835838Y-35983152D02*
X331740600Y-36030771D01*
X332169171Y-36602200D02*
X332073933Y-36649819D01*
X332073933Y-36649819D02*
X331835838Y-36649819D01*
X331835838Y-36649819D02*
X331740600Y-36602200D01*
X331740600Y-36602200D02*
X331692981Y-36506961D01*
X331692981Y-36506961D02*
X331692981Y-36411723D01*
X331692981Y-36411723D02*
X331740600Y-36316485D01*
X331740600Y-36316485D02*
X331835838Y-36268866D01*
X331835838Y-36268866D02*
X332073933Y-36268866D01*
X332073933Y-36268866D02*
X332169171Y-36221247D01*
X332645362Y-36649819D02*
X332645362Y-35649819D01*
X332645362Y-36030771D02*
X332740600Y-35983152D01*
X332740600Y-35983152D02*
X332931076Y-35983152D01*
X332931076Y-35983152D02*
X333026314Y-36030771D01*
X333026314Y-36030771D02*
X333073933Y-36078390D01*
X333073933Y-36078390D02*
X333121552Y-36173628D01*
X333121552Y-36173628D02*
X333121552Y-36459342D01*
X333121552Y-36459342D02*
X333073933Y-36554580D01*
X333073933Y-36554580D02*
X333026314Y-36602200D01*
X333026314Y-36602200D02*
X332931076Y-36649819D01*
X332931076Y-36649819D02*
X332740600Y-36649819D01*
X332740600Y-36649819D02*
X332645362Y-36602200D01*
X333978695Y-36649819D02*
X333978695Y-36126009D01*
X333978695Y-36126009D02*
X333931076Y-36030771D01*
X333931076Y-36030771D02*
X333835838Y-35983152D01*
X333835838Y-35983152D02*
X333645362Y-35983152D01*
X333645362Y-35983152D02*
X333550124Y-36030771D01*
X333978695Y-36602200D02*
X333883457Y-36649819D01*
X333883457Y-36649819D02*
X333645362Y-36649819D01*
X333645362Y-36649819D02*
X333550124Y-36602200D01*
X333550124Y-36602200D02*
X333502505Y-36506961D01*
X333502505Y-36506961D02*
X333502505Y-36411723D01*
X333502505Y-36411723D02*
X333550124Y-36316485D01*
X333550124Y-36316485D02*
X333645362Y-36268866D01*
X333645362Y-36268866D02*
X333883457Y-36268866D01*
X333883457Y-36268866D02*
X333978695Y-36221247D01*
X334454886Y-35983152D02*
X334454886Y-36983152D01*
X334454886Y-36030771D02*
X334550124Y-35983152D01*
X334550124Y-35983152D02*
X334740600Y-35983152D01*
X334740600Y-35983152D02*
X334835838Y-36030771D01*
X334835838Y-36030771D02*
X334883457Y-36078390D01*
X334883457Y-36078390D02*
X334931076Y-36173628D01*
X334931076Y-36173628D02*
X334931076Y-36459342D01*
X334931076Y-36459342D02*
X334883457Y-36554580D01*
X334883457Y-36554580D02*
X334835838Y-36602200D01*
X334835838Y-36602200D02*
X334740600Y-36649819D01*
X334740600Y-36649819D02*
X334550124Y-36649819D01*
X334550124Y-36649819D02*
X334454886Y-36602200D01*
X335359648Y-35983152D02*
X335359648Y-36983152D01*
X335359648Y-36030771D02*
X335454886Y-35983152D01*
X335454886Y-35983152D02*
X335645362Y-35983152D01*
X335645362Y-35983152D02*
X335740600Y-36030771D01*
X335740600Y-36030771D02*
X335788219Y-36078390D01*
X335788219Y-36078390D02*
X335835838Y-36173628D01*
X335835838Y-36173628D02*
X335835838Y-36459342D01*
X335835838Y-36459342D02*
X335788219Y-36554580D01*
X335788219Y-36554580D02*
X335740600Y-36602200D01*
X335740600Y-36602200D02*
X335645362Y-36649819D01*
X335645362Y-36649819D02*
X335454886Y-36649819D01*
X335454886Y-36649819D02*
X335359648Y-36602200D01*
X336407267Y-36649819D02*
X336312029Y-36602200D01*
X336312029Y-36602200D02*
X336264410Y-36506961D01*
X336264410Y-36506961D02*
X336264410Y-35649819D01*
X337169172Y-36602200D02*
X337073934Y-36649819D01*
X337073934Y-36649819D02*
X336883458Y-36649819D01*
X336883458Y-36649819D02*
X336788220Y-36602200D01*
X336788220Y-36602200D02*
X336740601Y-36506961D01*
X336740601Y-36506961D02*
X336740601Y-36126009D01*
X336740601Y-36126009D02*
X336788220Y-36030771D01*
X336788220Y-36030771D02*
X336883458Y-35983152D01*
X336883458Y-35983152D02*
X337073934Y-35983152D01*
X337073934Y-35983152D02*
X337169172Y-36030771D01*
X337169172Y-36030771D02*
X337216791Y-36126009D01*
X337216791Y-36126009D02*
X337216791Y-36221247D01*
X337216791Y-36221247D02*
X336740601Y-36316485D01*
X337645363Y-35983152D02*
X337645363Y-36983152D01*
X337645363Y-36030771D02*
X337740601Y-35983152D01*
X337740601Y-35983152D02*
X337931077Y-35983152D01*
X337931077Y-35983152D02*
X338026315Y-36030771D01*
X338026315Y-36030771D02*
X338073934Y-36078390D01*
X338073934Y-36078390D02*
X338121553Y-36173628D01*
X338121553Y-36173628D02*
X338121553Y-36459342D01*
X338121553Y-36459342D02*
X338073934Y-36554580D01*
X338073934Y-36554580D02*
X338026315Y-36602200D01*
X338026315Y-36602200D02*
X337931077Y-36649819D01*
X337931077Y-36649819D02*
X337740601Y-36649819D01*
X337740601Y-36649819D02*
X337645363Y-36602200D01*
X338978696Y-36649819D02*
X338978696Y-36126009D01*
X338978696Y-36126009D02*
X338931077Y-36030771D01*
X338931077Y-36030771D02*
X338835839Y-35983152D01*
X338835839Y-35983152D02*
X338645363Y-35983152D01*
X338645363Y-35983152D02*
X338550125Y-36030771D01*
X338978696Y-36602200D02*
X338883458Y-36649819D01*
X338883458Y-36649819D02*
X338645363Y-36649819D01*
X338645363Y-36649819D02*
X338550125Y-36602200D01*
X338550125Y-36602200D02*
X338502506Y-36506961D01*
X338502506Y-36506961D02*
X338502506Y-36411723D01*
X338502506Y-36411723D02*
X338550125Y-36316485D01*
X338550125Y-36316485D02*
X338645363Y-36268866D01*
X338645363Y-36268866D02*
X338883458Y-36268866D01*
X338883458Y-36268866D02*
X338978696Y-36221247D01*
X339883458Y-36649819D02*
X339883458Y-35649819D01*
X339883458Y-36602200D02*
X339788220Y-36649819D01*
X339788220Y-36649819D02*
X339597744Y-36649819D01*
X339597744Y-36649819D02*
X339502506Y-36602200D01*
X339502506Y-36602200D02*
X339454887Y-36554580D01*
X339454887Y-36554580D02*
X339407268Y-36459342D01*
X339407268Y-36459342D02*
X339407268Y-36173628D01*
X339407268Y-36173628D02*
X339454887Y-36078390D01*
X339454887Y-36078390D02*
X339502506Y-36030771D01*
X339502506Y-36030771D02*
X339597744Y-35983152D01*
X339597744Y-35983152D02*
X339788220Y-35983152D01*
X339788220Y-35983152D02*
X339883458Y-36030771D01*
X341026316Y-35983152D02*
X341264411Y-36649819D01*
X341264411Y-36649819D02*
X341502506Y-35983152D01*
X342407268Y-36649819D02*
X341835840Y-36649819D01*
X342121554Y-36649819D02*
X342121554Y-35649819D01*
X342121554Y-35649819D02*
X342026316Y-35792676D01*
X342026316Y-35792676D02*
X341931078Y-35887914D01*
X341931078Y-35887914D02*
X341835840Y-35935533D01*
X342835840Y-36554580D02*
X342883459Y-36602200D01*
X342883459Y-36602200D02*
X342835840Y-36649819D01*
X342835840Y-36649819D02*
X342788221Y-36602200D01*
X342788221Y-36602200D02*
X342835840Y-36554580D01*
X342835840Y-36554580D02*
X342835840Y-36649819D01*
X343502506Y-35649819D02*
X343597744Y-35649819D01*
X343597744Y-35649819D02*
X343692982Y-35697438D01*
X343692982Y-35697438D02*
X343740601Y-35745057D01*
X343740601Y-35745057D02*
X343788220Y-35840295D01*
X343788220Y-35840295D02*
X343835839Y-36030771D01*
X343835839Y-36030771D02*
X343835839Y-36268866D01*
X343835839Y-36268866D02*
X343788220Y-36459342D01*
X343788220Y-36459342D02*
X343740601Y-36554580D01*
X343740601Y-36554580D02*
X343692982Y-36602200D01*
X343692982Y-36602200D02*
X343597744Y-36649819D01*
X343597744Y-36649819D02*
X343502506Y-36649819D01*
X343502506Y-36649819D02*
X343407268Y-36602200D01*
X343407268Y-36602200D02*
X343359649Y-36554580D01*
X343359649Y-36554580D02*
X343312030Y-36459342D01*
X343312030Y-36459342D02*
X343264411Y-36268866D01*
X343264411Y-36268866D02*
X343264411Y-36030771D01*
X343264411Y-36030771D02*
X343312030Y-35840295D01*
X343312030Y-35840295D02*
X343359649Y-35745057D01*
X343359649Y-35745057D02*
X343407268Y-35697438D01*
X343407268Y-35697438D02*
X343502506Y-35649819D01*
X329597743Y-38259819D02*
X329597743Y-37259819D01*
X329597743Y-37640771D02*
X329692981Y-37593152D01*
X329692981Y-37593152D02*
X329883457Y-37593152D01*
X329883457Y-37593152D02*
X329978695Y-37640771D01*
X329978695Y-37640771D02*
X330026314Y-37688390D01*
X330026314Y-37688390D02*
X330073933Y-37783628D01*
X330073933Y-37783628D02*
X330073933Y-38069342D01*
X330073933Y-38069342D02*
X330026314Y-38164580D01*
X330026314Y-38164580D02*
X329978695Y-38212200D01*
X329978695Y-38212200D02*
X329883457Y-38259819D01*
X329883457Y-38259819D02*
X329692981Y-38259819D01*
X329692981Y-38259819D02*
X329597743Y-38212200D01*
X330407267Y-37593152D02*
X330645362Y-38259819D01*
X330883457Y-37593152D02*
X330645362Y-38259819D01*
X330645362Y-38259819D02*
X330550124Y-38497914D01*
X330550124Y-38497914D02*
X330502505Y-38545533D01*
X330502505Y-38545533D02*
X330407267Y-38593152D01*
X332645362Y-37783628D02*
X332597743Y-37736009D01*
X332597743Y-37736009D02*
X332502505Y-37688390D01*
X332502505Y-37688390D02*
X332407267Y-37688390D01*
X332407267Y-37688390D02*
X332312029Y-37736009D01*
X332312029Y-37736009D02*
X332264410Y-37783628D01*
X332264410Y-37783628D02*
X332216791Y-37878866D01*
X332216791Y-37878866D02*
X332216791Y-37974104D01*
X332216791Y-37974104D02*
X332264410Y-38069342D01*
X332264410Y-38069342D02*
X332312029Y-38116961D01*
X332312029Y-38116961D02*
X332407267Y-38164580D01*
X332407267Y-38164580D02*
X332502505Y-38164580D01*
X332502505Y-38164580D02*
X332597743Y-38116961D01*
X332597743Y-38116961D02*
X332645362Y-38069342D01*
X332645362Y-37688390D02*
X332645362Y-38069342D01*
X332645362Y-38069342D02*
X332692981Y-38116961D01*
X332692981Y-38116961D02*
X332740600Y-38116961D01*
X332740600Y-38116961D02*
X332835839Y-38069342D01*
X332835839Y-38069342D02*
X332883458Y-37974104D01*
X332883458Y-37974104D02*
X332883458Y-37736009D01*
X332883458Y-37736009D02*
X332788220Y-37593152D01*
X332788220Y-37593152D02*
X332645362Y-37497914D01*
X332645362Y-37497914D02*
X332454886Y-37450295D01*
X332454886Y-37450295D02*
X332264410Y-37497914D01*
X332264410Y-37497914D02*
X332121553Y-37593152D01*
X332121553Y-37593152D02*
X332026315Y-37736009D01*
X332026315Y-37736009D02*
X331978696Y-37926485D01*
X331978696Y-37926485D02*
X332026315Y-38116961D01*
X332026315Y-38116961D02*
X332121553Y-38259819D01*
X332121553Y-38259819D02*
X332264410Y-38355057D01*
X332264410Y-38355057D02*
X332454886Y-38402676D01*
X332454886Y-38402676D02*
X332645362Y-38355057D01*
X332645362Y-38355057D02*
X332788220Y-38259819D01*
X333312029Y-38259819D02*
X333312029Y-37259819D01*
X333407267Y-37878866D02*
X333692981Y-38259819D01*
X333692981Y-37593152D02*
X333312029Y-37974104D01*
X334550124Y-37593152D02*
X334550124Y-38259819D01*
X334121553Y-37593152D02*
X334121553Y-38116961D01*
X334121553Y-38116961D02*
X334169172Y-38212200D01*
X334169172Y-38212200D02*
X334264410Y-38259819D01*
X334264410Y-38259819D02*
X334407267Y-38259819D01*
X334407267Y-38259819D02*
X334502505Y-38212200D01*
X334502505Y-38212200D02*
X334550124Y-38164580D01*
X335026315Y-38259819D02*
X335026315Y-37593152D01*
X335026315Y-37688390D02*
X335073934Y-37640771D01*
X335073934Y-37640771D02*
X335169172Y-37593152D01*
X335169172Y-37593152D02*
X335312029Y-37593152D01*
X335312029Y-37593152D02*
X335407267Y-37640771D01*
X335407267Y-37640771D02*
X335454886Y-37736009D01*
X335454886Y-37736009D02*
X335454886Y-38259819D01*
X335454886Y-37736009D02*
X335502505Y-37640771D01*
X335502505Y-37640771D02*
X335597743Y-37593152D01*
X335597743Y-37593152D02*
X335740600Y-37593152D01*
X335740600Y-37593152D02*
X335835839Y-37640771D01*
X335835839Y-37640771D02*
X335883458Y-37736009D01*
X335883458Y-37736009D02*
X335883458Y-38259819D01*
X336740600Y-38212200D02*
X336645362Y-38259819D01*
X336645362Y-38259819D02*
X336454886Y-38259819D01*
X336454886Y-38259819D02*
X336359648Y-38212200D01*
X336359648Y-38212200D02*
X336312029Y-38116961D01*
X336312029Y-38116961D02*
X336312029Y-37736009D01*
X336312029Y-37736009D02*
X336359648Y-37640771D01*
X336359648Y-37640771D02*
X336454886Y-37593152D01*
X336454886Y-37593152D02*
X336645362Y-37593152D01*
X336645362Y-37593152D02*
X336740600Y-37640771D01*
X336740600Y-37640771D02*
X336788219Y-37736009D01*
X336788219Y-37736009D02*
X336788219Y-37831247D01*
X336788219Y-37831247D02*
X336312029Y-37926485D01*
X337216791Y-38259819D02*
X337216791Y-37259819D01*
X337312029Y-37878866D02*
X337597743Y-38259819D01*
X337597743Y-37593152D02*
X337216791Y-37974104D01*
X338454886Y-38259819D02*
X338454886Y-37736009D01*
X338454886Y-37736009D02*
X338407267Y-37640771D01*
X338407267Y-37640771D02*
X338312029Y-37593152D01*
X338312029Y-37593152D02*
X338121553Y-37593152D01*
X338121553Y-37593152D02*
X338026315Y-37640771D01*
X338454886Y-38212200D02*
X338359648Y-38259819D01*
X338359648Y-38259819D02*
X338121553Y-38259819D01*
X338121553Y-38259819D02*
X338026315Y-38212200D01*
X338026315Y-38212200D02*
X337978696Y-38116961D01*
X337978696Y-38116961D02*
X337978696Y-38021723D01*
X337978696Y-38021723D02*
X338026315Y-37926485D01*
X338026315Y-37926485D02*
X338121553Y-37878866D01*
X338121553Y-37878866D02*
X338359648Y-37878866D01*
X338359648Y-37878866D02*
X338454886Y-37831247D01*
X338835839Y-37593152D02*
X339073934Y-38259819D01*
X339312029Y-37593152D02*
X339073934Y-38259819D01*
X339073934Y-38259819D02*
X338978696Y-38497914D01*
X338978696Y-38497914D02*
X338931077Y-38545533D01*
X338931077Y-38545533D02*
X338835839Y-38593152D01*
X340407268Y-37355057D02*
X340454887Y-37307438D01*
X340454887Y-37307438D02*
X340550125Y-37259819D01*
X340550125Y-37259819D02*
X340788220Y-37259819D01*
X340788220Y-37259819D02*
X340883458Y-37307438D01*
X340883458Y-37307438D02*
X340931077Y-37355057D01*
X340931077Y-37355057D02*
X340978696Y-37450295D01*
X340978696Y-37450295D02*
X340978696Y-37545533D01*
X340978696Y-37545533D02*
X340931077Y-37688390D01*
X340931077Y-37688390D02*
X340359649Y-38259819D01*
X340359649Y-38259819D02*
X340978696Y-38259819D01*
X341597744Y-37259819D02*
X341692982Y-37259819D01*
X341692982Y-37259819D02*
X341788220Y-37307438D01*
X341788220Y-37307438D02*
X341835839Y-37355057D01*
X341835839Y-37355057D02*
X341883458Y-37450295D01*
X341883458Y-37450295D02*
X341931077Y-37640771D01*
X341931077Y-37640771D02*
X341931077Y-37878866D01*
X341931077Y-37878866D02*
X341883458Y-38069342D01*
X341883458Y-38069342D02*
X341835839Y-38164580D01*
X341835839Y-38164580D02*
X341788220Y-38212200D01*
X341788220Y-38212200D02*
X341692982Y-38259819D01*
X341692982Y-38259819D02*
X341597744Y-38259819D01*
X341597744Y-38259819D02*
X341502506Y-38212200D01*
X341502506Y-38212200D02*
X341454887Y-38164580D01*
X341454887Y-38164580D02*
X341407268Y-38069342D01*
X341407268Y-38069342D02*
X341359649Y-37878866D01*
X341359649Y-37878866D02*
X341359649Y-37640771D01*
X341359649Y-37640771D02*
X341407268Y-37450295D01*
X341407268Y-37450295D02*
X341454887Y-37355057D01*
X341454887Y-37355057D02*
X341502506Y-37307438D01*
X341502506Y-37307438D02*
X341597744Y-37259819D01*
X342312030Y-37355057D02*
X342359649Y-37307438D01*
X342359649Y-37307438D02*
X342454887Y-37259819D01*
X342454887Y-37259819D02*
X342692982Y-37259819D01*
X342692982Y-37259819D02*
X342788220Y-37307438D01*
X342788220Y-37307438D02*
X342835839Y-37355057D01*
X342835839Y-37355057D02*
X342883458Y-37450295D01*
X342883458Y-37450295D02*
X342883458Y-37545533D01*
X342883458Y-37545533D02*
X342835839Y-37688390D01*
X342835839Y-37688390D02*
X342264411Y-38259819D01*
X342264411Y-38259819D02*
X342883458Y-38259819D01*
X343216792Y-37259819D02*
X343835839Y-37259819D01*
X343835839Y-37259819D02*
X343502506Y-37640771D01*
X343502506Y-37640771D02*
X343645363Y-37640771D01*
X343645363Y-37640771D02*
X343740601Y-37688390D01*
X343740601Y-37688390D02*
X343788220Y-37736009D01*
X343788220Y-37736009D02*
X343835839Y-37831247D01*
X343835839Y-37831247D02*
X343835839Y-38069342D01*
X343835839Y-38069342D02*
X343788220Y-38164580D01*
X343788220Y-38164580D02*
X343740601Y-38212200D01*
X343740601Y-38212200D02*
X343645363Y-38259819D01*
X343645363Y-38259819D02*
X343359649Y-38259819D01*
X343359649Y-38259819D02*
X343264411Y-38212200D01*
X343264411Y-38212200D02*
X343216792Y-38164580D01*
X336978696Y-39869819D02*
X336978696Y-39203152D01*
X336978696Y-39393628D02*
X337026315Y-39298390D01*
X337026315Y-39298390D02*
X337073934Y-39250771D01*
X337073934Y-39250771D02*
X337169172Y-39203152D01*
X337169172Y-39203152D02*
X337264410Y-39203152D01*
X337597744Y-39869819D02*
X337597744Y-39203152D01*
X337597744Y-38869819D02*
X337550125Y-38917438D01*
X337550125Y-38917438D02*
X337597744Y-38965057D01*
X337597744Y-38965057D02*
X337645363Y-38917438D01*
X337645363Y-38917438D02*
X337597744Y-38869819D01*
X337597744Y-38869819D02*
X337597744Y-38965057D01*
X338502505Y-39203152D02*
X338502505Y-40012676D01*
X338502505Y-40012676D02*
X338454886Y-40107914D01*
X338454886Y-40107914D02*
X338407267Y-40155533D01*
X338407267Y-40155533D02*
X338312029Y-40203152D01*
X338312029Y-40203152D02*
X338169172Y-40203152D01*
X338169172Y-40203152D02*
X338073934Y-40155533D01*
X338502505Y-39822200D02*
X338407267Y-39869819D01*
X338407267Y-39869819D02*
X338216791Y-39869819D01*
X338216791Y-39869819D02*
X338121553Y-39822200D01*
X338121553Y-39822200D02*
X338073934Y-39774580D01*
X338073934Y-39774580D02*
X338026315Y-39679342D01*
X338026315Y-39679342D02*
X338026315Y-39393628D01*
X338026315Y-39393628D02*
X338073934Y-39298390D01*
X338073934Y-39298390D02*
X338121553Y-39250771D01*
X338121553Y-39250771D02*
X338216791Y-39203152D01*
X338216791Y-39203152D02*
X338407267Y-39203152D01*
X338407267Y-39203152D02*
X338502505Y-39250771D01*
X338978696Y-39869819D02*
X338978696Y-38869819D01*
X339407267Y-39869819D02*
X339407267Y-39346009D01*
X339407267Y-39346009D02*
X339359648Y-39250771D01*
X339359648Y-39250771D02*
X339264410Y-39203152D01*
X339264410Y-39203152D02*
X339121553Y-39203152D01*
X339121553Y-39203152D02*
X339026315Y-39250771D01*
X339026315Y-39250771D02*
X338978696Y-39298390D01*
X339740601Y-39203152D02*
X340121553Y-39203152D01*
X339883458Y-38869819D02*
X339883458Y-39726961D01*
X339883458Y-39726961D02*
X339931077Y-39822200D01*
X339931077Y-39822200D02*
X340026315Y-39869819D01*
X340026315Y-39869819D02*
X340121553Y-39869819D01*
X341169173Y-39822200D02*
X341264411Y-39869819D01*
X341264411Y-39869819D02*
X341454887Y-39869819D01*
X341454887Y-39869819D02*
X341550125Y-39822200D01*
X341550125Y-39822200D02*
X341597744Y-39726961D01*
X341597744Y-39726961D02*
X341597744Y-39679342D01*
X341597744Y-39679342D02*
X341550125Y-39584104D01*
X341550125Y-39584104D02*
X341454887Y-39536485D01*
X341454887Y-39536485D02*
X341312030Y-39536485D01*
X341312030Y-39536485D02*
X341216792Y-39488866D01*
X341216792Y-39488866D02*
X341169173Y-39393628D01*
X341169173Y-39393628D02*
X341169173Y-39346009D01*
X341169173Y-39346009D02*
X341216792Y-39250771D01*
X341216792Y-39250771D02*
X341312030Y-39203152D01*
X341312030Y-39203152D02*
X341454887Y-39203152D01*
X341454887Y-39203152D02*
X341550125Y-39250771D01*
X342026316Y-39869819D02*
X342026316Y-39203152D01*
X342026316Y-38869819D02*
X341978697Y-38917438D01*
X341978697Y-38917438D02*
X342026316Y-38965057D01*
X342026316Y-38965057D02*
X342073935Y-38917438D01*
X342073935Y-38917438D02*
X342026316Y-38869819D01*
X342026316Y-38869819D02*
X342026316Y-38965057D01*
X342931077Y-39869819D02*
X342931077Y-38869819D01*
X342931077Y-39822200D02*
X342835839Y-39869819D01*
X342835839Y-39869819D02*
X342645363Y-39869819D01*
X342645363Y-39869819D02*
X342550125Y-39822200D01*
X342550125Y-39822200D02*
X342502506Y-39774580D01*
X342502506Y-39774580D02*
X342454887Y-39679342D01*
X342454887Y-39679342D02*
X342454887Y-39393628D01*
X342454887Y-39393628D02*
X342502506Y-39298390D01*
X342502506Y-39298390D02*
X342550125Y-39250771D01*
X342550125Y-39250771D02*
X342645363Y-39203152D01*
X342645363Y-39203152D02*
X342835839Y-39203152D01*
X342835839Y-39203152D02*
X342931077Y-39250771D01*
X343788220Y-39822200D02*
X343692982Y-39869819D01*
X343692982Y-39869819D02*
X343502506Y-39869819D01*
X343502506Y-39869819D02*
X343407268Y-39822200D01*
X343407268Y-39822200D02*
X343359649Y-39726961D01*
X343359649Y-39726961D02*
X343359649Y-39346009D01*
X343359649Y-39346009D02*
X343407268Y-39250771D01*
X343407268Y-39250771D02*
X343502506Y-39203152D01*
X343502506Y-39203152D02*
X343692982Y-39203152D01*
X343692982Y-39203152D02*
X343788220Y-39250771D01*
X343788220Y-39250771D02*
X343835839Y-39346009D01*
X343835839Y-39346009D02*
X343835839Y-39441247D01*
X343835839Y-39441247D02*
X343359649Y-39536485D01*
X351679601Y-50175009D02*
X351822458Y-50222628D01*
X351822458Y-50222628D02*
X351870077Y-50270247D01*
X351870077Y-50270247D02*
X351917696Y-50365485D01*
X351917696Y-50365485D02*
X351917696Y-50508342D01*
X351917696Y-50508342D02*
X351870077Y-50603580D01*
X351870077Y-50603580D02*
X351822458Y-50651200D01*
X351822458Y-50651200D02*
X351727220Y-50698819D01*
X351727220Y-50698819D02*
X351346268Y-50698819D01*
X351346268Y-50698819D02*
X351346268Y-49698819D01*
X351346268Y-49698819D02*
X351679601Y-49698819D01*
X351679601Y-49698819D02*
X351774839Y-49746438D01*
X351774839Y-49746438D02*
X351822458Y-49794057D01*
X351822458Y-49794057D02*
X351870077Y-49889295D01*
X351870077Y-49889295D02*
X351870077Y-49984533D01*
X351870077Y-49984533D02*
X351822458Y-50079771D01*
X351822458Y-50079771D02*
X351774839Y-50127390D01*
X351774839Y-50127390D02*
X351679601Y-50175009D01*
X351679601Y-50175009D02*
X351346268Y-50175009D01*
X352298649Y-50413104D02*
X352774839Y-50413104D01*
X352203411Y-50698819D02*
X352536744Y-49698819D01*
X352536744Y-49698819D02*
X352870077Y-50698819D01*
X353060554Y-49698819D02*
X353631982Y-49698819D01*
X353346268Y-50698819D02*
X353346268Y-49698819D01*
X353965316Y-50317866D02*
X354727221Y-50317866D01*
X354346268Y-50698819D02*
X354346268Y-49936914D01*
G04 #@! TO.C,_67*
G04 #@! TO.C,_76*
G04 #@! TO.C,_75*
G04 #@! TO.C,_71*
G04 #@! TO.C,*
G04 #@! TO.C,_73*
D11*
G04 #@! TO.C,MCU2*
X364991173Y-43603021D02*
X365078259Y-43632049D01*
X365078259Y-43632049D02*
X365223401Y-43632049D01*
X365223401Y-43632049D02*
X365281459Y-43603021D01*
X365281459Y-43603021D02*
X365310487Y-43573992D01*
X365310487Y-43573992D02*
X365339516Y-43515935D01*
X365339516Y-43515935D02*
X365339516Y-43457878D01*
X365339516Y-43457878D02*
X365310487Y-43399821D01*
X365310487Y-43399821D02*
X365281459Y-43370792D01*
X365281459Y-43370792D02*
X365223401Y-43341763D01*
X365223401Y-43341763D02*
X365107287Y-43312735D01*
X365107287Y-43312735D02*
X365049230Y-43283706D01*
X365049230Y-43283706D02*
X365020201Y-43254678D01*
X365020201Y-43254678D02*
X364991173Y-43196621D01*
X364991173Y-43196621D02*
X364991173Y-43138563D01*
X364991173Y-43138563D02*
X365020201Y-43080506D01*
X365020201Y-43080506D02*
X365049230Y-43051478D01*
X365049230Y-43051478D02*
X365107287Y-43022449D01*
X365107287Y-43022449D02*
X365252430Y-43022449D01*
X365252430Y-43022449D02*
X365339516Y-43051478D01*
X365833001Y-43603021D02*
X365774944Y-43632049D01*
X365774944Y-43632049D02*
X365658830Y-43632049D01*
X365658830Y-43632049D02*
X365600772Y-43603021D01*
X365600772Y-43603021D02*
X365571744Y-43544963D01*
X365571744Y-43544963D02*
X365571744Y-43312735D01*
X365571744Y-43312735D02*
X365600772Y-43254678D01*
X365600772Y-43254678D02*
X365658830Y-43225649D01*
X365658830Y-43225649D02*
X365774944Y-43225649D01*
X365774944Y-43225649D02*
X365833001Y-43254678D01*
X365833001Y-43254678D02*
X365862030Y-43312735D01*
X365862030Y-43312735D02*
X365862030Y-43370792D01*
X365862030Y-43370792D02*
X365571744Y-43428849D01*
X366355515Y-43603021D02*
X366297458Y-43632049D01*
X366297458Y-43632049D02*
X366181344Y-43632049D01*
X366181344Y-43632049D02*
X366123286Y-43603021D01*
X366123286Y-43603021D02*
X366094258Y-43544963D01*
X366094258Y-43544963D02*
X366094258Y-43312735D01*
X366094258Y-43312735D02*
X366123286Y-43254678D01*
X366123286Y-43254678D02*
X366181344Y-43225649D01*
X366181344Y-43225649D02*
X366297458Y-43225649D01*
X366297458Y-43225649D02*
X366355515Y-43254678D01*
X366355515Y-43254678D02*
X366384544Y-43312735D01*
X366384544Y-43312735D02*
X366384544Y-43370792D01*
X366384544Y-43370792D02*
X366094258Y-43428849D01*
X366878029Y-43603021D02*
X366819972Y-43632049D01*
X366819972Y-43632049D02*
X366703858Y-43632049D01*
X366703858Y-43632049D02*
X366645800Y-43603021D01*
X366645800Y-43603021D02*
X366616772Y-43544963D01*
X366616772Y-43544963D02*
X366616772Y-43312735D01*
X366616772Y-43312735D02*
X366645800Y-43254678D01*
X366645800Y-43254678D02*
X366703858Y-43225649D01*
X366703858Y-43225649D02*
X366819972Y-43225649D01*
X366819972Y-43225649D02*
X366878029Y-43254678D01*
X366878029Y-43254678D02*
X366907058Y-43312735D01*
X366907058Y-43312735D02*
X366907058Y-43370792D01*
X366907058Y-43370792D02*
X366616772Y-43428849D01*
X367429572Y-43632049D02*
X367429572Y-43022449D01*
X367429572Y-43603021D02*
X367371514Y-43632049D01*
X367371514Y-43632049D02*
X367255400Y-43632049D01*
X367255400Y-43632049D02*
X367197343Y-43603021D01*
X367197343Y-43603021D02*
X367168314Y-43573992D01*
X367168314Y-43573992D02*
X367139286Y-43515935D01*
X367139286Y-43515935D02*
X367139286Y-43341763D01*
X367139286Y-43341763D02*
X367168314Y-43283706D01*
X367168314Y-43283706D02*
X367197343Y-43254678D01*
X367197343Y-43254678D02*
X367255400Y-43225649D01*
X367255400Y-43225649D02*
X367371514Y-43225649D01*
X367371514Y-43225649D02*
X367429572Y-43254678D01*
X367981115Y-43225649D02*
X367981115Y-43632049D01*
X367719857Y-43225649D02*
X367719857Y-43544963D01*
X367719857Y-43544963D02*
X367748886Y-43603021D01*
X367748886Y-43603021D02*
X367806943Y-43632049D01*
X367806943Y-43632049D02*
X367894029Y-43632049D01*
X367894029Y-43632049D02*
X367952086Y-43603021D01*
X367952086Y-43603021D02*
X367981115Y-43573992D01*
X368271400Y-43632049D02*
X368271400Y-43225649D01*
X368271400Y-43022449D02*
X368242372Y-43051478D01*
X368242372Y-43051478D02*
X368271400Y-43080506D01*
X368271400Y-43080506D02*
X368300429Y-43051478D01*
X368300429Y-43051478D02*
X368271400Y-43022449D01*
X368271400Y-43022449D02*
X368271400Y-43080506D01*
X368561686Y-43225649D02*
X368561686Y-43632049D01*
X368561686Y-43283706D02*
X368590715Y-43254678D01*
X368590715Y-43254678D02*
X368648772Y-43225649D01*
X368648772Y-43225649D02*
X368735858Y-43225649D01*
X368735858Y-43225649D02*
X368793915Y-43254678D01*
X368793915Y-43254678D02*
X368822944Y-43312735D01*
X368822944Y-43312735D02*
X368822944Y-43632049D01*
X369200315Y-43632049D02*
X369142258Y-43603021D01*
X369142258Y-43603021D02*
X369113229Y-43573992D01*
X369113229Y-43573992D02*
X369084201Y-43515935D01*
X369084201Y-43515935D02*
X369084201Y-43341763D01*
X369084201Y-43341763D02*
X369113229Y-43283706D01*
X369113229Y-43283706D02*
X369142258Y-43254678D01*
X369142258Y-43254678D02*
X369200315Y-43225649D01*
X369200315Y-43225649D02*
X369287401Y-43225649D01*
X369287401Y-43225649D02*
X369345458Y-43254678D01*
X369345458Y-43254678D02*
X369374487Y-43283706D01*
X369374487Y-43283706D02*
X369403515Y-43341763D01*
X369403515Y-43341763D02*
X369403515Y-43515935D01*
X369403515Y-43515935D02*
X369374487Y-43573992D01*
X369374487Y-43573992D02*
X369345458Y-43603021D01*
X369345458Y-43603021D02*
X369287401Y-43632049D01*
X369287401Y-43632049D02*
X369200315Y-43632049D01*
X370071172Y-43022449D02*
X370477572Y-43632049D01*
X370477572Y-43022449D02*
X370071172Y-43632049D01*
X370709800Y-43632049D02*
X370709800Y-43022449D01*
X370971058Y-43457878D02*
X371261344Y-43457878D01*
X370913001Y-43632049D02*
X371116201Y-43022449D01*
X371116201Y-43022449D02*
X371319401Y-43632049D01*
X371638715Y-43022449D02*
X371754829Y-43022449D01*
X371754829Y-43022449D02*
X371812886Y-43051478D01*
X371812886Y-43051478D02*
X371870943Y-43109535D01*
X371870943Y-43109535D02*
X371899972Y-43225649D01*
X371899972Y-43225649D02*
X371899972Y-43428849D01*
X371899972Y-43428849D02*
X371870943Y-43544963D01*
X371870943Y-43544963D02*
X371812886Y-43603021D01*
X371812886Y-43603021D02*
X371754829Y-43632049D01*
X371754829Y-43632049D02*
X371638715Y-43632049D01*
X371638715Y-43632049D02*
X371580658Y-43603021D01*
X371580658Y-43603021D02*
X371522600Y-43544963D01*
X371522600Y-43544963D02*
X371493572Y-43428849D01*
X371493572Y-43428849D02*
X371493572Y-43225649D01*
X371493572Y-43225649D02*
X371522600Y-43109535D01*
X371522600Y-43109535D02*
X371580658Y-43051478D01*
X371580658Y-43051478D02*
X371638715Y-43022449D01*
X372161229Y-43399821D02*
X372625687Y-43399821D01*
X372915972Y-43225649D02*
X372915972Y-43632049D01*
X372915972Y-43283706D02*
X372945001Y-43254678D01*
X372945001Y-43254678D02*
X373003058Y-43225649D01*
X373003058Y-43225649D02*
X373090144Y-43225649D01*
X373090144Y-43225649D02*
X373148201Y-43254678D01*
X373148201Y-43254678D02*
X373177230Y-43312735D01*
X373177230Y-43312735D02*
X373177230Y-43632049D01*
X373467515Y-43632049D02*
X373467515Y-43225649D01*
X373467515Y-43341763D02*
X373496544Y-43283706D01*
X373496544Y-43283706D02*
X373525573Y-43254678D01*
X373525573Y-43254678D02*
X373583630Y-43225649D01*
X373583630Y-43225649D02*
X373641687Y-43225649D01*
X373757801Y-43225649D02*
X373990029Y-43225649D01*
X373844886Y-43632049D02*
X373844886Y-43109535D01*
X373844886Y-43109535D02*
X373873915Y-43051478D01*
X373873915Y-43051478D02*
X373931972Y-43022449D01*
X373931972Y-43022449D02*
X373990029Y-43022449D01*
X374483515Y-43022449D02*
X374193229Y-43022449D01*
X374193229Y-43022449D02*
X374164201Y-43312735D01*
X374164201Y-43312735D02*
X374193229Y-43283706D01*
X374193229Y-43283706D02*
X374251287Y-43254678D01*
X374251287Y-43254678D02*
X374396429Y-43254678D01*
X374396429Y-43254678D02*
X374454487Y-43283706D01*
X374454487Y-43283706D02*
X374483515Y-43312735D01*
X374483515Y-43312735D02*
X374512544Y-43370792D01*
X374512544Y-43370792D02*
X374512544Y-43515935D01*
X374512544Y-43515935D02*
X374483515Y-43573992D01*
X374483515Y-43573992D02*
X374454487Y-43603021D01*
X374454487Y-43603021D02*
X374396429Y-43632049D01*
X374396429Y-43632049D02*
X374251287Y-43632049D01*
X374251287Y-43632049D02*
X374193229Y-43603021D01*
X374193229Y-43603021D02*
X374164201Y-43573992D01*
X374744772Y-43080506D02*
X374773800Y-43051478D01*
X374773800Y-43051478D02*
X374831858Y-43022449D01*
X374831858Y-43022449D02*
X374977000Y-43022449D01*
X374977000Y-43022449D02*
X375035058Y-43051478D01*
X375035058Y-43051478D02*
X375064086Y-43080506D01*
X375064086Y-43080506D02*
X375093115Y-43138563D01*
X375093115Y-43138563D02*
X375093115Y-43196621D01*
X375093115Y-43196621D02*
X375064086Y-43283706D01*
X375064086Y-43283706D02*
X374715743Y-43632049D01*
X374715743Y-43632049D02*
X375093115Y-43632049D01*
X375441457Y-43283706D02*
X375383400Y-43254678D01*
X375383400Y-43254678D02*
X375354371Y-43225649D01*
X375354371Y-43225649D02*
X375325343Y-43167592D01*
X375325343Y-43167592D02*
X375325343Y-43138563D01*
X375325343Y-43138563D02*
X375354371Y-43080506D01*
X375354371Y-43080506D02*
X375383400Y-43051478D01*
X375383400Y-43051478D02*
X375441457Y-43022449D01*
X375441457Y-43022449D02*
X375557571Y-43022449D01*
X375557571Y-43022449D02*
X375615629Y-43051478D01*
X375615629Y-43051478D02*
X375644657Y-43080506D01*
X375644657Y-43080506D02*
X375673686Y-43138563D01*
X375673686Y-43138563D02*
X375673686Y-43167592D01*
X375673686Y-43167592D02*
X375644657Y-43225649D01*
X375644657Y-43225649D02*
X375615629Y-43254678D01*
X375615629Y-43254678D02*
X375557571Y-43283706D01*
X375557571Y-43283706D02*
X375441457Y-43283706D01*
X375441457Y-43283706D02*
X375383400Y-43312735D01*
X375383400Y-43312735D02*
X375354371Y-43341763D01*
X375354371Y-43341763D02*
X375325343Y-43399821D01*
X375325343Y-43399821D02*
X375325343Y-43515935D01*
X375325343Y-43515935D02*
X375354371Y-43573992D01*
X375354371Y-43573992D02*
X375383400Y-43603021D01*
X375383400Y-43603021D02*
X375441457Y-43632049D01*
X375441457Y-43632049D02*
X375557571Y-43632049D01*
X375557571Y-43632049D02*
X375615629Y-43603021D01*
X375615629Y-43603021D02*
X375644657Y-43573992D01*
X375644657Y-43573992D02*
X375673686Y-43515935D01*
X375673686Y-43515935D02*
X375673686Y-43399821D01*
X375673686Y-43399821D02*
X375644657Y-43341763D01*
X375644657Y-43341763D02*
X375615629Y-43312735D01*
X375615629Y-43312735D02*
X375557571Y-43283706D01*
X376196200Y-43225649D02*
X376196200Y-43632049D01*
X376051057Y-42993421D02*
X375905914Y-43428849D01*
X375905914Y-43428849D02*
X376283285Y-43428849D01*
X376631628Y-43022449D02*
X376689685Y-43022449D01*
X376689685Y-43022449D02*
X376747742Y-43051478D01*
X376747742Y-43051478D02*
X376776771Y-43080506D01*
X376776771Y-43080506D02*
X376805799Y-43138563D01*
X376805799Y-43138563D02*
X376834828Y-43254678D01*
X376834828Y-43254678D02*
X376834828Y-43399821D01*
X376834828Y-43399821D02*
X376805799Y-43515935D01*
X376805799Y-43515935D02*
X376776771Y-43573992D01*
X376776771Y-43573992D02*
X376747742Y-43603021D01*
X376747742Y-43603021D02*
X376689685Y-43632049D01*
X376689685Y-43632049D02*
X376631628Y-43632049D01*
X376631628Y-43632049D02*
X376573571Y-43603021D01*
X376573571Y-43603021D02*
X376544542Y-43573992D01*
X376544542Y-43573992D02*
X376515513Y-43515935D01*
X376515513Y-43515935D02*
X376486485Y-43399821D01*
X376486485Y-43399821D02*
X376486485Y-43254678D01*
X376486485Y-43254678D02*
X376515513Y-43138563D01*
X376515513Y-43138563D02*
X376544542Y-43080506D01*
X376544542Y-43080506D02*
X376573571Y-43051478D01*
X376573571Y-43051478D02*
X376631628Y-43022449D01*
D10*
G04 #@! TO.C,_72*
G04 #@! TO.C,_69*
G04 #@! TO.C,_68*
G04 #@! TO.C,_64*
G04 #@! TO.C,_74*
G04 #@! TO.C,*
G04 #@! TO.C,_66*
G04 #@! TO.C,_70*
D11*
G04 #@! TO.C,MCU1*
X93945173Y-43603021D02*
X94032259Y-43632049D01*
X94032259Y-43632049D02*
X94177401Y-43632049D01*
X94177401Y-43632049D02*
X94235459Y-43603021D01*
X94235459Y-43603021D02*
X94264487Y-43573992D01*
X94264487Y-43573992D02*
X94293516Y-43515935D01*
X94293516Y-43515935D02*
X94293516Y-43457878D01*
X94293516Y-43457878D02*
X94264487Y-43399821D01*
X94264487Y-43399821D02*
X94235459Y-43370792D01*
X94235459Y-43370792D02*
X94177401Y-43341763D01*
X94177401Y-43341763D02*
X94061287Y-43312735D01*
X94061287Y-43312735D02*
X94003230Y-43283706D01*
X94003230Y-43283706D02*
X93974201Y-43254678D01*
X93974201Y-43254678D02*
X93945173Y-43196621D01*
X93945173Y-43196621D02*
X93945173Y-43138563D01*
X93945173Y-43138563D02*
X93974201Y-43080506D01*
X93974201Y-43080506D02*
X94003230Y-43051478D01*
X94003230Y-43051478D02*
X94061287Y-43022449D01*
X94061287Y-43022449D02*
X94206430Y-43022449D01*
X94206430Y-43022449D02*
X94293516Y-43051478D01*
X94787001Y-43603021D02*
X94728944Y-43632049D01*
X94728944Y-43632049D02*
X94612830Y-43632049D01*
X94612830Y-43632049D02*
X94554772Y-43603021D01*
X94554772Y-43603021D02*
X94525744Y-43544963D01*
X94525744Y-43544963D02*
X94525744Y-43312735D01*
X94525744Y-43312735D02*
X94554772Y-43254678D01*
X94554772Y-43254678D02*
X94612830Y-43225649D01*
X94612830Y-43225649D02*
X94728944Y-43225649D01*
X94728944Y-43225649D02*
X94787001Y-43254678D01*
X94787001Y-43254678D02*
X94816030Y-43312735D01*
X94816030Y-43312735D02*
X94816030Y-43370792D01*
X94816030Y-43370792D02*
X94525744Y-43428849D01*
X95309515Y-43603021D02*
X95251458Y-43632049D01*
X95251458Y-43632049D02*
X95135344Y-43632049D01*
X95135344Y-43632049D02*
X95077286Y-43603021D01*
X95077286Y-43603021D02*
X95048258Y-43544963D01*
X95048258Y-43544963D02*
X95048258Y-43312735D01*
X95048258Y-43312735D02*
X95077286Y-43254678D01*
X95077286Y-43254678D02*
X95135344Y-43225649D01*
X95135344Y-43225649D02*
X95251458Y-43225649D01*
X95251458Y-43225649D02*
X95309515Y-43254678D01*
X95309515Y-43254678D02*
X95338544Y-43312735D01*
X95338544Y-43312735D02*
X95338544Y-43370792D01*
X95338544Y-43370792D02*
X95048258Y-43428849D01*
X95832029Y-43603021D02*
X95773972Y-43632049D01*
X95773972Y-43632049D02*
X95657858Y-43632049D01*
X95657858Y-43632049D02*
X95599800Y-43603021D01*
X95599800Y-43603021D02*
X95570772Y-43544963D01*
X95570772Y-43544963D02*
X95570772Y-43312735D01*
X95570772Y-43312735D02*
X95599800Y-43254678D01*
X95599800Y-43254678D02*
X95657858Y-43225649D01*
X95657858Y-43225649D02*
X95773972Y-43225649D01*
X95773972Y-43225649D02*
X95832029Y-43254678D01*
X95832029Y-43254678D02*
X95861058Y-43312735D01*
X95861058Y-43312735D02*
X95861058Y-43370792D01*
X95861058Y-43370792D02*
X95570772Y-43428849D01*
X96383572Y-43632049D02*
X96383572Y-43022449D01*
X96383572Y-43603021D02*
X96325514Y-43632049D01*
X96325514Y-43632049D02*
X96209400Y-43632049D01*
X96209400Y-43632049D02*
X96151343Y-43603021D01*
X96151343Y-43603021D02*
X96122314Y-43573992D01*
X96122314Y-43573992D02*
X96093286Y-43515935D01*
X96093286Y-43515935D02*
X96093286Y-43341763D01*
X96093286Y-43341763D02*
X96122314Y-43283706D01*
X96122314Y-43283706D02*
X96151343Y-43254678D01*
X96151343Y-43254678D02*
X96209400Y-43225649D01*
X96209400Y-43225649D02*
X96325514Y-43225649D01*
X96325514Y-43225649D02*
X96383572Y-43254678D01*
X96935115Y-43225649D02*
X96935115Y-43632049D01*
X96673857Y-43225649D02*
X96673857Y-43544963D01*
X96673857Y-43544963D02*
X96702886Y-43603021D01*
X96702886Y-43603021D02*
X96760943Y-43632049D01*
X96760943Y-43632049D02*
X96848029Y-43632049D01*
X96848029Y-43632049D02*
X96906086Y-43603021D01*
X96906086Y-43603021D02*
X96935115Y-43573992D01*
X97225400Y-43632049D02*
X97225400Y-43225649D01*
X97225400Y-43022449D02*
X97196372Y-43051478D01*
X97196372Y-43051478D02*
X97225400Y-43080506D01*
X97225400Y-43080506D02*
X97254429Y-43051478D01*
X97254429Y-43051478D02*
X97225400Y-43022449D01*
X97225400Y-43022449D02*
X97225400Y-43080506D01*
X97515686Y-43225649D02*
X97515686Y-43632049D01*
X97515686Y-43283706D02*
X97544715Y-43254678D01*
X97544715Y-43254678D02*
X97602772Y-43225649D01*
X97602772Y-43225649D02*
X97689858Y-43225649D01*
X97689858Y-43225649D02*
X97747915Y-43254678D01*
X97747915Y-43254678D02*
X97776944Y-43312735D01*
X97776944Y-43312735D02*
X97776944Y-43632049D01*
X98154315Y-43632049D02*
X98096258Y-43603021D01*
X98096258Y-43603021D02*
X98067229Y-43573992D01*
X98067229Y-43573992D02*
X98038201Y-43515935D01*
X98038201Y-43515935D02*
X98038201Y-43341763D01*
X98038201Y-43341763D02*
X98067229Y-43283706D01*
X98067229Y-43283706D02*
X98096258Y-43254678D01*
X98096258Y-43254678D02*
X98154315Y-43225649D01*
X98154315Y-43225649D02*
X98241401Y-43225649D01*
X98241401Y-43225649D02*
X98299458Y-43254678D01*
X98299458Y-43254678D02*
X98328487Y-43283706D01*
X98328487Y-43283706D02*
X98357515Y-43341763D01*
X98357515Y-43341763D02*
X98357515Y-43515935D01*
X98357515Y-43515935D02*
X98328487Y-43573992D01*
X98328487Y-43573992D02*
X98299458Y-43603021D01*
X98299458Y-43603021D02*
X98241401Y-43632049D01*
X98241401Y-43632049D02*
X98154315Y-43632049D01*
X99025172Y-43022449D02*
X99431572Y-43632049D01*
X99431572Y-43022449D02*
X99025172Y-43632049D01*
X99663800Y-43632049D02*
X99663800Y-43022449D01*
X99925058Y-43457878D02*
X100215344Y-43457878D01*
X99867001Y-43632049D02*
X100070201Y-43022449D01*
X100070201Y-43022449D02*
X100273401Y-43632049D01*
X100592715Y-43022449D02*
X100708829Y-43022449D01*
X100708829Y-43022449D02*
X100766886Y-43051478D01*
X100766886Y-43051478D02*
X100824943Y-43109535D01*
X100824943Y-43109535D02*
X100853972Y-43225649D01*
X100853972Y-43225649D02*
X100853972Y-43428849D01*
X100853972Y-43428849D02*
X100824943Y-43544963D01*
X100824943Y-43544963D02*
X100766886Y-43603021D01*
X100766886Y-43603021D02*
X100708829Y-43632049D01*
X100708829Y-43632049D02*
X100592715Y-43632049D01*
X100592715Y-43632049D02*
X100534658Y-43603021D01*
X100534658Y-43603021D02*
X100476600Y-43544963D01*
X100476600Y-43544963D02*
X100447572Y-43428849D01*
X100447572Y-43428849D02*
X100447572Y-43225649D01*
X100447572Y-43225649D02*
X100476600Y-43109535D01*
X100476600Y-43109535D02*
X100534658Y-43051478D01*
X100534658Y-43051478D02*
X100592715Y-43022449D01*
X101115229Y-43399821D02*
X101579687Y-43399821D01*
X101869972Y-43225649D02*
X101869972Y-43632049D01*
X101869972Y-43283706D02*
X101899001Y-43254678D01*
X101899001Y-43254678D02*
X101957058Y-43225649D01*
X101957058Y-43225649D02*
X102044144Y-43225649D01*
X102044144Y-43225649D02*
X102102201Y-43254678D01*
X102102201Y-43254678D02*
X102131230Y-43312735D01*
X102131230Y-43312735D02*
X102131230Y-43632049D01*
X102421515Y-43632049D02*
X102421515Y-43225649D01*
X102421515Y-43341763D02*
X102450544Y-43283706D01*
X102450544Y-43283706D02*
X102479573Y-43254678D01*
X102479573Y-43254678D02*
X102537630Y-43225649D01*
X102537630Y-43225649D02*
X102595687Y-43225649D01*
X102711801Y-43225649D02*
X102944029Y-43225649D01*
X102798886Y-43632049D02*
X102798886Y-43109535D01*
X102798886Y-43109535D02*
X102827915Y-43051478D01*
X102827915Y-43051478D02*
X102885972Y-43022449D01*
X102885972Y-43022449D02*
X102944029Y-43022449D01*
X103437515Y-43022449D02*
X103147229Y-43022449D01*
X103147229Y-43022449D02*
X103118201Y-43312735D01*
X103118201Y-43312735D02*
X103147229Y-43283706D01*
X103147229Y-43283706D02*
X103205287Y-43254678D01*
X103205287Y-43254678D02*
X103350429Y-43254678D01*
X103350429Y-43254678D02*
X103408487Y-43283706D01*
X103408487Y-43283706D02*
X103437515Y-43312735D01*
X103437515Y-43312735D02*
X103466544Y-43370792D01*
X103466544Y-43370792D02*
X103466544Y-43515935D01*
X103466544Y-43515935D02*
X103437515Y-43573992D01*
X103437515Y-43573992D02*
X103408487Y-43603021D01*
X103408487Y-43603021D02*
X103350429Y-43632049D01*
X103350429Y-43632049D02*
X103205287Y-43632049D01*
X103205287Y-43632049D02*
X103147229Y-43603021D01*
X103147229Y-43603021D02*
X103118201Y-43573992D01*
X103698772Y-43080506D02*
X103727800Y-43051478D01*
X103727800Y-43051478D02*
X103785858Y-43022449D01*
X103785858Y-43022449D02*
X103931000Y-43022449D01*
X103931000Y-43022449D02*
X103989058Y-43051478D01*
X103989058Y-43051478D02*
X104018086Y-43080506D01*
X104018086Y-43080506D02*
X104047115Y-43138563D01*
X104047115Y-43138563D02*
X104047115Y-43196621D01*
X104047115Y-43196621D02*
X104018086Y-43283706D01*
X104018086Y-43283706D02*
X103669743Y-43632049D01*
X103669743Y-43632049D02*
X104047115Y-43632049D01*
X104395457Y-43283706D02*
X104337400Y-43254678D01*
X104337400Y-43254678D02*
X104308371Y-43225649D01*
X104308371Y-43225649D02*
X104279343Y-43167592D01*
X104279343Y-43167592D02*
X104279343Y-43138563D01*
X104279343Y-43138563D02*
X104308371Y-43080506D01*
X104308371Y-43080506D02*
X104337400Y-43051478D01*
X104337400Y-43051478D02*
X104395457Y-43022449D01*
X104395457Y-43022449D02*
X104511571Y-43022449D01*
X104511571Y-43022449D02*
X104569629Y-43051478D01*
X104569629Y-43051478D02*
X104598657Y-43080506D01*
X104598657Y-43080506D02*
X104627686Y-43138563D01*
X104627686Y-43138563D02*
X104627686Y-43167592D01*
X104627686Y-43167592D02*
X104598657Y-43225649D01*
X104598657Y-43225649D02*
X104569629Y-43254678D01*
X104569629Y-43254678D02*
X104511571Y-43283706D01*
X104511571Y-43283706D02*
X104395457Y-43283706D01*
X104395457Y-43283706D02*
X104337400Y-43312735D01*
X104337400Y-43312735D02*
X104308371Y-43341763D01*
X104308371Y-43341763D02*
X104279343Y-43399821D01*
X104279343Y-43399821D02*
X104279343Y-43515935D01*
X104279343Y-43515935D02*
X104308371Y-43573992D01*
X104308371Y-43573992D02*
X104337400Y-43603021D01*
X104337400Y-43603021D02*
X104395457Y-43632049D01*
X104395457Y-43632049D02*
X104511571Y-43632049D01*
X104511571Y-43632049D02*
X104569629Y-43603021D01*
X104569629Y-43603021D02*
X104598657Y-43573992D01*
X104598657Y-43573992D02*
X104627686Y-43515935D01*
X104627686Y-43515935D02*
X104627686Y-43399821D01*
X104627686Y-43399821D02*
X104598657Y-43341763D01*
X104598657Y-43341763D02*
X104569629Y-43312735D01*
X104569629Y-43312735D02*
X104511571Y-43283706D01*
X105150200Y-43225649D02*
X105150200Y-43632049D01*
X105005057Y-42993421D02*
X104859914Y-43428849D01*
X104859914Y-43428849D02*
X105237285Y-43428849D01*
X105585628Y-43022449D02*
X105643685Y-43022449D01*
X105643685Y-43022449D02*
X105701742Y-43051478D01*
X105701742Y-43051478D02*
X105730771Y-43080506D01*
X105730771Y-43080506D02*
X105759799Y-43138563D01*
X105759799Y-43138563D02*
X105788828Y-43254678D01*
X105788828Y-43254678D02*
X105788828Y-43399821D01*
X105788828Y-43399821D02*
X105759799Y-43515935D01*
X105759799Y-43515935D02*
X105730771Y-43573992D01*
X105730771Y-43573992D02*
X105701742Y-43603021D01*
X105701742Y-43603021D02*
X105643685Y-43632049D01*
X105643685Y-43632049D02*
X105585628Y-43632049D01*
X105585628Y-43632049D02*
X105527571Y-43603021D01*
X105527571Y-43603021D02*
X105498542Y-43573992D01*
X105498542Y-43573992D02*
X105469513Y-43515935D01*
X105469513Y-43515935D02*
X105440485Y-43399821D01*
X105440485Y-43399821D02*
X105440485Y-43254678D01*
X105440485Y-43254678D02*
X105469513Y-43138563D01*
X105469513Y-43138563D02*
X105498542Y-43080506D01*
X105498542Y-43080506D02*
X105527571Y-43051478D01*
X105527571Y-43051478D02*
X105585628Y-43022449D01*
D10*
G04 #@! TO.C,_65*
G04 #@! TO.C,_63*
G04 #@! TO.C,S13*
X163680000Y-75270000D02*
X178480000Y-75270000D01*
X163680000Y-89270000D02*
X163680000Y-75270000D01*
X178480000Y-75270000D02*
X178480000Y-89270000D01*
X178480000Y-89270000D02*
X163680000Y-89270000D01*
G04 #@! TO.C,S14*
X163680000Y-57500000D02*
X178480000Y-57500000D01*
X163680000Y-71500000D02*
X163680000Y-57500000D01*
X178480000Y-57500000D02*
X178480000Y-71500000D01*
X178480000Y-71500000D02*
X163680000Y-71500000D01*
G04 #@! TO.C,S34*
X292300000Y-75270000D02*
X307100000Y-75270000D01*
X292300000Y-89270000D02*
X292300000Y-75270000D01*
X307100000Y-75270000D02*
X307100000Y-89270000D01*
X307100000Y-89270000D02*
X292300000Y-89270000D01*
G04 #@! TO.C,S6*
X110370000Y-57500000D02*
X125170000Y-57500000D01*
X110370000Y-71500000D02*
X110370000Y-57500000D01*
X125170000Y-57500000D02*
X125170000Y-71500000D01*
X125170000Y-71500000D02*
X110370000Y-71500000D01*
G04 #@! TO.C,S7*
X128140000Y-80601000D02*
X142940000Y-80601000D01*
X128140000Y-94601000D02*
X128140000Y-80601000D01*
X142940000Y-80601000D02*
X142940000Y-94601000D01*
X142940000Y-94601000D02*
X128140000Y-94601000D01*
G04 #@! TO.C,S19*
X167234000Y-93040000D02*
X182034000Y-93040000D01*
X167234000Y-107040000D02*
X167234000Y-93040000D01*
X182034000Y-93040000D02*
X182034000Y-107040000D01*
X182034000Y-107040000D02*
X167234000Y-107040000D01*
G04 #@! TO.C,S9*
X128140000Y-45061000D02*
X142940000Y-45061000D01*
X128140000Y-59061000D02*
X128140000Y-45061000D01*
X142940000Y-45061000D02*
X142940000Y-59061000D01*
X142940000Y-59061000D02*
X128140000Y-59061000D01*
G04 #@! TO.C,S1*
X92600000Y-93040000D02*
X107400000Y-93040000D01*
X92600000Y-107040000D02*
X92600000Y-93040000D01*
X107400000Y-93040000D02*
X107400000Y-107040000D01*
X107400000Y-107040000D02*
X92600000Y-107040000D01*
G04 #@! TO.C,S11*
X145910000Y-53946000D02*
X160710000Y-53946000D01*
X145910000Y-67946000D02*
X145910000Y-53946000D01*
X160710000Y-53946000D02*
X160710000Y-67946000D01*
X160710000Y-67946000D02*
X145910000Y-67946000D01*
G04 #@! TO.C,S22*
X363380000Y-93040000D02*
X378180000Y-93040000D01*
X363380000Y-107040000D02*
X363380000Y-93040000D01*
X378180000Y-93040000D02*
X378180000Y-107040000D01*
X378180000Y-107040000D02*
X363380000Y-107040000D01*
G04 #@! TO.C,S36*
X292300000Y-39730000D02*
X307100000Y-39730000D01*
X292300000Y-53730000D02*
X292300000Y-39730000D01*
X307100000Y-39730000D02*
X307100000Y-53730000D01*
X307100000Y-53730000D02*
X292300000Y-53730000D01*
G04 #@! TO.C,S12*
X145910000Y-36176000D02*
X160710000Y-36176000D01*
X145910000Y-50176000D02*
X145910000Y-36176000D01*
X160710000Y-36176000D02*
X160710000Y-50176000D01*
X160710000Y-50176000D02*
X145910000Y-50176000D01*
G04 #@! TO.C,S40*
X288746000Y-93040000D02*
X303546000Y-93040000D01*
X288746000Y-107040000D02*
X288746000Y-93040000D01*
X303546000Y-93040000D02*
X303546000Y-107040000D01*
X303546000Y-107040000D02*
X288746000Y-107040000D01*
G04 #@! TO.C,S3*
X92600000Y-57500000D02*
X107400000Y-57500000D01*
X92600000Y-71500000D02*
X92600000Y-57500000D01*
X107400000Y-57500000D02*
X107400000Y-71500000D01*
X107400000Y-71500000D02*
X92600000Y-71500000D01*
G04 #@! TO.C,S15*
X163680000Y-39730000D02*
X178480000Y-39730000D01*
X163680000Y-53730000D02*
X163680000Y-39730000D01*
X178480000Y-39730000D02*
X178480000Y-53730000D01*
X178480000Y-53730000D02*
X163680000Y-53730000D01*
G04 #@! TO.C,S5*
X110370000Y-75270000D02*
X125170000Y-75270000D01*
X110370000Y-89270000D02*
X110370000Y-75270000D01*
X125170000Y-75270000D02*
X125170000Y-89270000D01*
X125170000Y-89270000D02*
X110370000Y-89270000D01*
G04 #@! TO.C,S10*
X145910000Y-71716000D02*
X160710000Y-71716000D01*
X145910000Y-85716000D02*
X145910000Y-71716000D01*
X160710000Y-71716000D02*
X160710000Y-85716000D01*
X160710000Y-85716000D02*
X145910000Y-85716000D01*
G04 #@! TO.C,S30*
X327840000Y-45061000D02*
X342640000Y-45061000D01*
X327840000Y-59061000D02*
X327840000Y-45061000D01*
X342640000Y-45061000D02*
X342640000Y-59061000D01*
X342640000Y-59061000D02*
X327840000Y-59061000D01*
G04 #@! TO.C,S20*
X185004000Y-93040000D02*
X199804000Y-93040000D01*
X185004000Y-107040000D02*
X185004000Y-93040000D01*
X199804000Y-93040000D02*
X199804000Y-107040000D01*
X199804000Y-107040000D02*
X185004000Y-107040000D01*
G04 #@! TO.C,S42*
X253206000Y-93040000D02*
X268006000Y-93040000D01*
X253206000Y-107040000D02*
X253206000Y-93040000D01*
X268006000Y-93040000D02*
X268006000Y-107040000D01*
X268006000Y-107040000D02*
X253206000Y-107040000D01*
D12*
G04 #@! TO.C,MCU2*
X380445620Y-34464000D02*
X360118000Y-34464000D01*
X360118000Y-34464000D02*
X360118000Y-52261780D01*
X381116180Y-35134560D02*
X380445620Y-34464000D01*
D13*
X381200000Y-38147000D02*
X381200000Y-39925000D01*
X378533000Y-38147000D02*
X381200000Y-38147000D01*
X378533000Y-38147000D02*
X378533000Y-39925000D01*
X377136000Y-38147000D02*
X377136000Y-39925000D01*
X374466460Y-38147000D02*
X377136000Y-38147000D01*
X374466460Y-38147000D02*
X374466460Y-39925000D01*
D12*
X375187820Y-38858200D02*
X382541120Y-38858200D01*
X382541120Y-38863280D02*
X382541120Y-47857420D01*
D13*
X378533000Y-39925000D02*
X381200000Y-39925000D01*
X374466460Y-39925000D02*
X377136000Y-39925000D01*
X380438000Y-40814000D02*
X380438000Y-45894000D01*
X377898000Y-40814000D02*
X380438000Y-40814000D01*
X377898000Y-40814000D02*
X377898000Y-45894000D01*
X363293000Y-40814000D02*
X363293000Y-46529000D01*
X360753000Y-40814000D02*
X363293000Y-40814000D01*
X360753000Y-40814000D02*
X360753000Y-46529000D01*
X377898000Y-45894000D02*
X380438000Y-45894000D01*
X360753000Y-46529000D02*
X363293000Y-46529000D01*
X381200000Y-46783000D02*
X381200000Y-48561000D01*
X378533000Y-46783000D02*
X381200000Y-46783000D01*
X378533000Y-46783000D02*
X378533000Y-48561000D01*
X377136000Y-46783000D02*
X377136000Y-48561000D01*
X374466460Y-46783000D02*
X377136000Y-46783000D01*
X374466460Y-46783000D02*
X374466460Y-48561000D01*
D12*
X382541120Y-47857420D02*
X375187820Y-47857420D01*
X375187820Y-47857420D02*
X375187820Y-38858200D01*
D13*
X378533000Y-48561000D02*
X381200000Y-48561000D01*
X374466460Y-48561000D02*
X377136000Y-48561000D01*
D12*
X381116180Y-52261780D02*
X381116180Y-35134560D01*
X360118000Y-52261780D02*
X381116180Y-52261780D01*
D14*
X378406000Y-33575000D02*
G75*
G03*
X378406000Y-33575000I-127000J0D01*
G01*
D10*
G04 #@! TO.C,S28*
X327840000Y-80601000D02*
X342640000Y-80601000D01*
X327840000Y-94601000D02*
X327840000Y-80601000D01*
X342640000Y-80601000D02*
X342640000Y-94601000D01*
X342640000Y-94601000D02*
X327840000Y-94601000D01*
G04 #@! TO.C,S33*
X310070000Y-36176000D02*
X324870000Y-36176000D01*
X310070000Y-50176000D02*
X310070000Y-36176000D01*
X324870000Y-36176000D02*
X324870000Y-50176000D01*
X324870000Y-50176000D02*
X310070000Y-50176000D01*
G04 #@! TO.C,S32*
X310070000Y-53946000D02*
X324870000Y-53946000D01*
X310070000Y-67946000D02*
X310070000Y-53946000D01*
X324870000Y-53946000D02*
X324870000Y-67946000D01*
X324870000Y-67946000D02*
X310070000Y-67946000D01*
G04 #@! TO.C,S25*
X345610000Y-93040000D02*
X360410000Y-93040000D01*
X345610000Y-107040000D02*
X345610000Y-93040000D01*
X360410000Y-93040000D02*
X360410000Y-107040000D01*
X360410000Y-107040000D02*
X345610000Y-107040000D01*
G04 #@! TO.C,S4*
X110370000Y-93040000D02*
X125170000Y-93040000D01*
X110370000Y-107040000D02*
X110370000Y-93040000D01*
X125170000Y-93040000D02*
X125170000Y-107040000D01*
X125170000Y-107040000D02*
X110370000Y-107040000D01*
G04 #@! TO.C,S21*
X202774000Y-93040000D02*
X217574000Y-93040000D01*
X202774000Y-107040000D02*
X202774000Y-93040000D01*
X217574000Y-93040000D02*
X217574000Y-107040000D01*
X217574000Y-107040000D02*
X202774000Y-107040000D01*
G04 #@! TO.C,S16*
X181450000Y-75270000D02*
X196250000Y-75270000D01*
X181450000Y-89270000D02*
X181450000Y-75270000D01*
X196250000Y-75270000D02*
X196250000Y-89270000D01*
X196250000Y-89270000D02*
X181450000Y-89270000D01*
G04 #@! TO.C,S41*
X270976000Y-93040000D02*
X285776000Y-93040000D01*
X270976000Y-107040000D02*
X270976000Y-93040000D01*
X285776000Y-93040000D02*
X285776000Y-107040000D01*
X285776000Y-107040000D02*
X270976000Y-107040000D01*
D12*
G04 #@! TO.C,MCU1*
X90334380Y-52244000D02*
X110662000Y-52244000D01*
X110662000Y-52244000D02*
X110662000Y-34446220D01*
X89663820Y-51573440D02*
X90334380Y-52244000D01*
D13*
X89580000Y-48561000D02*
X89580000Y-46783000D01*
X92247000Y-48561000D02*
X89580000Y-48561000D01*
X92247000Y-48561000D02*
X92247000Y-46783000D01*
X93644000Y-48561000D02*
X93644000Y-46783000D01*
X96313540Y-48561000D02*
X93644000Y-48561000D01*
X96313540Y-48561000D02*
X96313540Y-46783000D01*
D12*
X95592180Y-47849800D02*
X88238880Y-47849800D01*
X88238880Y-47844720D02*
X88238880Y-38850580D01*
D13*
X92247000Y-46783000D02*
X89580000Y-46783000D01*
X96313540Y-46783000D02*
X93644000Y-46783000D01*
X90342000Y-45894000D02*
X90342000Y-40814000D01*
X92882000Y-45894000D02*
X90342000Y-45894000D01*
X92882000Y-45894000D02*
X92882000Y-40814000D01*
X107487000Y-45894000D02*
X107487000Y-40179000D01*
X110027000Y-45894000D02*
X107487000Y-45894000D01*
X110027000Y-45894000D02*
X110027000Y-40179000D01*
X92882000Y-40814000D02*
X90342000Y-40814000D01*
X110027000Y-40179000D02*
X107487000Y-40179000D01*
X89580000Y-39925000D02*
X89580000Y-38147000D01*
X92247000Y-39925000D02*
X89580000Y-39925000D01*
X92247000Y-39925000D02*
X92247000Y-38147000D01*
X93644000Y-39925000D02*
X93644000Y-38147000D01*
X96313540Y-39925000D02*
X93644000Y-39925000D01*
X96313540Y-39925000D02*
X96313540Y-38147000D01*
D12*
X88238880Y-38850580D02*
X95592180Y-38850580D01*
X95592180Y-38850580D02*
X95592180Y-47849800D01*
D13*
X92247000Y-38147000D02*
X89580000Y-38147000D01*
X96313540Y-38147000D02*
X93644000Y-38147000D01*
D12*
X89663820Y-34446220D02*
X89663820Y-51573440D01*
X110662000Y-34446220D02*
X89663820Y-34446220D01*
D14*
X92628000Y-53133000D02*
G75*
G03*
X92628000Y-53133000I-127000J0D01*
G01*
D10*
G04 #@! TO.C,S23*
X363380000Y-75270000D02*
X378180000Y-75270000D01*
X363380000Y-89270000D02*
X363380000Y-75270000D01*
X378180000Y-75270000D02*
X378180000Y-89270000D01*
X378180000Y-89270000D02*
X363380000Y-89270000D01*
G04 #@! TO.C,S2*
X92600000Y-75270000D02*
X107400000Y-75270000D01*
X92600000Y-89270000D02*
X92600000Y-75270000D01*
X107400000Y-75270000D02*
X107400000Y-89270000D01*
X107400000Y-89270000D02*
X92600000Y-89270000D01*
G04 #@! TO.C,S38*
X274530000Y-57500000D02*
X289330000Y-57500000D01*
X274530000Y-71500000D02*
X274530000Y-57500000D01*
X289330000Y-57500000D02*
X289330000Y-71500000D01*
X289330000Y-71500000D02*
X274530000Y-71500000D01*
G04 #@! TO.C,S27*
X345610000Y-57500000D02*
X360410000Y-57500000D01*
X345610000Y-71500000D02*
X345610000Y-57500000D01*
X360410000Y-57500000D02*
X360410000Y-71500000D01*
X360410000Y-71500000D02*
X345610000Y-71500000D01*
G04 #@! TO.C,S8*
X128140000Y-62831000D02*
X142940000Y-62831000D01*
X128140000Y-76831000D02*
X128140000Y-62831000D01*
X142940000Y-62831000D02*
X142940000Y-76831000D01*
X142940000Y-76831000D02*
X128140000Y-76831000D01*
G04 #@! TO.C,S29*
X327840000Y-62831000D02*
X342640000Y-62831000D01*
X327840000Y-76831000D02*
X327840000Y-62831000D01*
X342640000Y-62831000D02*
X342640000Y-76831000D01*
X342640000Y-76831000D02*
X327840000Y-76831000D01*
G04 #@! TO.C,S35*
X292300000Y-57500000D02*
X307100000Y-57500000D01*
X292300000Y-71500000D02*
X292300000Y-57500000D01*
X307100000Y-57500000D02*
X307100000Y-71500000D01*
X307100000Y-71500000D02*
X292300000Y-71500000D01*
G04 #@! TO.C,S24*
X363380000Y-57500000D02*
X378180000Y-57500000D01*
X363380000Y-71500000D02*
X363380000Y-57500000D01*
X378180000Y-57500000D02*
X378180000Y-71500000D01*
X378180000Y-71500000D02*
X363380000Y-71500000D01*
G04 #@! TO.C,S37*
X274530000Y-75270000D02*
X289330000Y-75270000D01*
X274530000Y-89270000D02*
X274530000Y-75270000D01*
X289330000Y-75270000D02*
X289330000Y-89270000D01*
X289330000Y-89270000D02*
X274530000Y-89270000D01*
G04 #@! TO.C,S39*
X274530000Y-39730000D02*
X289330000Y-39730000D01*
X274530000Y-53730000D02*
X274530000Y-39730000D01*
X289330000Y-39730000D02*
X289330000Y-53730000D01*
X289330000Y-53730000D02*
X274530000Y-53730000D01*
G04 #@! TO.C,S26*
X345610000Y-75270000D02*
X360410000Y-75270000D01*
X345610000Y-89270000D02*
X345610000Y-75270000D01*
X360410000Y-75270000D02*
X360410000Y-89270000D01*
X360410000Y-89270000D02*
X345610000Y-89270000D01*
G04 #@! TO.C,S18*
X181450000Y-39730000D02*
X196250000Y-39730000D01*
X181450000Y-53730000D02*
X181450000Y-39730000D01*
X196250000Y-39730000D02*
X196250000Y-53730000D01*
X196250000Y-53730000D02*
X181450000Y-53730000D01*
G04 #@! TO.C,S17*
X181450000Y-57500000D02*
X196250000Y-57500000D01*
X181450000Y-71500000D02*
X181450000Y-57500000D01*
X196250000Y-57500000D02*
X196250000Y-71500000D01*
X196250000Y-71500000D02*
X181450000Y-71500000D01*
G04 #@! TO.C,S31*
X310070000Y-71716000D02*
X324870000Y-71716000D01*
X310070000Y-85716000D02*
X310070000Y-71716000D01*
X324870000Y-71716000D02*
X324870000Y-85716000D01*
X324870000Y-85716000D02*
X310070000Y-85716000D01*
G04 #@! TD*
M02*
