G04 #@! TF.GenerationSoftware,KiCad,Pcbnew,7.0.5-0*
G04 #@! TF.CreationDate,2023-06-04T16:05:39+02:00*
G04 #@! TF.ProjectId,kbd,6b62642e-6b69-4636-9164-5f7063625858,v1.0.0*
G04 #@! TF.SameCoordinates,Original*
G04 #@! TF.FileFunction,Paste,Bot*
G04 #@! TF.FilePolarity,Positive*
%FSLAX46Y46*%
G04 Gerber Fmt 4.6, Leading zero omitted, Abs format (unit mm)*
G04 Created by KiCad (PCBNEW 7.0.5-0) date 2023-06-04 16:05:39*
%MOMM*%
%LPD*%
G01*
G04 APERTURE LIST*
G04 Aperture macros list*
%AMRoundRect*
0 Rectangle with rounded corners*
0 $1 Rounding radius*
0 $2 $3 $4 $5 $6 $7 $8 $9 X,Y pos of 4 corners*
0 Add a 4 corners polygon primitive as box body*
4,1,4,$2,$3,$4,$5,$6,$7,$8,$9,$2,$3,0*
0 Add four circle primitives for the rounded corners*
1,1,$1+$1,$2,$3*
1,1,$1+$1,$4,$5*
1,1,$1+$1,$6,$7*
1,1,$1+$1,$8,$9*
0 Add four rect primitives between the rounded corners*
20,1,$1+$1,$2,$3,$4,$5,0*
20,1,$1+$1,$4,$5,$6,$7,0*
20,1,$1+$1,$6,$7,$8,$9,0*
20,1,$1+$1,$8,$9,$2,$3,0*%
G04 Aperture macros list end*
%ADD10RoundRect,0.250000X0.250000X0.250000X-0.250000X0.250000X-0.250000X-0.250000X0.250000X-0.250000X0*%
G04 APERTURE END LIST*
D10*
G04 #@! TO.C,D33*
X318720000Y-48136000D03*
X316220000Y-48136000D03*
G04 #@! TD*
G04 #@! TO.C,D5*
X119020000Y-87230000D03*
X116520000Y-87230000D03*
G04 #@! TD*
G04 #@! TO.C,D3*
X101250000Y-69460000D03*
X98750000Y-69460000D03*
G04 #@! TD*
G04 #@! TO.C,D7*
X136790000Y-92561000D03*
X134290000Y-92561000D03*
G04 #@! TD*
G04 #@! TO.C,D20*
X193654000Y-105000000D03*
X191154000Y-105000000D03*
G04 #@! TD*
G04 #@! TO.C,D27*
X354260000Y-69460000D03*
X351760000Y-69460000D03*
G04 #@! TD*
G04 #@! TO.C,D18*
X190100000Y-51690000D03*
X187600000Y-51690000D03*
G04 #@! TD*
G04 #@! TO.C,D35*
X300950000Y-69460000D03*
X298450000Y-69460000D03*
G04 #@! TD*
G04 #@! TO.C,D31*
X318720000Y-83676000D03*
X316220000Y-83676000D03*
G04 #@! TD*
G04 #@! TO.C,D15*
X172330000Y-51690000D03*
X169830000Y-51690000D03*
G04 #@! TD*
G04 #@! TO.C,D24*
X372030000Y-69460000D03*
X369530000Y-69460000D03*
G04 #@! TD*
G04 #@! TO.C,D16*
X190100000Y-87230000D03*
X187600000Y-87230000D03*
G04 #@! TD*
G04 #@! TO.C,D9*
X136790000Y-57021000D03*
X134290000Y-57021000D03*
G04 #@! TD*
G04 #@! TO.C,D34*
X300950000Y-87230000D03*
X298450000Y-87230000D03*
G04 #@! TD*
G04 #@! TO.C,D23*
X372030000Y-87230000D03*
X369530000Y-87230000D03*
G04 #@! TD*
G04 #@! TO.C,D8*
X136790000Y-74791000D03*
X134290000Y-74791000D03*
G04 #@! TD*
G04 #@! TO.C,D21*
X211424000Y-105000000D03*
X208924000Y-105000000D03*
G04 #@! TD*
G04 #@! TO.C,D13*
X172330000Y-87230000D03*
X169830000Y-87230000D03*
G04 #@! TD*
G04 #@! TO.C,D1*
X101250000Y-105000000D03*
X98750000Y-105000000D03*
G04 #@! TD*
G04 #@! TO.C,D4*
X119020000Y-105000000D03*
X116520000Y-105000000D03*
G04 #@! TD*
G04 #@! TO.C,D6*
X119020000Y-69460000D03*
X116520000Y-69460000D03*
G04 #@! TD*
G04 #@! TO.C,D14*
X172330000Y-69460000D03*
X169830000Y-69460000D03*
G04 #@! TD*
G04 #@! TO.C,D29*
X336490000Y-74791000D03*
X333990000Y-74791000D03*
G04 #@! TD*
G04 #@! TO.C,D25*
X354260000Y-105000000D03*
X351760000Y-105000000D03*
G04 #@! TD*
G04 #@! TO.C,D30*
X336490000Y-57021000D03*
X333990000Y-57021000D03*
G04 #@! TD*
G04 #@! TO.C,D22*
X372030000Y-105000000D03*
X369530000Y-105000000D03*
G04 #@! TD*
G04 #@! TO.C,D32*
X318720000Y-65906000D03*
X316220000Y-65906000D03*
G04 #@! TD*
G04 #@! TO.C,D10*
X154560000Y-83676000D03*
X152060000Y-83676000D03*
G04 #@! TD*
G04 #@! TO.C,D19*
X175884000Y-105000000D03*
X173384000Y-105000000D03*
G04 #@! TD*
G04 #@! TO.C,D37*
X283180000Y-87230000D03*
X280680000Y-87230000D03*
G04 #@! TD*
G04 #@! TO.C,D38*
X283180000Y-69460000D03*
X280680000Y-69460000D03*
G04 #@! TD*
G04 #@! TO.C,D39*
X283180000Y-51690000D03*
X280680000Y-51690000D03*
G04 #@! TD*
G04 #@! TO.C,D40*
X297396000Y-105000000D03*
X294896000Y-105000000D03*
G04 #@! TD*
G04 #@! TO.C,D26*
X354260000Y-87230000D03*
X351760000Y-87230000D03*
G04 #@! TD*
G04 #@! TO.C,D12*
X154560000Y-48136000D03*
X152060000Y-48136000D03*
G04 #@! TD*
G04 #@! TO.C,D36*
X300950000Y-51690000D03*
X298450000Y-51690000D03*
G04 #@! TD*
G04 #@! TO.C,D2*
X101250000Y-87230000D03*
X98750000Y-87230000D03*
G04 #@! TD*
G04 #@! TO.C,D42*
X261856000Y-105000000D03*
X259356000Y-105000000D03*
G04 #@! TD*
G04 #@! TO.C,D17*
X190100000Y-69460000D03*
X187600000Y-69460000D03*
G04 #@! TD*
G04 #@! TO.C,D41*
X279626000Y-105000000D03*
X277126000Y-105000000D03*
G04 #@! TD*
G04 #@! TO.C,D28*
X336490000Y-92561000D03*
X333990000Y-92561000D03*
G04 #@! TD*
G04 #@! TO.C,D11*
X154560000Y-65906000D03*
X152060000Y-65906000D03*
G04 #@! TD*
M02*
