M48
; DRILL file {KiCad 7.0.5-0} date 2023 June 04, Sunday 16:05:39
; FORMAT={-:-/ absolute / metric / decimal}
; #@! TF.CreationDate,2023-06-04T16:05:39+02:00
; #@! TF.GenerationSoftware,Kicad,Pcbnew,7.0.5-0
; #@! TF.FileFunction,MixedPlating,1,2
FMAT,2
METRIC
; #@! TA.AperFunction,Plated,PTH,ComponentDrill
T1C0.300
; #@! TA.AperFunction,Plated,PTH,ViaDrill
T2C0.400
; #@! TA.AperFunction,Plated,PTH,ComponentDrill
T3C0.400
; #@! TA.AperFunction,Plated,PTH,ComponentDrill
T4C0.700
; #@! TA.AperFunction,Plated,PTH,ComponentDrill
T5C1.000
; #@! TA.AperFunction,Plated,PTH,ComponentDrill
T6C1.100
; #@! TA.AperFunction,Plated,PTH,ComponentDrill
T7C2.200
; #@! TA.AperFunction,Plated,PTH,ComponentDrill
T8C12.300
; #@! TA.AperFunction,NonPlated,NPTH,ComponentDrill
T9C0.300
; #@! TA.AperFunction,NonPlated,NPTH,ComponentDrill
T10C1.300
; #@! TA.AperFunction,NonPlated,NPTH,ComponentDrill
T11C2.000
; #@! TA.AperFunction,NonPlated,NPTH,ComponentDrill
T12C4.100
%
G90
G05
T1
X100.0Y-61.46
X100.0Y-79.23
X100.0Y-97.0
X117.77Y-61.46
X117.77Y-79.23
X117.77Y-97.0
X135.54Y-49.021
X135.54Y-66.791
X135.54Y-84.561
X153.31Y-40.136
X153.31Y-57.906
X153.31Y-75.676
X171.08Y-43.69
X171.08Y-61.46
X171.08Y-79.23
X174.634Y-97.0
X188.85Y-43.69
X188.85Y-61.46
X188.85Y-79.23
X192.404Y-97.0
X210.174Y-97.0
X260.606Y-97.0
X278.376Y-97.0
X281.93Y-43.69
X281.93Y-61.46
X281.93Y-79.23
X296.146Y-97.0
X299.7Y-43.69
X299.7Y-61.46
X299.7Y-79.23
X317.47Y-40.136
X317.47Y-57.906
X317.47Y-75.676
X335.24Y-49.021
X335.24Y-66.791
X335.24Y-84.561
X353.01Y-61.46
X353.01Y-79.23
X353.01Y-97.0
X370.78Y-61.46
X370.78Y-79.23
X370.78Y-97.0
T2
X102.6Y-38.0
X105.4Y-38.0
X107.8Y-38.0
X108.724Y-48.4
X363.0Y-38.0
X363.2Y-54.0
X365.6Y-54.2
X368.2Y-54.2
T3
X116.14Y-42.247
X116.618Y-41.095
X116.618Y-43.4
X117.77Y-40.618
X117.77Y-43.877
X118.922Y-41.095
X118.922Y-43.4
X119.4Y-42.247
X155.234Y-92.004
X155.712Y-90.851
X155.712Y-93.156
X156.864Y-90.374
X156.864Y-93.633
X158.016Y-90.851
X158.016Y-93.156
X158.494Y-92.004
X201.436Y-46.69
X201.914Y-45.538
X201.914Y-47.842
X203.066Y-45.06
X203.066Y-48.32
X204.218Y-45.538
X204.218Y-47.842
X204.696Y-46.69
X204.99Y-82.23
X205.468Y-81.078
X205.468Y-83.382
X206.62Y-80.6
X206.62Y-83.86
X207.772Y-81.078
X207.772Y-83.382
X208.25Y-82.23
X222.76Y-105.331
X223.238Y-104.179
X223.238Y-106.483
X224.39Y-103.701
X224.39Y-106.961
X225.542Y-104.179
X225.542Y-106.483
X226.02Y-105.331
X244.76Y-105.331
X245.238Y-104.179
X245.238Y-106.483
X246.39Y-103.701
X246.39Y-106.961
X247.542Y-104.179
X247.542Y-106.483
X248.02Y-105.331
X262.53Y-82.23
X263.008Y-81.078
X263.008Y-83.382
X264.16Y-80.6
X264.16Y-83.86
X265.312Y-81.078
X265.312Y-83.382
X265.79Y-82.23
X266.084Y-46.69
X266.562Y-45.538
X266.562Y-47.842
X267.714Y-45.06
X267.714Y-48.32
X268.866Y-45.538
X268.866Y-47.842
X269.344Y-46.69
X312.286Y-92.004
X312.764Y-90.851
X312.764Y-93.156
X313.916Y-90.374
X313.916Y-93.633
X315.068Y-90.851
X315.068Y-93.156
X315.546Y-92.004
X351.38Y-42.247
X351.858Y-41.095
X351.858Y-43.4
X353.01Y-40.618
X353.01Y-43.877
X354.162Y-41.095
X354.162Y-43.4
X354.64Y-42.247
T4
X234.39Y-82.46
X234.39Y-83.46
X234.39Y-84.46
X234.39Y-85.46
X234.39Y-86.46
X234.39Y-87.46
X234.39Y-88.46
X234.39Y-89.46
X234.39Y-90.46
X234.39Y-91.46
X234.39Y-92.46
X234.39Y-93.46
X234.39Y-94.46
X234.39Y-95.46
X234.39Y-96.46
X234.39Y-97.46
X234.39Y-98.46
X234.39Y-101.46
X234.39Y-102.46
X234.39Y-103.46
X234.39Y-104.46
X234.39Y-105.46
X234.39Y-106.46
X234.39Y-107.46
X234.39Y-108.46
X236.39Y-82.46
X236.39Y-83.46
X236.39Y-84.46
X236.39Y-85.46
X236.39Y-86.46
X236.39Y-87.46
X236.39Y-88.46
X236.39Y-89.46
X236.39Y-90.46
X236.39Y-91.46
X236.39Y-92.46
X236.39Y-93.46
X236.39Y-94.46
X236.39Y-95.46
X236.39Y-96.46
X236.39Y-97.46
X236.39Y-98.46
X236.39Y-101.46
X236.39Y-102.46
X236.39Y-103.46
X236.39Y-104.46
X236.39Y-105.46
X236.39Y-106.46
X236.39Y-107.46
X236.39Y-108.46
T5
X114.216Y-50.244
X147.979Y-93.269
X147.979Y-96.069
X232.39Y-98.6
X232.39Y-101.4
X238.39Y-98.6
X238.39Y-101.4
X322.801Y-93.269
X322.801Y-96.069
X356.564Y-50.244
T6
X96.6Y-61.6
X96.6Y-66.5
X96.6Y-79.37
X96.6Y-84.27
X96.6Y-97.14
X96.6Y-102.04
X114.37Y-61.6
X114.37Y-66.5
X114.37Y-79.37
X114.37Y-84.27
X114.37Y-97.14
X114.37Y-102.04
X132.14Y-49.161
X132.14Y-54.061
X132.14Y-66.931
X132.14Y-71.831
X132.14Y-84.701
X132.14Y-89.601
X149.91Y-40.276
X149.91Y-45.176
X149.91Y-58.046
X149.91Y-62.946
X149.91Y-75.816
X149.91Y-80.716
X167.68Y-43.83
X167.68Y-48.73
X167.68Y-61.6
X167.68Y-66.5
X167.68Y-79.37
X167.68Y-84.27
X171.234Y-97.14
X171.234Y-102.04
X185.45Y-43.83
X185.45Y-48.73
X185.45Y-61.6
X185.45Y-66.5
X185.45Y-79.37
X185.45Y-84.27
X189.004Y-97.14
X189.004Y-102.04
X206.774Y-97.14
X206.774Y-102.04
X257.206Y-97.14
X257.206Y-102.04
X274.976Y-97.14
X274.976Y-102.04
X278.53Y-43.83
X278.53Y-48.73
X278.53Y-61.6
X278.53Y-66.5
X278.53Y-79.37
X278.53Y-84.27
X292.746Y-97.14
X292.746Y-102.04
X296.3Y-43.83
X296.3Y-48.73
X296.3Y-61.6
X296.3Y-66.5
X296.3Y-79.37
X296.3Y-84.27
X314.07Y-40.276
X314.07Y-45.176
X314.07Y-58.046
X314.07Y-62.946
X314.07Y-75.816
X314.07Y-80.716
X331.84Y-49.161
X331.84Y-54.061
X331.84Y-66.931
X331.84Y-71.831
X331.84Y-84.701
X331.84Y-89.601
X349.61Y-61.6
X349.61Y-66.5
X349.61Y-79.37
X349.61Y-84.27
X349.61Y-97.14
X349.61Y-102.04
X367.38Y-61.6
X367.38Y-66.5
X367.38Y-79.37
X367.38Y-84.27
X367.38Y-97.14
X367.38Y-102.04
T7
X117.77Y-42.247
X156.864Y-92.004
X203.066Y-46.69
X206.62Y-82.23
X224.39Y-105.331
X246.39Y-105.331
X264.16Y-82.23
X267.714Y-46.69
X313.916Y-92.004
X353.01Y-42.247
T8
X215.505Y-49.46
X225.505Y-79.46
X245.275Y-79.46
X255.275Y-49.46
T10
X94.5Y-59.0
X94.5Y-76.77
X94.5Y-94.54
X105.5Y-70.0
X105.5Y-87.77
X105.5Y-105.54
X112.27Y-59.0
X112.27Y-76.77
X112.27Y-94.54
X123.27Y-70.0
X123.27Y-87.77
X123.27Y-105.54
X130.04Y-46.561
X130.04Y-64.331
X130.04Y-82.101
X141.04Y-57.561
X141.04Y-75.331
X141.04Y-93.101
X147.81Y-37.676
X147.81Y-55.446
X147.81Y-73.216
X158.81Y-48.676
X158.81Y-66.446
X158.81Y-84.216
X165.58Y-41.23
X165.58Y-59.0
X165.58Y-76.77
X169.134Y-94.54
X176.58Y-52.23
X176.58Y-70.0
X176.58Y-87.77
X180.134Y-105.54
X183.35Y-41.23
X183.35Y-59.0
X183.35Y-76.77
X186.904Y-94.54
X194.35Y-52.23
X194.35Y-70.0
X194.35Y-87.77
X197.904Y-105.54
X204.674Y-94.54
X215.674Y-105.54
X255.106Y-94.54
X266.106Y-105.54
X272.876Y-94.54
X276.43Y-41.23
X276.43Y-59.0
X276.43Y-76.77
X283.876Y-105.54
X287.43Y-52.23
X287.43Y-70.0
X287.43Y-87.77
X290.646Y-94.54
X294.2Y-41.23
X294.2Y-59.0
X294.2Y-76.77
X301.646Y-105.54
X305.2Y-52.23
X305.2Y-70.0
X305.2Y-87.77
X311.97Y-37.676
X311.97Y-55.446
X311.97Y-73.216
X322.97Y-48.676
X322.97Y-66.446
X322.97Y-84.216
X329.74Y-46.561
X329.74Y-64.331
X329.74Y-82.101
X340.74Y-57.561
X340.74Y-75.331
X340.74Y-93.101
X347.51Y-59.0
X347.51Y-76.77
X347.51Y-94.54
X358.51Y-70.0
X358.51Y-87.77
X358.51Y-105.54
X365.28Y-59.0
X365.28Y-76.77
X365.28Y-94.54
X376.28Y-70.0
X376.28Y-87.77
X376.28Y-105.54
T9
X97.6Y-63.5G85X97.6Y-67.3
G05
X97.6Y-81.27G85X97.6Y-85.07
G05
X97.6Y-99.04G85X97.6Y-102.84
G05
X97.6Y-63.5G85X102.4Y-63.5
G05
X97.6Y-67.3G85X102.4Y-67.3
G05
X97.6Y-81.27G85X102.4Y-81.27
G05
X97.6Y-85.07G85X102.4Y-85.07
G05
X97.6Y-99.04G85X102.4Y-99.04
G05
X97.6Y-102.84G85X102.4Y-102.84
G05
X102.4Y-63.5G85X102.4Y-67.3
G05
X102.4Y-81.27G85X102.4Y-85.07
G05
X102.4Y-99.04G85X102.4Y-102.84
G05
X115.37Y-63.5G85X115.37Y-67.3
G05
X115.37Y-81.27G85X115.37Y-85.07
G05
X115.37Y-99.04G85X115.37Y-102.84
G05
X115.37Y-63.5G85X120.17Y-63.5
G05
X115.37Y-67.3G85X120.17Y-67.3
G05
X115.37Y-81.27G85X120.17Y-81.27
G05
X115.37Y-85.07G85X120.17Y-85.07
G05
X115.37Y-99.04G85X120.17Y-99.04
G05
X115.37Y-102.84G85X120.17Y-102.84
G05
X120.17Y-63.5G85X120.17Y-67.3
G05
X120.17Y-81.27G85X120.17Y-85.07
G05
X120.17Y-99.04G85X120.17Y-102.84
G05
X133.14Y-51.061G85X133.14Y-54.861
G05
X133.14Y-68.831G85X133.14Y-72.631
G05
X133.14Y-86.601G85X133.14Y-90.401
G05
X133.14Y-51.061G85X137.94Y-51.061
G05
X133.14Y-54.861G85X137.94Y-54.861
G05
X133.14Y-68.831G85X137.94Y-68.831
G05
X133.14Y-72.631G85X137.94Y-72.631
G05
X133.14Y-86.601G85X137.94Y-86.601
G05
X133.14Y-90.401G85X137.94Y-90.401
G05
X137.94Y-51.061G85X137.94Y-54.861
G05
X137.94Y-68.831G85X137.94Y-72.631
G05
X137.94Y-86.601G85X137.94Y-90.401
G05
X150.91Y-42.176G85X150.91Y-45.976
G05
X150.91Y-59.946G85X150.91Y-63.746
G05
X150.91Y-77.716G85X150.91Y-81.516
G05
X150.91Y-42.176G85X155.71Y-42.176
G05
X150.91Y-45.976G85X155.71Y-45.976
G05
X150.91Y-59.946G85X155.71Y-59.946
G05
X150.91Y-63.746G85X155.71Y-63.746
G05
X150.91Y-77.716G85X155.71Y-77.716
G05
X150.91Y-81.516G85X155.71Y-81.516
G05
X155.71Y-42.176G85X155.71Y-45.976
G05
X155.71Y-59.946G85X155.71Y-63.746
G05
X155.71Y-77.716G85X155.71Y-81.516
G05
X168.68Y-45.73G85X168.68Y-49.53
G05
X168.68Y-63.5G85X168.68Y-67.3
G05
X168.68Y-81.27G85X168.68Y-85.07
G05
X168.68Y-45.73G85X173.48Y-45.73
G05
X168.68Y-49.53G85X173.48Y-49.53
G05
X168.68Y-63.5G85X173.48Y-63.5
G05
X168.68Y-67.3G85X173.48Y-67.3
G05
X168.68Y-81.27G85X173.48Y-81.27
G05
X168.68Y-85.07G85X173.48Y-85.07
G05
X172.234Y-99.04G85X172.234Y-102.84
G05
X173.48Y-45.73G85X173.48Y-49.53
G05
X173.48Y-63.5G85X173.48Y-67.3
G05
X173.48Y-81.27G85X173.48Y-85.07
G05
X172.234Y-99.04G85X177.034Y-99.04
G05
X172.234Y-102.84G85X177.034Y-102.84
G05
X177.034Y-99.04G85X177.034Y-102.84
G05
X186.45Y-45.73G85X186.45Y-49.53
G05
X186.45Y-63.5G85X186.45Y-67.3
G05
X186.45Y-81.27G85X186.45Y-85.07
G05
X186.45Y-45.73G85X191.25Y-45.73
G05
X186.45Y-49.53G85X191.25Y-49.53
G05
X186.45Y-63.5G85X191.25Y-63.5
G05
X186.45Y-67.3G85X191.25Y-67.3
G05
X186.45Y-81.27G85X191.25Y-81.27
G05
X186.45Y-85.07G85X191.25Y-85.07
G05
X190.004Y-99.04G85X190.004Y-102.84
G05
X191.25Y-45.73G85X191.25Y-49.53
G05
X191.25Y-63.5G85X191.25Y-67.3
G05
X191.25Y-81.27G85X191.25Y-85.07
G05
X190.004Y-99.04G85X194.804Y-99.04
G05
X190.004Y-102.84G85X194.804Y-102.84
G05
X194.804Y-99.04G85X194.804Y-102.84
G05
X207.774Y-99.04G85X207.774Y-102.84
G05
X207.774Y-99.04G85X212.574Y-99.04
G05
X207.774Y-102.84G85X212.574Y-102.84
G05
X212.574Y-99.04G85X212.574Y-102.84
G05
X258.206Y-99.04G85X258.206Y-102.84
G05
X258.206Y-99.04G85X263.006Y-99.04
G05
X258.206Y-102.84G85X263.006Y-102.84
G05
X263.006Y-99.04G85X263.006Y-102.84
G05
X275.976Y-99.04G85X275.976Y-102.84
G05
X275.976Y-99.04G85X280.776Y-99.04
G05
X275.976Y-102.84G85X280.776Y-102.84
G05
X279.53Y-45.73G85X279.53Y-49.53
G05
X279.53Y-63.5G85X279.53Y-67.3
G05
X279.53Y-81.27G85X279.53Y-85.07
G05
X280.776Y-99.04G85X280.776Y-102.84
G05
X279.53Y-45.73G85X284.33Y-45.73
G05
X279.53Y-49.53G85X284.33Y-49.53
G05
X279.53Y-63.5G85X284.33Y-63.5
G05
X279.53Y-67.3G85X284.33Y-67.3
G05
X279.53Y-81.27G85X284.33Y-81.27
G05
X279.53Y-85.07G85X284.33Y-85.07
G05
X284.33Y-45.73G85X284.33Y-49.53
G05
X284.33Y-63.5G85X284.33Y-67.3
G05
X284.33Y-81.27G85X284.33Y-85.07
G05
X293.746Y-99.04G85X293.746Y-102.84
G05
X293.746Y-99.04G85X298.546Y-99.04
G05
X293.746Y-102.84G85X298.546Y-102.84
G05
X297.3Y-45.73G85X297.3Y-49.53
G05
X297.3Y-63.5G85X297.3Y-67.3
G05
X297.3Y-81.27G85X297.3Y-85.07
G05
X298.546Y-99.04G85X298.546Y-102.84
G05
X297.3Y-45.73G85X302.1Y-45.73
G05
X297.3Y-49.53G85X302.1Y-49.53
G05
X297.3Y-63.5G85X302.1Y-63.5
G05
X297.3Y-67.3G85X302.1Y-67.3
G05
X297.3Y-81.27G85X302.1Y-81.27
G05
X297.3Y-85.07G85X302.1Y-85.07
G05
X302.1Y-45.73G85X302.1Y-49.53
G05
X302.1Y-63.5G85X302.1Y-67.3
G05
X302.1Y-81.27G85X302.1Y-85.07
G05
X315.07Y-42.176G85X315.07Y-45.976
G05
X315.07Y-59.946G85X315.07Y-63.746
G05
X315.07Y-77.716G85X315.07Y-81.516
G05
X315.07Y-42.176G85X319.87Y-42.176
G05
X315.07Y-45.976G85X319.87Y-45.976
G05
X315.07Y-59.946G85X319.87Y-59.946
G05
X315.07Y-63.746G85X319.87Y-63.746
G05
X315.07Y-77.716G85X319.87Y-77.716
G05
X315.07Y-81.516G85X319.87Y-81.516
G05
X319.87Y-42.176G85X319.87Y-45.976
G05
X319.87Y-59.946G85X319.87Y-63.746
G05
X319.87Y-77.716G85X319.87Y-81.516
G05
X332.84Y-51.061G85X332.84Y-54.861
G05
X332.84Y-68.831G85X332.84Y-72.631
G05
X332.84Y-86.601G85X332.84Y-90.401
G05
X332.84Y-51.061G85X337.64Y-51.061
G05
X332.84Y-54.861G85X337.64Y-54.861
G05
X332.84Y-68.831G85X337.64Y-68.831
G05
X332.84Y-72.631G85X337.64Y-72.631
G05
X332.84Y-86.601G85X337.64Y-86.601
G05
X332.84Y-90.401G85X337.64Y-90.401
G05
X337.64Y-51.061G85X337.64Y-54.861
G05
X337.64Y-68.831G85X337.64Y-72.631
G05
X337.64Y-86.601G85X337.64Y-90.401
G05
X350.61Y-63.5G85X350.61Y-67.3
G05
X350.61Y-81.27G85X350.61Y-85.07
G05
X350.61Y-99.04G85X350.61Y-102.84
G05
X350.61Y-63.5G85X355.41Y-63.5
G05
X350.61Y-67.3G85X355.41Y-67.3
G05
X350.61Y-81.27G85X355.41Y-81.27
G05
X350.61Y-85.07G85X355.41Y-85.07
G05
X350.61Y-99.04G85X355.41Y-99.04
G05
X350.61Y-102.84G85X355.41Y-102.84
G05
X355.41Y-63.5G85X355.41Y-67.3
G05
X355.41Y-81.27G85X355.41Y-85.07
G05
X355.41Y-99.04G85X355.41Y-102.84
G05
X368.38Y-63.5G85X368.38Y-67.3
G05
X368.38Y-81.27G85X368.38Y-85.07
G05
X368.38Y-99.04G85X368.38Y-102.84
G05
X368.38Y-63.5G85X373.18Y-63.5
G05
X368.38Y-67.3G85X373.18Y-67.3
G05
X368.38Y-81.27G85X373.18Y-81.27
G05
X368.38Y-85.07G85X373.18Y-85.07
G05
X368.38Y-99.04G85X373.18Y-99.04
G05
X368.38Y-102.84G85X373.18Y-102.84
G05
X373.18Y-63.5G85X373.18Y-67.3
G05
X373.18Y-81.27G85X373.18Y-85.07
G05
X373.18Y-99.04G85X373.18Y-102.84
G05
T11
X98.45Y-64.35G85X98.45Y-66.45
G05
X98.45Y-82.12G85X98.45Y-84.22
G05
X98.45Y-99.89G85X98.45Y-101.99
G05
X101.55Y-64.35G85X101.55Y-66.45
G05
X101.55Y-82.12G85X101.55Y-84.22
G05
X101.55Y-99.89G85X101.55Y-101.99
G05
X116.22Y-64.35G85X116.22Y-66.45
G05
X116.22Y-82.12G85X116.22Y-84.22
G05
X116.22Y-99.89G85X116.22Y-101.99
G05
X119.32Y-64.35G85X119.32Y-66.45
G05
X119.32Y-82.12G85X119.32Y-84.22
G05
X119.32Y-99.89G85X119.32Y-101.99
G05
X133.99Y-51.911G85X133.99Y-54.011
G05
X133.99Y-69.681G85X133.99Y-71.781
G05
X133.99Y-87.451G85X133.99Y-89.551
G05
X137.09Y-51.911G85X137.09Y-54.011
G05
X137.09Y-69.681G85X137.09Y-71.781
G05
X137.09Y-87.451G85X137.09Y-89.551
G05
X151.76Y-43.026G85X151.76Y-45.126
G05
X151.76Y-60.796G85X151.76Y-62.896
G05
X151.76Y-78.566G85X151.76Y-80.666
G05
X154.86Y-43.026G85X154.86Y-45.126
G05
X154.86Y-60.796G85X154.86Y-62.896
G05
X154.86Y-78.566G85X154.86Y-80.666
G05
X169.53Y-46.58G85X169.53Y-48.68
G05
X169.53Y-64.35G85X169.53Y-66.45
G05
X169.53Y-82.12G85X169.53Y-84.22
G05
X172.63Y-46.58G85X172.63Y-48.68
G05
X172.63Y-64.35G85X172.63Y-66.45
G05
X172.63Y-82.12G85X172.63Y-84.22
G05
X173.084Y-99.89G85X173.084Y-101.99
G05
X176.184Y-99.89G85X176.184Y-101.99
G05
X187.3Y-46.58G85X187.3Y-48.68
G05
X187.3Y-64.35G85X187.3Y-66.45
G05
X187.3Y-82.12G85X187.3Y-84.22
G05
X190.4Y-46.58G85X190.4Y-48.68
G05
X190.4Y-64.35G85X190.4Y-66.45
G05
X190.4Y-82.12G85X190.4Y-84.22
G05
X190.854Y-99.89G85X190.854Y-101.99
G05
X193.954Y-99.89G85X193.954Y-101.99
G05
X208.624Y-99.89G85X208.624Y-101.99
G05
X211.724Y-99.89G85X211.724Y-101.99
G05
X259.056Y-99.89G85X259.056Y-101.99
G05
X262.156Y-99.89G85X262.156Y-101.99
G05
X276.826Y-99.89G85X276.826Y-101.99
G05
X279.926Y-99.89G85X279.926Y-101.99
G05
X280.38Y-46.58G85X280.38Y-48.68
G05
X280.38Y-64.35G85X280.38Y-66.45
G05
X280.38Y-82.12G85X280.38Y-84.22
G05
X283.48Y-46.58G85X283.48Y-48.68
G05
X283.48Y-64.35G85X283.48Y-66.45
G05
X283.48Y-82.12G85X283.48Y-84.22
G05
X294.596Y-99.89G85X294.596Y-101.99
G05
X297.696Y-99.89G85X297.696Y-101.99
G05
X298.15Y-46.58G85X298.15Y-48.68
G05
X298.15Y-64.35G85X298.15Y-66.45
G05
X298.15Y-82.12G85X298.15Y-84.22
G05
X301.25Y-46.58G85X301.25Y-48.68
G05
X301.25Y-64.35G85X301.25Y-66.45
G05
X301.25Y-82.12G85X301.25Y-84.22
G05
X315.92Y-43.026G85X315.92Y-45.126
G05
X315.92Y-60.796G85X315.92Y-62.896
G05
X315.92Y-78.566G85X315.92Y-80.666
G05
X319.02Y-43.026G85X319.02Y-45.126
G05
X319.02Y-60.796G85X319.02Y-62.896
G05
X319.02Y-78.566G85X319.02Y-80.666
G05
X333.69Y-51.911G85X333.69Y-54.011
G05
X333.69Y-69.681G85X333.69Y-71.781
G05
X333.69Y-87.451G85X333.69Y-89.551
G05
X336.79Y-51.911G85X336.79Y-54.011
G05
X336.79Y-69.681G85X336.79Y-71.781
G05
X336.79Y-87.451G85X336.79Y-89.551
G05
X351.46Y-64.35G85X351.46Y-66.45
G05
X351.46Y-82.12G85X351.46Y-84.22
G05
X351.46Y-99.89G85X351.46Y-101.99
G05
X354.56Y-64.35G85X354.56Y-66.45
G05
X354.56Y-82.12G85X354.56Y-84.22
G05
X354.56Y-99.89G85X354.56Y-101.99
G05
X369.23Y-64.35G85X369.23Y-66.45
G05
X369.23Y-82.12G85X369.23Y-84.22
G05
X369.23Y-99.89G85X369.23Y-101.99
G05
X372.33Y-64.35G85X372.33Y-66.45
G05
X372.33Y-82.12G85X372.33Y-84.22
G05
X372.33Y-99.89G85X372.33Y-101.99
G05
T12
X98.394Y-47.444G85X99.394Y-47.444
G05
X99.5Y-65.4G85X100.5Y-65.4
G05
X99.5Y-83.17G85X100.5Y-83.17
G05
X99.5Y-100.94G85X100.5Y-100.94
G05
X117.27Y-65.4G85X118.27Y-65.4
G05
X117.27Y-83.17G85X118.27Y-83.17
G05
X117.27Y-100.94G85X118.27Y-100.94
G05
X135.04Y-52.961G85X136.04Y-52.961
G05
X135.04Y-70.731G85X136.04Y-70.731
G05
X135.04Y-88.501G85X136.04Y-88.501
G05
X152.81Y-44.076G85X153.81Y-44.076
G05
X152.81Y-61.846G85X153.81Y-61.846
G05
X152.81Y-79.616G85X153.81Y-79.616
G05
X170.58Y-47.63G85X171.58Y-47.63
G05
X170.58Y-65.4G85X171.58Y-65.4
G05
X170.58Y-83.17G85X171.58Y-83.17
G05
X174.134Y-100.94G85X175.134Y-100.94
G05
X188.35Y-47.63G85X189.35Y-47.63
G05
X188.35Y-65.4G85X189.35Y-65.4
G05
X188.35Y-83.17G85X189.35Y-83.17
G05
X191.904Y-100.94G85X192.904Y-100.94
G05
X209.674Y-100.94G85X210.674Y-100.94
G05
X260.106Y-100.94G85X261.106Y-100.94
G05
X277.876Y-100.94G85X278.876Y-100.94
G05
X281.43Y-47.63G85X282.43Y-47.63
G05
X281.43Y-65.4G85X282.43Y-65.4
G05
X281.43Y-83.17G85X282.43Y-83.17
G05
X295.646Y-100.94G85X296.646Y-100.94
G05
X299.2Y-47.63G85X300.2Y-47.63
G05
X299.2Y-65.4G85X300.2Y-65.4
G05
X299.2Y-83.17G85X300.2Y-83.17
G05
X316.97Y-44.076G85X317.97Y-44.076
G05
X316.97Y-61.846G85X317.97Y-61.846
G05
X316.97Y-79.616G85X317.97Y-79.616
G05
X334.74Y-52.961G85X335.74Y-52.961
G05
X334.74Y-70.731G85X335.74Y-70.731
G05
X334.74Y-88.501G85X335.74Y-88.501
G05
X352.51Y-65.4G85X353.51Y-65.4
G05
X352.51Y-83.17G85X353.51Y-83.17
G05
X352.51Y-100.94G85X353.51Y-100.94
G05
X370.28Y-65.4G85X371.28Y-65.4
G05
X370.28Y-83.17G85X371.28Y-83.17
G05
X370.28Y-100.94G85X371.28Y-100.94
G05
X372.386Y-39.264G85X371.386Y-39.264
G05
T0
M30
