0
SECTION
2
HEADER
9
$INSUNITS
70
4
0
ENDSEC
0
SECTION
2
TABLES
0
TABLE
2
LTYPE
0
LTYPE
72
65
70
64
2
CONTINUOUS
3
______
73
0
40
0
0
ENDTAB
0
TABLE
2
LAYER
0
ENDTAB
0
ENDSEC
0
SECTION
2
ENTITIES
0
LINE
8
0
10
89.515
20
-110.485
11
89.515
21
-32.651
0
LINE
8
0
10
91.115
20
-31.051
11
162.195
21
-31.051
0
LINE
8
0
10
163.795
20
-32.651
11
163.795
21
-34.605
0
LINE
8
0
10
165.395
20
-36.205
11
213.1935
21
-36.205
0
LINE
8
0
10
214.7935
20
-34.605
11
214.7935
21
-32.651
0
LINE
8
0
10
216.3935
20
-31.051
11
216.8556109
21
-31.051
0
LINE
8
0
10
218.3669747
20
-32.1258526
11
224.3866743
21
-49.4504288
0
LINE
8
0
10
224.3932039
20
-49.4696117
11
234.3078933
21
-79.2136798
0
LINE
8
0
10
234.39
20
-79.7196443
11
234.39
21
-82.46
0
LINE
8
0
10
234.39
20
-108.46
11
234.39
21
-110.485
0
LINE
8
0
10
232.79
20
-112.085
11
91.115
21
-112.085
0
ARC
8
0
10
91.115
20
-32.651
40
1.6
50
90
51
180
0
ARC
8
0
10
162.195
20
-32.651
40
1.6
50
0
51
90
0
ARC
8
0
10
165.395
20
-34.605
40
1.6
50
180
51
270
0
ARC
8
0
10
213.1935
20
-34.605
40
1.6
50
270
51
0
0
ARC
8
0
10
216.3935
20
-32.651
40
1.6
50
90
51
180
0
ARC
8
0
10
216.8556109
20
-32.651
40
1.6
50
19.1605967
51
90
0
ARC
8
0
10
222.8753106
20
-49.9755761
40
1.6
50
18.4349506
51
19.1605967
0
ARC
8
0
10
232.79
20
-79.7196443
40
1.6
50
0
51
18.4349506
0
ARC
8
0
10
232.79
20
-110.485
40
1.6
50
270
51
0
0
ARC
8
0
10
91.115
20
-110.485
40
1.6
50
180
51
270
0
LINE
8
0
10
381.265
20
-110.485
11
381.265
21
-32.651
0
LINE
8
0
10
379.665
20
-31.051
11
308.585
21
-31.051
0
LINE
8
0
10
306.985
20
-32.651
11
306.985
21
-34.605
0
LINE
8
0
10
305.385
20
-36.205
11
257.5865
21
-36.205
0
LINE
8
0
10
255.9865
20
-34.605
11
255.9865
21
-32.651
0
LINE
8
0
10
254.3865
20
-31.051
11
253.9243891
21
-31.051
0
LINE
8
0
10
252.4130253
20
-32.1258526
11
246.3933257
21
-49.4504288
0
LINE
8
0
10
246.3867961
20
-49.4696117
11
236.4721067
21
-79.2136798
0
LINE
8
0
10
236.39
20
-79.7196443
11
236.39
21
-82.46
0
LINE
8
0
10
236.39
20
-108.46
11
236.39
21
-110.485
0
LINE
8
0
10
237.99
20
-112.085
11
379.665
21
-112.085
0
ARC
8
0
10
379.665
20
-32.651
40
1.6
50
0
51
90
0
ARC
8
0
10
308.585
20
-32.651
40
1.6
50
90
51
180
0
ARC
8
0
10
305.385
20
-34.605
40
1.6
50
270
51
0
0
ARC
8
0
10
257.5865
20
-34.605
40
1.6
50
180
51
270
0
ARC
8
0
10
254.3865
20
-32.651
40
1.6
50
0
51
90
0
ARC
8
0
10
253.9243891
20
-32.651
40
1.6
50
90
51
160.8394033
0
ARC
8
0
10
247.9046894
20
-49.9755761
40
1.6
50
160.8394033
51
161.5650494
0
ARC
8
0
10
237.99
20
-79.7196443
40
1.6
50
161.5650494
51
180
0
ARC
8
0
10
237.99
20
-110.485
40
1.6
50
180
51
270
0
ARC
8
0
10
379.665
20
-110.485
40
1.6
50
270
51
0
0
LINE
8
0
10
236.39
20
-82.46
11
234.39
21
-82.46
0
LINE
8
0
10
234.39
20
-108.46
11
236.39
21
-108.46
0
ENDSEC
0
EOF