0
SECTION
2
HEADER
9
$INSUNITS
70
4
0
ENDSEC
0
SECTION
2
TABLES
0
TABLE
2
LTYPE
0
LTYPE
72
65
70
64
2
CONTINUOUS
3
______
73
0
40
0
0
ENDTAB
0
TABLE
2
LAYER
0
ENDTAB
0
ENDSEC
0
SECTION
2
ENTITIES
0
LINE
8
0
10
89.515
20
-110.485
11
89.515
21
-32.651
0
LINE
8
0
10
91.115
20
-31.051
11
162.195
21
-31.051
0
LINE
8
0
10
163.795
20
-32.651
11
163.795
21
-34.605
0
LINE
8
0
10
165.395
20
-36.205
11
213.1935
21
-36.205
0
LINE
8
0
10
214.7935
20
-34.605
11
214.7935
21
-32.651
0
LINE
8
0
10
216.3935
20
-31.051
11
216.8556109
21
-31.051
0
LINE
8
0
10
218.3669747
20
-32.1258526
11
224.3866743
21
-49.4504288
0
LINE
8
0
10
224.3932039
20
-49.4696117
11
234.3078933
21
-79.2136798
0
LINE
8
0
10
234.39
20
-79.7196443
11
234.39
21
-82.46
0
LINE
8
0
10
234.39
20
-108.46
11
234.39
21
-110.485
0
LINE
8
0
10
232.79
20
-112.085
11
91.115
21
-112.085
0
ARC
8
0
10
91.115
20
-32.651
40
1.6
50
90
51
180
0
ARC
8
0
10
162.195
20
-32.651
40
1.6
50
0
51
90
0
ARC
8
0
10
165.395
20
-34.605
40
1.6
50
180
51
270
0
ARC
8
0
10
213.1935
20
-34.605
40
1.6
50
270
51
0
0
ARC
8
0
10
216.3935
20
-32.651
40
1.6
50
90
51
180
0
ARC
8
0
10
216.8556109
20
-32.651
40
1.6
50
19.1605967
51
90
0
ARC
8
0
10
222.8753106
20
-49.9755761
40
1.6
50
18.4349506
51
19.1605967
0
ARC
8
0
10
232.79
20
-79.7196443
40
1.6
50
0
51
18.4349506
0
ARC
8
0
10
232.79
20
-110.485
40
1.6
50
270
51
0
0
ARC
8
0
10
91.115
20
-110.485
40
1.6
50
180
51
270
0
LINE
8
0
10
381.265
20
-110.485
11
381.265
21
-32.651
0
LINE
8
0
10
379.665
20
-31.051
11
308.585
21
-31.051
0
LINE
8
0
10
306.985
20
-32.651
11
306.985
21
-34.605
0
LINE
8
0
10
305.385
20
-36.205
11
257.5865
21
-36.205
0
LINE
8
0
10
255.9865
20
-34.605
11
255.9865
21
-32.651
0
LINE
8
0
10
254.3865
20
-31.051
11
253.9243891
21
-31.051
0
LINE
8
0
10
252.4130253
20
-32.1258526
11
246.3933257
21
-49.4504288
0
LINE
8
0
10
246.3867961
20
-49.4696117
11
236.4721067
21
-79.2136798
0
LINE
8
0
10
236.39
20
-79.7196443
11
236.39
21
-82.46
0
LINE
8
0
10
236.39
20
-108.46
11
236.39
21
-110.485
0
LINE
8
0
10
237.99
20
-112.085
11
379.665
21
-112.085
0
ARC
8
0
10
379.665
20
-32.651
40
1.6
50
0
51
90
0
ARC
8
0
10
308.585
20
-32.651
40
1.6
50
90
51
180
0
ARC
8
0
10
305.385
20
-34.605
40
1.6
50
270
51
0
0
ARC
8
0
10
257.5865
20
-34.605
40
1.6
50
180
51
270
0
ARC
8
0
10
254.3865
20
-32.651
40
1.6
50
0
51
90
0
ARC
8
0
10
253.9243891
20
-32.651
40
1.6
50
90
51
160.8394033
0
ARC
8
0
10
247.9046894
20
-49.9755761
40
1.6
50
160.8394033
51
161.5650494
0
ARC
8
0
10
237.99
20
-79.7196443
40
1.6
50
161.5650494
51
180
0
ARC
8
0
10
237.99
20
-110.485
40
1.6
50
180
51
270
0
ARC
8
0
10
379.665
20
-110.485
40
1.6
50
270
51
0
0
LINE
8
0
10
236.39
20
-82.46
11
234.39
21
-82.46
0
LINE
8
0
10
234.39
20
-108.46
11
236.39
21
-108.46
0
LINE
8
0
10
91.75
20
-108.25
11
108.25
21
-108.25
0
LINE
8
0
10
108.25
20
-108.25
11
108.25
21
-91.75
0
LINE
8
0
10
108.25
20
-91.75
11
91.75
21
-91.75
0
LINE
8
0
10
91.75
20
-91.75
11
91.75
21
-108.25
0
LINE
8
0
10
91.75
20
-90.48
11
108.25
21
-90.48
0
LINE
8
0
10
108.25
20
-90.48
11
108.25
21
-73.98
0
LINE
8
0
10
108.25
20
-73.98
11
91.75
21
-73.98
0
LINE
8
0
10
91.75
20
-73.98
11
91.75
21
-90.48
0
LINE
8
0
10
91.75
20
-72.71
11
108.25
21
-72.71
0
LINE
8
0
10
108.25
20
-72.71
11
108.25
21
-56.21
0
LINE
8
0
10
108.25
20
-56.21
11
91.75
21
-56.21
0
LINE
8
0
10
91.75
20
-56.21
11
91.75
21
-72.71
0
LINE
8
0
10
109.52
20
-108.25
11
126.02
21
-108.25
0
LINE
8
0
10
126.02
20
-108.25
11
126.02
21
-91.75
0
LINE
8
0
10
126.02
20
-91.75
11
109.52
21
-91.75
0
LINE
8
0
10
109.52
20
-91.75
11
109.52
21
-108.25
0
LINE
8
0
10
109.52
20
-90.48
11
126.02
21
-90.48
0
LINE
8
0
10
126.02
20
-90.48
11
126.02
21
-73.98
0
LINE
8
0
10
126.02
20
-73.98
11
109.52
21
-73.98
0
LINE
8
0
10
109.52
20
-73.98
11
109.52
21
-90.48
0
LINE
8
0
10
109.52
20
-72.71
11
126.02
21
-72.71
0
LINE
8
0
10
126.02
20
-72.71
11
126.02
21
-56.21
0
LINE
8
0
10
126.02
20
-56.21
11
109.52
21
-56.21
0
LINE
8
0
10
109.52
20
-56.21
11
109.52
21
-72.71
0
LINE
8
0
10
127.29
20
-95.811
11
143.79
21
-95.811
0
LINE
8
0
10
143.79
20
-95.811
11
143.79
21
-79.311
0
LINE
8
0
10
143.79
20
-79.311
11
127.29
21
-79.311
0
LINE
8
0
10
127.29
20
-79.311
11
127.29
21
-95.811
0
LINE
8
0
10
127.29
20
-78.041
11
143.79
21
-78.041
0
LINE
8
0
10
143.79
20
-78.041
11
143.79
21
-61.541
0
LINE
8
0
10
143.79
20
-61.541
11
127.29
21
-61.541
0
LINE
8
0
10
127.29
20
-61.541
11
127.29
21
-78.041
0
LINE
8
0
10
127.29
20
-60.271
11
143.79
21
-60.271
0
LINE
8
0
10
143.79
20
-60.271
11
143.79
21
-43.771
0
LINE
8
0
10
143.79
20
-43.771
11
127.29
21
-43.771
0
LINE
8
0
10
127.29
20
-43.771
11
127.29
21
-60.271
0
LINE
8
0
10
145.06
20
-86.926
11
161.56
21
-86.926
0
LINE
8
0
10
161.56
20
-86.926
11
161.56
21
-70.426
0
LINE
8
0
10
161.56
20
-70.426
11
145.06
21
-70.426
0
LINE
8
0
10
145.06
20
-70.426
11
145.06
21
-86.926
0
LINE
8
0
10
145.06
20
-69.156
11
161.56
21
-69.156
0
LINE
8
0
10
161.56
20
-69.156
11
161.56
21
-52.656
0
LINE
8
0
10
161.56
20
-52.656
11
145.06
21
-52.656
0
LINE
8
0
10
145.06
20
-52.656
11
145.06
21
-69.156
0
LINE
8
0
10
145.06
20
-51.386
11
161.56
21
-51.386
0
LINE
8
0
10
161.56
20
-51.386
11
161.56
21
-34.886
0
LINE
8
0
10
161.56
20
-34.886
11
145.06
21
-34.886
0
LINE
8
0
10
145.06
20
-34.886
11
145.06
21
-51.386
0
LINE
8
0
10
162.83
20
-90.48
11
179.33
21
-90.48
0
LINE
8
0
10
179.33
20
-90.48
11
179.33
21
-73.98
0
LINE
8
0
10
179.33
20
-73.98
11
162.83
21
-73.98
0
LINE
8
0
10
162.83
20
-73.98
11
162.83
21
-90.48
0
LINE
8
0
10
162.83
20
-72.71
11
179.33
21
-72.71
0
LINE
8
0
10
179.33
20
-72.71
11
179.33
21
-56.21
0
LINE
8
0
10
179.33
20
-56.21
11
162.83
21
-56.21
0
LINE
8
0
10
162.83
20
-56.21
11
162.83
21
-72.71
0
LINE
8
0
10
162.83
20
-54.94
11
179.33
21
-54.94
0
LINE
8
0
10
179.33
20
-54.94
11
179.33
21
-38.44
0
LINE
8
0
10
179.33
20
-38.44
11
162.83
21
-38.44
0
LINE
8
0
10
162.83
20
-38.44
11
162.83
21
-54.94
0
LINE
8
0
10
180.6
20
-90.48
11
197.1
21
-90.48
0
LINE
8
0
10
197.1
20
-90.48
11
197.1
21
-73.98
0
LINE
8
0
10
197.1
20
-73.98
11
180.6
21
-73.98
0
LINE
8
0
10
180.6
20
-73.98
11
180.6
21
-90.48
0
LINE
8
0
10
180.6
20
-72.71
11
197.1
21
-72.71
0
LINE
8
0
10
197.1
20
-72.71
11
197.1
21
-56.21
0
LINE
8
0
10
197.1
20
-56.21
11
180.6
21
-56.21
0
LINE
8
0
10
180.6
20
-56.21
11
180.6
21
-72.71
0
LINE
8
0
10
180.6
20
-54.94
11
197.1
21
-54.94
0
LINE
8
0
10
197.1
20
-54.94
11
197.1
21
-38.44
0
LINE
8
0
10
197.1
20
-38.44
11
180.6
21
-38.44
0
LINE
8
0
10
180.6
20
-38.44
11
180.6
21
-54.94
0
LINE
8
0
10
166.384
20
-108.25
11
182.884
21
-108.25
0
LINE
8
0
10
182.884
20
-108.25
11
182.884
21
-91.75
0
LINE
8
0
10
182.884
20
-91.75
11
166.384
21
-91.75
0
LINE
8
0
10
166.384
20
-91.75
11
166.384
21
-108.25
0
LINE
8
0
10
184.154
20
-108.25
11
200.654
21
-108.25
0
LINE
8
0
10
200.654
20
-108.25
11
200.654
21
-91.75
0
LINE
8
0
10
200.654
20
-91.75
11
184.154
21
-91.75
0
LINE
8
0
10
184.154
20
-91.75
11
184.154
21
-108.25
0
LINE
8
0
10
201.924
20
-108.25
11
218.424
21
-108.25
0
LINE
8
0
10
218.424
20
-108.25
11
218.424
21
-91.75
0
LINE
8
0
10
218.424
20
-91.75
11
201.924
21
-91.75
0
LINE
8
0
10
201.924
20
-91.75
11
201.924
21
-108.25
0
LINE
8
0
10
362.53
20
-108.25
11
379.03
21
-108.25
0
LINE
8
0
10
379.03
20
-108.25
11
379.03
21
-91.75
0
LINE
8
0
10
379.03
20
-91.75
11
362.53
21
-91.75
0
LINE
8
0
10
362.53
20
-91.75
11
362.53
21
-108.25
0
LINE
8
0
10
362.53
20
-90.48
11
379.03
21
-90.48
0
LINE
8
0
10
379.03
20
-90.48
11
379.03
21
-73.98
0
LINE
8
0
10
379.03
20
-73.98
11
362.53
21
-73.98
0
LINE
8
0
10
362.53
20
-73.98
11
362.53
21
-90.48
0
LINE
8
0
10
362.53
20
-72.71
11
379.03
21
-72.71
0
LINE
8
0
10
379.03
20
-72.71
11
379.03
21
-56.21
0
LINE
8
0
10
379.03
20
-56.21
11
362.53
21
-56.21
0
LINE
8
0
10
362.53
20
-56.21
11
362.53
21
-72.71
0
LINE
8
0
10
344.76
20
-108.25
11
361.26
21
-108.25
0
LINE
8
0
10
361.26
20
-108.25
11
361.26
21
-91.75
0
LINE
8
0
10
361.26
20
-91.75
11
344.76
21
-91.75
0
LINE
8
0
10
344.76
20
-91.75
11
344.76
21
-108.25
0
LINE
8
0
10
344.76
20
-90.48
11
361.26
21
-90.48
0
LINE
8
0
10
361.26
20
-90.48
11
361.26
21
-73.98
0
LINE
8
0
10
361.26
20
-73.98
11
344.76
21
-73.98
0
LINE
8
0
10
344.76
20
-73.98
11
344.76
21
-90.48
0
LINE
8
0
10
344.76
20
-72.71
11
361.26
21
-72.71
0
LINE
8
0
10
361.26
20
-72.71
11
361.26
21
-56.21
0
LINE
8
0
10
361.26
20
-56.21
11
344.76
21
-56.21
0
LINE
8
0
10
344.76
20
-56.21
11
344.76
21
-72.71
0
LINE
8
0
10
326.99
20
-95.811
11
343.49
21
-95.811
0
LINE
8
0
10
343.49
20
-95.811
11
343.49
21
-79.311
0
LINE
8
0
10
343.49
20
-79.311
11
326.99
21
-79.311
0
LINE
8
0
10
326.99
20
-79.311
11
326.99
21
-95.811
0
LINE
8
0
10
326.99
20
-78.041
11
343.49
21
-78.041
0
LINE
8
0
10
343.49
20
-78.041
11
343.49
21
-61.541
0
LINE
8
0
10
343.49
20
-61.541
11
326.99
21
-61.541
0
LINE
8
0
10
326.99
20
-61.541
11
326.99
21
-78.041
0
LINE
8
0
10
326.99
20
-60.271
11
343.49
21
-60.271
0
LINE
8
0
10
343.49
20
-60.271
11
343.49
21
-43.771
0
LINE
8
0
10
343.49
20
-43.771
11
326.99
21
-43.771
0
LINE
8
0
10
326.99
20
-43.771
11
326.99
21
-60.271
0
LINE
8
0
10
309.22
20
-86.926
11
325.72
21
-86.926
0
LINE
8
0
10
325.72
20
-86.926
11
325.72
21
-70.426
0
LINE
8
0
10
325.72
20
-70.426
11
309.22
21
-70.426
0
LINE
8
0
10
309.22
20
-70.426
11
309.22
21
-86.926
0
LINE
8
0
10
309.22
20
-69.156
11
325.72
21
-69.156
0
LINE
8
0
10
325.72
20
-69.156
11
325.72
21
-52.656
0
LINE
8
0
10
325.72
20
-52.656
11
309.22
21
-52.656
0
LINE
8
0
10
309.22
20
-52.656
11
309.22
21
-69.156
0
LINE
8
0
10
309.22
20
-51.386
11
325.72
21
-51.386
0
LINE
8
0
10
325.72
20
-51.386
11
325.72
21
-34.886
0
LINE
8
0
10
325.72
20
-34.886
11
309.22
21
-34.886
0
LINE
8
0
10
309.22
20
-34.886
11
309.22
21
-51.386
0
LINE
8
0
10
291.45
20
-90.48
11
307.95
21
-90.48
0
LINE
8
0
10
307.95
20
-90.48
11
307.95
21
-73.98
0
LINE
8
0
10
307.95
20
-73.98
11
291.45
21
-73.98
0
LINE
8
0
10
291.45
20
-73.98
11
291.45
21
-90.48
0
LINE
8
0
10
291.45
20
-72.71
11
307.95
21
-72.71
0
LINE
8
0
10
307.95
20
-72.71
11
307.95
21
-56.21
0
LINE
8
0
10
307.95
20
-56.21
11
291.45
21
-56.21
0
LINE
8
0
10
291.45
20
-56.21
11
291.45
21
-72.71
0
LINE
8
0
10
291.45
20
-54.94
11
307.95
21
-54.94
0
LINE
8
0
10
307.95
20
-54.94
11
307.95
21
-38.44
0
LINE
8
0
10
307.95
20
-38.44
11
291.45
21
-38.44
0
LINE
8
0
10
291.45
20
-38.44
11
291.45
21
-54.94
0
LINE
8
0
10
273.68
20
-90.48
11
290.18
21
-90.48
0
LINE
8
0
10
290.18
20
-90.48
11
290.18
21
-73.98
0
LINE
8
0
10
290.18
20
-73.98
11
273.68
21
-73.98
0
LINE
8
0
10
273.68
20
-73.98
11
273.68
21
-90.48
0
LINE
8
0
10
273.68
20
-72.71
11
290.18
21
-72.71
0
LINE
8
0
10
290.18
20
-72.71
11
290.18
21
-56.21
0
LINE
8
0
10
290.18
20
-56.21
11
273.68
21
-56.21
0
LINE
8
0
10
273.68
20
-56.21
11
273.68
21
-72.71
0
LINE
8
0
10
273.68
20
-54.94
11
290.18
21
-54.94
0
LINE
8
0
10
290.18
20
-54.94
11
290.18
21
-38.44
0
LINE
8
0
10
290.18
20
-38.44
11
273.68
21
-38.44
0
LINE
8
0
10
273.68
20
-38.44
11
273.68
21
-54.94
0
LINE
8
0
10
287.896
20
-108.25
11
304.396
21
-108.25
0
LINE
8
0
10
304.396
20
-108.25
11
304.396
21
-91.75
0
LINE
8
0
10
304.396
20
-91.75
11
287.896
21
-91.75
0
LINE
8
0
10
287.896
20
-91.75
11
287.896
21
-108.25
0
LINE
8
0
10
270.126
20
-108.25
11
286.626
21
-108.25
0
LINE
8
0
10
286.626
20
-108.25
11
286.626
21
-91.75
0
LINE
8
0
10
286.626
20
-91.75
11
270.126
21
-91.75
0
LINE
8
0
10
270.126
20
-91.75
11
270.126
21
-108.25
0
LINE
8
0
10
252.356
20
-108.25
11
268.856
21
-108.25
0
LINE
8
0
10
268.856
20
-108.25
11
268.856
21
-91.75
0
LINE
8
0
10
268.856
20
-91.75
11
252.356
21
-91.75
0
LINE
8
0
10
252.356
20
-91.75
11
252.356
21
-108.25
0
ENDSEC
0
EOF