%TF.GenerationSoftware,KiCad,Pcbnew,8.0.3*%
%TF.CreationDate,2024-06-30T01:12:36+02:00*%
%TF.ProjectId,kbd,6b62642e-6b69-4636-9164-5f7063625858,2*%
%TF.SameCoordinates,Original*%
%TF.FileFunction,Legend,Top*%
%TF.FilePolarity,Positive*%
%FSLAX46Y46*%
G04 Gerber Fmt 4.6, Leading zero omitted, Abs format (unit mm)*
G04 Created by KiCad (PCBNEW 8.0.3) date 2024-06-30 01:12:36*
%MOMM*%
%LPD*%
G01*
G04 APERTURE LIST*
G04 Aperture macros list*
%AMRoundRect*
0 Rectangle with rounded corners*
0 $1 Rounding radius*
0 $2 $3 $4 $5 $6 $7 $8 $9 X,Y pos of 4 corners*
0 Add a 4 corners polygon primitive as box body*
4,1,4,$2,$3,$4,$5,$6,$7,$8,$9,$2,$3,0*
0 Add four circle primitives for the rounded corners*
1,1,$1+$1,$2,$3*
1,1,$1+$1,$4,$5*
1,1,$1+$1,$6,$7*
1,1,$1+$1,$8,$9*
0 Add four rect primitives between the rounded corners*
20,1,$1+$1,$2,$3,$4,$5,0*
20,1,$1+$1,$4,$5,$6,$7,0*
20,1,$1+$1,$6,$7,$8,$9,0*
20,1,$1+$1,$8,$9,$2,$3,0*%
G04 Aperture macros list end*
%ADD10C,0.150000*%
%ADD11C,0.120000*%
%ADD12C,1.752600*%
%ADD13R,1.752600X1.752600*%
%ADD14RoundRect,0.275000X-0.151959X0.357992X-0.357992X-0.151959X0.151959X-0.357992X0.357992X0.151959X0*%
%ADD15C,2.000000*%
%ADD16C,1.850000*%
%ADD17C,4.100000*%
%ADD18C,2.300000*%
%ADD19C,2.600000*%
%ADD20C,1.852600*%
%ADD21RoundRect,0.275000X-0.357992X0.151959X-0.151959X-0.357992X0.357992X-0.151959X0.151959X0.357992X0*%
%ADD22C,0.800000*%
%ADD23C,4.500000*%
%ADD24RoundRect,0.050000X-0.876300X0.876300X-0.876300X-0.876300X0.876300X-0.876300X0.876300X0.876300X0*%
%ADD25RoundRect,0.050000X-0.500000X-0.400000X0.500000X-0.400000X0.500000X0.400000X-0.500000X0.400000X0*%
%ADD26C,1.000000*%
%ADD27RoundRect,0.050000X-0.350000X-0.750000X0.350000X-0.750000X0.350000X0.750000X-0.350000X0.750000X0*%
G04 APERTURE END LIST*
D10*
X207237601Y-128675009D02*
X207380458Y-128722628D01*
X207380458Y-128722628D02*
X207428077Y-128770247D01*
X207428077Y-128770247D02*
X207475696Y-128865485D01*
X207475696Y-128865485D02*
X207475696Y-129008342D01*
X207475696Y-129008342D02*
X207428077Y-129103580D01*
X207428077Y-129103580D02*
X207380458Y-129151200D01*
X207380458Y-129151200D02*
X207285220Y-129198819D01*
X207285220Y-129198819D02*
X206904268Y-129198819D01*
X206904268Y-129198819D02*
X206904268Y-128198819D01*
X206904268Y-128198819D02*
X207237601Y-128198819D01*
X207237601Y-128198819D02*
X207332839Y-128246438D01*
X207332839Y-128246438D02*
X207380458Y-128294057D01*
X207380458Y-128294057D02*
X207428077Y-128389295D01*
X207428077Y-128389295D02*
X207428077Y-128484533D01*
X207428077Y-128484533D02*
X207380458Y-128579771D01*
X207380458Y-128579771D02*
X207332839Y-128627390D01*
X207332839Y-128627390D02*
X207237601Y-128675009D01*
X207237601Y-128675009D02*
X206904268Y-128675009D01*
X207856649Y-128913104D02*
X208332839Y-128913104D01*
X207761411Y-129198819D02*
X208094744Y-128198819D01*
X208094744Y-128198819D02*
X208428077Y-129198819D01*
X208618554Y-128198819D02*
X209189982Y-128198819D01*
X208904268Y-129198819D02*
X208904268Y-128198819D01*
X209523316Y-128817866D02*
X210285221Y-128817866D01*
X209904268Y-129198819D02*
X209904268Y-128436914D01*
X209744492Y-150198819D02*
X209744492Y-150913104D01*
X209744492Y-150913104D02*
X209696873Y-151055961D01*
X209696873Y-151055961D02*
X209601635Y-151151200D01*
X209601635Y-151151200D02*
X209458778Y-151198819D01*
X209458778Y-151198819D02*
X209363540Y-151198819D01*
X210696873Y-151198819D02*
X210220683Y-151198819D01*
X210220683Y-151198819D02*
X210220683Y-150198819D01*
X211601635Y-151103580D02*
X211554016Y-151151200D01*
X211554016Y-151151200D02*
X211411159Y-151198819D01*
X211411159Y-151198819D02*
X211315921Y-151198819D01*
X211315921Y-151198819D02*
X211173064Y-151151200D01*
X211173064Y-151151200D02*
X211077826Y-151055961D01*
X211077826Y-151055961D02*
X211030207Y-150960723D01*
X211030207Y-150960723D02*
X210982588Y-150770247D01*
X210982588Y-150770247D02*
X210982588Y-150627390D01*
X210982588Y-150627390D02*
X211030207Y-150436914D01*
X211030207Y-150436914D02*
X211077826Y-150341676D01*
X211077826Y-150341676D02*
X211173064Y-150246438D01*
X211173064Y-150246438D02*
X211315921Y-150198819D01*
X211315921Y-150198819D02*
X211411159Y-150198819D01*
X211411159Y-150198819D02*
X211554016Y-150246438D01*
X211554016Y-150246438D02*
X211601635Y-150294057D01*
X212315921Y-150198819D02*
X212315921Y-150913104D01*
X212315921Y-150913104D02*
X212268302Y-151055961D01*
X212268302Y-151055961D02*
X212173064Y-151151200D01*
X212173064Y-151151200D02*
X212030207Y-151198819D01*
X212030207Y-151198819D02*
X211934969Y-151198819D01*
X213268302Y-151198819D02*
X212792112Y-151198819D01*
X212792112Y-151198819D02*
X212792112Y-150198819D01*
X214173064Y-151103580D02*
X214125445Y-151151200D01*
X214125445Y-151151200D02*
X213982588Y-151198819D01*
X213982588Y-151198819D02*
X213887350Y-151198819D01*
X213887350Y-151198819D02*
X213744493Y-151151200D01*
X213744493Y-151151200D02*
X213649255Y-151055961D01*
X213649255Y-151055961D02*
X213601636Y-150960723D01*
X213601636Y-150960723D02*
X213554017Y-150770247D01*
X213554017Y-150770247D02*
X213554017Y-150627390D01*
X213554017Y-150627390D02*
X213601636Y-150436914D01*
X213601636Y-150436914D02*
X213649255Y-150341676D01*
X213649255Y-150341676D02*
X213744493Y-150246438D01*
X213744493Y-150246438D02*
X213887350Y-150198819D01*
X213887350Y-150198819D02*
X213982588Y-150198819D01*
X213982588Y-150198819D02*
X214125445Y-150246438D01*
X214125445Y-150246438D02*
X214173064Y-150294057D01*
X214887350Y-150198819D02*
X214887350Y-150913104D01*
X214887350Y-150913104D02*
X214839731Y-151055961D01*
X214839731Y-151055961D02*
X214744493Y-151151200D01*
X214744493Y-151151200D02*
X214601636Y-151198819D01*
X214601636Y-151198819D02*
X214506398Y-151198819D01*
X215839731Y-151198819D02*
X215363541Y-151198819D01*
X215363541Y-151198819D02*
X215363541Y-150198819D01*
X216744493Y-151103580D02*
X216696874Y-151151200D01*
X216696874Y-151151200D02*
X216554017Y-151198819D01*
X216554017Y-151198819D02*
X216458779Y-151198819D01*
X216458779Y-151198819D02*
X216315922Y-151151200D01*
X216315922Y-151151200D02*
X216220684Y-151055961D01*
X216220684Y-151055961D02*
X216173065Y-150960723D01*
X216173065Y-150960723D02*
X216125446Y-150770247D01*
X216125446Y-150770247D02*
X216125446Y-150627390D01*
X216125446Y-150627390D02*
X216173065Y-150436914D01*
X216173065Y-150436914D02*
X216220684Y-150341676D01*
X216220684Y-150341676D02*
X216315922Y-150246438D01*
X216315922Y-150246438D02*
X216458779Y-150198819D01*
X216458779Y-150198819D02*
X216554017Y-150198819D01*
X216554017Y-150198819D02*
X216696874Y-150246438D01*
X216696874Y-150246438D02*
X216744493Y-150294057D01*
X217458779Y-150198819D02*
X217458779Y-150913104D01*
X217458779Y-150913104D02*
X217411160Y-151055961D01*
X217411160Y-151055961D02*
X217315922Y-151151200D01*
X217315922Y-151151200D02*
X217173065Y-151198819D01*
X217173065Y-151198819D02*
X217077827Y-151198819D01*
X218411160Y-151198819D02*
X217934970Y-151198819D01*
X217934970Y-151198819D02*
X217934970Y-150198819D01*
X219315922Y-151103580D02*
X219268303Y-151151200D01*
X219268303Y-151151200D02*
X219125446Y-151198819D01*
X219125446Y-151198819D02*
X219030208Y-151198819D01*
X219030208Y-151198819D02*
X218887351Y-151151200D01*
X218887351Y-151151200D02*
X218792113Y-151055961D01*
X218792113Y-151055961D02*
X218744494Y-150960723D01*
X218744494Y-150960723D02*
X218696875Y-150770247D01*
X218696875Y-150770247D02*
X218696875Y-150627390D01*
X218696875Y-150627390D02*
X218744494Y-150436914D01*
X218744494Y-150436914D02*
X218792113Y-150341676D01*
X218792113Y-150341676D02*
X218887351Y-150246438D01*
X218887351Y-150246438D02*
X219030208Y-150198819D01*
X219030208Y-150198819D02*
X219125446Y-150198819D01*
X219125446Y-150198819D02*
X219268303Y-150246438D01*
X219268303Y-150246438D02*
X219315922Y-150294057D01*
X207158779Y-137198819D02*
X207158779Y-136198819D01*
X207158779Y-136579771D02*
X207254017Y-136532152D01*
X207254017Y-136532152D02*
X207444493Y-136532152D01*
X207444493Y-136532152D02*
X207539731Y-136579771D01*
X207539731Y-136579771D02*
X207587350Y-136627390D01*
X207587350Y-136627390D02*
X207634969Y-136722628D01*
X207634969Y-136722628D02*
X207634969Y-137008342D01*
X207634969Y-137008342D02*
X207587350Y-137103580D01*
X207587350Y-137103580D02*
X207539731Y-137151200D01*
X207539731Y-137151200D02*
X207444493Y-137198819D01*
X207444493Y-137198819D02*
X207254017Y-137198819D01*
X207254017Y-137198819D02*
X207158779Y-137151200D01*
X207968303Y-136532152D02*
X208206398Y-137198819D01*
X208444493Y-136532152D02*
X208206398Y-137198819D01*
X208206398Y-137198819D02*
X208111160Y-137436914D01*
X208111160Y-137436914D02*
X208063541Y-137484533D01*
X208063541Y-137484533D02*
X207968303Y-137532152D01*
X210206398Y-136722628D02*
X210158779Y-136675009D01*
X210158779Y-136675009D02*
X210063541Y-136627390D01*
X210063541Y-136627390D02*
X209968303Y-136627390D01*
X209968303Y-136627390D02*
X209873065Y-136675009D01*
X209873065Y-136675009D02*
X209825446Y-136722628D01*
X209825446Y-136722628D02*
X209777827Y-136817866D01*
X209777827Y-136817866D02*
X209777827Y-136913104D01*
X209777827Y-136913104D02*
X209825446Y-137008342D01*
X209825446Y-137008342D02*
X209873065Y-137055961D01*
X209873065Y-137055961D02*
X209968303Y-137103580D01*
X209968303Y-137103580D02*
X210063541Y-137103580D01*
X210063541Y-137103580D02*
X210158779Y-137055961D01*
X210158779Y-137055961D02*
X210206398Y-137008342D01*
X210206398Y-136627390D02*
X210206398Y-137008342D01*
X210206398Y-137008342D02*
X210254017Y-137055961D01*
X210254017Y-137055961D02*
X210301636Y-137055961D01*
X210301636Y-137055961D02*
X210396875Y-137008342D01*
X210396875Y-137008342D02*
X210444494Y-136913104D01*
X210444494Y-136913104D02*
X210444494Y-136675009D01*
X210444494Y-136675009D02*
X210349256Y-136532152D01*
X210349256Y-136532152D02*
X210206398Y-136436914D01*
X210206398Y-136436914D02*
X210015922Y-136389295D01*
X210015922Y-136389295D02*
X209825446Y-136436914D01*
X209825446Y-136436914D02*
X209682589Y-136532152D01*
X209682589Y-136532152D02*
X209587351Y-136675009D01*
X209587351Y-136675009D02*
X209539732Y-136865485D01*
X209539732Y-136865485D02*
X209587351Y-137055961D01*
X209587351Y-137055961D02*
X209682589Y-137198819D01*
X209682589Y-137198819D02*
X209825446Y-137294057D01*
X209825446Y-137294057D02*
X210015922Y-137341676D01*
X210015922Y-137341676D02*
X210206398Y-137294057D01*
X210206398Y-137294057D02*
X210349256Y-137198819D01*
X210873065Y-137198819D02*
X210873065Y-136198819D01*
X210968303Y-136817866D02*
X211254017Y-137198819D01*
X211254017Y-136532152D02*
X210873065Y-136913104D01*
X212111160Y-136532152D02*
X212111160Y-137198819D01*
X211682589Y-136532152D02*
X211682589Y-137055961D01*
X211682589Y-137055961D02*
X211730208Y-137151200D01*
X211730208Y-137151200D02*
X211825446Y-137198819D01*
X211825446Y-137198819D02*
X211968303Y-137198819D01*
X211968303Y-137198819D02*
X212063541Y-137151200D01*
X212063541Y-137151200D02*
X212111160Y-137103580D01*
X212587351Y-137198819D02*
X212587351Y-136532152D01*
X212587351Y-136627390D02*
X212634970Y-136579771D01*
X212634970Y-136579771D02*
X212730208Y-136532152D01*
X212730208Y-136532152D02*
X212873065Y-136532152D01*
X212873065Y-136532152D02*
X212968303Y-136579771D01*
X212968303Y-136579771D02*
X213015922Y-136675009D01*
X213015922Y-136675009D02*
X213015922Y-137198819D01*
X213015922Y-136675009D02*
X213063541Y-136579771D01*
X213063541Y-136579771D02*
X213158779Y-136532152D01*
X213158779Y-136532152D02*
X213301636Y-136532152D01*
X213301636Y-136532152D02*
X213396875Y-136579771D01*
X213396875Y-136579771D02*
X213444494Y-136675009D01*
X213444494Y-136675009D02*
X213444494Y-137198819D01*
X214301636Y-137151200D02*
X214206398Y-137198819D01*
X214206398Y-137198819D02*
X214015922Y-137198819D01*
X214015922Y-137198819D02*
X213920684Y-137151200D01*
X213920684Y-137151200D02*
X213873065Y-137055961D01*
X213873065Y-137055961D02*
X213873065Y-136675009D01*
X213873065Y-136675009D02*
X213920684Y-136579771D01*
X213920684Y-136579771D02*
X214015922Y-136532152D01*
X214015922Y-136532152D02*
X214206398Y-136532152D01*
X214206398Y-136532152D02*
X214301636Y-136579771D01*
X214301636Y-136579771D02*
X214349255Y-136675009D01*
X214349255Y-136675009D02*
X214349255Y-136770247D01*
X214349255Y-136770247D02*
X213873065Y-136865485D01*
X214777827Y-137198819D02*
X214777827Y-136198819D01*
X214873065Y-136817866D02*
X215158779Y-137198819D01*
X215158779Y-136532152D02*
X214777827Y-136913104D01*
X216015922Y-137198819D02*
X216015922Y-136675009D01*
X216015922Y-136675009D02*
X215968303Y-136579771D01*
X215968303Y-136579771D02*
X215873065Y-136532152D01*
X215873065Y-136532152D02*
X215682589Y-136532152D01*
X215682589Y-136532152D02*
X215587351Y-136579771D01*
X216015922Y-137151200D02*
X215920684Y-137198819D01*
X215920684Y-137198819D02*
X215682589Y-137198819D01*
X215682589Y-137198819D02*
X215587351Y-137151200D01*
X215587351Y-137151200D02*
X215539732Y-137055961D01*
X215539732Y-137055961D02*
X215539732Y-136960723D01*
X215539732Y-136960723D02*
X215587351Y-136865485D01*
X215587351Y-136865485D02*
X215682589Y-136817866D01*
X215682589Y-136817866D02*
X215920684Y-136817866D01*
X215920684Y-136817866D02*
X216015922Y-136770247D01*
X216396875Y-136532152D02*
X216634970Y-137198819D01*
X216873065Y-136532152D02*
X216634970Y-137198819D01*
X216634970Y-137198819D02*
X216539732Y-137436914D01*
X216539732Y-137436914D02*
X216492113Y-137484533D01*
X216492113Y-137484533D02*
X216396875Y-137532152D01*
X217968304Y-136294057D02*
X218015923Y-136246438D01*
X218015923Y-136246438D02*
X218111161Y-136198819D01*
X218111161Y-136198819D02*
X218349256Y-136198819D01*
X218349256Y-136198819D02*
X218444494Y-136246438D01*
X218444494Y-136246438D02*
X218492113Y-136294057D01*
X218492113Y-136294057D02*
X218539732Y-136389295D01*
X218539732Y-136389295D02*
X218539732Y-136484533D01*
X218539732Y-136484533D02*
X218492113Y-136627390D01*
X218492113Y-136627390D02*
X217920685Y-137198819D01*
X217920685Y-137198819D02*
X218539732Y-137198819D01*
X219158780Y-136198819D02*
X219254018Y-136198819D01*
X219254018Y-136198819D02*
X219349256Y-136246438D01*
X219349256Y-136246438D02*
X219396875Y-136294057D01*
X219396875Y-136294057D02*
X219444494Y-136389295D01*
X219444494Y-136389295D02*
X219492113Y-136579771D01*
X219492113Y-136579771D02*
X219492113Y-136817866D01*
X219492113Y-136817866D02*
X219444494Y-137008342D01*
X219444494Y-137008342D02*
X219396875Y-137103580D01*
X219396875Y-137103580D02*
X219349256Y-137151200D01*
X219349256Y-137151200D02*
X219254018Y-137198819D01*
X219254018Y-137198819D02*
X219158780Y-137198819D01*
X219158780Y-137198819D02*
X219063542Y-137151200D01*
X219063542Y-137151200D02*
X219015923Y-137103580D01*
X219015923Y-137103580D02*
X218968304Y-137008342D01*
X218968304Y-137008342D02*
X218920685Y-136817866D01*
X218920685Y-136817866D02*
X218920685Y-136579771D01*
X218920685Y-136579771D02*
X218968304Y-136389295D01*
X218968304Y-136389295D02*
X219015923Y-136294057D01*
X219015923Y-136294057D02*
X219063542Y-136246438D01*
X219063542Y-136246438D02*
X219158780Y-136198819D01*
X219873066Y-136294057D02*
X219920685Y-136246438D01*
X219920685Y-136246438D02*
X220015923Y-136198819D01*
X220015923Y-136198819D02*
X220254018Y-136198819D01*
X220254018Y-136198819D02*
X220349256Y-136246438D01*
X220349256Y-136246438D02*
X220396875Y-136294057D01*
X220396875Y-136294057D02*
X220444494Y-136389295D01*
X220444494Y-136389295D02*
X220444494Y-136484533D01*
X220444494Y-136484533D02*
X220396875Y-136627390D01*
X220396875Y-136627390D02*
X219825447Y-137198819D01*
X219825447Y-137198819D02*
X220444494Y-137198819D01*
X221301637Y-136532152D02*
X221301637Y-137198819D01*
X221063542Y-136151200D02*
X220825447Y-136865485D01*
X220825447Y-136865485D02*
X221444494Y-136865485D01*
X218292112Y-128675009D02*
X218434969Y-128722628D01*
X218434969Y-128722628D02*
X218482588Y-128770247D01*
X218482588Y-128770247D02*
X218530207Y-128865485D01*
X218530207Y-128865485D02*
X218530207Y-129008342D01*
X218530207Y-129008342D02*
X218482588Y-129103580D01*
X218482588Y-129103580D02*
X218434969Y-129151200D01*
X218434969Y-129151200D02*
X218339731Y-129198819D01*
X218339731Y-129198819D02*
X217958779Y-129198819D01*
X217958779Y-129198819D02*
X217958779Y-128198819D01*
X217958779Y-128198819D02*
X218292112Y-128198819D01*
X218292112Y-128198819D02*
X218387350Y-128246438D01*
X218387350Y-128246438D02*
X218434969Y-128294057D01*
X218434969Y-128294057D02*
X218482588Y-128389295D01*
X218482588Y-128389295D02*
X218482588Y-128484533D01*
X218482588Y-128484533D02*
X218434969Y-128579771D01*
X218434969Y-128579771D02*
X218387350Y-128627390D01*
X218387350Y-128627390D02*
X218292112Y-128675009D01*
X218292112Y-128675009D02*
X217958779Y-128675009D01*
X218911160Y-128913104D02*
X219387350Y-128913104D01*
X218815922Y-129198819D02*
X219149255Y-128198819D01*
X219149255Y-128198819D02*
X219482588Y-129198819D01*
X219673065Y-128198819D02*
X220244493Y-128198819D01*
X219958779Y-129198819D02*
X219958779Y-128198819D01*
X220577827Y-128817866D02*
X221339732Y-128817866D01*
X207887350Y-135151200D02*
X207792112Y-135198819D01*
X207792112Y-135198819D02*
X207601636Y-135198819D01*
X207601636Y-135198819D02*
X207506398Y-135151200D01*
X207506398Y-135151200D02*
X207458779Y-135103580D01*
X207458779Y-135103580D02*
X207411160Y-135008342D01*
X207411160Y-135008342D02*
X207411160Y-134722628D01*
X207411160Y-134722628D02*
X207458779Y-134627390D01*
X207458779Y-134627390D02*
X207506398Y-134579771D01*
X207506398Y-134579771D02*
X207601636Y-134532152D01*
X207601636Y-134532152D02*
X207792112Y-134532152D01*
X207792112Y-134532152D02*
X207887350Y-134579771D01*
X208315922Y-135198819D02*
X208315922Y-134532152D01*
X208315922Y-134722628D02*
X208363541Y-134627390D01*
X208363541Y-134627390D02*
X208411160Y-134579771D01*
X208411160Y-134579771D02*
X208506398Y-134532152D01*
X208506398Y-134532152D02*
X208601636Y-134532152D01*
X209363541Y-135198819D02*
X209363541Y-134675009D01*
X209363541Y-134675009D02*
X209315922Y-134579771D01*
X209315922Y-134579771D02*
X209220684Y-134532152D01*
X209220684Y-134532152D02*
X209030208Y-134532152D01*
X209030208Y-134532152D02*
X208934970Y-134579771D01*
X209363541Y-135151200D02*
X209268303Y-135198819D01*
X209268303Y-135198819D02*
X209030208Y-135198819D01*
X209030208Y-135198819D02*
X208934970Y-135151200D01*
X208934970Y-135151200D02*
X208887351Y-135055961D01*
X208887351Y-135055961D02*
X208887351Y-134960723D01*
X208887351Y-134960723D02*
X208934970Y-134865485D01*
X208934970Y-134865485D02*
X209030208Y-134817866D01*
X209030208Y-134817866D02*
X209268303Y-134817866D01*
X209268303Y-134817866D02*
X209363541Y-134770247D01*
X209839732Y-135198819D02*
X209839732Y-134198819D01*
X209839732Y-134579771D02*
X209934970Y-134532152D01*
X209934970Y-134532152D02*
X210125446Y-134532152D01*
X210125446Y-134532152D02*
X210220684Y-134579771D01*
X210220684Y-134579771D02*
X210268303Y-134627390D01*
X210268303Y-134627390D02*
X210315922Y-134722628D01*
X210315922Y-134722628D02*
X210315922Y-135008342D01*
X210315922Y-135008342D02*
X210268303Y-135103580D01*
X210268303Y-135103580D02*
X210220684Y-135151200D01*
X210220684Y-135151200D02*
X210125446Y-135198819D01*
X210125446Y-135198819D02*
X209934970Y-135198819D01*
X209934970Y-135198819D02*
X209839732Y-135151200D01*
X211173065Y-135198819D02*
X211173065Y-134675009D01*
X211173065Y-134675009D02*
X211125446Y-134579771D01*
X211125446Y-134579771D02*
X211030208Y-134532152D01*
X211030208Y-134532152D02*
X210839732Y-134532152D01*
X210839732Y-134532152D02*
X210744494Y-134579771D01*
X211173065Y-135151200D02*
X211077827Y-135198819D01*
X211077827Y-135198819D02*
X210839732Y-135198819D01*
X210839732Y-135198819D02*
X210744494Y-135151200D01*
X210744494Y-135151200D02*
X210696875Y-135055961D01*
X210696875Y-135055961D02*
X210696875Y-134960723D01*
X210696875Y-134960723D02*
X210744494Y-134865485D01*
X210744494Y-134865485D02*
X210839732Y-134817866D01*
X210839732Y-134817866D02*
X211077827Y-134817866D01*
X211077827Y-134817866D02*
X211173065Y-134770247D01*
X211649256Y-134532152D02*
X211649256Y-135532152D01*
X211649256Y-134579771D02*
X211744494Y-134532152D01*
X211744494Y-134532152D02*
X211934970Y-134532152D01*
X211934970Y-134532152D02*
X212030208Y-134579771D01*
X212030208Y-134579771D02*
X212077827Y-134627390D01*
X212077827Y-134627390D02*
X212125446Y-134722628D01*
X212125446Y-134722628D02*
X212125446Y-135008342D01*
X212125446Y-135008342D02*
X212077827Y-135103580D01*
X212077827Y-135103580D02*
X212030208Y-135151200D01*
X212030208Y-135151200D02*
X211934970Y-135198819D01*
X211934970Y-135198819D02*
X211744494Y-135198819D01*
X211744494Y-135198819D02*
X211649256Y-135151200D01*
X212554018Y-134532152D02*
X212554018Y-135532152D01*
X212554018Y-134579771D02*
X212649256Y-134532152D01*
X212649256Y-134532152D02*
X212839732Y-134532152D01*
X212839732Y-134532152D02*
X212934970Y-134579771D01*
X212934970Y-134579771D02*
X212982589Y-134627390D01*
X212982589Y-134627390D02*
X213030208Y-134722628D01*
X213030208Y-134722628D02*
X213030208Y-135008342D01*
X213030208Y-135008342D02*
X212982589Y-135103580D01*
X212982589Y-135103580D02*
X212934970Y-135151200D01*
X212934970Y-135151200D02*
X212839732Y-135198819D01*
X212839732Y-135198819D02*
X212649256Y-135198819D01*
X212649256Y-135198819D02*
X212554018Y-135151200D01*
X213601637Y-135198819D02*
X213506399Y-135151200D01*
X213506399Y-135151200D02*
X213458780Y-135055961D01*
X213458780Y-135055961D02*
X213458780Y-134198819D01*
X214363542Y-135151200D02*
X214268304Y-135198819D01*
X214268304Y-135198819D02*
X214077828Y-135198819D01*
X214077828Y-135198819D02*
X213982590Y-135151200D01*
X213982590Y-135151200D02*
X213934971Y-135055961D01*
X213934971Y-135055961D02*
X213934971Y-134675009D01*
X213934971Y-134675009D02*
X213982590Y-134579771D01*
X213982590Y-134579771D02*
X214077828Y-134532152D01*
X214077828Y-134532152D02*
X214268304Y-134532152D01*
X214268304Y-134532152D02*
X214363542Y-134579771D01*
X214363542Y-134579771D02*
X214411161Y-134675009D01*
X214411161Y-134675009D02*
X214411161Y-134770247D01*
X214411161Y-134770247D02*
X213934971Y-134865485D01*
X214839733Y-134532152D02*
X214839733Y-135532152D01*
X214839733Y-134579771D02*
X214934971Y-134532152D01*
X214934971Y-134532152D02*
X215125447Y-134532152D01*
X215125447Y-134532152D02*
X215220685Y-134579771D01*
X215220685Y-134579771D02*
X215268304Y-134627390D01*
X215268304Y-134627390D02*
X215315923Y-134722628D01*
X215315923Y-134722628D02*
X215315923Y-135008342D01*
X215315923Y-135008342D02*
X215268304Y-135103580D01*
X215268304Y-135103580D02*
X215220685Y-135151200D01*
X215220685Y-135151200D02*
X215125447Y-135198819D01*
X215125447Y-135198819D02*
X214934971Y-135198819D01*
X214934971Y-135198819D02*
X214839733Y-135151200D01*
X216173066Y-135198819D02*
X216173066Y-134675009D01*
X216173066Y-134675009D02*
X216125447Y-134579771D01*
X216125447Y-134579771D02*
X216030209Y-134532152D01*
X216030209Y-134532152D02*
X215839733Y-134532152D01*
X215839733Y-134532152D02*
X215744495Y-134579771D01*
X216173066Y-135151200D02*
X216077828Y-135198819D01*
X216077828Y-135198819D02*
X215839733Y-135198819D01*
X215839733Y-135198819D02*
X215744495Y-135151200D01*
X215744495Y-135151200D02*
X215696876Y-135055961D01*
X215696876Y-135055961D02*
X215696876Y-134960723D01*
X215696876Y-134960723D02*
X215744495Y-134865485D01*
X215744495Y-134865485D02*
X215839733Y-134817866D01*
X215839733Y-134817866D02*
X216077828Y-134817866D01*
X216077828Y-134817866D02*
X216173066Y-134770247D01*
X217077828Y-135198819D02*
X217077828Y-134198819D01*
X217077828Y-135151200D02*
X216982590Y-135198819D01*
X216982590Y-135198819D02*
X216792114Y-135198819D01*
X216792114Y-135198819D02*
X216696876Y-135151200D01*
X216696876Y-135151200D02*
X216649257Y-135103580D01*
X216649257Y-135103580D02*
X216601638Y-135008342D01*
X216601638Y-135008342D02*
X216601638Y-134722628D01*
X216601638Y-134722628D02*
X216649257Y-134627390D01*
X216649257Y-134627390D02*
X216696876Y-134579771D01*
X216696876Y-134579771D02*
X216792114Y-134532152D01*
X216792114Y-134532152D02*
X216982590Y-134532152D01*
X216982590Y-134532152D02*
X217077828Y-134579771D01*
X218220686Y-134532152D02*
X218458781Y-135198819D01*
X218458781Y-135198819D02*
X218696876Y-134532152D01*
X219030210Y-134294057D02*
X219077829Y-134246438D01*
X219077829Y-134246438D02*
X219173067Y-134198819D01*
X219173067Y-134198819D02*
X219411162Y-134198819D01*
X219411162Y-134198819D02*
X219506400Y-134246438D01*
X219506400Y-134246438D02*
X219554019Y-134294057D01*
X219554019Y-134294057D02*
X219601638Y-134389295D01*
X219601638Y-134389295D02*
X219601638Y-134484533D01*
X219601638Y-134484533D02*
X219554019Y-134627390D01*
X219554019Y-134627390D02*
X218982591Y-135198819D01*
X218982591Y-135198819D02*
X219601638Y-135198819D01*
X220030210Y-135103580D02*
X220077829Y-135151200D01*
X220077829Y-135151200D02*
X220030210Y-135198819D01*
X220030210Y-135198819D02*
X219982591Y-135151200D01*
X219982591Y-135151200D02*
X220030210Y-135103580D01*
X220030210Y-135103580D02*
X220030210Y-135198819D01*
X220696876Y-134198819D02*
X220792114Y-134198819D01*
X220792114Y-134198819D02*
X220887352Y-134246438D01*
X220887352Y-134246438D02*
X220934971Y-134294057D01*
X220934971Y-134294057D02*
X220982590Y-134389295D01*
X220982590Y-134389295D02*
X221030209Y-134579771D01*
X221030209Y-134579771D02*
X221030209Y-134817866D01*
X221030209Y-134817866D02*
X220982590Y-135008342D01*
X220982590Y-135008342D02*
X220934971Y-135103580D01*
X220934971Y-135103580D02*
X220887352Y-135151200D01*
X220887352Y-135151200D02*
X220792114Y-135198819D01*
X220792114Y-135198819D02*
X220696876Y-135198819D01*
X220696876Y-135198819D02*
X220601638Y-135151200D01*
X220601638Y-135151200D02*
X220554019Y-135103580D01*
X220554019Y-135103580D02*
X220506400Y-135008342D01*
X220506400Y-135008342D02*
X220458781Y-134817866D01*
X220458781Y-134817866D02*
X220458781Y-134579771D01*
X220458781Y-134579771D02*
X220506400Y-134389295D01*
X220506400Y-134389295D02*
X220554019Y-134294057D01*
X220554019Y-134294057D02*
X220601638Y-134246438D01*
X220601638Y-134246438D02*
X220696876Y-134198819D01*
X207969619Y-122536295D02*
X207969619Y-121736295D01*
X207969619Y-121736295D02*
X208274381Y-121736295D01*
X208274381Y-121736295D02*
X208350571Y-121774390D01*
X208350571Y-121774390D02*
X208388666Y-121812485D01*
X208388666Y-121812485D02*
X208426762Y-121888676D01*
X208426762Y-121888676D02*
X208426762Y-122002961D01*
X208426762Y-122002961D02*
X208388666Y-122079152D01*
X208388666Y-122079152D02*
X208350571Y-122117247D01*
X208350571Y-122117247D02*
X208274381Y-122155342D01*
X208274381Y-122155342D02*
X207969619Y-122155342D01*
X208922000Y-121736295D02*
X208998190Y-121736295D01*
X208998190Y-121736295D02*
X209074381Y-121774390D01*
X209074381Y-121774390D02*
X209112476Y-121812485D01*
X209112476Y-121812485D02*
X209150571Y-121888676D01*
X209150571Y-121888676D02*
X209188666Y-122041057D01*
X209188666Y-122041057D02*
X209188666Y-122231533D01*
X209188666Y-122231533D02*
X209150571Y-122383914D01*
X209150571Y-122383914D02*
X209112476Y-122460104D01*
X209112476Y-122460104D02*
X209074381Y-122498200D01*
X209074381Y-122498200D02*
X208998190Y-122536295D01*
X208998190Y-122536295D02*
X208922000Y-122536295D01*
X208922000Y-122536295D02*
X208845809Y-122498200D01*
X208845809Y-122498200D02*
X208807714Y-122460104D01*
X208807714Y-122460104D02*
X208769619Y-122383914D01*
X208769619Y-122383914D02*
X208731523Y-122231533D01*
X208731523Y-122231533D02*
X208731523Y-122041057D01*
X208731523Y-122041057D02*
X208769619Y-121888676D01*
X208769619Y-121888676D02*
X208807714Y-121812485D01*
X208807714Y-121812485D02*
X208845809Y-121774390D01*
X208845809Y-121774390D02*
X208922000Y-121736295D01*
X209950571Y-122536295D02*
X209493428Y-122536295D01*
X209722000Y-122536295D02*
X209722000Y-121736295D01*
X209722000Y-121736295D02*
X209645809Y-121850580D01*
X209645809Y-121850580D02*
X209569619Y-121926771D01*
X209569619Y-121926771D02*
X209493428Y-121964866D01*
X210445810Y-121736295D02*
X210522000Y-121736295D01*
X210522000Y-121736295D02*
X210598191Y-121774390D01*
X210598191Y-121774390D02*
X210636286Y-121812485D01*
X210636286Y-121812485D02*
X210674381Y-121888676D01*
X210674381Y-121888676D02*
X210712476Y-122041057D01*
X210712476Y-122041057D02*
X210712476Y-122231533D01*
X210712476Y-122231533D02*
X210674381Y-122383914D01*
X210674381Y-122383914D02*
X210636286Y-122460104D01*
X210636286Y-122460104D02*
X210598191Y-122498200D01*
X210598191Y-122498200D02*
X210522000Y-122536295D01*
X210522000Y-122536295D02*
X210445810Y-122536295D01*
X210445810Y-122536295D02*
X210369619Y-122498200D01*
X210369619Y-122498200D02*
X210331524Y-122460104D01*
X210331524Y-122460104D02*
X210293429Y-122383914D01*
X210293429Y-122383914D02*
X210255333Y-122231533D01*
X210255333Y-122231533D02*
X210255333Y-122041057D01*
X210255333Y-122041057D02*
X210293429Y-121888676D01*
X210293429Y-121888676D02*
X210331524Y-121812485D01*
X210331524Y-121812485D02*
X210369619Y-121774390D01*
X210369619Y-121774390D02*
X210445810Y-121736295D01*
X217569619Y-109836295D02*
X217569619Y-109036295D01*
X217569619Y-109036295D02*
X217874381Y-109036295D01*
X217874381Y-109036295D02*
X217950571Y-109074390D01*
X217950571Y-109074390D02*
X217988666Y-109112485D01*
X217988666Y-109112485D02*
X218026762Y-109188676D01*
X218026762Y-109188676D02*
X218026762Y-109302961D01*
X218026762Y-109302961D02*
X217988666Y-109379152D01*
X217988666Y-109379152D02*
X217950571Y-109417247D01*
X217950571Y-109417247D02*
X217874381Y-109455342D01*
X217874381Y-109455342D02*
X217569619Y-109455342D01*
X218522000Y-109036295D02*
X218598190Y-109036295D01*
X218598190Y-109036295D02*
X218674381Y-109074390D01*
X218674381Y-109074390D02*
X218712476Y-109112485D01*
X218712476Y-109112485D02*
X218750571Y-109188676D01*
X218750571Y-109188676D02*
X218788666Y-109341057D01*
X218788666Y-109341057D02*
X218788666Y-109531533D01*
X218788666Y-109531533D02*
X218750571Y-109683914D01*
X218750571Y-109683914D02*
X218712476Y-109760104D01*
X218712476Y-109760104D02*
X218674381Y-109798200D01*
X218674381Y-109798200D02*
X218598190Y-109836295D01*
X218598190Y-109836295D02*
X218522000Y-109836295D01*
X218522000Y-109836295D02*
X218445809Y-109798200D01*
X218445809Y-109798200D02*
X218407714Y-109760104D01*
X218407714Y-109760104D02*
X218369619Y-109683914D01*
X218369619Y-109683914D02*
X218331523Y-109531533D01*
X218331523Y-109531533D02*
X218331523Y-109341057D01*
X218331523Y-109341057D02*
X218369619Y-109188676D01*
X218369619Y-109188676D02*
X218407714Y-109112485D01*
X218407714Y-109112485D02*
X218445809Y-109074390D01*
X218445809Y-109074390D02*
X218522000Y-109036295D01*
X219093428Y-109112485D02*
X219131524Y-109074390D01*
X219131524Y-109074390D02*
X219207714Y-109036295D01*
X219207714Y-109036295D02*
X219398190Y-109036295D01*
X219398190Y-109036295D02*
X219474381Y-109074390D01*
X219474381Y-109074390D02*
X219512476Y-109112485D01*
X219512476Y-109112485D02*
X219550571Y-109188676D01*
X219550571Y-109188676D02*
X219550571Y-109264866D01*
X219550571Y-109264866D02*
X219512476Y-109379152D01*
X219512476Y-109379152D02*
X219055333Y-109836295D01*
X219055333Y-109836295D02*
X219550571Y-109836295D01*
X220045810Y-109036295D02*
X220122000Y-109036295D01*
X220122000Y-109036295D02*
X220198191Y-109074390D01*
X220198191Y-109074390D02*
X220236286Y-109112485D01*
X220236286Y-109112485D02*
X220274381Y-109188676D01*
X220274381Y-109188676D02*
X220312476Y-109341057D01*
X220312476Y-109341057D02*
X220312476Y-109531533D01*
X220312476Y-109531533D02*
X220274381Y-109683914D01*
X220274381Y-109683914D02*
X220236286Y-109760104D01*
X220236286Y-109760104D02*
X220198191Y-109798200D01*
X220198191Y-109798200D02*
X220122000Y-109836295D01*
X220122000Y-109836295D02*
X220045810Y-109836295D01*
X220045810Y-109836295D02*
X219969619Y-109798200D01*
X219969619Y-109798200D02*
X219931524Y-109760104D01*
X219931524Y-109760104D02*
X219893429Y-109683914D01*
X219893429Y-109683914D02*
X219855333Y-109531533D01*
X219855333Y-109531533D02*
X219855333Y-109341057D01*
X219855333Y-109341057D02*
X219893429Y-109188676D01*
X219893429Y-109188676D02*
X219931524Y-109112485D01*
X219931524Y-109112485D02*
X219969619Y-109074390D01*
X219969619Y-109074390D02*
X220045810Y-109036295D01*
X208883905Y-102216295D02*
X208617238Y-101835342D01*
X208426762Y-102216295D02*
X208426762Y-101416295D01*
X208426762Y-101416295D02*
X208731524Y-101416295D01*
X208731524Y-101416295D02*
X208807714Y-101454390D01*
X208807714Y-101454390D02*
X208845809Y-101492485D01*
X208845809Y-101492485D02*
X208883905Y-101568676D01*
X208883905Y-101568676D02*
X208883905Y-101682961D01*
X208883905Y-101682961D02*
X208845809Y-101759152D01*
X208845809Y-101759152D02*
X208807714Y-101797247D01*
X208807714Y-101797247D02*
X208731524Y-101835342D01*
X208731524Y-101835342D02*
X208426762Y-101835342D01*
X209188666Y-102178200D02*
X209302952Y-102216295D01*
X209302952Y-102216295D02*
X209493428Y-102216295D01*
X209493428Y-102216295D02*
X209569619Y-102178200D01*
X209569619Y-102178200D02*
X209607714Y-102140104D01*
X209607714Y-102140104D02*
X209645809Y-102063914D01*
X209645809Y-102063914D02*
X209645809Y-101987723D01*
X209645809Y-101987723D02*
X209607714Y-101911533D01*
X209607714Y-101911533D02*
X209569619Y-101873438D01*
X209569619Y-101873438D02*
X209493428Y-101835342D01*
X209493428Y-101835342D02*
X209341047Y-101797247D01*
X209341047Y-101797247D02*
X209264857Y-101759152D01*
X209264857Y-101759152D02*
X209226762Y-101721057D01*
X209226762Y-101721057D02*
X209188666Y-101644866D01*
X209188666Y-101644866D02*
X209188666Y-101568676D01*
X209188666Y-101568676D02*
X209226762Y-101492485D01*
X209226762Y-101492485D02*
X209264857Y-101454390D01*
X209264857Y-101454390D02*
X209341047Y-101416295D01*
X209341047Y-101416295D02*
X209531524Y-101416295D01*
X209531524Y-101416295D02*
X209645809Y-101454390D01*
X209874381Y-101416295D02*
X210331524Y-101416295D01*
X210102952Y-102216295D02*
X210102952Y-101416295D01*
X207969619Y-112376295D02*
X207969619Y-111576295D01*
X207969619Y-111576295D02*
X208274381Y-111576295D01*
X208274381Y-111576295D02*
X208350571Y-111614390D01*
X208350571Y-111614390D02*
X208388666Y-111652485D01*
X208388666Y-111652485D02*
X208426762Y-111728676D01*
X208426762Y-111728676D02*
X208426762Y-111842961D01*
X208426762Y-111842961D02*
X208388666Y-111919152D01*
X208388666Y-111919152D02*
X208350571Y-111957247D01*
X208350571Y-111957247D02*
X208274381Y-111995342D01*
X208274381Y-111995342D02*
X207969619Y-111995342D01*
X208922000Y-111576295D02*
X208998190Y-111576295D01*
X208998190Y-111576295D02*
X209074381Y-111614390D01*
X209074381Y-111614390D02*
X209112476Y-111652485D01*
X209112476Y-111652485D02*
X209150571Y-111728676D01*
X209150571Y-111728676D02*
X209188666Y-111881057D01*
X209188666Y-111881057D02*
X209188666Y-112071533D01*
X209188666Y-112071533D02*
X209150571Y-112223914D01*
X209150571Y-112223914D02*
X209112476Y-112300104D01*
X209112476Y-112300104D02*
X209074381Y-112338200D01*
X209074381Y-112338200D02*
X208998190Y-112376295D01*
X208998190Y-112376295D02*
X208922000Y-112376295D01*
X208922000Y-112376295D02*
X208845809Y-112338200D01*
X208845809Y-112338200D02*
X208807714Y-112300104D01*
X208807714Y-112300104D02*
X208769619Y-112223914D01*
X208769619Y-112223914D02*
X208731523Y-112071533D01*
X208731523Y-112071533D02*
X208731523Y-111881057D01*
X208731523Y-111881057D02*
X208769619Y-111728676D01*
X208769619Y-111728676D02*
X208807714Y-111652485D01*
X208807714Y-111652485D02*
X208845809Y-111614390D01*
X208845809Y-111614390D02*
X208922000Y-111576295D01*
X209683905Y-111576295D02*
X209760095Y-111576295D01*
X209760095Y-111576295D02*
X209836286Y-111614390D01*
X209836286Y-111614390D02*
X209874381Y-111652485D01*
X209874381Y-111652485D02*
X209912476Y-111728676D01*
X209912476Y-111728676D02*
X209950571Y-111881057D01*
X209950571Y-111881057D02*
X209950571Y-112071533D01*
X209950571Y-112071533D02*
X209912476Y-112223914D01*
X209912476Y-112223914D02*
X209874381Y-112300104D01*
X209874381Y-112300104D02*
X209836286Y-112338200D01*
X209836286Y-112338200D02*
X209760095Y-112376295D01*
X209760095Y-112376295D02*
X209683905Y-112376295D01*
X209683905Y-112376295D02*
X209607714Y-112338200D01*
X209607714Y-112338200D02*
X209569619Y-112300104D01*
X209569619Y-112300104D02*
X209531524Y-112223914D01*
X209531524Y-112223914D02*
X209493428Y-112071533D01*
X209493428Y-112071533D02*
X209493428Y-111881057D01*
X209493428Y-111881057D02*
X209531524Y-111728676D01*
X209531524Y-111728676D02*
X209569619Y-111652485D01*
X209569619Y-111652485D02*
X209607714Y-111614390D01*
X209607714Y-111614390D02*
X209683905Y-111576295D01*
X210255333Y-111652485D02*
X210293429Y-111614390D01*
X210293429Y-111614390D02*
X210369619Y-111576295D01*
X210369619Y-111576295D02*
X210560095Y-111576295D01*
X210560095Y-111576295D02*
X210636286Y-111614390D01*
X210636286Y-111614390D02*
X210674381Y-111652485D01*
X210674381Y-111652485D02*
X210712476Y-111728676D01*
X210712476Y-111728676D02*
X210712476Y-111804866D01*
X210712476Y-111804866D02*
X210674381Y-111919152D01*
X210674381Y-111919152D02*
X210217238Y-112376295D01*
X210217238Y-112376295D02*
X210712476Y-112376295D01*
X208255333Y-103956295D02*
X208522000Y-104756295D01*
X208522000Y-104756295D02*
X208788666Y-103956295D01*
X209512476Y-104680104D02*
X209474380Y-104718200D01*
X209474380Y-104718200D02*
X209360095Y-104756295D01*
X209360095Y-104756295D02*
X209283904Y-104756295D01*
X209283904Y-104756295D02*
X209169618Y-104718200D01*
X209169618Y-104718200D02*
X209093428Y-104642009D01*
X209093428Y-104642009D02*
X209055333Y-104565819D01*
X209055333Y-104565819D02*
X209017237Y-104413438D01*
X209017237Y-104413438D02*
X209017237Y-104299152D01*
X209017237Y-104299152D02*
X209055333Y-104146771D01*
X209055333Y-104146771D02*
X209093428Y-104070580D01*
X209093428Y-104070580D02*
X209169618Y-103994390D01*
X209169618Y-103994390D02*
X209283904Y-103956295D01*
X209283904Y-103956295D02*
X209360095Y-103956295D01*
X209360095Y-103956295D02*
X209474380Y-103994390D01*
X209474380Y-103994390D02*
X209512476Y-104032485D01*
X210312476Y-104680104D02*
X210274380Y-104718200D01*
X210274380Y-104718200D02*
X210160095Y-104756295D01*
X210160095Y-104756295D02*
X210083904Y-104756295D01*
X210083904Y-104756295D02*
X209969618Y-104718200D01*
X209969618Y-104718200D02*
X209893428Y-104642009D01*
X209893428Y-104642009D02*
X209855333Y-104565819D01*
X209855333Y-104565819D02*
X209817237Y-104413438D01*
X209817237Y-104413438D02*
X209817237Y-104299152D01*
X209817237Y-104299152D02*
X209855333Y-104146771D01*
X209855333Y-104146771D02*
X209893428Y-104070580D01*
X209893428Y-104070580D02*
X209969618Y-103994390D01*
X209969618Y-103994390D02*
X210083904Y-103956295D01*
X210083904Y-103956295D02*
X210160095Y-103956295D01*
X210160095Y-103956295D02*
X210274380Y-103994390D01*
X210274380Y-103994390D02*
X210312476Y-104032485D01*
X208769619Y-97136295D02*
X208502952Y-96755342D01*
X208312476Y-97136295D02*
X208312476Y-96336295D01*
X208312476Y-96336295D02*
X208617238Y-96336295D01*
X208617238Y-96336295D02*
X208693428Y-96374390D01*
X208693428Y-96374390D02*
X208731523Y-96412485D01*
X208731523Y-96412485D02*
X208769619Y-96488676D01*
X208769619Y-96488676D02*
X208769619Y-96602961D01*
X208769619Y-96602961D02*
X208731523Y-96679152D01*
X208731523Y-96679152D02*
X208693428Y-96717247D01*
X208693428Y-96717247D02*
X208617238Y-96755342D01*
X208617238Y-96755342D02*
X208312476Y-96755342D01*
X209074380Y-96907723D02*
X209455333Y-96907723D01*
X208998190Y-97136295D02*
X209264857Y-96336295D01*
X209264857Y-96336295D02*
X209531523Y-97136295D01*
X209721999Y-96336295D02*
X209912475Y-97136295D01*
X209912475Y-97136295D02*
X210064856Y-96564866D01*
X210064856Y-96564866D02*
X210217237Y-97136295D01*
X210217237Y-97136295D02*
X210407714Y-96336295D01*
X217569619Y-97136295D02*
X217569619Y-96336295D01*
X217569619Y-96336295D02*
X217874381Y-96336295D01*
X217874381Y-96336295D02*
X217950571Y-96374390D01*
X217950571Y-96374390D02*
X217988666Y-96412485D01*
X217988666Y-96412485D02*
X218026762Y-96488676D01*
X218026762Y-96488676D02*
X218026762Y-96602961D01*
X218026762Y-96602961D02*
X217988666Y-96679152D01*
X217988666Y-96679152D02*
X217950571Y-96717247D01*
X217950571Y-96717247D02*
X217874381Y-96755342D01*
X217874381Y-96755342D02*
X217569619Y-96755342D01*
X218522000Y-96336295D02*
X218598190Y-96336295D01*
X218598190Y-96336295D02*
X218674381Y-96374390D01*
X218674381Y-96374390D02*
X218712476Y-96412485D01*
X218712476Y-96412485D02*
X218750571Y-96488676D01*
X218750571Y-96488676D02*
X218788666Y-96641057D01*
X218788666Y-96641057D02*
X218788666Y-96831533D01*
X218788666Y-96831533D02*
X218750571Y-96983914D01*
X218750571Y-96983914D02*
X218712476Y-97060104D01*
X218712476Y-97060104D02*
X218674381Y-97098200D01*
X218674381Y-97098200D02*
X218598190Y-97136295D01*
X218598190Y-97136295D02*
X218522000Y-97136295D01*
X218522000Y-97136295D02*
X218445809Y-97098200D01*
X218445809Y-97098200D02*
X218407714Y-97060104D01*
X218407714Y-97060104D02*
X218369619Y-96983914D01*
X218369619Y-96983914D02*
X218331523Y-96831533D01*
X218331523Y-96831533D02*
X218331523Y-96641057D01*
X218331523Y-96641057D02*
X218369619Y-96488676D01*
X218369619Y-96488676D02*
X218407714Y-96412485D01*
X218407714Y-96412485D02*
X218445809Y-96374390D01*
X218445809Y-96374390D02*
X218522000Y-96336295D01*
X219283905Y-96336295D02*
X219360095Y-96336295D01*
X219360095Y-96336295D02*
X219436286Y-96374390D01*
X219436286Y-96374390D02*
X219474381Y-96412485D01*
X219474381Y-96412485D02*
X219512476Y-96488676D01*
X219512476Y-96488676D02*
X219550571Y-96641057D01*
X219550571Y-96641057D02*
X219550571Y-96831533D01*
X219550571Y-96831533D02*
X219512476Y-96983914D01*
X219512476Y-96983914D02*
X219474381Y-97060104D01*
X219474381Y-97060104D02*
X219436286Y-97098200D01*
X219436286Y-97098200D02*
X219360095Y-97136295D01*
X219360095Y-97136295D02*
X219283905Y-97136295D01*
X219283905Y-97136295D02*
X219207714Y-97098200D01*
X219207714Y-97098200D02*
X219169619Y-97060104D01*
X219169619Y-97060104D02*
X219131524Y-96983914D01*
X219131524Y-96983914D02*
X219093428Y-96831533D01*
X219093428Y-96831533D02*
X219093428Y-96641057D01*
X219093428Y-96641057D02*
X219131524Y-96488676D01*
X219131524Y-96488676D02*
X219169619Y-96412485D01*
X219169619Y-96412485D02*
X219207714Y-96374390D01*
X219207714Y-96374390D02*
X219283905Y-96336295D01*
X220236286Y-96336295D02*
X220083905Y-96336295D01*
X220083905Y-96336295D02*
X220007714Y-96374390D01*
X220007714Y-96374390D02*
X219969619Y-96412485D01*
X219969619Y-96412485D02*
X219893429Y-96526771D01*
X219893429Y-96526771D02*
X219855333Y-96679152D01*
X219855333Y-96679152D02*
X219855333Y-96983914D01*
X219855333Y-96983914D02*
X219893429Y-97060104D01*
X219893429Y-97060104D02*
X219931524Y-97098200D01*
X219931524Y-97098200D02*
X220007714Y-97136295D01*
X220007714Y-97136295D02*
X220160095Y-97136295D01*
X220160095Y-97136295D02*
X220236286Y-97098200D01*
X220236286Y-97098200D02*
X220274381Y-97060104D01*
X220274381Y-97060104D02*
X220312476Y-96983914D01*
X220312476Y-96983914D02*
X220312476Y-96793438D01*
X220312476Y-96793438D02*
X220274381Y-96717247D01*
X220274381Y-96717247D02*
X220236286Y-96679152D01*
X220236286Y-96679152D02*
X220160095Y-96641057D01*
X220160095Y-96641057D02*
X220007714Y-96641057D01*
X220007714Y-96641057D02*
X219931524Y-96679152D01*
X219931524Y-96679152D02*
X219893429Y-96717247D01*
X219893429Y-96717247D02*
X219855333Y-96793438D01*
X217569619Y-125076295D02*
X217569619Y-124276295D01*
X217569619Y-124276295D02*
X217874381Y-124276295D01*
X217874381Y-124276295D02*
X217950571Y-124314390D01*
X217950571Y-124314390D02*
X217988666Y-124352485D01*
X217988666Y-124352485D02*
X218026762Y-124428676D01*
X218026762Y-124428676D02*
X218026762Y-124542961D01*
X218026762Y-124542961D02*
X217988666Y-124619152D01*
X217988666Y-124619152D02*
X217950571Y-124657247D01*
X217950571Y-124657247D02*
X217874381Y-124695342D01*
X217874381Y-124695342D02*
X217569619Y-124695342D01*
X218788666Y-125076295D02*
X218331523Y-125076295D01*
X218560095Y-125076295D02*
X218560095Y-124276295D01*
X218560095Y-124276295D02*
X218483904Y-124390580D01*
X218483904Y-124390580D02*
X218407714Y-124466771D01*
X218407714Y-124466771D02*
X218331523Y-124504866D01*
X219283905Y-124276295D02*
X219360095Y-124276295D01*
X219360095Y-124276295D02*
X219436286Y-124314390D01*
X219436286Y-124314390D02*
X219474381Y-124352485D01*
X219474381Y-124352485D02*
X219512476Y-124428676D01*
X219512476Y-124428676D02*
X219550571Y-124581057D01*
X219550571Y-124581057D02*
X219550571Y-124771533D01*
X219550571Y-124771533D02*
X219512476Y-124923914D01*
X219512476Y-124923914D02*
X219474381Y-125000104D01*
X219474381Y-125000104D02*
X219436286Y-125038200D01*
X219436286Y-125038200D02*
X219360095Y-125076295D01*
X219360095Y-125076295D02*
X219283905Y-125076295D01*
X219283905Y-125076295D02*
X219207714Y-125038200D01*
X219207714Y-125038200D02*
X219169619Y-125000104D01*
X219169619Y-125000104D02*
X219131524Y-124923914D01*
X219131524Y-124923914D02*
X219093428Y-124771533D01*
X219093428Y-124771533D02*
X219093428Y-124581057D01*
X219093428Y-124581057D02*
X219131524Y-124428676D01*
X219131524Y-124428676D02*
X219169619Y-124352485D01*
X219169619Y-124352485D02*
X219207714Y-124314390D01*
X219207714Y-124314390D02*
X219283905Y-124276295D01*
X220236286Y-124276295D02*
X220083905Y-124276295D01*
X220083905Y-124276295D02*
X220007714Y-124314390D01*
X220007714Y-124314390D02*
X219969619Y-124352485D01*
X219969619Y-124352485D02*
X219893429Y-124466771D01*
X219893429Y-124466771D02*
X219855333Y-124619152D01*
X219855333Y-124619152D02*
X219855333Y-124923914D01*
X219855333Y-124923914D02*
X219893429Y-125000104D01*
X219893429Y-125000104D02*
X219931524Y-125038200D01*
X219931524Y-125038200D02*
X220007714Y-125076295D01*
X220007714Y-125076295D02*
X220160095Y-125076295D01*
X220160095Y-125076295D02*
X220236286Y-125038200D01*
X220236286Y-125038200D02*
X220274381Y-125000104D01*
X220274381Y-125000104D02*
X220312476Y-124923914D01*
X220312476Y-124923914D02*
X220312476Y-124733438D01*
X220312476Y-124733438D02*
X220274381Y-124657247D01*
X220274381Y-124657247D02*
X220236286Y-124619152D01*
X220236286Y-124619152D02*
X220160095Y-124581057D01*
X220160095Y-124581057D02*
X220007714Y-124581057D01*
X220007714Y-124581057D02*
X219931524Y-124619152D01*
X219931524Y-124619152D02*
X219893429Y-124657247D01*
X219893429Y-124657247D02*
X219855333Y-124733438D01*
X207969619Y-117456295D02*
X207969619Y-116656295D01*
X207969619Y-116656295D02*
X208274381Y-116656295D01*
X208274381Y-116656295D02*
X208350571Y-116694390D01*
X208350571Y-116694390D02*
X208388666Y-116732485D01*
X208388666Y-116732485D02*
X208426762Y-116808676D01*
X208426762Y-116808676D02*
X208426762Y-116922961D01*
X208426762Y-116922961D02*
X208388666Y-116999152D01*
X208388666Y-116999152D02*
X208350571Y-117037247D01*
X208350571Y-117037247D02*
X208274381Y-117075342D01*
X208274381Y-117075342D02*
X207969619Y-117075342D01*
X209188666Y-117456295D02*
X208731523Y-117456295D01*
X208960095Y-117456295D02*
X208960095Y-116656295D01*
X208960095Y-116656295D02*
X208883904Y-116770580D01*
X208883904Y-116770580D02*
X208807714Y-116846771D01*
X208807714Y-116846771D02*
X208731523Y-116884866D01*
X209950571Y-117456295D02*
X209493428Y-117456295D01*
X209722000Y-117456295D02*
X209722000Y-116656295D01*
X209722000Y-116656295D02*
X209645809Y-116770580D01*
X209645809Y-116770580D02*
X209569619Y-116846771D01*
X209569619Y-116846771D02*
X209493428Y-116884866D01*
X210217238Y-116656295D02*
X210712476Y-116656295D01*
X210712476Y-116656295D02*
X210445810Y-116961057D01*
X210445810Y-116961057D02*
X210560095Y-116961057D01*
X210560095Y-116961057D02*
X210636286Y-116999152D01*
X210636286Y-116999152D02*
X210674381Y-117037247D01*
X210674381Y-117037247D02*
X210712476Y-117113438D01*
X210712476Y-117113438D02*
X210712476Y-117303914D01*
X210712476Y-117303914D02*
X210674381Y-117380104D01*
X210674381Y-117380104D02*
X210636286Y-117418200D01*
X210636286Y-117418200D02*
X210560095Y-117456295D01*
X210560095Y-117456295D02*
X210331524Y-117456295D01*
X210331524Y-117456295D02*
X210255333Y-117418200D01*
X210255333Y-117418200D02*
X210217238Y-117380104D01*
X217569619Y-117456295D02*
X217569619Y-116656295D01*
X217569619Y-116656295D02*
X217874381Y-116656295D01*
X217874381Y-116656295D02*
X217950571Y-116694390D01*
X217950571Y-116694390D02*
X217988666Y-116732485D01*
X217988666Y-116732485D02*
X218026762Y-116808676D01*
X218026762Y-116808676D02*
X218026762Y-116922961D01*
X218026762Y-116922961D02*
X217988666Y-116999152D01*
X217988666Y-116999152D02*
X217950571Y-117037247D01*
X217950571Y-117037247D02*
X217874381Y-117075342D01*
X217874381Y-117075342D02*
X217569619Y-117075342D01*
X218788666Y-117456295D02*
X218331523Y-117456295D01*
X218560095Y-117456295D02*
X218560095Y-116656295D01*
X218560095Y-116656295D02*
X218483904Y-116770580D01*
X218483904Y-116770580D02*
X218407714Y-116846771D01*
X218407714Y-116846771D02*
X218331523Y-116884866D01*
X219283905Y-116656295D02*
X219360095Y-116656295D01*
X219360095Y-116656295D02*
X219436286Y-116694390D01*
X219436286Y-116694390D02*
X219474381Y-116732485D01*
X219474381Y-116732485D02*
X219512476Y-116808676D01*
X219512476Y-116808676D02*
X219550571Y-116961057D01*
X219550571Y-116961057D02*
X219550571Y-117151533D01*
X219550571Y-117151533D02*
X219512476Y-117303914D01*
X219512476Y-117303914D02*
X219474381Y-117380104D01*
X219474381Y-117380104D02*
X219436286Y-117418200D01*
X219436286Y-117418200D02*
X219360095Y-117456295D01*
X219360095Y-117456295D02*
X219283905Y-117456295D01*
X219283905Y-117456295D02*
X219207714Y-117418200D01*
X219207714Y-117418200D02*
X219169619Y-117380104D01*
X219169619Y-117380104D02*
X219131524Y-117303914D01*
X219131524Y-117303914D02*
X219093428Y-117151533D01*
X219093428Y-117151533D02*
X219093428Y-116961057D01*
X219093428Y-116961057D02*
X219131524Y-116808676D01*
X219131524Y-116808676D02*
X219169619Y-116732485D01*
X219169619Y-116732485D02*
X219207714Y-116694390D01*
X219207714Y-116694390D02*
X219283905Y-116656295D01*
X220045810Y-116656295D02*
X220122000Y-116656295D01*
X220122000Y-116656295D02*
X220198191Y-116694390D01*
X220198191Y-116694390D02*
X220236286Y-116732485D01*
X220236286Y-116732485D02*
X220274381Y-116808676D01*
X220274381Y-116808676D02*
X220312476Y-116961057D01*
X220312476Y-116961057D02*
X220312476Y-117151533D01*
X220312476Y-117151533D02*
X220274381Y-117303914D01*
X220274381Y-117303914D02*
X220236286Y-117380104D01*
X220236286Y-117380104D02*
X220198191Y-117418200D01*
X220198191Y-117418200D02*
X220122000Y-117456295D01*
X220122000Y-117456295D02*
X220045810Y-117456295D01*
X220045810Y-117456295D02*
X219969619Y-117418200D01*
X219969619Y-117418200D02*
X219931524Y-117380104D01*
X219931524Y-117380104D02*
X219893429Y-117303914D01*
X219893429Y-117303914D02*
X219855333Y-117151533D01*
X219855333Y-117151533D02*
X219855333Y-116961057D01*
X219855333Y-116961057D02*
X219893429Y-116808676D01*
X219893429Y-116808676D02*
X219931524Y-116732485D01*
X219931524Y-116732485D02*
X219969619Y-116694390D01*
X219969619Y-116694390D02*
X220045810Y-116656295D01*
X207969619Y-119996295D02*
X207969619Y-119196295D01*
X207969619Y-119196295D02*
X208274381Y-119196295D01*
X208274381Y-119196295D02*
X208350571Y-119234390D01*
X208350571Y-119234390D02*
X208388666Y-119272485D01*
X208388666Y-119272485D02*
X208426762Y-119348676D01*
X208426762Y-119348676D02*
X208426762Y-119462961D01*
X208426762Y-119462961D02*
X208388666Y-119539152D01*
X208388666Y-119539152D02*
X208350571Y-119577247D01*
X208350571Y-119577247D02*
X208274381Y-119615342D01*
X208274381Y-119615342D02*
X207969619Y-119615342D01*
X209188666Y-119996295D02*
X208731523Y-119996295D01*
X208960095Y-119996295D02*
X208960095Y-119196295D01*
X208960095Y-119196295D02*
X208883904Y-119310580D01*
X208883904Y-119310580D02*
X208807714Y-119386771D01*
X208807714Y-119386771D02*
X208731523Y-119424866D01*
X209950571Y-119996295D02*
X209493428Y-119996295D01*
X209722000Y-119996295D02*
X209722000Y-119196295D01*
X209722000Y-119196295D02*
X209645809Y-119310580D01*
X209645809Y-119310580D02*
X209569619Y-119386771D01*
X209569619Y-119386771D02*
X209493428Y-119424866D01*
X210712476Y-119996295D02*
X210255333Y-119996295D01*
X210483905Y-119996295D02*
X210483905Y-119196295D01*
X210483905Y-119196295D02*
X210407714Y-119310580D01*
X210407714Y-119310580D02*
X210331524Y-119386771D01*
X210331524Y-119386771D02*
X210255333Y-119424866D01*
X218312476Y-103994390D02*
X218236286Y-103956295D01*
X218236286Y-103956295D02*
X218122000Y-103956295D01*
X218122000Y-103956295D02*
X218007714Y-103994390D01*
X218007714Y-103994390D02*
X217931524Y-104070580D01*
X217931524Y-104070580D02*
X217893429Y-104146771D01*
X217893429Y-104146771D02*
X217855333Y-104299152D01*
X217855333Y-104299152D02*
X217855333Y-104413438D01*
X217855333Y-104413438D02*
X217893429Y-104565819D01*
X217893429Y-104565819D02*
X217931524Y-104642009D01*
X217931524Y-104642009D02*
X218007714Y-104718200D01*
X218007714Y-104718200D02*
X218122000Y-104756295D01*
X218122000Y-104756295D02*
X218198191Y-104756295D01*
X218198191Y-104756295D02*
X218312476Y-104718200D01*
X218312476Y-104718200D02*
X218350572Y-104680104D01*
X218350572Y-104680104D02*
X218350572Y-104413438D01*
X218350572Y-104413438D02*
X218198191Y-104413438D01*
X218693429Y-104756295D02*
X218693429Y-103956295D01*
X218693429Y-103956295D02*
X219150572Y-104756295D01*
X219150572Y-104756295D02*
X219150572Y-103956295D01*
X219531524Y-104756295D02*
X219531524Y-103956295D01*
X219531524Y-103956295D02*
X219722000Y-103956295D01*
X219722000Y-103956295D02*
X219836286Y-103994390D01*
X219836286Y-103994390D02*
X219912476Y-104070580D01*
X219912476Y-104070580D02*
X219950571Y-104146771D01*
X219950571Y-104146771D02*
X219988667Y-104299152D01*
X219988667Y-104299152D02*
X219988667Y-104413438D01*
X219988667Y-104413438D02*
X219950571Y-104565819D01*
X219950571Y-104565819D02*
X219912476Y-104642009D01*
X219912476Y-104642009D02*
X219836286Y-104718200D01*
X219836286Y-104718200D02*
X219722000Y-104756295D01*
X219722000Y-104756295D02*
X219531524Y-104756295D01*
X217569619Y-99676295D02*
X217569619Y-98876295D01*
X217569619Y-98876295D02*
X217874381Y-98876295D01*
X217874381Y-98876295D02*
X217950571Y-98914390D01*
X217950571Y-98914390D02*
X217988666Y-98952485D01*
X217988666Y-98952485D02*
X218026762Y-99028676D01*
X218026762Y-99028676D02*
X218026762Y-99142961D01*
X218026762Y-99142961D02*
X217988666Y-99219152D01*
X217988666Y-99219152D02*
X217950571Y-99257247D01*
X217950571Y-99257247D02*
X217874381Y-99295342D01*
X217874381Y-99295342D02*
X217569619Y-99295342D01*
X218522000Y-98876295D02*
X218598190Y-98876295D01*
X218598190Y-98876295D02*
X218674381Y-98914390D01*
X218674381Y-98914390D02*
X218712476Y-98952485D01*
X218712476Y-98952485D02*
X218750571Y-99028676D01*
X218750571Y-99028676D02*
X218788666Y-99181057D01*
X218788666Y-99181057D02*
X218788666Y-99371533D01*
X218788666Y-99371533D02*
X218750571Y-99523914D01*
X218750571Y-99523914D02*
X218712476Y-99600104D01*
X218712476Y-99600104D02*
X218674381Y-99638200D01*
X218674381Y-99638200D02*
X218598190Y-99676295D01*
X218598190Y-99676295D02*
X218522000Y-99676295D01*
X218522000Y-99676295D02*
X218445809Y-99638200D01*
X218445809Y-99638200D02*
X218407714Y-99600104D01*
X218407714Y-99600104D02*
X218369619Y-99523914D01*
X218369619Y-99523914D02*
X218331523Y-99371533D01*
X218331523Y-99371533D02*
X218331523Y-99181057D01*
X218331523Y-99181057D02*
X218369619Y-99028676D01*
X218369619Y-99028676D02*
X218407714Y-98952485D01*
X218407714Y-98952485D02*
X218445809Y-98914390D01*
X218445809Y-98914390D02*
X218522000Y-98876295D01*
X219283905Y-98876295D02*
X219360095Y-98876295D01*
X219360095Y-98876295D02*
X219436286Y-98914390D01*
X219436286Y-98914390D02*
X219474381Y-98952485D01*
X219474381Y-98952485D02*
X219512476Y-99028676D01*
X219512476Y-99028676D02*
X219550571Y-99181057D01*
X219550571Y-99181057D02*
X219550571Y-99371533D01*
X219550571Y-99371533D02*
X219512476Y-99523914D01*
X219512476Y-99523914D02*
X219474381Y-99600104D01*
X219474381Y-99600104D02*
X219436286Y-99638200D01*
X219436286Y-99638200D02*
X219360095Y-99676295D01*
X219360095Y-99676295D02*
X219283905Y-99676295D01*
X219283905Y-99676295D02*
X219207714Y-99638200D01*
X219207714Y-99638200D02*
X219169619Y-99600104D01*
X219169619Y-99600104D02*
X219131524Y-99523914D01*
X219131524Y-99523914D02*
X219093428Y-99371533D01*
X219093428Y-99371533D02*
X219093428Y-99181057D01*
X219093428Y-99181057D02*
X219131524Y-99028676D01*
X219131524Y-99028676D02*
X219169619Y-98952485D01*
X219169619Y-98952485D02*
X219207714Y-98914390D01*
X219207714Y-98914390D02*
X219283905Y-98876295D01*
X220007714Y-99219152D02*
X219931524Y-99181057D01*
X219931524Y-99181057D02*
X219893429Y-99142961D01*
X219893429Y-99142961D02*
X219855333Y-99066771D01*
X219855333Y-99066771D02*
X219855333Y-99028676D01*
X219855333Y-99028676D02*
X219893429Y-98952485D01*
X219893429Y-98952485D02*
X219931524Y-98914390D01*
X219931524Y-98914390D02*
X220007714Y-98876295D01*
X220007714Y-98876295D02*
X220160095Y-98876295D01*
X220160095Y-98876295D02*
X220236286Y-98914390D01*
X220236286Y-98914390D02*
X220274381Y-98952485D01*
X220274381Y-98952485D02*
X220312476Y-99028676D01*
X220312476Y-99028676D02*
X220312476Y-99066771D01*
X220312476Y-99066771D02*
X220274381Y-99142961D01*
X220274381Y-99142961D02*
X220236286Y-99181057D01*
X220236286Y-99181057D02*
X220160095Y-99219152D01*
X220160095Y-99219152D02*
X220007714Y-99219152D01*
X220007714Y-99219152D02*
X219931524Y-99257247D01*
X219931524Y-99257247D02*
X219893429Y-99295342D01*
X219893429Y-99295342D02*
X219855333Y-99371533D01*
X219855333Y-99371533D02*
X219855333Y-99523914D01*
X219855333Y-99523914D02*
X219893429Y-99600104D01*
X219893429Y-99600104D02*
X219931524Y-99638200D01*
X219931524Y-99638200D02*
X220007714Y-99676295D01*
X220007714Y-99676295D02*
X220160095Y-99676295D01*
X220160095Y-99676295D02*
X220236286Y-99638200D01*
X220236286Y-99638200D02*
X220274381Y-99600104D01*
X220274381Y-99600104D02*
X220312476Y-99523914D01*
X220312476Y-99523914D02*
X220312476Y-99371533D01*
X220312476Y-99371533D02*
X220274381Y-99295342D01*
X220274381Y-99295342D02*
X220236286Y-99257247D01*
X220236286Y-99257247D02*
X220160095Y-99219152D01*
X208236285Y-94177247D02*
X208350571Y-94215342D01*
X208350571Y-94215342D02*
X208388666Y-94253438D01*
X208388666Y-94253438D02*
X208426762Y-94329628D01*
X208426762Y-94329628D02*
X208426762Y-94443914D01*
X208426762Y-94443914D02*
X208388666Y-94520104D01*
X208388666Y-94520104D02*
X208350571Y-94558200D01*
X208350571Y-94558200D02*
X208274381Y-94596295D01*
X208274381Y-94596295D02*
X207969619Y-94596295D01*
X207969619Y-94596295D02*
X207969619Y-93796295D01*
X207969619Y-93796295D02*
X208236285Y-93796295D01*
X208236285Y-93796295D02*
X208312476Y-93834390D01*
X208312476Y-93834390D02*
X208350571Y-93872485D01*
X208350571Y-93872485D02*
X208388666Y-93948676D01*
X208388666Y-93948676D02*
X208388666Y-94024866D01*
X208388666Y-94024866D02*
X208350571Y-94101057D01*
X208350571Y-94101057D02*
X208312476Y-94139152D01*
X208312476Y-94139152D02*
X208236285Y-94177247D01*
X208236285Y-94177247D02*
X207969619Y-94177247D01*
X208731523Y-94367723D02*
X209112476Y-94367723D01*
X208655333Y-94596295D02*
X208922000Y-93796295D01*
X208922000Y-93796295D02*
X209188666Y-94596295D01*
X209341047Y-93796295D02*
X209798190Y-93796295D01*
X209569618Y-94596295D02*
X209569618Y-93796295D01*
X210064857Y-94291533D02*
X210674381Y-94291533D01*
X210369619Y-94596295D02*
X210369619Y-93986771D01*
X218312476Y-101454390D02*
X218236286Y-101416295D01*
X218236286Y-101416295D02*
X218122000Y-101416295D01*
X218122000Y-101416295D02*
X218007714Y-101454390D01*
X218007714Y-101454390D02*
X217931524Y-101530580D01*
X217931524Y-101530580D02*
X217893429Y-101606771D01*
X217893429Y-101606771D02*
X217855333Y-101759152D01*
X217855333Y-101759152D02*
X217855333Y-101873438D01*
X217855333Y-101873438D02*
X217893429Y-102025819D01*
X217893429Y-102025819D02*
X217931524Y-102102009D01*
X217931524Y-102102009D02*
X218007714Y-102178200D01*
X218007714Y-102178200D02*
X218122000Y-102216295D01*
X218122000Y-102216295D02*
X218198191Y-102216295D01*
X218198191Y-102216295D02*
X218312476Y-102178200D01*
X218312476Y-102178200D02*
X218350572Y-102140104D01*
X218350572Y-102140104D02*
X218350572Y-101873438D01*
X218350572Y-101873438D02*
X218198191Y-101873438D01*
X218693429Y-102216295D02*
X218693429Y-101416295D01*
X218693429Y-101416295D02*
X219150572Y-102216295D01*
X219150572Y-102216295D02*
X219150572Y-101416295D01*
X219531524Y-102216295D02*
X219531524Y-101416295D01*
X219531524Y-101416295D02*
X219722000Y-101416295D01*
X219722000Y-101416295D02*
X219836286Y-101454390D01*
X219836286Y-101454390D02*
X219912476Y-101530580D01*
X219912476Y-101530580D02*
X219950571Y-101606771D01*
X219950571Y-101606771D02*
X219988667Y-101759152D01*
X219988667Y-101759152D02*
X219988667Y-101873438D01*
X219988667Y-101873438D02*
X219950571Y-102025819D01*
X219950571Y-102025819D02*
X219912476Y-102102009D01*
X219912476Y-102102009D02*
X219836286Y-102178200D01*
X219836286Y-102178200D02*
X219722000Y-102216295D01*
X219722000Y-102216295D02*
X219531524Y-102216295D01*
X217569619Y-114916295D02*
X217569619Y-114116295D01*
X217569619Y-114116295D02*
X217874381Y-114116295D01*
X217874381Y-114116295D02*
X217950571Y-114154390D01*
X217950571Y-114154390D02*
X217988666Y-114192485D01*
X217988666Y-114192485D02*
X218026762Y-114268676D01*
X218026762Y-114268676D02*
X218026762Y-114382961D01*
X218026762Y-114382961D02*
X217988666Y-114459152D01*
X217988666Y-114459152D02*
X217950571Y-114497247D01*
X217950571Y-114497247D02*
X217874381Y-114535342D01*
X217874381Y-114535342D02*
X217569619Y-114535342D01*
X218522000Y-114116295D02*
X218598190Y-114116295D01*
X218598190Y-114116295D02*
X218674381Y-114154390D01*
X218674381Y-114154390D02*
X218712476Y-114192485D01*
X218712476Y-114192485D02*
X218750571Y-114268676D01*
X218750571Y-114268676D02*
X218788666Y-114421057D01*
X218788666Y-114421057D02*
X218788666Y-114611533D01*
X218788666Y-114611533D02*
X218750571Y-114763914D01*
X218750571Y-114763914D02*
X218712476Y-114840104D01*
X218712476Y-114840104D02*
X218674381Y-114878200D01*
X218674381Y-114878200D02*
X218598190Y-114916295D01*
X218598190Y-114916295D02*
X218522000Y-114916295D01*
X218522000Y-114916295D02*
X218445809Y-114878200D01*
X218445809Y-114878200D02*
X218407714Y-114840104D01*
X218407714Y-114840104D02*
X218369619Y-114763914D01*
X218369619Y-114763914D02*
X218331523Y-114611533D01*
X218331523Y-114611533D02*
X218331523Y-114421057D01*
X218331523Y-114421057D02*
X218369619Y-114268676D01*
X218369619Y-114268676D02*
X218407714Y-114192485D01*
X218407714Y-114192485D02*
X218445809Y-114154390D01*
X218445809Y-114154390D02*
X218522000Y-114116295D01*
X219093428Y-114192485D02*
X219131524Y-114154390D01*
X219131524Y-114154390D02*
X219207714Y-114116295D01*
X219207714Y-114116295D02*
X219398190Y-114116295D01*
X219398190Y-114116295D02*
X219474381Y-114154390D01*
X219474381Y-114154390D02*
X219512476Y-114192485D01*
X219512476Y-114192485D02*
X219550571Y-114268676D01*
X219550571Y-114268676D02*
X219550571Y-114344866D01*
X219550571Y-114344866D02*
X219512476Y-114459152D01*
X219512476Y-114459152D02*
X219055333Y-114916295D01*
X219055333Y-114916295D02*
X219550571Y-114916295D01*
X220236286Y-114382961D02*
X220236286Y-114916295D01*
X220045810Y-114078200D02*
X219855333Y-114649628D01*
X219855333Y-114649628D02*
X220350572Y-114649628D01*
X207969619Y-109836295D02*
X207969619Y-109036295D01*
X207969619Y-109036295D02*
X208274381Y-109036295D01*
X208274381Y-109036295D02*
X208350571Y-109074390D01*
X208350571Y-109074390D02*
X208388666Y-109112485D01*
X208388666Y-109112485D02*
X208426762Y-109188676D01*
X208426762Y-109188676D02*
X208426762Y-109302961D01*
X208426762Y-109302961D02*
X208388666Y-109379152D01*
X208388666Y-109379152D02*
X208350571Y-109417247D01*
X208350571Y-109417247D02*
X208274381Y-109455342D01*
X208274381Y-109455342D02*
X207969619Y-109455342D01*
X208922000Y-109036295D02*
X208998190Y-109036295D01*
X208998190Y-109036295D02*
X209074381Y-109074390D01*
X209074381Y-109074390D02*
X209112476Y-109112485D01*
X209112476Y-109112485D02*
X209150571Y-109188676D01*
X209150571Y-109188676D02*
X209188666Y-109341057D01*
X209188666Y-109341057D02*
X209188666Y-109531533D01*
X209188666Y-109531533D02*
X209150571Y-109683914D01*
X209150571Y-109683914D02*
X209112476Y-109760104D01*
X209112476Y-109760104D02*
X209074381Y-109798200D01*
X209074381Y-109798200D02*
X208998190Y-109836295D01*
X208998190Y-109836295D02*
X208922000Y-109836295D01*
X208922000Y-109836295D02*
X208845809Y-109798200D01*
X208845809Y-109798200D02*
X208807714Y-109760104D01*
X208807714Y-109760104D02*
X208769619Y-109683914D01*
X208769619Y-109683914D02*
X208731523Y-109531533D01*
X208731523Y-109531533D02*
X208731523Y-109341057D01*
X208731523Y-109341057D02*
X208769619Y-109188676D01*
X208769619Y-109188676D02*
X208807714Y-109112485D01*
X208807714Y-109112485D02*
X208845809Y-109074390D01*
X208845809Y-109074390D02*
X208922000Y-109036295D01*
X209493428Y-109112485D02*
X209531524Y-109074390D01*
X209531524Y-109074390D02*
X209607714Y-109036295D01*
X209607714Y-109036295D02*
X209798190Y-109036295D01*
X209798190Y-109036295D02*
X209874381Y-109074390D01*
X209874381Y-109074390D02*
X209912476Y-109112485D01*
X209912476Y-109112485D02*
X209950571Y-109188676D01*
X209950571Y-109188676D02*
X209950571Y-109264866D01*
X209950571Y-109264866D02*
X209912476Y-109379152D01*
X209912476Y-109379152D02*
X209455333Y-109836295D01*
X209455333Y-109836295D02*
X209950571Y-109836295D01*
X210331524Y-109836295D02*
X210483905Y-109836295D01*
X210483905Y-109836295D02*
X210560095Y-109798200D01*
X210560095Y-109798200D02*
X210598191Y-109760104D01*
X210598191Y-109760104D02*
X210674381Y-109645819D01*
X210674381Y-109645819D02*
X210712476Y-109493438D01*
X210712476Y-109493438D02*
X210712476Y-109188676D01*
X210712476Y-109188676D02*
X210674381Y-109112485D01*
X210674381Y-109112485D02*
X210636286Y-109074390D01*
X210636286Y-109074390D02*
X210560095Y-109036295D01*
X210560095Y-109036295D02*
X210407714Y-109036295D01*
X210407714Y-109036295D02*
X210331524Y-109074390D01*
X210331524Y-109074390D02*
X210293429Y-109112485D01*
X210293429Y-109112485D02*
X210255333Y-109188676D01*
X210255333Y-109188676D02*
X210255333Y-109379152D01*
X210255333Y-109379152D02*
X210293429Y-109455342D01*
X210293429Y-109455342D02*
X210331524Y-109493438D01*
X210331524Y-109493438D02*
X210407714Y-109531533D01*
X210407714Y-109531533D02*
X210560095Y-109531533D01*
X210560095Y-109531533D02*
X210636286Y-109493438D01*
X210636286Y-109493438D02*
X210674381Y-109455342D01*
X210674381Y-109455342D02*
X210712476Y-109379152D01*
X208712476Y-98914390D02*
X208636286Y-98876295D01*
X208636286Y-98876295D02*
X208522000Y-98876295D01*
X208522000Y-98876295D02*
X208407714Y-98914390D01*
X208407714Y-98914390D02*
X208331524Y-98990580D01*
X208331524Y-98990580D02*
X208293429Y-99066771D01*
X208293429Y-99066771D02*
X208255333Y-99219152D01*
X208255333Y-99219152D02*
X208255333Y-99333438D01*
X208255333Y-99333438D02*
X208293429Y-99485819D01*
X208293429Y-99485819D02*
X208331524Y-99562009D01*
X208331524Y-99562009D02*
X208407714Y-99638200D01*
X208407714Y-99638200D02*
X208522000Y-99676295D01*
X208522000Y-99676295D02*
X208598191Y-99676295D01*
X208598191Y-99676295D02*
X208712476Y-99638200D01*
X208712476Y-99638200D02*
X208750572Y-99600104D01*
X208750572Y-99600104D02*
X208750572Y-99333438D01*
X208750572Y-99333438D02*
X208598191Y-99333438D01*
X209093429Y-99676295D02*
X209093429Y-98876295D01*
X209093429Y-98876295D02*
X209550572Y-99676295D01*
X209550572Y-99676295D02*
X209550572Y-98876295D01*
X209931524Y-99676295D02*
X209931524Y-98876295D01*
X209931524Y-98876295D02*
X210122000Y-98876295D01*
X210122000Y-98876295D02*
X210236286Y-98914390D01*
X210236286Y-98914390D02*
X210312476Y-98990580D01*
X210312476Y-98990580D02*
X210350571Y-99066771D01*
X210350571Y-99066771D02*
X210388667Y-99219152D01*
X210388667Y-99219152D02*
X210388667Y-99333438D01*
X210388667Y-99333438D02*
X210350571Y-99485819D01*
X210350571Y-99485819D02*
X210312476Y-99562009D01*
X210312476Y-99562009D02*
X210236286Y-99638200D01*
X210236286Y-99638200D02*
X210122000Y-99676295D01*
X210122000Y-99676295D02*
X209931524Y-99676295D01*
X217569619Y-112376295D02*
X217569619Y-111576295D01*
X217569619Y-111576295D02*
X217874381Y-111576295D01*
X217874381Y-111576295D02*
X217950571Y-111614390D01*
X217950571Y-111614390D02*
X217988666Y-111652485D01*
X217988666Y-111652485D02*
X218026762Y-111728676D01*
X218026762Y-111728676D02*
X218026762Y-111842961D01*
X218026762Y-111842961D02*
X217988666Y-111919152D01*
X217988666Y-111919152D02*
X217950571Y-111957247D01*
X217950571Y-111957247D02*
X217874381Y-111995342D01*
X217874381Y-111995342D02*
X217569619Y-111995342D01*
X218522000Y-111576295D02*
X218598190Y-111576295D01*
X218598190Y-111576295D02*
X218674381Y-111614390D01*
X218674381Y-111614390D02*
X218712476Y-111652485D01*
X218712476Y-111652485D02*
X218750571Y-111728676D01*
X218750571Y-111728676D02*
X218788666Y-111881057D01*
X218788666Y-111881057D02*
X218788666Y-112071533D01*
X218788666Y-112071533D02*
X218750571Y-112223914D01*
X218750571Y-112223914D02*
X218712476Y-112300104D01*
X218712476Y-112300104D02*
X218674381Y-112338200D01*
X218674381Y-112338200D02*
X218598190Y-112376295D01*
X218598190Y-112376295D02*
X218522000Y-112376295D01*
X218522000Y-112376295D02*
X218445809Y-112338200D01*
X218445809Y-112338200D02*
X218407714Y-112300104D01*
X218407714Y-112300104D02*
X218369619Y-112223914D01*
X218369619Y-112223914D02*
X218331523Y-112071533D01*
X218331523Y-112071533D02*
X218331523Y-111881057D01*
X218331523Y-111881057D02*
X218369619Y-111728676D01*
X218369619Y-111728676D02*
X218407714Y-111652485D01*
X218407714Y-111652485D02*
X218445809Y-111614390D01*
X218445809Y-111614390D02*
X218522000Y-111576295D01*
X219093428Y-111652485D02*
X219131524Y-111614390D01*
X219131524Y-111614390D02*
X219207714Y-111576295D01*
X219207714Y-111576295D02*
X219398190Y-111576295D01*
X219398190Y-111576295D02*
X219474381Y-111614390D01*
X219474381Y-111614390D02*
X219512476Y-111652485D01*
X219512476Y-111652485D02*
X219550571Y-111728676D01*
X219550571Y-111728676D02*
X219550571Y-111804866D01*
X219550571Y-111804866D02*
X219512476Y-111919152D01*
X219512476Y-111919152D02*
X219055333Y-112376295D01*
X219055333Y-112376295D02*
X219550571Y-112376295D01*
X219855333Y-111652485D02*
X219893429Y-111614390D01*
X219893429Y-111614390D02*
X219969619Y-111576295D01*
X219969619Y-111576295D02*
X220160095Y-111576295D01*
X220160095Y-111576295D02*
X220236286Y-111614390D01*
X220236286Y-111614390D02*
X220274381Y-111652485D01*
X220274381Y-111652485D02*
X220312476Y-111728676D01*
X220312476Y-111728676D02*
X220312476Y-111804866D01*
X220312476Y-111804866D02*
X220274381Y-111919152D01*
X220274381Y-111919152D02*
X219817238Y-112376295D01*
X219817238Y-112376295D02*
X220312476Y-112376295D01*
X207969619Y-107296295D02*
X207969619Y-106496295D01*
X207969619Y-106496295D02*
X208274381Y-106496295D01*
X208274381Y-106496295D02*
X208350571Y-106534390D01*
X208350571Y-106534390D02*
X208388666Y-106572485D01*
X208388666Y-106572485D02*
X208426762Y-106648676D01*
X208426762Y-106648676D02*
X208426762Y-106762961D01*
X208426762Y-106762961D02*
X208388666Y-106839152D01*
X208388666Y-106839152D02*
X208350571Y-106877247D01*
X208350571Y-106877247D02*
X208274381Y-106915342D01*
X208274381Y-106915342D02*
X207969619Y-106915342D01*
X208922000Y-106496295D02*
X208998190Y-106496295D01*
X208998190Y-106496295D02*
X209074381Y-106534390D01*
X209074381Y-106534390D02*
X209112476Y-106572485D01*
X209112476Y-106572485D02*
X209150571Y-106648676D01*
X209150571Y-106648676D02*
X209188666Y-106801057D01*
X209188666Y-106801057D02*
X209188666Y-106991533D01*
X209188666Y-106991533D02*
X209150571Y-107143914D01*
X209150571Y-107143914D02*
X209112476Y-107220104D01*
X209112476Y-107220104D02*
X209074381Y-107258200D01*
X209074381Y-107258200D02*
X208998190Y-107296295D01*
X208998190Y-107296295D02*
X208922000Y-107296295D01*
X208922000Y-107296295D02*
X208845809Y-107258200D01*
X208845809Y-107258200D02*
X208807714Y-107220104D01*
X208807714Y-107220104D02*
X208769619Y-107143914D01*
X208769619Y-107143914D02*
X208731523Y-106991533D01*
X208731523Y-106991533D02*
X208731523Y-106801057D01*
X208731523Y-106801057D02*
X208769619Y-106648676D01*
X208769619Y-106648676D02*
X208807714Y-106572485D01*
X208807714Y-106572485D02*
X208845809Y-106534390D01*
X208845809Y-106534390D02*
X208922000Y-106496295D01*
X209455333Y-106496295D02*
X209950571Y-106496295D01*
X209950571Y-106496295D02*
X209683905Y-106801057D01*
X209683905Y-106801057D02*
X209798190Y-106801057D01*
X209798190Y-106801057D02*
X209874381Y-106839152D01*
X209874381Y-106839152D02*
X209912476Y-106877247D01*
X209912476Y-106877247D02*
X209950571Y-106953438D01*
X209950571Y-106953438D02*
X209950571Y-107143914D01*
X209950571Y-107143914D02*
X209912476Y-107220104D01*
X209912476Y-107220104D02*
X209874381Y-107258200D01*
X209874381Y-107258200D02*
X209798190Y-107296295D01*
X209798190Y-107296295D02*
X209569619Y-107296295D01*
X209569619Y-107296295D02*
X209493428Y-107258200D01*
X209493428Y-107258200D02*
X209455333Y-107220104D01*
X210712476Y-107296295D02*
X210255333Y-107296295D01*
X210483905Y-107296295D02*
X210483905Y-106496295D01*
X210483905Y-106496295D02*
X210407714Y-106610580D01*
X210407714Y-106610580D02*
X210331524Y-106686771D01*
X210331524Y-106686771D02*
X210255333Y-106724866D01*
X217569619Y-122536295D02*
X217569619Y-121736295D01*
X217569619Y-121736295D02*
X217874381Y-121736295D01*
X217874381Y-121736295D02*
X217950571Y-121774390D01*
X217950571Y-121774390D02*
X217988666Y-121812485D01*
X217988666Y-121812485D02*
X218026762Y-121888676D01*
X218026762Y-121888676D02*
X218026762Y-122002961D01*
X218026762Y-122002961D02*
X217988666Y-122079152D01*
X217988666Y-122079152D02*
X217950571Y-122117247D01*
X217950571Y-122117247D02*
X217874381Y-122155342D01*
X217874381Y-122155342D02*
X217569619Y-122155342D01*
X218788666Y-122536295D02*
X218331523Y-122536295D01*
X218560095Y-122536295D02*
X218560095Y-121736295D01*
X218560095Y-121736295D02*
X218483904Y-121850580D01*
X218483904Y-121850580D02*
X218407714Y-121926771D01*
X218407714Y-121926771D02*
X218331523Y-121964866D01*
X219283905Y-121736295D02*
X219360095Y-121736295D01*
X219360095Y-121736295D02*
X219436286Y-121774390D01*
X219436286Y-121774390D02*
X219474381Y-121812485D01*
X219474381Y-121812485D02*
X219512476Y-121888676D01*
X219512476Y-121888676D02*
X219550571Y-122041057D01*
X219550571Y-122041057D02*
X219550571Y-122231533D01*
X219550571Y-122231533D02*
X219512476Y-122383914D01*
X219512476Y-122383914D02*
X219474381Y-122460104D01*
X219474381Y-122460104D02*
X219436286Y-122498200D01*
X219436286Y-122498200D02*
X219360095Y-122536295D01*
X219360095Y-122536295D02*
X219283905Y-122536295D01*
X219283905Y-122536295D02*
X219207714Y-122498200D01*
X219207714Y-122498200D02*
X219169619Y-122460104D01*
X219169619Y-122460104D02*
X219131524Y-122383914D01*
X219131524Y-122383914D02*
X219093428Y-122231533D01*
X219093428Y-122231533D02*
X219093428Y-122041057D01*
X219093428Y-122041057D02*
X219131524Y-121888676D01*
X219131524Y-121888676D02*
X219169619Y-121812485D01*
X219169619Y-121812485D02*
X219207714Y-121774390D01*
X219207714Y-121774390D02*
X219283905Y-121736295D01*
X220236286Y-122002961D02*
X220236286Y-122536295D01*
X220045810Y-121698200D02*
X219855333Y-122269628D01*
X219855333Y-122269628D02*
X220350572Y-122269628D01*
X217569619Y-107296295D02*
X217569619Y-106496295D01*
X217569619Y-106496295D02*
X217874381Y-106496295D01*
X217874381Y-106496295D02*
X217950571Y-106534390D01*
X217950571Y-106534390D02*
X217988666Y-106572485D01*
X217988666Y-106572485D02*
X218026762Y-106648676D01*
X218026762Y-106648676D02*
X218026762Y-106762961D01*
X218026762Y-106762961D02*
X217988666Y-106839152D01*
X217988666Y-106839152D02*
X217950571Y-106877247D01*
X217950571Y-106877247D02*
X217874381Y-106915342D01*
X217874381Y-106915342D02*
X217569619Y-106915342D01*
X218522000Y-106496295D02*
X218598190Y-106496295D01*
X218598190Y-106496295D02*
X218674381Y-106534390D01*
X218674381Y-106534390D02*
X218712476Y-106572485D01*
X218712476Y-106572485D02*
X218750571Y-106648676D01*
X218750571Y-106648676D02*
X218788666Y-106801057D01*
X218788666Y-106801057D02*
X218788666Y-106991533D01*
X218788666Y-106991533D02*
X218750571Y-107143914D01*
X218750571Y-107143914D02*
X218712476Y-107220104D01*
X218712476Y-107220104D02*
X218674381Y-107258200D01*
X218674381Y-107258200D02*
X218598190Y-107296295D01*
X218598190Y-107296295D02*
X218522000Y-107296295D01*
X218522000Y-107296295D02*
X218445809Y-107258200D01*
X218445809Y-107258200D02*
X218407714Y-107220104D01*
X218407714Y-107220104D02*
X218369619Y-107143914D01*
X218369619Y-107143914D02*
X218331523Y-106991533D01*
X218331523Y-106991533D02*
X218331523Y-106801057D01*
X218331523Y-106801057D02*
X218369619Y-106648676D01*
X218369619Y-106648676D02*
X218407714Y-106572485D01*
X218407714Y-106572485D02*
X218445809Y-106534390D01*
X218445809Y-106534390D02*
X218522000Y-106496295D01*
X219550571Y-107296295D02*
X219093428Y-107296295D01*
X219322000Y-107296295D02*
X219322000Y-106496295D01*
X219322000Y-106496295D02*
X219245809Y-106610580D01*
X219245809Y-106610580D02*
X219169619Y-106686771D01*
X219169619Y-106686771D02*
X219093428Y-106724866D01*
X219817238Y-106496295D02*
X220350572Y-106496295D01*
X220350572Y-106496295D02*
X220007714Y-107296295D01*
X207969619Y-125076295D02*
X207969619Y-124276295D01*
X207969619Y-124276295D02*
X208274381Y-124276295D01*
X208274381Y-124276295D02*
X208350571Y-124314390D01*
X208350571Y-124314390D02*
X208388666Y-124352485D01*
X208388666Y-124352485D02*
X208426762Y-124428676D01*
X208426762Y-124428676D02*
X208426762Y-124542961D01*
X208426762Y-124542961D02*
X208388666Y-124619152D01*
X208388666Y-124619152D02*
X208350571Y-124657247D01*
X208350571Y-124657247D02*
X208274381Y-124695342D01*
X208274381Y-124695342D02*
X207969619Y-124695342D01*
X208922000Y-124276295D02*
X208998190Y-124276295D01*
X208998190Y-124276295D02*
X209074381Y-124314390D01*
X209074381Y-124314390D02*
X209112476Y-124352485D01*
X209112476Y-124352485D02*
X209150571Y-124428676D01*
X209150571Y-124428676D02*
X209188666Y-124581057D01*
X209188666Y-124581057D02*
X209188666Y-124771533D01*
X209188666Y-124771533D02*
X209150571Y-124923914D01*
X209150571Y-124923914D02*
X209112476Y-125000104D01*
X209112476Y-125000104D02*
X209074381Y-125038200D01*
X209074381Y-125038200D02*
X208998190Y-125076295D01*
X208998190Y-125076295D02*
X208922000Y-125076295D01*
X208922000Y-125076295D02*
X208845809Y-125038200D01*
X208845809Y-125038200D02*
X208807714Y-125000104D01*
X208807714Y-125000104D02*
X208769619Y-124923914D01*
X208769619Y-124923914D02*
X208731523Y-124771533D01*
X208731523Y-124771533D02*
X208731523Y-124581057D01*
X208731523Y-124581057D02*
X208769619Y-124428676D01*
X208769619Y-124428676D02*
X208807714Y-124352485D01*
X208807714Y-124352485D02*
X208845809Y-124314390D01*
X208845809Y-124314390D02*
X208922000Y-124276295D01*
X209683905Y-124276295D02*
X209760095Y-124276295D01*
X209760095Y-124276295D02*
X209836286Y-124314390D01*
X209836286Y-124314390D02*
X209874381Y-124352485D01*
X209874381Y-124352485D02*
X209912476Y-124428676D01*
X209912476Y-124428676D02*
X209950571Y-124581057D01*
X209950571Y-124581057D02*
X209950571Y-124771533D01*
X209950571Y-124771533D02*
X209912476Y-124923914D01*
X209912476Y-124923914D02*
X209874381Y-125000104D01*
X209874381Y-125000104D02*
X209836286Y-125038200D01*
X209836286Y-125038200D02*
X209760095Y-125076295D01*
X209760095Y-125076295D02*
X209683905Y-125076295D01*
X209683905Y-125076295D02*
X209607714Y-125038200D01*
X209607714Y-125038200D02*
X209569619Y-125000104D01*
X209569619Y-125000104D02*
X209531524Y-124923914D01*
X209531524Y-124923914D02*
X209493428Y-124771533D01*
X209493428Y-124771533D02*
X209493428Y-124581057D01*
X209493428Y-124581057D02*
X209531524Y-124428676D01*
X209531524Y-124428676D02*
X209569619Y-124352485D01*
X209569619Y-124352485D02*
X209607714Y-124314390D01*
X209607714Y-124314390D02*
X209683905Y-124276295D01*
X210331524Y-125076295D02*
X210483905Y-125076295D01*
X210483905Y-125076295D02*
X210560095Y-125038200D01*
X210560095Y-125038200D02*
X210598191Y-125000104D01*
X210598191Y-125000104D02*
X210674381Y-124885819D01*
X210674381Y-124885819D02*
X210712476Y-124733438D01*
X210712476Y-124733438D02*
X210712476Y-124428676D01*
X210712476Y-124428676D02*
X210674381Y-124352485D01*
X210674381Y-124352485D02*
X210636286Y-124314390D01*
X210636286Y-124314390D02*
X210560095Y-124276295D01*
X210560095Y-124276295D02*
X210407714Y-124276295D01*
X210407714Y-124276295D02*
X210331524Y-124314390D01*
X210331524Y-124314390D02*
X210293429Y-124352485D01*
X210293429Y-124352485D02*
X210255333Y-124428676D01*
X210255333Y-124428676D02*
X210255333Y-124619152D01*
X210255333Y-124619152D02*
X210293429Y-124695342D01*
X210293429Y-124695342D02*
X210331524Y-124733438D01*
X210331524Y-124733438D02*
X210407714Y-124771533D01*
X210407714Y-124771533D02*
X210560095Y-124771533D01*
X210560095Y-124771533D02*
X210636286Y-124733438D01*
X210636286Y-124733438D02*
X210674381Y-124695342D01*
X210674381Y-124695342D02*
X210712476Y-124619152D01*
X207969619Y-114916295D02*
X207969619Y-114116295D01*
X207969619Y-114116295D02*
X208274381Y-114116295D01*
X208274381Y-114116295D02*
X208350571Y-114154390D01*
X208350571Y-114154390D02*
X208388666Y-114192485D01*
X208388666Y-114192485D02*
X208426762Y-114268676D01*
X208426762Y-114268676D02*
X208426762Y-114382961D01*
X208426762Y-114382961D02*
X208388666Y-114459152D01*
X208388666Y-114459152D02*
X208350571Y-114497247D01*
X208350571Y-114497247D02*
X208274381Y-114535342D01*
X208274381Y-114535342D02*
X207969619Y-114535342D01*
X209188666Y-114916295D02*
X208731523Y-114916295D01*
X208960095Y-114916295D02*
X208960095Y-114116295D01*
X208960095Y-114116295D02*
X208883904Y-114230580D01*
X208883904Y-114230580D02*
X208807714Y-114306771D01*
X208807714Y-114306771D02*
X208731523Y-114344866D01*
X209950571Y-114916295D02*
X209493428Y-114916295D01*
X209722000Y-114916295D02*
X209722000Y-114116295D01*
X209722000Y-114116295D02*
X209645809Y-114230580D01*
X209645809Y-114230580D02*
X209569619Y-114306771D01*
X209569619Y-114306771D02*
X209493428Y-114344866D01*
X210674381Y-114116295D02*
X210293429Y-114116295D01*
X210293429Y-114116295D02*
X210255333Y-114497247D01*
X210255333Y-114497247D02*
X210293429Y-114459152D01*
X210293429Y-114459152D02*
X210369619Y-114421057D01*
X210369619Y-114421057D02*
X210560095Y-114421057D01*
X210560095Y-114421057D02*
X210636286Y-114459152D01*
X210636286Y-114459152D02*
X210674381Y-114497247D01*
X210674381Y-114497247D02*
X210712476Y-114573438D01*
X210712476Y-114573438D02*
X210712476Y-114763914D01*
X210712476Y-114763914D02*
X210674381Y-114840104D01*
X210674381Y-114840104D02*
X210636286Y-114878200D01*
X210636286Y-114878200D02*
X210560095Y-114916295D01*
X210560095Y-114916295D02*
X210369619Y-114916295D01*
X210369619Y-114916295D02*
X210293429Y-114878200D01*
X210293429Y-114878200D02*
X210255333Y-114840104D01*
X217836285Y-94177247D02*
X217950571Y-94215342D01*
X217950571Y-94215342D02*
X217988666Y-94253438D01*
X217988666Y-94253438D02*
X218026762Y-94329628D01*
X218026762Y-94329628D02*
X218026762Y-94443914D01*
X218026762Y-94443914D02*
X217988666Y-94520104D01*
X217988666Y-94520104D02*
X217950571Y-94558200D01*
X217950571Y-94558200D02*
X217874381Y-94596295D01*
X217874381Y-94596295D02*
X217569619Y-94596295D01*
X217569619Y-94596295D02*
X217569619Y-93796295D01*
X217569619Y-93796295D02*
X217836285Y-93796295D01*
X217836285Y-93796295D02*
X217912476Y-93834390D01*
X217912476Y-93834390D02*
X217950571Y-93872485D01*
X217950571Y-93872485D02*
X217988666Y-93948676D01*
X217988666Y-93948676D02*
X217988666Y-94024866D01*
X217988666Y-94024866D02*
X217950571Y-94101057D01*
X217950571Y-94101057D02*
X217912476Y-94139152D01*
X217912476Y-94139152D02*
X217836285Y-94177247D01*
X217836285Y-94177247D02*
X217569619Y-94177247D01*
X218331523Y-94367723D02*
X218712476Y-94367723D01*
X218255333Y-94596295D02*
X218522000Y-93796295D01*
X218522000Y-93796295D02*
X218788666Y-94596295D01*
X218941047Y-93796295D02*
X219398190Y-93796295D01*
X219169618Y-94596295D02*
X219169618Y-93796295D01*
X219664857Y-94291533D02*
X220274381Y-94291533D01*
X217569619Y-119996295D02*
X217569619Y-119196295D01*
X217569619Y-119196295D02*
X217874381Y-119196295D01*
X217874381Y-119196295D02*
X217950571Y-119234390D01*
X217950571Y-119234390D02*
X217988666Y-119272485D01*
X217988666Y-119272485D02*
X218026762Y-119348676D01*
X218026762Y-119348676D02*
X218026762Y-119462961D01*
X218026762Y-119462961D02*
X217988666Y-119539152D01*
X217988666Y-119539152D02*
X217950571Y-119577247D01*
X217950571Y-119577247D02*
X217874381Y-119615342D01*
X217874381Y-119615342D02*
X217569619Y-119615342D01*
X218522000Y-119196295D02*
X218598190Y-119196295D01*
X218598190Y-119196295D02*
X218674381Y-119234390D01*
X218674381Y-119234390D02*
X218712476Y-119272485D01*
X218712476Y-119272485D02*
X218750571Y-119348676D01*
X218750571Y-119348676D02*
X218788666Y-119501057D01*
X218788666Y-119501057D02*
X218788666Y-119691533D01*
X218788666Y-119691533D02*
X218750571Y-119843914D01*
X218750571Y-119843914D02*
X218712476Y-119920104D01*
X218712476Y-119920104D02*
X218674381Y-119958200D01*
X218674381Y-119958200D02*
X218598190Y-119996295D01*
X218598190Y-119996295D02*
X218522000Y-119996295D01*
X218522000Y-119996295D02*
X218445809Y-119958200D01*
X218445809Y-119958200D02*
X218407714Y-119920104D01*
X218407714Y-119920104D02*
X218369619Y-119843914D01*
X218369619Y-119843914D02*
X218331523Y-119691533D01*
X218331523Y-119691533D02*
X218331523Y-119501057D01*
X218331523Y-119501057D02*
X218369619Y-119348676D01*
X218369619Y-119348676D02*
X218407714Y-119272485D01*
X218407714Y-119272485D02*
X218445809Y-119234390D01*
X218445809Y-119234390D02*
X218522000Y-119196295D01*
X219550571Y-119996295D02*
X219093428Y-119996295D01*
X219322000Y-119996295D02*
X219322000Y-119196295D01*
X219322000Y-119196295D02*
X219245809Y-119310580D01*
X219245809Y-119310580D02*
X219169619Y-119386771D01*
X219169619Y-119386771D02*
X219093428Y-119424866D01*
X220312476Y-119996295D02*
X219855333Y-119996295D01*
X220083905Y-119996295D02*
X220083905Y-119196295D01*
X220083905Y-119196295D02*
X220007714Y-119310580D01*
X220007714Y-119310580D02*
X219931524Y-119386771D01*
X219931524Y-119386771D02*
X219855333Y-119424866D01*
X218576818Y-164063047D02*
X218576818Y-163872571D01*
X218576818Y-163872571D02*
X218624437Y-163777333D01*
X218624437Y-163777333D02*
X218719675Y-163682095D01*
X218719675Y-163682095D02*
X218910151Y-163634476D01*
X218910151Y-163634476D02*
X219243484Y-163634476D01*
X219243484Y-163634476D02*
X219433960Y-163682095D01*
X219433960Y-163682095D02*
X219529199Y-163777333D01*
X219529199Y-163777333D02*
X219576818Y-163872571D01*
X219576818Y-163872571D02*
X219576818Y-164063047D01*
X219576818Y-164063047D02*
X219529199Y-164158285D01*
X219529199Y-164158285D02*
X219433960Y-164253523D01*
X219433960Y-164253523D02*
X219243484Y-164301142D01*
X219243484Y-164301142D02*
X218910151Y-164301142D01*
X218910151Y-164301142D02*
X218719675Y-164253523D01*
X218719675Y-164253523D02*
X218624437Y-164158285D01*
X218624437Y-164158285D02*
X218576818Y-164063047D01*
X219576818Y-163205904D02*
X218576818Y-163205904D01*
X218576818Y-163205904D02*
X219576818Y-162634476D01*
X219576818Y-162634476D02*
X218576818Y-162634476D01*
X208576818Y-164396380D02*
X208576818Y-164205904D01*
X208576818Y-164205904D02*
X208624437Y-164110666D01*
X208624437Y-164110666D02*
X208719675Y-164015428D01*
X208719675Y-164015428D02*
X208910151Y-163967809D01*
X208910151Y-163967809D02*
X209243484Y-163967809D01*
X209243484Y-163967809D02*
X209433960Y-164015428D01*
X209433960Y-164015428D02*
X209529199Y-164110666D01*
X209529199Y-164110666D02*
X209576818Y-164205904D01*
X209576818Y-164205904D02*
X209576818Y-164396380D01*
X209576818Y-164396380D02*
X209529199Y-164491618D01*
X209529199Y-164491618D02*
X209433960Y-164586856D01*
X209433960Y-164586856D02*
X209243484Y-164634475D01*
X209243484Y-164634475D02*
X208910151Y-164634475D01*
X208910151Y-164634475D02*
X208719675Y-164586856D01*
X208719675Y-164586856D02*
X208624437Y-164491618D01*
X208624437Y-164491618D02*
X208576818Y-164396380D01*
X209053008Y-163205904D02*
X209053008Y-163539237D01*
X209576818Y-163539237D02*
X208576818Y-163539237D01*
X208576818Y-163539237D02*
X208576818Y-163063047D01*
X209053008Y-162348761D02*
X209053008Y-162682094D01*
X209576818Y-162682094D02*
X208576818Y-162682094D01*
X208576818Y-162682094D02*
X208576818Y-162205904D01*
D11*
%TO.C,D15*%
X175294557Y-88411973D02*
X174073339Y-91434591D01*
X175294557Y-88411973D02*
X176870770Y-89048803D01*
X176870770Y-89048803D02*
X175649552Y-92071422D01*
%TO.C,S37*%
X250596813Y-129171213D02*
X255916226Y-142337224D01*
X255916226Y-142337224D02*
X269082237Y-137017811D01*
X263762824Y-123851800D02*
X250596813Y-129171213D01*
X269082237Y-137017811D02*
X263762824Y-123851800D01*
%TO.C,S14*%
X148662794Y-112283791D02*
X161828805Y-117603204D01*
X153982207Y-99117780D02*
X148662794Y-112283791D01*
X161828805Y-117603204D02*
X167148218Y-104437193D01*
X167148218Y-104437193D02*
X153982207Y-99117780D01*
%TO.C,S8*%
X111294551Y-103333690D02*
X124460562Y-108653103D01*
X116613964Y-90167679D02*
X111294551Y-103333690D01*
X124460562Y-108653103D02*
X129779975Y-95487092D01*
X129779975Y-95487092D02*
X116613964Y-90167679D01*
%TO.C,D30*%
X288741473Y-80098701D02*
X289962691Y-83121320D01*
X288741473Y-80098701D02*
X290317686Y-79461871D01*
X290317686Y-79461871D02*
X291538904Y-82484489D01*
%TO.C,D3*%
X97711060Y-77558366D02*
X96489842Y-80580984D01*
X97711060Y-77558366D02*
X99287273Y-78195196D01*
X99287273Y-78195196D02*
X98066055Y-81217815D01*
%TO.C,S4*%
X81578264Y-126164203D02*
X94744275Y-131483616D01*
X86897677Y-112998192D02*
X81578264Y-126164203D01*
X94744275Y-131483616D02*
X100063688Y-118317605D01*
X100063688Y-118317605D02*
X86897677Y-112998192D01*
%TO.C,S16*%
X159161762Y-137017812D02*
X172327773Y-142337225D01*
X164481175Y-123851801D02*
X159161762Y-137017812D01*
X172327773Y-142337225D02*
X177647186Y-129171214D01*
X177647186Y-129171214D02*
X164481175Y-123851801D01*
%TO.C,D5*%
X108210027Y-102292385D02*
X106988809Y-105315003D01*
X108210027Y-102292385D02*
X109786240Y-102929215D01*
X109786240Y-102929215D02*
X108565022Y-105951834D01*
%TO.C,D18*%
X192911050Y-95529498D02*
X191689832Y-98552116D01*
X192911050Y-95529498D02*
X194487263Y-96166328D01*
X194487263Y-96166328D02*
X193266045Y-99188947D01*
%TO.C,S6*%
X95813314Y-90931216D02*
X108979325Y-96250629D01*
X101132727Y-77765205D02*
X95813314Y-90931216D01*
X108979325Y-96250629D02*
X114298738Y-83084618D01*
X114298738Y-83084618D02*
X101132727Y-77765205D01*
%TO.C,S42*%
X236574545Y-155328737D02*
X241893958Y-168494748D01*
X241893958Y-168494748D02*
X255059969Y-163175335D01*
X249740556Y-150009324D02*
X236574545Y-155328737D01*
X255059969Y-163175335D02*
X249740556Y-150009324D01*
%TO.C,S26*%
X321062786Y-100701112D02*
X326382199Y-113867123D01*
X326382199Y-113867123D02*
X339548210Y-108547710D01*
X334228797Y-95381699D02*
X321062786Y-100701112D01*
X339548210Y-108547710D02*
X334228797Y-95381699D01*
%TO.C,D13*%
X161059506Y-123644961D02*
X159838288Y-126667579D01*
X161059506Y-123644961D02*
X162635719Y-124281791D01*
X162635719Y-124281791D02*
X161414501Y-127304410D01*
%TO.C,S20*%
X155567535Y-156057809D02*
X168733546Y-161377222D01*
X160886948Y-142891798D02*
X155567535Y-156057809D01*
X168733546Y-161377222D02*
X174052959Y-148211211D01*
X174052959Y-148211211D02*
X160886948Y-142891798D01*
%TO.C,S15*%
X155780320Y-94667300D02*
X168946331Y-99986713D01*
X161099733Y-81501289D02*
X155780320Y-94667300D01*
X168946331Y-99986713D02*
X174265744Y-86820702D01*
X174265744Y-86820702D02*
X161099733Y-81501289D01*
%TO.C,D17*%
X185793526Y-113145993D02*
X184572308Y-116168611D01*
X185793526Y-113145993D02*
X187369739Y-113782823D01*
X187369739Y-113782823D02*
X186148521Y-116805442D01*
%TO.C,S17*%
X166279287Y-119401318D02*
X179445298Y-124720731D01*
X171598700Y-106235307D02*
X166279287Y-119401318D01*
X179445298Y-124720731D02*
X184764711Y-111554720D01*
X184764711Y-111554720D02*
X171598700Y-106235307D01*
%TO.C,D28*%
X302976522Y-115331687D02*
X304197740Y-118354306D01*
X302976522Y-115331687D02*
X304552735Y-114694857D01*
X304552735Y-114694857D02*
X305773953Y-117717475D01*
%TO.C,S29*%
X298464024Y-95487092D02*
X303783437Y-108653103D01*
X303783437Y-108653103D02*
X316949448Y-103333690D01*
X311630035Y-90167679D02*
X298464024Y-95487092D01*
X316949448Y-103333690D02*
X311630035Y-90167679D01*
%TO.C,D35*%
X258490753Y-106665297D02*
X259711971Y-109687916D01*
X258490753Y-106665297D02*
X260066966Y-106028467D01*
X260066966Y-106028467D02*
X261288184Y-109051085D01*
%TO.C,D39*%
X233756735Y-96166330D02*
X234977953Y-99188949D01*
X233756735Y-96166330D02*
X235332948Y-95529500D01*
X235332948Y-95529500D02*
X236554166Y-98552118D01*
%TO.C,D27*%
X311340233Y-85312720D02*
X312561451Y-88335339D01*
X311340233Y-85312720D02*
X312916446Y-84675890D01*
X312916446Y-84675890D02*
X314137664Y-87698508D01*
%TO.C,S21*%
X173184029Y-163175336D02*
X186350040Y-168494749D01*
X178503442Y-150009325D02*
X173184029Y-163175336D01*
X186350040Y-168494749D02*
X191669453Y-155328738D01*
X191669453Y-155328738D02*
X178503442Y-150009325D01*
%TO.C,D11*%
X151984044Y-95387642D02*
X150762826Y-98410260D01*
X151984044Y-95387642D02*
X153560257Y-96024472D01*
X153560257Y-96024472D02*
X152339039Y-99047091D01*
%TO.C,D41*%
X251586012Y-150439314D02*
X252807230Y-153461933D01*
X251586012Y-150439314D02*
X253162225Y-149802484D01*
X253162225Y-149802484D02*
X254383443Y-152825102D01*
%TO.C,D25*%
X325575284Y-120545707D02*
X326796502Y-123568326D01*
X325575284Y-120545707D02*
X327151497Y-119908877D01*
X327151497Y-119908877D02*
X328372715Y-122931495D01*
%TO.C,S31*%
X284406293Y-111412864D02*
X289725706Y-124578875D01*
X289725706Y-124578875D02*
X302891717Y-119259462D01*
X297572304Y-106093451D02*
X284406293Y-111412864D01*
X302891717Y-119259462D02*
X297572304Y-106093451D01*
%TO.C,D23*%
X336074251Y-95811689D02*
X337295469Y-98834308D01*
X336074251Y-95811689D02*
X337650464Y-95174859D01*
X337650464Y-95174859D02*
X338871682Y-98197477D01*
%TO.C,D32*%
X274683742Y-96024473D02*
X275904960Y-99047092D01*
X274683742Y-96024473D02*
X276259955Y-95387643D01*
X276259955Y-95387643D02*
X277481173Y-98410261D01*
%TO.C,D20*%
X175081773Y-149802483D02*
X173860555Y-152825101D01*
X175081773Y-149802483D02*
X176657986Y-150439313D01*
X176657986Y-150439313D02*
X175436768Y-153461932D01*
%TO.C,S12*%
X139587331Y-84026475D02*
X152753342Y-89345888D01*
X144906744Y-70860464D02*
X139587331Y-84026475D01*
X152753342Y-89345888D02*
X158072755Y-76179877D01*
X158072755Y-76179877D02*
X144906744Y-70860464D01*
D10*
%TO.C,MCU1*%
X205232000Y-92963999D02*
X205232000Y-125984000D01*
X205232000Y-125984000D02*
X223012000Y-125984000D01*
X207772000Y-92964000D02*
X207772000Y-98044000D01*
X207772000Y-98044000D02*
X205232000Y-98044000D01*
X223012000Y-92963999D02*
X205232000Y-92963999D01*
X223012000Y-125984000D02*
X223012000Y-92963999D01*
D11*
%TO.C,PWR1*%
X210671999Y-163069000D02*
X210671999Y-163859000D01*
X211271999Y-164869000D02*
X216971999Y-164869000D01*
X212521998Y-162019000D02*
X214221999Y-162019000D01*
X215521999Y-162019000D02*
X215722000Y-162019000D01*
X217571999Y-163859000D02*
X217571999Y-163069000D01*
%TO.C,S25*%
X328180310Y-118317604D02*
X333499723Y-131483615D01*
X333499723Y-131483615D02*
X346665734Y-126164202D01*
X341346321Y-112998191D02*
X328180310Y-118317604D01*
X346665734Y-126164202D02*
X341346321Y-112998191D01*
%TO.C,D14*%
X168177033Y-106028467D02*
X166955815Y-109051085D01*
X168177033Y-106028467D02*
X169753246Y-106665297D01*
X169753246Y-106665297D02*
X168532028Y-109687916D01*
%TO.C,S13*%
X141545269Y-129900285D02*
X154711280Y-135219698D01*
X146864682Y-116734274D02*
X141545269Y-129900285D01*
X154711280Y-135219698D02*
X160030693Y-122053687D01*
X160030693Y-122053687D02*
X146864682Y-116734274D01*
%TO.C,S34*%
X268213305Y-122053688D02*
X273532718Y-135219699D01*
X273532718Y-135219699D02*
X286698729Y-129900286D01*
X281379316Y-116734275D02*
X268213305Y-122053688D01*
X286698729Y-129900286D02*
X281379316Y-116734275D01*
%TO.C,S23*%
X338679278Y-93583587D02*
X343998691Y-106749598D01*
X343998691Y-106749598D02*
X357164702Y-101430185D01*
X351845289Y-88264174D02*
X338679278Y-93583587D01*
X357164702Y-101430185D02*
X351845289Y-88264174D01*
%TO.C,D40*%
X269202505Y-143321787D02*
X270423723Y-146344406D01*
X269202505Y-143321787D02*
X270778718Y-142684957D01*
X270778718Y-142684957D02*
X271999936Y-145707575D01*
%TO.C,D21*%
X192698266Y-156920008D02*
X191477048Y-159942626D01*
X192698266Y-156920008D02*
X194274479Y-157556838D01*
X194274479Y-157556838D02*
X193053261Y-160579457D01*
%TO.C,D7*%
X123691262Y-114694857D02*
X122470044Y-117717475D01*
X123691262Y-114694857D02*
X125267475Y-115331687D01*
X125267475Y-115331687D02*
X124046257Y-118354306D01*
%TO.C,S7*%
X104177024Y-120950183D02*
X117343035Y-126269596D01*
X109496437Y-107784172D02*
X104177024Y-120950183D01*
X117343035Y-126269596D02*
X122662448Y-113103585D01*
X122662448Y-113103585D02*
X109496437Y-107784172D01*
%TO.C,S11*%
X132469805Y-101642969D02*
X145635816Y-106962382D01*
X137789218Y-88476958D02*
X132469805Y-101642969D01*
X145635816Y-106962382D02*
X150955229Y-93796371D01*
X150955229Y-93796371D02*
X137789218Y-88476958D01*
%TO.C,S24*%
X331561754Y-75967092D02*
X336881167Y-89133103D01*
X336881167Y-89133103D02*
X350047178Y-83813690D01*
X344727765Y-70647679D02*
X331561754Y-75967092D01*
X350047178Y-83813690D02*
X344727765Y-70647679D01*
%TO.C,D16*%
X178676000Y-130762486D02*
X177454782Y-133785104D01*
X178676000Y-130762486D02*
X180252213Y-131399316D01*
X180252213Y-131399316D02*
X179030995Y-134421935D01*
%TO.C,D1*%
X83476008Y-112791353D02*
X82254790Y-115813971D01*
X83476008Y-112791353D02*
X85052221Y-113428183D01*
X85052221Y-113428183D02*
X83831003Y-116450802D01*
%TO.C,D31*%
X281801266Y-113640965D02*
X283022484Y-116663584D01*
X281801266Y-113640965D02*
X283377479Y-113004135D01*
X283377479Y-113004135D02*
X284598697Y-116026753D01*
%TO.C,S39*%
X236361762Y-93938227D02*
X241681175Y-107104238D01*
X241681175Y-107104238D02*
X254847186Y-101784825D01*
X249527773Y-88618814D02*
X236361762Y-93938227D01*
X254847186Y-101784825D02*
X249527773Y-88618814D01*
%TO.C,D6*%
X115327552Y-84675891D02*
X114106334Y-87698509D01*
X115327552Y-84675891D02*
X116903765Y-85312721D01*
X116903765Y-85312721D02*
X115682547Y-88335340D01*
%TO.C,S10*%
X125352280Y-119259461D02*
X138518291Y-124578874D01*
X130671693Y-106093450D02*
X125352280Y-119259461D01*
X138518291Y-124578874D02*
X143837704Y-111412863D01*
X143837704Y-111412863D02*
X130671693Y-106093450D01*
%TO.C,D42*%
X233969518Y-157556839D02*
X235190736Y-160579458D01*
X233969518Y-157556839D02*
X235545731Y-156920009D01*
X235545731Y-156920009D02*
X236766949Y-159942627D01*
%TO.C,D29*%
X295858997Y-97715194D02*
X297080215Y-100737813D01*
X295858997Y-97715194D02*
X297435210Y-97078364D01*
X297435210Y-97078364D02*
X298656428Y-100100982D01*
%TO.C,D10*%
X144866518Y-113004136D02*
X143645300Y-116026754D01*
X144866518Y-113004136D02*
X146442731Y-113640966D01*
X146442731Y-113640966D02*
X145221513Y-116663585D01*
%TO.C,S35*%
X261095780Y-104437194D02*
X266415193Y-117603205D01*
X266415193Y-117603205D02*
X279581204Y-112283792D01*
X274261791Y-99117781D02*
X261095780Y-104437194D01*
X279581204Y-112283792D02*
X274261791Y-99117781D01*
%TO.C,S2*%
X71079295Y-101430185D02*
X84245306Y-106749598D01*
X76398708Y-88264174D02*
X71079295Y-101430185D01*
X84245306Y-106749598D02*
X89564719Y-93583587D01*
X89564719Y-93583587D02*
X76398708Y-88264174D01*
%TO.C,S18*%
X173396812Y-101784825D02*
X186562823Y-107104238D01*
X178716225Y-88618814D02*
X173396812Y-101784825D01*
X186562823Y-107104238D02*
X191882236Y-93938227D01*
X191882236Y-93938227D02*
X178716225Y-88618814D01*
%TO.C,S36*%
X253978256Y-86820700D02*
X259297669Y-99986711D01*
X259297669Y-99986711D02*
X272463680Y-94667298D01*
X267144267Y-81501287D02*
X253978256Y-86820700D01*
X272463680Y-94667298D02*
X267144267Y-81501287D01*
%TO.C,D8*%
X130808789Y-97078364D02*
X129587571Y-100100982D01*
X130808789Y-97078364D02*
X132385002Y-97715194D01*
X132385002Y-97715194D02*
X131163784Y-100737813D01*
%TO.C,D26*%
X318457759Y-102929214D02*
X319678977Y-105951833D01*
X318457759Y-102929214D02*
X320033972Y-102292384D01*
X320033972Y-102292384D02*
X321255190Y-105315002D01*
%TO.C,S1*%
X63961770Y-119046678D02*
X77127781Y-124366091D01*
X69281183Y-105880667D02*
X63961770Y-119046678D01*
X77127781Y-124366091D02*
X82447194Y-111200080D01*
X82447194Y-111200080D02*
X69281183Y-105880667D01*
%TO.C,D24*%
X328956727Y-78195196D02*
X330177945Y-81217815D01*
X328956727Y-78195196D02*
X330532940Y-77558366D01*
X330532940Y-77558366D02*
X331754158Y-80580984D01*
%TO.C,D2*%
X90593532Y-95174859D02*
X89372314Y-98197477D01*
X90593532Y-95174859D02*
X92169745Y-95811689D01*
X92169745Y-95811689D02*
X90948527Y-98834308D01*
%TO.C,S28*%
X305581550Y-113103585D02*
X310900963Y-126269596D01*
X310900963Y-126269596D02*
X324066974Y-120950183D01*
X318747561Y-107784172D02*
X305581550Y-113103585D01*
X324066974Y-120950183D02*
X318747561Y-107784172D01*
%TO.C,D4*%
X101092502Y-119908877D02*
X99871284Y-122931495D01*
X101092502Y-119908877D02*
X102668715Y-120545707D01*
X102668715Y-120545707D02*
X101447497Y-123568326D01*
%TO.C,S3*%
X78196821Y-83813691D02*
X91362832Y-89133104D01*
X83516234Y-70647680D02*
X78196821Y-83813691D01*
X91362832Y-89133104D02*
X96682245Y-75967093D01*
X96682245Y-75967093D02*
X83516234Y-70647680D01*
%TO.C,S19*%
X137951043Y-148940284D02*
X151117054Y-154259697D01*
X143270456Y-135774273D02*
X137951043Y-148940284D01*
X151117054Y-154259697D02*
X156436467Y-141093686D01*
X156436467Y-141093686D02*
X143270456Y-135774273D01*
%TO.C,S33*%
X270171243Y-76179877D02*
X275490656Y-89345888D01*
X275490656Y-89345888D02*
X288656667Y-84026475D01*
X283337254Y-70860464D02*
X270171243Y-76179877D01*
X288656667Y-84026475D02*
X283337254Y-70860464D01*
%TO.C,D19*%
X157465280Y-142684959D02*
X156244062Y-145707577D01*
X157465280Y-142684959D02*
X159041493Y-143321789D01*
X159041493Y-143321789D02*
X157820275Y-146344408D01*
%TO.C,S9*%
X118412076Y-85717197D02*
X131578087Y-91036610D01*
X123731489Y-72551186D02*
X118412076Y-85717197D01*
X131578087Y-91036610D02*
X136897500Y-77870599D01*
X136897500Y-77870599D02*
X123731489Y-72551186D01*
%TO.C,S30*%
X291346500Y-77870600D02*
X296665913Y-91036611D01*
X296665913Y-91036611D02*
X309831924Y-85717198D01*
X304512511Y-72551187D02*
X291346500Y-77870600D01*
X309831924Y-85717198D02*
X304512511Y-72551187D01*
%TO.C,S40*%
X271807533Y-141093686D02*
X277126946Y-154259697D01*
X277126946Y-154259697D02*
X290292957Y-148940284D01*
X284973544Y-135774273D02*
X271807533Y-141093686D01*
X290292957Y-148940284D02*
X284973544Y-135774273D01*
%TO.C,D22*%
X343191778Y-113428182D02*
X344412996Y-116450801D01*
X343191778Y-113428182D02*
X344767991Y-112791352D01*
X344767991Y-112791352D02*
X345989209Y-115813970D01*
%TO.C,S41*%
X254191040Y-148211211D02*
X259510453Y-161377222D01*
X259510453Y-161377222D02*
X272676464Y-156057809D01*
X267357051Y-142891798D02*
X254191040Y-148211211D01*
X272676464Y-156057809D02*
X267357051Y-142891798D01*
%TO.C,S32*%
X277288768Y-93796370D02*
X282608181Y-106962381D01*
X282608181Y-106962381D02*
X295774192Y-101642968D01*
X290454779Y-88476957D02*
X277288768Y-93796370D01*
X295774192Y-101642968D02*
X290454779Y-88476957D01*
%TO.C,S27*%
X313945260Y-83084620D02*
X319264673Y-96250631D01*
X319264673Y-96250631D02*
X332430684Y-90931218D01*
X327111271Y-77765207D02*
X313945260Y-83084620D01*
X332430684Y-90931218D02*
X327111271Y-77765207D01*
%TO.C,D37*%
X247991786Y-131399314D02*
X249213004Y-134421933D01*
X247991786Y-131399314D02*
X249567999Y-130762484D01*
X249567999Y-130762484D02*
X250789217Y-133785102D01*
%TO.C,D36*%
X251373228Y-89048804D02*
X252594446Y-92071423D01*
X251373228Y-89048804D02*
X252949441Y-88411974D01*
X252949441Y-88411974D02*
X254170659Y-91434592D01*
%TO.C,D33*%
X267566216Y-78407981D02*
X268787434Y-81430600D01*
X267566216Y-78407981D02*
X269142429Y-77771151D01*
X269142429Y-77771151D02*
X270363647Y-80793769D01*
%TO.C,S38*%
X243479287Y-111554720D02*
X248798700Y-124720731D01*
X248798700Y-124720731D02*
X261964711Y-119401318D01*
X256645298Y-106235307D02*
X243479287Y-111554720D01*
X261964711Y-119401318D02*
X256645298Y-106235307D01*
%TO.C,D12*%
X159101570Y-77771150D02*
X157880352Y-80793768D01*
X159101570Y-77771150D02*
X160677783Y-78407980D01*
X160677783Y-78407980D02*
X159456565Y-81430599D01*
%TO.C,S22*%
X345796804Y-111200079D02*
X351116217Y-124366090D01*
X351116217Y-124366090D02*
X364282228Y-119046677D01*
X358962815Y-105880666D02*
X345796804Y-111200079D01*
X364282228Y-119046677D02*
X358962815Y-105880666D01*
%TO.C,D9*%
X137926313Y-79461871D02*
X136705095Y-82484489D01*
X137926313Y-79461871D02*
X139502526Y-80098701D01*
X139502526Y-80098701D02*
X138281308Y-83121320D01*
%TO.C,S5*%
X88695790Y-108547710D02*
X101861801Y-113867123D01*
X94015203Y-95381699D02*
X88695790Y-108547710D01*
X101861801Y-113867123D02*
X107181214Y-100701112D01*
X107181214Y-100701112D02*
X94015203Y-95381699D01*
%TO.C,D34*%
X265608278Y-124281790D02*
X266829496Y-127304409D01*
X265608278Y-124281790D02*
X267184491Y-123644960D01*
X267184491Y-123644960D02*
X268405709Y-126667578D01*
%TO.C,D38*%
X240874260Y-113782821D02*
X242095478Y-116805440D01*
X240874260Y-113782821D02*
X242450473Y-113145991D01*
X242450473Y-113145991D02*
X243671691Y-116168609D01*
%TD*%
D12*
%TO.C,*%
X233121999Y-125222000D03*
%TD*%
%TO.C,*%
X233122000Y-109982000D03*
%TD*%
%TO.C,*%
X203121999Y-115062000D03*
%TD*%
%TO.C,*%
X203122000Y-120142000D03*
%TD*%
%TO.C,*%
X233122000Y-130302000D03*
%TD*%
%TO.C,*%
X203122000Y-109982000D03*
%TD*%
%TO.C,*%
X195122000Y-117602001D03*
%TD*%
%TO.C,*%
X233122000Y-127762000D03*
%TD*%
%TO.C,*%
X225122000Y-109982000D03*
%TD*%
%TO.C,*%
X225121999Y-115062000D03*
%TD*%
%TO.C,*%
X233121999Y-132841999D03*
%TD*%
%TO.C,*%
X203122000Y-122682000D03*
%TD*%
%TO.C,*%
X225121999Y-132842000D03*
%TD*%
%TO.C,*%
X195121999Y-120142001D03*
%TD*%
%TO.C,*%
X216121999Y-128744001D03*
%TD*%
D13*
%TO.C,MCU1*%
X206502000Y-94234000D03*
D12*
X206502000Y-96774000D03*
X206502000Y-99314000D03*
X206502000Y-101854000D03*
X206502000Y-104394000D03*
X206502000Y-106934000D03*
X206502000Y-109474000D03*
X206502000Y-112014000D03*
X206502000Y-114554000D03*
X206502000Y-117094000D03*
X206502000Y-119634000D03*
X206502000Y-122174000D03*
X206502000Y-124714000D03*
X221742000Y-94234000D03*
X221742000Y-96774000D03*
X221742000Y-99314000D03*
X221742000Y-101854000D03*
X221742000Y-104394000D03*
X221742000Y-106934000D03*
X221742000Y-109474000D03*
X221742000Y-112014000D03*
X221742000Y-114554000D03*
X221742000Y-117094000D03*
X221742000Y-119634000D03*
X221742000Y-122174000D03*
X221742000Y-124714000D03*
%TD*%
%TO.C,*%
X195121999Y-109982001D03*
%TD*%
%TO.C,*%
X233122000Y-117602000D03*
%TD*%
%TO.C,*%
X225121999Y-127762000D03*
%TD*%
%TO.C,*%
X233121999Y-112521999D03*
%TD*%
%TO.C,*%
X195121999Y-130302000D03*
%TD*%
%TO.C,*%
X203121999Y-125222000D03*
%TD*%
%TO.C,*%
X225122000Y-130302000D03*
%TD*%
%TO.C,*%
X203122000Y-112522000D03*
%TD*%
%TO.C,*%
X225121999Y-112522000D03*
%TD*%
%TO.C,*%
X195121999Y-112522001D03*
%TD*%
%TO.C,*%
X203122000Y-130302000D03*
%TD*%
%TO.C,*%
X233122000Y-120142000D03*
%TD*%
%TO.C,*%
X203121999Y-127762000D03*
%TD*%
%TO.C,*%
X195121999Y-115062001D03*
%TD*%
%TO.C,*%
X203122000Y-132842000D03*
%TD*%
%TO.C,*%
X225121999Y-125222000D03*
%TD*%
%TO.C,*%
X233121999Y-122681999D03*
%TD*%
%TO.C,*%
X225121999Y-122682000D03*
%TD*%
%TO.C,*%
X225121999Y-117602000D03*
%TD*%
%TO.C,*%
X233122000Y-115061999D03*
%TD*%
%TO.C,*%
X203121999Y-117602000D03*
%TD*%
%TO.C,*%
X195122000Y-132842000D03*
%TD*%
%TO.C,*%
X212122000Y-128744000D03*
%TD*%
%TO.C,*%
X195121999Y-122682001D03*
%TD*%
%TO.C,*%
X225122000Y-120142000D03*
%TD*%
%TO.C,*%
X195122000Y-127762001D03*
%TD*%
%TO.C,*%
X195121999Y-125222001D03*
%TD*%
%LPC*%
D14*
%TO.C,D15*%
X175797962Y-89435047D03*
X174861446Y-91753007D03*
%TD*%
D15*
%TO.C,S37*%
X254740014Y-135154848D03*
D16*
X255129431Y-134997513D03*
D17*
X259839525Y-133094512D03*
D16*
X264549619Y-131191511D03*
D15*
X264939036Y-131034176D03*
D18*
X256627111Y-138490844D03*
D19*
X255355454Y-132166716D03*
D18*
X262049704Y-138564897D03*
D19*
X260291570Y-127432917D03*
%TD*%
D15*
%TO.C,S14*%
X152805995Y-106300156D03*
D16*
X153195412Y-106457491D03*
D17*
X157905506Y-108360492D03*
D16*
X162615600Y-110263493D03*
D15*
X163005017Y-110420828D03*
D18*
X151846082Y-110010758D03*
D19*
X155324436Y-104578195D03*
D18*
X155695327Y-113830877D03*
D19*
X162163554Y-104601899D03*
%TD*%
D20*
%TO.C,*%
X233121999Y-125222000D03*
%TD*%
%TO.C,*%
X233122000Y-109982000D03*
%TD*%
D15*
%TO.C,S8*%
X115437752Y-97350055D03*
D16*
X115827169Y-97507390D03*
D17*
X120537263Y-99410391D03*
D16*
X125247357Y-101313392D03*
D15*
X125636774Y-101470727D03*
D18*
X114477839Y-101060657D03*
D19*
X117956193Y-95628094D03*
D18*
X118327084Y-104880776D03*
D19*
X124795311Y-95651798D03*
%TD*%
D21*
%TO.C,D30*%
X289814281Y-80484945D03*
X290750797Y-82802905D03*
%TD*%
D20*
%TO.C,*%
X203121999Y-115062000D03*
%TD*%
%TO.C,*%
X203122000Y-120142000D03*
%TD*%
D14*
%TO.C,D3*%
X98214465Y-78581440D03*
X97277949Y-80899400D03*
%TD*%
D22*
%TO.C,_139*%
X311934737Y-76185399D03*
X311945622Y-74938182D03*
X312808957Y-77075011D03*
X312835234Y-74063962D03*
D23*
X313445704Y-75574929D03*
D22*
X314056174Y-77085896D03*
X314082451Y-74074847D03*
X314945786Y-76211676D03*
X314956671Y-74964459D03*
%TD*%
D15*
%TO.C,S4*%
X85721465Y-120180568D03*
D16*
X86110882Y-120337903D03*
D17*
X90820976Y-122240904D03*
D16*
X95531070Y-124143905D03*
D15*
X95920487Y-124301240D03*
D18*
X84761552Y-123891170D03*
D19*
X88239906Y-118458607D03*
D18*
X88610797Y-127711289D03*
D19*
X95079024Y-118482311D03*
%TD*%
D15*
%TO.C,S16*%
X163304963Y-131034177D03*
D16*
X163694380Y-131191512D03*
D17*
X168404474Y-133094513D03*
D16*
X173114568Y-134997514D03*
D15*
X173503985Y-135154849D03*
D18*
X162345050Y-134744779D03*
D19*
X165823404Y-129312216D03*
D18*
X166194295Y-138564898D03*
D19*
X172662522Y-129335920D03*
%TD*%
D20*
%TO.C,*%
X233122000Y-130302000D03*
%TD*%
D14*
%TO.C,D5*%
X108713432Y-103315459D03*
X107776916Y-105633419D03*
%TD*%
%TO.C,D18*%
X193414455Y-96552572D03*
X192477939Y-98870532D03*
%TD*%
D15*
%TO.C,S6*%
X99956515Y-84947581D03*
D16*
X100345932Y-85104916D03*
D17*
X105056026Y-87007917D03*
D16*
X109766120Y-88910918D03*
D15*
X110155537Y-89068253D03*
D18*
X98996602Y-88658183D03*
D19*
X102474956Y-83225620D03*
D18*
X102845847Y-92478302D03*
D19*
X109314074Y-83249324D03*
%TD*%
D15*
%TO.C,S42*%
X240717746Y-161312372D03*
D16*
X241107163Y-161155037D03*
D17*
X245817257Y-159252036D03*
D16*
X250527351Y-157349035D03*
D15*
X250916768Y-157191700D03*
D18*
X242604843Y-164648368D03*
D19*
X241333186Y-158324240D03*
D18*
X248027436Y-164722421D03*
D19*
X246269302Y-153590441D03*
%TD*%
D20*
%TO.C,*%
X203122000Y-109982000D03*
%TD*%
D15*
%TO.C,S26*%
X325205987Y-106684747D03*
D16*
X325595404Y-106527412D03*
D17*
X330305498Y-104624411D03*
D16*
X335015592Y-102721410D03*
D15*
X335405009Y-102564075D03*
D18*
X327093084Y-110020743D03*
D19*
X325821427Y-103696615D03*
D18*
X332515677Y-110094796D03*
D19*
X330757543Y-98962816D03*
%TD*%
D22*
%TO.C,_132*%
X222992369Y-161744000D03*
X223469677Y-160591678D03*
X223469677Y-162896322D03*
X224621999Y-160114370D03*
D23*
X224621999Y-161744000D03*
D22*
X224621999Y-163373630D03*
X225774321Y-160591678D03*
X225774321Y-162896322D03*
X226251629Y-161744000D03*
%TD*%
D20*
%TO.C,*%
X195122000Y-117602001D03*
%TD*%
D14*
%TO.C,D13*%
X161562911Y-124668035D03*
X160626395Y-126985995D03*
%TD*%
D22*
%TO.C,_135*%
X113287326Y-74964459D03*
X114161546Y-74074847D03*
X113298211Y-76211676D03*
X115408763Y-74063962D03*
D23*
X114798293Y-75574929D03*
D22*
X114187823Y-77085896D03*
X116298375Y-74938182D03*
X115435040Y-77075011D03*
X116309260Y-76185399D03*
%TD*%
D15*
%TO.C,S20*%
X159710736Y-150074174D03*
D16*
X160100153Y-150231509D03*
D17*
X164810247Y-152134510D03*
D16*
X169520341Y-154037511D03*
D15*
X169909758Y-154194846D03*
D18*
X158750823Y-153784776D03*
D19*
X162229177Y-148352213D03*
D18*
X162600068Y-157604895D03*
D19*
X169068295Y-148375917D03*
%TD*%
D15*
%TO.C,S15*%
X159923521Y-88683665D03*
D16*
X160312938Y-88841000D03*
D17*
X165023032Y-90744001D03*
D16*
X169733126Y-92647002D03*
D15*
X170122543Y-92804337D03*
D18*
X158963608Y-92394267D03*
D19*
X162441962Y-86961704D03*
D18*
X162812853Y-96214386D03*
D19*
X169281080Y-86985408D03*
%TD*%
D20*
%TO.C,*%
X233122000Y-127762000D03*
%TD*%
D14*
%TO.C,D17*%
X186296931Y-114169067D03*
X185360415Y-116487027D03*
%TD*%
D15*
%TO.C,S17*%
X170422488Y-113417683D03*
D16*
X170811905Y-113575018D03*
D17*
X175521999Y-115478019D03*
D16*
X180232093Y-117381020D03*
D15*
X180621510Y-117538355D03*
D18*
X169462575Y-117128285D03*
D19*
X172940929Y-111695722D03*
D18*
X173311820Y-120948404D03*
D19*
X179780047Y-111719426D03*
%TD*%
D22*
%TO.C,_137*%
X235062993Y-88800656D03*
X235073878Y-87553439D03*
X235937213Y-89690268D03*
X235963490Y-86679219D03*
D23*
X236573960Y-88190186D03*
D22*
X237184430Y-89701153D03*
X237210707Y-86690104D03*
X238074042Y-88826933D03*
X238084927Y-87579716D03*
%TD*%
D21*
%TO.C,D28*%
X304049330Y-115717931D03*
X304985846Y-118035891D03*
%TD*%
D20*
%TO.C,*%
X225122000Y-109982000D03*
%TD*%
D15*
%TO.C,S29*%
X302607225Y-101470727D03*
D16*
X302996642Y-101313392D03*
D17*
X307706736Y-99410391D03*
D16*
X312416830Y-97507390D03*
D15*
X312806247Y-97350055D03*
D18*
X304494322Y-104806723D03*
D19*
X303222665Y-98482595D03*
D18*
X309916915Y-104880776D03*
D19*
X308158781Y-93748796D03*
%TD*%
D20*
%TO.C,*%
X225121999Y-115062000D03*
%TD*%
%TO.C,*%
X233121999Y-132841999D03*
%TD*%
D21*
%TO.C,D35*%
X259563561Y-107051541D03*
X260500077Y-109369501D03*
%TD*%
D22*
%TO.C,_136*%
X123341759Y-126158682D03*
X124215979Y-125269070D03*
X123352644Y-127405899D03*
X125463196Y-125258185D03*
D23*
X124852726Y-126769152D03*
D22*
X124242256Y-128280119D03*
X126352808Y-126132405D03*
X125489473Y-128269234D03*
X126363693Y-127379622D03*
%TD*%
D21*
%TO.C,D39*%
X234829543Y-96552574D03*
X235766059Y-98870534D03*
%TD*%
D20*
%TO.C,*%
X203122000Y-122682000D03*
%TD*%
D21*
%TO.C,D27*%
X312413041Y-85698964D03*
X313349557Y-88016924D03*
%TD*%
D15*
%TO.C,S21*%
X177327230Y-157191701D03*
D16*
X177716647Y-157349036D03*
D17*
X182426741Y-159252037D03*
D16*
X187136835Y-161155038D03*
D15*
X187526252Y-161312373D03*
D18*
X176367317Y-160902303D03*
D19*
X179845671Y-155469740D03*
D18*
X180216562Y-164722422D03*
D19*
X186684789Y-155493444D03*
%TD*%
D20*
%TO.C,*%
X225121999Y-132842000D03*
%TD*%
D14*
%TO.C,D11*%
X152487449Y-96410716D03*
X151550933Y-98728676D03*
%TD*%
D21*
%TO.C,D41*%
X252658820Y-150825558D03*
X253595336Y-153143518D03*
%TD*%
%TO.C,D25*%
X326648092Y-120931951D03*
X327584608Y-123249911D03*
%TD*%
D15*
%TO.C,S31*%
X288549494Y-117396499D03*
D16*
X288938911Y-117239164D03*
D17*
X293649005Y-115336163D03*
D16*
X298359099Y-113433162D03*
D15*
X298748516Y-113275827D03*
D18*
X290436591Y-120732495D03*
D19*
X289164934Y-114408367D03*
D18*
X295859184Y-120806548D03*
D19*
X294101050Y-109674568D03*
%TD*%
D21*
%TO.C,D23*%
X337147059Y-96197933D03*
X338083575Y-98515893D03*
%TD*%
%TO.C,D32*%
X275756550Y-96410717D03*
X276693066Y-98728677D03*
%TD*%
D14*
%TO.C,D20*%
X175585178Y-150825557D03*
X174648662Y-153143517D03*
%TD*%
D20*
%TO.C,*%
X195121999Y-120142001D03*
%TD*%
%TO.C,*%
X216121999Y-128744001D03*
%TD*%
D15*
%TO.C,S12*%
X143730532Y-78042840D03*
D16*
X144119949Y-78200175D03*
D17*
X148830043Y-80103176D03*
D16*
X153540137Y-82006177D03*
D15*
X153929554Y-82163512D03*
D18*
X142770619Y-81753442D03*
D19*
X146248973Y-76320879D03*
D18*
X146619864Y-85573561D03*
D19*
X153088091Y-76344583D03*
%TD*%
D24*
%TO.C,MCU1*%
X206502000Y-94234000D03*
D20*
X206502000Y-96774000D03*
X206502000Y-99314000D03*
X206502000Y-101854000D03*
X206502000Y-104394000D03*
X206502000Y-106934000D03*
X206502000Y-109474000D03*
X206502000Y-112014000D03*
X206502000Y-114554000D03*
X206502000Y-117094000D03*
X206502000Y-119634000D03*
X206502000Y-122174000D03*
X206502000Y-124714000D03*
X221742000Y-94234000D03*
X221742000Y-96774000D03*
X221742000Y-99314000D03*
X221742000Y-101854000D03*
X221742000Y-104394000D03*
X221742000Y-106934000D03*
X221742000Y-109474000D03*
X221742000Y-112014000D03*
X221742000Y-114554000D03*
X221742000Y-117094000D03*
X221742000Y-119634000D03*
X221742000Y-122174000D03*
X221742000Y-124714000D03*
%TD*%
D25*
%TO.C,PWR1*%
X217771999Y-162359000D03*
X210471999Y-162359000D03*
D26*
X215621999Y-163468999D03*
X212621999Y-163468999D03*
D25*
X217771998Y-164569000D03*
X210472000Y-164569000D03*
D27*
X211871999Y-161709000D03*
X214871999Y-161709000D03*
X216371999Y-161709000D03*
%TD*%
D15*
%TO.C,S25*%
X332323511Y-124301239D03*
D16*
X332712928Y-124143904D03*
D17*
X337423022Y-122240903D03*
D16*
X342133116Y-120337902D03*
D15*
X342522533Y-120180567D03*
D18*
X334210608Y-127637235D03*
D19*
X332938951Y-121313107D03*
D18*
X339633201Y-127711288D03*
D19*
X337875067Y-116579308D03*
%TD*%
D14*
%TO.C,D14*%
X168680438Y-107051541D03*
X167743922Y-109369501D03*
%TD*%
D20*
%TO.C,*%
X195121999Y-109982001D03*
%TD*%
D15*
%TO.C,S13*%
X145688470Y-123916650D03*
D16*
X146077887Y-124073985D03*
D17*
X150787981Y-125976986D03*
D16*
X155498075Y-127879987D03*
D15*
X155887492Y-128037322D03*
D18*
X144728557Y-127627252D03*
D19*
X148206911Y-122194689D03*
D18*
X148577802Y-131447371D03*
D19*
X155046029Y-122218393D03*
%TD*%
D22*
%TO.C,_129*%
X201992370Y-89744000D03*
X202469678Y-88591678D03*
X202469678Y-90896322D03*
X203622000Y-88114370D03*
D23*
X203622000Y-89744000D03*
D22*
X203622000Y-91373630D03*
X204774322Y-88591678D03*
X204774322Y-90896322D03*
X205251630Y-89744000D03*
%TD*%
D15*
%TO.C,S34*%
X272356506Y-128037323D03*
D16*
X272745923Y-127879988D03*
D17*
X277456017Y-125976987D03*
D16*
X282166111Y-124073986D03*
D15*
X282555528Y-123916651D03*
D18*
X274243603Y-131373319D03*
D19*
X272971946Y-125049191D03*
D18*
X279666196Y-131447372D03*
D19*
X277908062Y-120315392D03*
%TD*%
D15*
%TO.C,S23*%
X342822479Y-99567222D03*
D16*
X343211896Y-99409887D03*
D17*
X347921990Y-97506886D03*
D16*
X352632084Y-95603885D03*
D15*
X353021501Y-95446550D03*
D18*
X344709576Y-102903218D03*
D19*
X343437919Y-96579090D03*
D18*
X350132169Y-102977271D03*
D19*
X348374035Y-91845291D03*
%TD*%
D21*
%TO.C,D40*%
X270275313Y-143708031D03*
X271211829Y-146025991D03*
%TD*%
D20*
%TO.C,*%
X233122000Y-117602000D03*
%TD*%
D22*
%TO.C,_140*%
X301880306Y-127379620D03*
X301891191Y-126132403D03*
X302754526Y-128269232D03*
X302780803Y-125258183D03*
D23*
X303391273Y-126769150D03*
D22*
X304001743Y-128280117D03*
X304028020Y-125269068D03*
X304891355Y-127405897D03*
X304902240Y-126158680D03*
%TD*%
D20*
%TO.C,*%
X225121999Y-127762000D03*
%TD*%
D14*
%TO.C,D21*%
X193201671Y-157943082D03*
X192265155Y-160261042D03*
%TD*%
%TO.C,D7*%
X124194667Y-115717931D03*
X123258151Y-118035891D03*
%TD*%
D20*
%TO.C,*%
X233121999Y-112521999D03*
%TD*%
D15*
%TO.C,S7*%
X108320225Y-114966548D03*
D16*
X108709642Y-115123883D03*
D17*
X113419736Y-117026884D03*
D16*
X118129830Y-118929885D03*
D15*
X118519247Y-119087220D03*
D18*
X107360312Y-118677150D03*
D19*
X110838666Y-113244587D03*
D18*
X111209557Y-122497269D03*
D19*
X117677784Y-113268291D03*
%TD*%
D20*
%TO.C,*%
X195121999Y-130302000D03*
%TD*%
D15*
%TO.C,S11*%
X136613006Y-95659334D03*
D16*
X137002423Y-95816669D03*
D17*
X141712517Y-97719670D03*
D16*
X146422611Y-99622671D03*
D15*
X146812028Y-99780006D03*
D18*
X135653093Y-99369936D03*
D19*
X139131447Y-93937373D03*
D18*
X139502338Y-103190055D03*
D19*
X145970565Y-93961077D03*
%TD*%
D22*
%TO.C,_133*%
X190159072Y-87579716D03*
X191033292Y-86690104D03*
X190169957Y-88826933D03*
X192280509Y-86679219D03*
D23*
X191670039Y-88190186D03*
D22*
X191059569Y-89701153D03*
X193170121Y-87553439D03*
X192306786Y-89690268D03*
X193181006Y-88800656D03*
%TD*%
D15*
%TO.C,S24*%
X335704955Y-81950727D03*
D16*
X336094372Y-81793392D03*
D17*
X340804466Y-79890391D03*
D16*
X345514560Y-77987390D03*
D15*
X345903977Y-77830055D03*
D18*
X337592052Y-85286723D03*
D19*
X336320395Y-78962595D03*
D18*
X343014645Y-85360776D03*
D19*
X341256511Y-74228796D03*
%TD*%
D14*
%TO.C,D16*%
X179179405Y-131785560D03*
X178242889Y-134103520D03*
%TD*%
%TO.C,D1*%
X83979413Y-113814427D03*
X83042897Y-116132387D03*
%TD*%
D21*
%TO.C,D31*%
X282874074Y-114027209D03*
X283810590Y-116345169D03*
%TD*%
D20*
%TO.C,*%
X203121999Y-125222000D03*
%TD*%
D15*
%TO.C,S39*%
X240504963Y-99921862D03*
D16*
X240894380Y-99764527D03*
D17*
X245604474Y-97861526D03*
D16*
X250314568Y-95958525D03*
D15*
X250703985Y-95801190D03*
D18*
X242392060Y-103257858D03*
D19*
X241120403Y-96933730D03*
D18*
X247814653Y-103331911D03*
D19*
X246056519Y-92199931D03*
%TD*%
D20*
%TO.C,*%
X225122000Y-130302000D03*
%TD*%
D14*
%TO.C,D6*%
X115830957Y-85698965D03*
X114894441Y-88016925D03*
%TD*%
D15*
%TO.C,S10*%
X129495481Y-113275826D03*
D16*
X129884898Y-113433161D03*
D17*
X134594992Y-115336162D03*
D16*
X139305086Y-117239163D03*
D15*
X139694503Y-117396498D03*
D18*
X128535568Y-116986428D03*
D19*
X132013922Y-111553865D03*
D18*
X132384813Y-120806547D03*
D19*
X138853040Y-111577569D03*
%TD*%
D21*
%TO.C,D42*%
X235042326Y-157943083D03*
X235978842Y-160261043D03*
%TD*%
%TO.C,D29*%
X296931805Y-98101438D03*
X297868321Y-100419398D03*
%TD*%
D14*
%TO.C,D10*%
X145369923Y-114027210D03*
X144433407Y-116345170D03*
%TD*%
D15*
%TO.C,S35*%
X265238981Y-110420829D03*
D16*
X265628398Y-110263494D03*
D17*
X270338492Y-108360493D03*
D16*
X275048586Y-106457492D03*
D15*
X275438003Y-106300157D03*
D18*
X267126078Y-113756825D03*
D19*
X265854421Y-107432697D03*
D18*
X272548671Y-113830878D03*
D19*
X270790537Y-102698898D03*
%TD*%
D20*
%TO.C,*%
X203122000Y-112522000D03*
%TD*%
%TO.C,*%
X225121999Y-112522000D03*
%TD*%
D15*
%TO.C,S2*%
X75222496Y-95446550D03*
D16*
X75611913Y-95603885D03*
D17*
X80322007Y-97506886D03*
D16*
X85032101Y-99409887D03*
D15*
X85421518Y-99567222D03*
D18*
X74262583Y-99157152D03*
D19*
X77740937Y-93724589D03*
D18*
X78111828Y-102977271D03*
D19*
X84580055Y-93748293D03*
%TD*%
D15*
%TO.C,S18*%
X177540013Y-95801190D03*
D16*
X177929430Y-95958525D03*
D17*
X182639524Y-97861526D03*
D16*
X187349618Y-99764527D03*
D15*
X187739035Y-99921862D03*
D18*
X176580100Y-99511792D03*
D19*
X180058454Y-94079229D03*
D18*
X180429345Y-103331911D03*
D19*
X186897572Y-94102933D03*
%TD*%
D20*
%TO.C,*%
X195121999Y-112522001D03*
%TD*%
D15*
%TO.C,S36*%
X258121457Y-92804335D03*
D16*
X258510874Y-92647000D03*
D17*
X263220968Y-90743999D03*
D16*
X267931062Y-88840998D03*
D15*
X268320479Y-88683663D03*
D18*
X260008554Y-96140331D03*
D19*
X258736897Y-89816203D03*
D18*
X265431147Y-96214384D03*
D19*
X263673013Y-85082404D03*
%TD*%
D14*
%TO.C,D8*%
X131312194Y-98101438D03*
X130375678Y-100419398D03*
%TD*%
D20*
%TO.C,*%
X203122000Y-130302000D03*
%TD*%
D21*
%TO.C,D26*%
X319530567Y-103315458D03*
X320467083Y-105633418D03*
%TD*%
D15*
%TO.C,S1*%
X68104971Y-113063043D03*
D16*
X68494388Y-113220378D03*
D17*
X73204482Y-115123379D03*
D16*
X77914576Y-117026380D03*
D15*
X78303993Y-117183715D03*
D18*
X67145058Y-116773645D03*
D19*
X70623412Y-111341082D03*
D18*
X70994303Y-120593764D03*
D19*
X77462530Y-111364786D03*
%TD*%
D21*
%TO.C,D24*%
X330029535Y-78581440D03*
X330966051Y-80899400D03*
%TD*%
D20*
%TO.C,*%
X233122000Y-120142000D03*
%TD*%
D14*
%TO.C,D2*%
X91096937Y-96197933D03*
X90160421Y-98515893D03*
%TD*%
D20*
%TO.C,*%
X203121999Y-127762000D03*
%TD*%
D15*
%TO.C,S28*%
X309724751Y-119087220D03*
D16*
X310114168Y-118929885D03*
D17*
X314824262Y-117026884D03*
D16*
X319534356Y-115123883D03*
D15*
X319923773Y-114966548D03*
D18*
X311611848Y-122423216D03*
D19*
X310340191Y-116099088D03*
D18*
X317034441Y-122497269D03*
D19*
X315276307Y-111365289D03*
%TD*%
D14*
%TO.C,D4*%
X101595907Y-120931951D03*
X100659391Y-123249911D03*
%TD*%
D20*
%TO.C,*%
X195121999Y-115062001D03*
%TD*%
%TO.C,*%
X203122000Y-132842000D03*
%TD*%
D15*
%TO.C,S3*%
X82340022Y-77830056D03*
D16*
X82729439Y-77987391D03*
D17*
X87439533Y-79890392D03*
D16*
X92149627Y-81793393D03*
D15*
X92539044Y-81950728D03*
D18*
X81380109Y-81540658D03*
D19*
X84858463Y-76108095D03*
D18*
X85229354Y-85360777D03*
D19*
X91697581Y-76131799D03*
%TD*%
D15*
%TO.C,S19*%
X142094244Y-142956649D03*
D16*
X142483661Y-143113984D03*
D17*
X147193755Y-145016985D03*
D16*
X151903849Y-146919986D03*
D15*
X152293266Y-147077321D03*
D18*
X141134331Y-146667251D03*
D19*
X144612685Y-141234688D03*
D18*
X144983576Y-150487370D03*
D19*
X151451803Y-141258392D03*
%TD*%
D20*
%TO.C,*%
X225121999Y-125222000D03*
%TD*%
%TO.C,*%
X233121999Y-122681999D03*
%TD*%
D22*
%TO.C,_131*%
X201992369Y-161744000D03*
X202469677Y-160591678D03*
X202469677Y-162896322D03*
X203621999Y-160114370D03*
D23*
X203621999Y-161744000D03*
D22*
X203621999Y-163373630D03*
X204774321Y-160591678D03*
X204774321Y-162896322D03*
X205251629Y-161744000D03*
%TD*%
D20*
%TO.C,*%
X225121999Y-122682000D03*
%TD*%
D15*
%TO.C,S33*%
X274314444Y-82163512D03*
D16*
X274703861Y-82006177D03*
D17*
X279413955Y-80103176D03*
D16*
X284124049Y-78200175D03*
D15*
X284513466Y-78042840D03*
D18*
X276201541Y-85499508D03*
D19*
X274929884Y-79175380D03*
D18*
X281624134Y-85573561D03*
D19*
X279866000Y-74441581D03*
%TD*%
D14*
%TO.C,D19*%
X157968685Y-143708033D03*
X157032169Y-146025993D03*
%TD*%
D15*
%TO.C,S9*%
X122555277Y-79733562D03*
D16*
X122944694Y-79890897D03*
D17*
X127654788Y-81793898D03*
D16*
X132364882Y-83696899D03*
D15*
X132754299Y-83854234D03*
D18*
X121595364Y-83444164D03*
D19*
X125073718Y-78011601D03*
D18*
X125444609Y-87264283D03*
D19*
X131912836Y-78035305D03*
%TD*%
D15*
%TO.C,S30*%
X295489701Y-83854235D03*
D16*
X295879118Y-83696900D03*
D17*
X300589212Y-81793899D03*
D16*
X305299306Y-79890898D03*
D15*
X305688723Y-79733563D03*
D18*
X297376798Y-87190231D03*
D19*
X296105141Y-80866103D03*
D18*
X302799391Y-87264284D03*
D19*
X301041257Y-76132304D03*
%TD*%
D15*
%TO.C,S40*%
X275950734Y-147077321D03*
D16*
X276340151Y-146919986D03*
D17*
X281050245Y-145016985D03*
D16*
X285760339Y-143113984D03*
D15*
X286149756Y-142956649D03*
D18*
X277837831Y-150413317D03*
D19*
X276566174Y-144089189D03*
D18*
X283260424Y-150487370D03*
D19*
X281502290Y-139355390D03*
%TD*%
D21*
%TO.C,D22*%
X344264586Y-113814426D03*
X345201102Y-116132386D03*
%TD*%
D20*
%TO.C,*%
X225121999Y-117602000D03*
%TD*%
D15*
%TO.C,S41*%
X258334241Y-154194846D03*
D16*
X258723658Y-154037511D03*
D17*
X263433752Y-152134510D03*
D16*
X268143846Y-150231509D03*
D15*
X268533263Y-150074174D03*
D18*
X260221338Y-157530842D03*
D19*
X258949681Y-151206714D03*
D18*
X265643931Y-157604895D03*
D19*
X263885797Y-146472915D03*
%TD*%
D15*
%TO.C,S32*%
X281431969Y-99780005D03*
D16*
X281821386Y-99622670D03*
D17*
X286531480Y-97719669D03*
D16*
X291241574Y-95816668D03*
D15*
X291630991Y-95659333D03*
D18*
X283319066Y-103116001D03*
D19*
X282047409Y-96791873D03*
D18*
X288741659Y-103190054D03*
D19*
X286983525Y-92058074D03*
%TD*%
D15*
%TO.C,S27*%
X318088461Y-89068255D03*
D16*
X318477878Y-88910920D03*
D17*
X323187972Y-87007919D03*
D16*
X327898066Y-85104918D03*
D15*
X328287483Y-84947583D03*
D18*
X319975558Y-92404251D03*
D19*
X318703901Y-86080123D03*
D18*
X325398151Y-92478304D03*
D19*
X323640017Y-81346324D03*
%TD*%
D20*
%TO.C,*%
X233122000Y-115061999D03*
%TD*%
%TO.C,*%
X203121999Y-117602000D03*
%TD*%
D22*
%TO.C,_138*%
X232873303Y-169604773D03*
X232884188Y-168357556D03*
X233747523Y-170494385D03*
X233773800Y-167483336D03*
D23*
X234384270Y-168994303D03*
D22*
X234994740Y-170505270D03*
X235021017Y-167494221D03*
X235884352Y-169631050D03*
X235895237Y-168383833D03*
%TD*%
D21*
%TO.C,D37*%
X249064594Y-131785558D03*
X250001110Y-134103518D03*
%TD*%
D20*
%TO.C,*%
X195122000Y-132842000D03*
%TD*%
%TO.C,*%
X212122000Y-128744000D03*
%TD*%
D21*
%TO.C,D36*%
X252446036Y-89435048D03*
X253382552Y-91753008D03*
%TD*%
D20*
%TO.C,*%
X195121999Y-122682001D03*
%TD*%
D22*
%TO.C,_130*%
X222992370Y-89744000D03*
X223469678Y-88591678D03*
X223469678Y-90896322D03*
X224622000Y-88114370D03*
D23*
X224622000Y-89744000D03*
D22*
X224622000Y-91373630D03*
X225774322Y-88591678D03*
X225774322Y-90896322D03*
X226251630Y-89744000D03*
%TD*%
D21*
%TO.C,D33*%
X268639024Y-78794225D03*
X269575540Y-81112185D03*
%TD*%
D15*
%TO.C,S38*%
X247622488Y-117538355D03*
D16*
X248011905Y-117381020D03*
D17*
X252721999Y-115478019D03*
D16*
X257432093Y-113575018D03*
D15*
X257821510Y-113417683D03*
D18*
X249509585Y-120874351D03*
D19*
X248237928Y-114550223D03*
D18*
X254932178Y-120948404D03*
D19*
X253174044Y-109816424D03*
%TD*%
D14*
%TO.C,D12*%
X159604975Y-78794224D03*
X158668459Y-81112184D03*
%TD*%
D15*
%TO.C,S22*%
X349940005Y-117183714D03*
D16*
X350329422Y-117026379D03*
D17*
X355039516Y-115123378D03*
D16*
X359749610Y-113220377D03*
D15*
X360139027Y-113063042D03*
D18*
X351827102Y-120519710D03*
D19*
X350555445Y-114195582D03*
D18*
X357249695Y-120593763D03*
D19*
X355491561Y-109461783D03*
%TD*%
D20*
%TO.C,*%
X225122000Y-120142000D03*
%TD*%
D14*
%TO.C,D9*%
X138429718Y-80484945D03*
X137493202Y-82802905D03*
%TD*%
D20*
%TO.C,*%
X195122000Y-127762001D03*
%TD*%
D22*
%TO.C,_134*%
X192348763Y-168383833D03*
X193222983Y-167494221D03*
X192359648Y-169631050D03*
X194470200Y-167483336D03*
D23*
X193859730Y-168994303D03*
D22*
X193249260Y-170505270D03*
X195359812Y-168357556D03*
X194496477Y-170494385D03*
X195370697Y-169604773D03*
%TD*%
D15*
%TO.C,S5*%
X92838991Y-102564075D03*
D16*
X93228408Y-102721410D03*
D17*
X97938502Y-104624411D03*
D16*
X102648596Y-106527412D03*
D15*
X103038013Y-106684747D03*
D18*
X91879078Y-106274677D03*
D19*
X95357432Y-100842114D03*
D18*
X95728323Y-110094796D03*
D19*
X102196550Y-100865818D03*
%TD*%
D21*
%TO.C,D34*%
X266681086Y-124668034D03*
X267617602Y-126985994D03*
%TD*%
D20*
%TO.C,*%
X195121999Y-125222001D03*
%TD*%
D21*
%TO.C,D38*%
X241947068Y-114169065D03*
X242883584Y-116487025D03*
%TD*%
%LPD*%
M02*
