%TF.GenerationSoftware,KiCad,Pcbnew,8.0.3*%
%TF.CreationDate,2024-06-30T01:12:36+02:00*%
%TF.ProjectId,kbd,6b62642e-6b69-4636-9164-5f7063625858,2*%
%TF.SameCoordinates,Original*%
%TF.FileFunction,Profile,NP*%
%FSLAX46Y46*%
G04 Gerber Fmt 4.6, Leading zero omitted, Abs format (unit mm)*
G04 Created by KiCad (PCBNEW 8.0.3) date 2024-06-30 01:12:36*
%MOMM*%
%LPD*%
G01*
G04 APERTURE LIST*
%TA.AperFunction,Profile*%
%ADD10C,0.150000*%
%TD*%
G04 APERTURE END LIST*
D10*
X196522000Y-175185404D02*
X188271987Y-175185404D01*
X221122000Y-90604000D02*
G75*
G02*
X219521999Y-92204000I-1599900J-100D01*
G01*
X82361223Y-65418887D02*
X142967815Y-64176532D01*
X199423282Y-86721125D02*
X205521999Y-86721125D01*
X229321999Y-134244000D02*
X228922000Y-134244000D01*
X58754608Y-121256986D02*
X80910521Y-66419179D01*
X198121999Y-167344000D02*
G75*
G02*
X199722000Y-165743999I1600101J-100D01*
G01*
X198121999Y-167344000D02*
X198122000Y-173585405D01*
X200121999Y-107944000D02*
G75*
G02*
X199322000Y-108743999I-799899J-100D01*
G01*
X230121999Y-107944000D02*
X230122000Y-93544000D01*
X208721999Y-92204001D02*
X219521999Y-92203999D01*
X205521999Y-86721125D02*
G75*
G02*
X207121975Y-88321125I-99J-1600075D01*
G01*
X230121999Y-162444000D02*
G75*
G02*
X229322000Y-163243999I-799899J-100D01*
G01*
X187672616Y-175068898D02*
X59638732Y-123339851D01*
X207122000Y-88321125D02*
X207122000Y-90604000D01*
X285276182Y-64176533D02*
X345882774Y-65418886D01*
X228922000Y-163243999D02*
G75*
G02*
X228122001Y-162444001I-100J799899D01*
G01*
X228922000Y-163243999D02*
X229322000Y-163244001D01*
X231721999Y-175185404D02*
G75*
G02*
X230121996Y-173585405I-99J1599904D01*
G01*
X200121999Y-162443999D02*
X200121999Y-135044000D01*
X222722000Y-86721126D02*
X228820715Y-86721125D01*
X199321999Y-134244000D02*
G75*
G02*
X200122000Y-135044000I1J-800000D01*
G01*
X347333477Y-66419179D02*
X369489390Y-121256986D01*
X198921999Y-163243999D02*
X199322000Y-163244000D01*
X239972012Y-175185404D02*
X231721999Y-175185404D01*
X198121999Y-135044000D02*
G75*
G02*
X198921999Y-134243999I800101J-100D01*
G01*
X200121999Y-107944000D02*
X200121999Y-93544000D01*
X229321999Y-92744000D02*
X228921999Y-92744000D01*
X198922000Y-108744000D02*
X199322000Y-108744001D01*
X228522000Y-165744000D02*
X199722000Y-165744000D01*
X198121999Y-93544000D02*
X198121999Y-107943999D01*
X188271987Y-175185404D02*
G75*
G02*
X187672615Y-175068901I-87J1599604D01*
G01*
X228122000Y-135044000D02*
X228122000Y-162444001D01*
X198922000Y-108744000D02*
G75*
G02*
X198121900Y-107943999I-100J800000D01*
G01*
X229321999Y-134244000D02*
G75*
G02*
X230121900Y-135044000I-99J-800000D01*
G01*
X228522000Y-165744000D02*
G75*
G02*
X230122000Y-167344001I-100J-1600100D01*
G01*
X199322000Y-92744000D02*
X198921999Y-92744000D01*
X198121999Y-93544000D02*
G75*
G02*
X198921999Y-92743999I800101J-100D01*
G01*
X199423282Y-86721125D02*
G75*
G02*
X198823908Y-86604629I-82J1599725D01*
G01*
X221122000Y-90604000D02*
X221122000Y-88321125D01*
X59638733Y-123339851D02*
X59638733Y-123339851D01*
X59638733Y-123339851D01*
X59638733Y-123339851D01*
X59638733Y-123339851D01*
X59638733Y-123339851D01*
X59638733Y-123339852D01*
X59638733Y-123339852D01*
X59638733Y-123339852D01*
X59638733Y-123339852D01*
X59638733Y-123339852D01*
X59638733Y-123339852D01*
X59638733Y-123339852D01*
X59638732Y-123339852D01*
X59638732Y-123339852D01*
X59638732Y-123339852D01*
X59638732Y-123339852D01*
X59638732Y-123339852D01*
X59638732Y-123339852D01*
X59638732Y-123339852D01*
X59638732Y-123339852D01*
X59638732Y-123339852D01*
X59638732Y-123339852D01*
X59638732Y-123339852D01*
X59638732Y-123339852D01*
X59638731Y-123339852D01*
X59638731Y-123339852D01*
X59638731Y-123339852D01*
X59638731Y-123339852D01*
X59638731Y-123339852D01*
X59638731Y-123339852D01*
X59638731Y-123339851D01*
X59638731Y-123339851D01*
X59638731Y-123339851D01*
X59638731Y-123339851D01*
X59638731Y-123339851D01*
X59638731Y-123339851D01*
X59638731Y-123339851D02*
X59638731Y-123339851D01*
X59638731Y-123339851D01*
X59638731Y-123339851D01*
X59638731Y-123339851D01*
X59638731Y-123339851D01*
X59638731Y-123339851D01*
X59638731Y-123339850D01*
X59638731Y-123339850D01*
X59638731Y-123339850D01*
X59638731Y-123339850D01*
X59638731Y-123339850D01*
X59638732Y-123339850D01*
X59638732Y-123339850D01*
X59638732Y-123339850D01*
X59638732Y-123339850D01*
X59638732Y-123339850D01*
X59638732Y-123339850D01*
X59638732Y-123339850D01*
X59638732Y-123339850D01*
X59638732Y-123339850D01*
X59638732Y-123339850D01*
X59638732Y-123339850D01*
X59638732Y-123339850D01*
X59638733Y-123339850D01*
X59638733Y-123339850D01*
X59638733Y-123339850D01*
X59638733Y-123339850D01*
X59638733Y-123339850D01*
X59638733Y-123339850D01*
X59638733Y-123339851D01*
X59638733Y-123339851D01*
X59638733Y-123339851D01*
X59638733Y-123339851D01*
X59638733Y-123339851D01*
X59638733Y-123339851D01*
X59638733Y-123339851D01*
X142967815Y-64176531D02*
G75*
G02*
X143599975Y-64292706I32685J-1600169D01*
G01*
X229321999Y-92744000D02*
G75*
G02*
X230122000Y-93544000I1J-800000D01*
G01*
X240571382Y-175068897D02*
G75*
G02*
X239972012Y-175185393I-599482J1484197D01*
G01*
X80910521Y-66419179D02*
G75*
G02*
X82361225Y-65418897I1483379J-599221D01*
G01*
X228121999Y-93544000D02*
G75*
G02*
X228921999Y-92743999I800101J-100D01*
G01*
X221122000Y-88321125D02*
G75*
G02*
X222722000Y-86721200I1600000J-75D01*
G01*
X229420087Y-86604619D02*
G75*
G02*
X228820715Y-86721145I-599487J1483819D01*
G01*
X200121999Y-162443999D02*
G75*
G02*
X199322000Y-163243999I-799899J-101D01*
G01*
X369489390Y-121256986D02*
G75*
G02*
X368605258Y-123339832I-1483590J-599314D01*
G01*
X229420087Y-86604619D02*
X284644022Y-64292701D01*
X80910522Y-66419179D02*
X80910522Y-66419179D01*
X80910522Y-66419179D01*
X80910522Y-66419179D01*
X80910522Y-66419179D01*
X80910522Y-66419179D01*
X80910522Y-66419180D01*
X80910522Y-66419180D01*
X80910522Y-66419180D01*
X80910522Y-66419180D01*
X80910522Y-66419180D01*
X80910522Y-66419180D01*
X80910522Y-66419180D01*
X80910521Y-66419180D01*
X80910521Y-66419180D01*
X80910521Y-66419180D01*
X80910521Y-66419180D01*
X80910521Y-66419180D01*
X80910521Y-66419180D01*
X80910521Y-66419180D01*
X80910521Y-66419180D01*
X80910521Y-66419180D01*
X80910521Y-66419180D01*
X80910521Y-66419180D01*
X80910521Y-66419180D01*
X80910520Y-66419180D01*
X80910520Y-66419180D01*
X80910520Y-66419180D01*
X80910520Y-66419180D01*
X80910520Y-66419180D01*
X80910520Y-66419180D01*
X80910520Y-66419179D01*
X80910520Y-66419179D01*
X80910520Y-66419179D01*
X80910520Y-66419179D01*
X80910520Y-66419179D01*
X80910520Y-66419179D01*
X80910520Y-66419179D02*
X80910520Y-66419179D01*
X80910520Y-66419179D01*
X80910520Y-66419179D01*
X80910520Y-66419179D01*
X80910520Y-66419179D01*
X80910520Y-66419179D01*
X80910520Y-66419178D01*
X80910520Y-66419178D01*
X80910520Y-66419178D01*
X80910520Y-66419178D01*
X80910520Y-66419178D01*
X80910521Y-66419178D01*
X80910521Y-66419178D01*
X80910521Y-66419178D01*
X80910521Y-66419178D01*
X80910521Y-66419178D01*
X80910521Y-66419178D01*
X80910521Y-66419178D01*
X80910521Y-66419178D01*
X80910521Y-66419178D01*
X80910521Y-66419178D01*
X80910521Y-66419178D01*
X80910521Y-66419178D01*
X80910522Y-66419178D01*
X80910522Y-66419178D01*
X80910522Y-66419178D01*
X80910522Y-66419178D01*
X80910522Y-66419178D01*
X80910522Y-66419178D01*
X80910522Y-66419179D01*
X80910522Y-66419179D01*
X80910522Y-66419179D01*
X80910522Y-66419179D01*
X80910522Y-66419179D01*
X80910522Y-66419179D01*
X80910522Y-66419179D01*
X368605267Y-123339851D02*
X368605267Y-123339851D01*
X368605267Y-123339851D01*
X368605267Y-123339851D01*
X368605267Y-123339851D01*
X368605267Y-123339851D01*
X368605267Y-123339852D01*
X368605267Y-123339852D01*
X368605267Y-123339852D01*
X368605267Y-123339852D01*
X368605267Y-123339852D01*
X368605267Y-123339852D01*
X368605267Y-123339852D01*
X368605266Y-123339852D01*
X368605266Y-123339852D01*
X368605266Y-123339852D01*
X368605266Y-123339852D01*
X368605266Y-123339852D01*
X368605266Y-123339852D01*
X368605266Y-123339852D01*
X368605266Y-123339852D01*
X368605266Y-123339852D01*
X368605266Y-123339852D01*
X368605266Y-123339852D01*
X368605266Y-123339852D01*
X368605265Y-123339852D01*
X368605265Y-123339852D01*
X368605265Y-123339852D01*
X368605265Y-123339852D01*
X368605265Y-123339852D01*
X368605265Y-123339852D01*
X368605265Y-123339851D01*
X368605265Y-123339851D01*
X368605265Y-123339851D01*
X368605265Y-123339851D01*
X368605265Y-123339851D01*
X368605265Y-123339851D01*
X368605265Y-123339851D02*
X368605265Y-123339851D01*
X368605265Y-123339851D01*
X368605265Y-123339851D01*
X368605265Y-123339851D01*
X368605265Y-123339851D01*
X368605265Y-123339851D01*
X368605265Y-123339850D01*
X368605265Y-123339850D01*
X368605265Y-123339850D01*
X368605265Y-123339850D01*
X368605265Y-123339850D01*
X368605266Y-123339850D01*
X368605266Y-123339850D01*
X368605266Y-123339850D01*
X368605266Y-123339850D01*
X368605266Y-123339850D01*
X368605266Y-123339850D01*
X368605266Y-123339850D01*
X368605266Y-123339850D01*
X368605266Y-123339850D01*
X368605266Y-123339850D01*
X368605266Y-123339850D01*
X368605266Y-123339850D01*
X368605267Y-123339850D01*
X368605267Y-123339850D01*
X368605267Y-123339850D01*
X368605267Y-123339850D01*
X368605267Y-123339850D01*
X368605267Y-123339850D01*
X368605267Y-123339851D01*
X368605267Y-123339851D01*
X368605267Y-123339851D01*
X368605267Y-123339851D01*
X368605267Y-123339851D01*
X368605267Y-123339851D01*
X368605267Y-123339851D01*
X198122000Y-173585405D02*
G75*
G02*
X196522000Y-175185400I-1599900J-95D01*
G01*
X143599977Y-64292701D02*
X198823912Y-86604619D01*
X368605266Y-123339851D02*
X240571382Y-175068897D01*
X228921999Y-108743999D02*
G75*
G02*
X228122001Y-107944000I1J799999D01*
G01*
X199321999Y-134244000D02*
X198921999Y-134244000D01*
X208721999Y-92204001D02*
G75*
G02*
X207121999Y-90604000I-99J1599901D01*
G01*
X230122000Y-173585405D02*
X230122000Y-167344001D01*
X198121999Y-135044000D02*
X198121999Y-162444000D01*
X59638732Y-123339851D02*
G75*
G02*
X58754608Y-121256986I599268J1483451D01*
G01*
X199322000Y-92744000D02*
G75*
G02*
X200121900Y-93544000I-100J-800000D01*
G01*
X347333478Y-66419179D02*
X347333478Y-66419179D01*
X347333478Y-66419179D01*
X347333478Y-66419179D01*
X347333478Y-66419179D01*
X347333478Y-66419179D01*
X347333478Y-66419180D01*
X347333478Y-66419180D01*
X347333478Y-66419180D01*
X347333478Y-66419180D01*
X347333478Y-66419180D01*
X347333478Y-66419180D01*
X347333478Y-66419180D01*
X347333477Y-66419180D01*
X347333477Y-66419180D01*
X347333477Y-66419180D01*
X347333477Y-66419180D01*
X347333477Y-66419180D01*
X347333477Y-66419180D01*
X347333477Y-66419180D01*
X347333477Y-66419180D01*
X347333477Y-66419180D01*
X347333477Y-66419180D01*
X347333477Y-66419180D01*
X347333477Y-66419180D01*
X347333476Y-66419180D01*
X347333476Y-66419180D01*
X347333476Y-66419180D01*
X347333476Y-66419180D01*
X347333476Y-66419180D01*
X347333476Y-66419180D01*
X347333476Y-66419179D01*
X347333476Y-66419179D01*
X347333476Y-66419179D01*
X347333476Y-66419179D01*
X347333476Y-66419179D01*
X347333476Y-66419179D01*
X347333476Y-66419179D02*
X347333476Y-66419179D01*
X347333476Y-66419179D01*
X347333476Y-66419179D01*
X347333476Y-66419179D01*
X347333476Y-66419179D01*
X347333476Y-66419179D01*
X347333476Y-66419178D01*
X347333476Y-66419178D01*
X347333476Y-66419178D01*
X347333476Y-66419178D01*
X347333476Y-66419178D01*
X347333477Y-66419178D01*
X347333477Y-66419178D01*
X347333477Y-66419178D01*
X347333477Y-66419178D01*
X347333477Y-66419178D01*
X347333477Y-66419178D01*
X347333477Y-66419178D01*
X347333477Y-66419178D01*
X347333477Y-66419178D01*
X347333477Y-66419178D01*
X347333477Y-66419178D01*
X347333477Y-66419178D01*
X347333478Y-66419178D01*
X347333478Y-66419178D01*
X347333478Y-66419178D01*
X347333478Y-66419178D01*
X347333478Y-66419178D01*
X347333478Y-66419178D01*
X347333478Y-66419179D01*
X347333478Y-66419179D01*
X347333478Y-66419179D01*
X347333478Y-66419179D01*
X347333478Y-66419179D01*
X347333478Y-66419179D01*
X347333478Y-66419179D01*
X230121999Y-107944000D02*
G75*
G02*
X229321999Y-108743999I-799899J-100D01*
G01*
X228921999Y-108743999D02*
X229321999Y-108744000D01*
X198921999Y-163243999D02*
G75*
G02*
X198122001Y-162444000I1J799999D01*
G01*
X284644022Y-64292701D02*
G75*
G02*
X285276182Y-64176518I599478J-1483899D01*
G01*
X228122000Y-135044000D02*
G75*
G02*
X228922000Y-134244000I800100J-100D01*
G01*
X228121999Y-93544000D02*
X228121998Y-107944000D01*
X230121999Y-162444000D02*
X230121999Y-135044000D01*
X345882774Y-65418886D02*
G75*
G02*
X347333436Y-66419195I-32874J-1599714D01*
G01*
M02*
