M48
; DRILL file {KiCad 8.0.3} date 2024-06-30T01:12:36+0200
; FORMAT={-:-/ absolute / inch / decimal}
; #@! TF.CreationDate,2024-06-30T01:12:36+02:00
; #@! TF.GenerationSoftware,Kicad,Pcbnew,8.0.3
; #@! TF.FileFunction,Plated,1,2,PTH
FMAT,2
INCH
; #@! TA.AperFunction,Plated,PTH,ViaDrill
T1C0.0118
; #@! TA.AperFunction,Plated,PTH,ComponentDrill
T2C0.0118
; #@! TA.AperFunction,Plated,PTH,ComponentDrill
T3C0.0157
; #@! TA.AperFunction,Plated,PTH,ComponentDrill
T4C0.0430
; #@! TA.AperFunction,Plated,PTH,ComponentDrill
T5C0.0472
; #@! TA.AperFunction,Plated,PTH,ComponentDrill
T6C0.0591
; #@! TA.AperFunction,Plated,PTH,ComponentDrill
T7C0.0866
%
G90
G05
T1
X6.7507Y-5.7017
X7.2332Y-5.7888
X7.3551Y-5.4605
X7.53Y-4.98
X7.569Y-4.8243
X8.5238Y-4.9587
X8.6038Y-4.9987
X9.2741Y-4.8081
X9.3Y-4.22
X9.32Y-4.47
X9.3374Y-4.858
X9.9008Y-5.6118
X10.2337Y-4.8224
X10.8343Y-4.5905
T2
X2.6327Y-4.351
X2.9129Y-3.6574
X3.1931Y-2.9638
X3.3262Y-4.6312
X3.3321Y-4.417
X3.6064Y-3.9376
X3.6123Y-3.7234
X3.8867Y-3.2441
X3.8925Y-3.0299
X4.0256Y-4.6972
X4.2159Y-4.4259
X4.3059Y-4.0037
X4.4962Y-3.7324
X4.5861Y-3.3101
X4.7764Y-3.0388
X4.9154Y-4.4919
X5.0496Y-4.3594
X5.1956Y-3.7984
X5.3298Y-3.6658
X5.4758Y-3.1048
X5.5456Y-5.5279
X5.61Y-2.9722
X5.6871Y-4.7783
X5.749Y-4.4254
X5.9673Y-4.0847
X6.0293Y-3.7318
X6.2392Y-5.8081
X6.245Y-5.5939
X6.2476Y-3.3912
X6.3095Y-3.0383
X6.3807Y-5.0585
X6.3866Y-4.8443
X6.6609Y-4.3649
X6.6668Y-4.1507
X6.9328Y-6.0883
X6.9386Y-5.8741
X6.9411Y-3.6714
X6.947Y-3.4572
X7.0801Y-5.1245
X7.3603Y-4.431
X7.6322Y-6.1544
X7.6406Y-3.7374
X9.2194Y-3.7374
X9.2278Y-6.1544
X9.4997Y-4.431
X9.7799Y-5.1245
X9.913Y-3.4572
X9.9189Y-3.6714
X9.9214Y-5.8741
X9.9272Y-6.0883
X10.1932Y-4.1507
X10.1991Y-4.3649
X10.4734Y-4.8443
X10.4793Y-5.0585
X10.5505Y-3.0383
X10.6124Y-3.3912
X10.615Y-5.5939
X10.6208Y-5.8081
X10.8307Y-3.7318
X10.8927Y-4.0847
X11.111Y-4.4254
X11.1729Y-4.7783
X11.25Y-2.9722
X11.3144Y-5.5279
X11.3842Y-3.1048
X11.5302Y-3.6658
X11.6644Y-3.7984
X11.8104Y-4.3594
X11.9446Y-4.4919
X12.0836Y-3.0388
X12.2739Y-3.3101
X12.3638Y-3.7324
X12.5541Y-4.0037
X12.6441Y-4.4259
X12.8344Y-4.6972
X12.9675Y-3.0299
X12.9733Y-3.2441
X13.2477Y-3.7234
X13.2536Y-3.9376
X13.5279Y-4.417
X13.5338Y-4.6312
X13.6669Y-2.9638
X13.9471Y-3.6574
X14.2273Y-4.351
T3
X4.4601Y-2.9514
X4.4606Y-3.0005
X4.4945Y-2.9163
X4.4956Y-3.0349
X4.5437Y-2.9159
X4.5447Y-3.0344
X4.5787Y-2.9503
X4.5791Y-2.9994
X4.856Y-4.9669
X4.8564Y-5.016
X4.8904Y-4.9319
X4.8914Y-5.0504
X4.9395Y-4.9314
X4.9405Y-5.05
X4.9745Y-4.9658
X4.9749Y-5.0149
X7.4866Y-3.448
X7.487Y-3.4971
X7.521Y-3.413
X7.522Y-3.5315
X7.5701Y-3.4126
X7.5711Y-3.5311
X7.5728Y-6.6293
X7.5732Y-6.6784
X7.6051Y-3.447
X7.6056Y-3.4961
X7.6072Y-6.5943
X7.6082Y-6.7128
X7.6563Y-6.5938
X7.6573Y-6.7124
X7.6913Y-6.6283
X7.6918Y-6.6774
X7.9525Y-6.3679
X7.9525Y-3.5332
X7.9712Y-6.3225
X7.9712Y-6.4132
X7.9712Y-3.4879
X7.9712Y-3.5786
X8.0166Y-6.3037
X8.0166Y-6.432
X8.0166Y-3.4691
X8.0166Y-3.5974
X8.062Y-6.3225
X8.062Y-6.4132
X8.062Y-3.4879
X8.062Y-3.5786
X8.0808Y-6.3679
X8.0808Y-3.5332
X8.7792Y-6.3679
X8.7792Y-3.5332
X8.798Y-6.3225
X8.798Y-6.4132
X8.798Y-3.4879
X8.798Y-3.5786
X8.8434Y-6.3037
X8.8434Y-6.432
X8.8434Y-3.4691
X8.8434Y-3.5974
X8.8888Y-6.3225
X8.8888Y-6.4132
X8.8888Y-3.4879
X8.8888Y-3.5786
X8.9075Y-6.3679
X8.9075Y-3.5332
X9.1682Y-6.6774
X9.1687Y-6.6283
X9.2027Y-6.7124
X9.2037Y-6.5938
X9.2518Y-6.7128
X9.2528Y-6.5943
X9.2544Y-3.4961
X9.2549Y-3.447
X9.2868Y-6.6784
X9.2872Y-6.6293
X9.2889Y-3.5311
X9.2899Y-3.4126
X9.338Y-3.5315
X9.339Y-3.413
X9.373Y-3.4971
X9.3734Y-3.448
X11.8851Y-5.0149
X11.8855Y-4.9658
X11.9195Y-5.05
X11.9205Y-4.9314
X11.9686Y-5.0504
X11.9696Y-4.9319
X12.0036Y-5.016
X12.004Y-4.9669
X12.2809Y-2.9994
X12.2813Y-2.9503
X12.3153Y-3.0344
X12.3163Y-2.9159
X12.3644Y-3.0349
X12.3655Y-2.9163
X12.3994Y-3.0005
X12.3999Y-2.9514
T4
X7.682Y-4.33
X7.682Y-4.43
X7.682Y-4.53
X7.682Y-4.73
X7.682Y-4.83
X7.682Y-4.93
X7.682Y-5.13
X7.682Y-4.63
X7.682Y-5.03
X7.682Y-5.23
X7.9969Y-4.53
X7.9969Y-4.63
X7.9969Y-4.93
X7.9969Y-5.03
X7.9969Y-4.33
X7.9969Y-4.43
X7.9969Y-4.73
X7.9969Y-4.83
X7.9969Y-5.13
X7.9969Y-5.23
X8.13Y-3.71
X8.13Y-3.81
X8.13Y-3.91
X8.13Y-4.01
X8.13Y-4.11
X8.13Y-4.21
X8.13Y-4.31
X8.13Y-4.41
X8.13Y-4.51
X8.13Y-4.61
X8.13Y-4.71
X8.13Y-4.81
X8.13Y-4.91
X8.3513Y-5.0687
X8.5087Y-5.0687
X8.73Y-3.71
X8.73Y-3.81
X8.73Y-3.91
X8.73Y-4.01
X8.73Y-4.11
X8.73Y-4.21
X8.73Y-4.31
X8.73Y-4.41
X8.73Y-4.51
X8.73Y-4.61
X8.73Y-4.71
X8.73Y-4.81
X8.73Y-4.91
X8.8631Y-4.43
X8.8631Y-4.53
X8.8631Y-4.63
X8.8631Y-4.83
X8.8631Y-4.93
X8.8631Y-5.03
X8.8631Y-5.23
X8.8631Y-4.33
X8.8631Y-4.73
X8.8631Y-5.13
X9.178Y-4.43
X9.178Y-4.83
X9.178Y-4.93
X9.178Y-5.23
X9.178Y-4.33
X9.178Y-4.53
X9.178Y-4.63
X9.178Y-4.73
X9.178Y-5.03
X9.178Y-5.13
T5
X2.6435Y-4.5974
X2.7951Y-4.7478
X2.9237Y-3.9038
X3.0753Y-4.0542
X3.2039Y-3.2103
X3.3371Y-4.8776
X3.3555Y-3.3607
X3.4886Y-5.028
X3.6173Y-4.184
X3.7688Y-4.3344
X3.8975Y-3.4905
X4.049Y-3.6409
X4.2268Y-4.6723
X4.3783Y-4.8227
X4.507Y-3.9788
X4.6585Y-4.1292
X4.7872Y-3.2852
X4.9388Y-3.4356
X5.0605Y-4.6058
X5.212Y-4.7562
X5.3407Y-3.9122
X5.4922Y-4.0626
X5.5565Y-5.7743
X5.6209Y-3.2186
X5.698Y-5.0247
X5.708Y-5.9247
X5.7724Y-3.369
X5.8495Y-5.1751
X5.9782Y-4.3311
X6.1297Y-4.4815
X6.25Y-6.0545
X6.2584Y-3.6376
X6.3915Y-5.3049
X6.4016Y-6.2049
X6.41Y-3.788
X6.5431Y-5.4553
X6.6718Y-4.6113
X6.8233Y-4.7617
X6.9436Y-6.3347
X6.952Y-3.9178
X7.0951Y-6.4851
X7.1035Y-4.0682
X9.543Y-4.0653
X9.5514Y-6.4822
X9.7565Y-4.0682
X9.7649Y-6.4851
X9.8232Y-4.7588
X10.0367Y-4.7617
X10.1034Y-5.4524
X10.2366Y-3.7851
X10.2449Y-6.202
X10.3169Y-5.4553
X10.45Y-3.788
X10.4584Y-6.2049
X10.5168Y-4.4786
X10.7303Y-4.4815
X10.797Y-5.1722
X10.8741Y-3.3661
X10.9385Y-5.9218
X11.0105Y-5.1751
X11.0876Y-3.369
X11.152Y-5.9247
X11.1543Y-4.0597
X11.3678Y-4.0626
X11.4345Y-4.7532
X11.648Y-4.7562
X11.7077Y-3.4327
X11.9212Y-3.4356
X11.988Y-4.1262
X12.2015Y-4.1292
X12.2682Y-4.8198
X12.4817Y-4.8227
X12.5975Y-3.638
X12.811Y-3.6409
X12.8777Y-4.3315
X13.0912Y-4.3344
X13.1579Y-5.0251
X13.291Y-3.3577
X13.3714Y-5.028
X13.5045Y-3.3607
X13.5712Y-4.0513
X13.7847Y-4.0542
X13.8515Y-4.7449
X14.0649Y-4.7478
T6
X2.7804Y-4.3835
X3.0497Y-4.3844
X3.0607Y-3.6899
X3.3299Y-3.6909
X3.3409Y-2.9964
X3.474Y-4.6637
X3.6101Y-2.9973
X3.7433Y-4.6647
X3.7542Y-3.9702
X4.0235Y-3.9711
X4.0344Y-3.2766
X4.3037Y-3.2775
X4.3637Y-4.4584
X4.633Y-4.4594
X4.6439Y-3.7649
X4.9132Y-3.7658
X4.9242Y-3.0713
X5.1934Y-3.0723
X5.1974Y-4.3919
X5.4667Y-4.3928
X5.4776Y-3.6983
X5.6934Y-5.5604
X5.7469Y-3.6993
X5.7578Y-3.0048
X5.8349Y-4.8108
X5.9627Y-5.5614
X6.0271Y-3.0057
X6.1042Y-4.8117
X6.1151Y-4.1173
X6.3844Y-4.1182
X6.387Y-5.8406
X6.3954Y-3.4237
X6.5285Y-5.091
X6.6562Y-5.8416
X6.6646Y-3.4246
X6.7977Y-5.092
X6.8087Y-4.3975
X7.078Y-4.3984
X7.0805Y-6.1209
X7.0889Y-3.7039
X7.3498Y-6.1218
X7.3582Y-3.7048
X9.4929Y-3.8163
X9.5013Y-6.2332
X9.6873Y-3.6299
X9.6956Y-6.0469
X9.7731Y-4.5099
X9.9675Y-4.3235
X10.0534Y-5.2034
X10.1865Y-3.5361
X10.1949Y-5.953
X10.2477Y-5.017
X10.3808Y-3.3497
X10.3892Y-5.7667
X10.4667Y-4.2296
X10.661Y-4.0433
X10.7469Y-4.9232
X10.824Y-3.1171
X10.8884Y-5.6728
X10.9413Y-4.7368
X11.0183Y-2.9308
X11.0828Y-5.4864
X11.1042Y-3.8107
X11.2986Y-3.6243
X11.3844Y-4.5043
X11.5788Y-4.3179
X11.6577Y-3.1837
X11.852Y-2.9973
X11.9379Y-3.8773
X12.1322Y-3.6909
X12.2181Y-4.5708
X12.4125Y-4.3845
X12.5474Y-3.389
X12.7417Y-3.2026
X12.8276Y-4.0825
X13.022Y-3.8962
X13.1078Y-4.7761
X13.241Y-3.1088
X13.3022Y-4.5897
X13.4353Y-2.9224
X13.5212Y-3.8023
X13.7155Y-3.616
X13.8014Y-4.4959
X13.9957Y-4.3095
T7
X4.5196Y-2.9754
X4.9155Y-4.9909
X7.5461Y-3.4721
X7.6323Y-6.6533
X8.0166Y-6.3679
X8.0166Y-3.5332
X8.8434Y-6.3679
X8.8434Y-3.5332
X9.2277Y-6.6533
X9.3139Y-3.4721
X11.9445Y-4.9909
X12.3404Y-2.9754
M30
