M48
; DRILL file {KiCad 8.0.3} date 2024-06-30T01:12:36+0200
; FORMAT={-:-/ absolute / inch / decimal}
; #@! TF.CreationDate,2024-06-30T01:12:36+02:00
; #@! TF.GenerationSoftware,Kicad,Pcbnew,8.0.3
; #@! TF.FileFunction,NonPlated,1,2,NPTH
FMAT,2
INCH
; #@! TA.AperFunction,NonPlated,NPTH,ComponentDrill
T1C0.0354
; #@! TA.AperFunction,NonPlated,NPTH,ComponentDrill
T2C0.0689
; #@! TA.AperFunction,NonPlated,NPTH,ComponentDrill
T3C0.0748
; #@! TA.AperFunction,NonPlated,NPTH,ComponentDrill
T4C0.1575
%
G90
G05
T1
X8.3709Y-6.4358
X8.4891Y-6.4358
T2
X2.6966Y-4.4575
X2.9768Y-3.7639
X3.0675Y-4.6073
X3.2571Y-3.0704
X3.3477Y-3.9138
X3.3902Y-4.7377
X3.6279Y-3.2202
X3.6704Y-4.0442
X3.7611Y-4.8876
X3.9506Y-3.3506
X4.0413Y-4.194
X4.2799Y-4.5324
X4.3215Y-3.5004
X4.5601Y-3.8389
X4.6508Y-4.6823
X4.8403Y-3.1453
X4.931Y-3.9887
X5.1136Y-4.4659
X5.2112Y-3.2952
X5.3938Y-3.7723
X5.4845Y-4.6157
X5.6096Y-5.6344
X5.674Y-3.0787
X5.7511Y-4.8848
X5.7647Y-3.9222
X5.9805Y-5.7843
X6.0313Y-4.1912
X6.0449Y-3.2286
X6.122Y-5.0346
X6.3032Y-5.9146
X6.3115Y-3.4977
X6.4022Y-4.3411
X6.4447Y-5.165
X6.674Y-6.0645
X6.6824Y-3.6475
X6.7249Y-4.4715
X6.8155Y-5.3149
X6.9967Y-6.1948
X7.0051Y-3.7779
X7.0958Y-4.6213
X7.3676Y-6.3447
X7.376Y-3.9277
X9.484Y-3.9277
X9.4924Y-6.3447
X9.7642Y-4.6213
X9.8549Y-3.7779
X9.8633Y-6.1948
X10.0445Y-5.3149
X10.1351Y-4.4715
X10.1776Y-3.6475
X10.186Y-6.0645
X10.4153Y-5.165
X10.4578Y-4.3411
X10.5485Y-3.4977
X10.5568Y-5.9146
X10.738Y-5.0346
X10.8151Y-3.2286
X10.8287Y-4.1912
X10.8795Y-5.7843
X11.0953Y-3.9222
X11.1089Y-4.8848
X11.186Y-3.0787
X11.2504Y-5.6344
X11.3755Y-4.6157
X11.4662Y-3.7723
X11.6488Y-3.2952
X11.7464Y-4.4659
X11.929Y-3.9887
X12.0197Y-3.1453
X12.2092Y-4.6823
X12.2999Y-3.8389
X12.5385Y-3.5004
X12.5801Y-4.5324
X12.8187Y-4.194
X12.9094Y-3.3506
X13.0989Y-4.8876
X13.1896Y-4.0442
X13.2321Y-3.2202
X13.4698Y-4.7377
X13.5123Y-3.9138
X13.6029Y-3.0704
X13.7925Y-4.6073
X13.8832Y-3.7639
X14.1634Y-4.4575
T3
X2.6813Y-4.4513
X2.9615Y-3.7577
X3.0828Y-4.6135
X3.2417Y-3.0642
X3.3631Y-3.92
X3.3749Y-4.7315
X3.6433Y-3.2264
X3.6551Y-4.038
X3.7764Y-4.8937
X3.9353Y-3.3444
X4.0566Y-4.2002
X4.2646Y-4.5262
X4.3368Y-3.5066
X4.5448Y-3.8327
X4.6661Y-4.6885
X4.825Y-3.1391
X4.9463Y-3.9949
X5.0982Y-4.4597
X5.2265Y-3.3013
X5.3785Y-3.7661
X5.4998Y-4.6219
X5.5943Y-5.6282
X5.6587Y-3.0726
X5.7358Y-4.8786
X5.78Y-3.9283
X5.9958Y-5.7904
X6.016Y-4.185
X6.0602Y-3.2348
X6.1373Y-5.0408
X6.2878Y-5.9084
X6.2962Y-3.4915
X6.4175Y-4.3473
X6.4293Y-5.1588
X6.6894Y-6.0707
X6.6977Y-3.6537
X6.7095Y-4.4653
X6.8309Y-5.3211
X6.9814Y-6.1886
X6.9898Y-3.7717
X7.1111Y-4.6275
X7.3829Y-6.3509
X7.3913Y-3.9339
X9.4687Y-3.9339
X9.4771Y-6.3509
X9.7489Y-4.6275
X9.8702Y-3.7717
X9.8786Y-6.1886
X10.0291Y-5.3211
X10.1505Y-4.4653
X10.1623Y-3.6537
X10.1706Y-6.0707
X10.4307Y-5.1588
X10.4425Y-4.3473
X10.5638Y-3.4915
X10.5722Y-5.9084
X10.7227Y-5.0408
X10.7998Y-3.2348
X10.844Y-4.185
X10.8642Y-5.7904
X11.08Y-3.9283
X11.1242Y-4.8786
X11.2013Y-3.0726
X11.2657Y-5.6282
X11.3602Y-4.6219
X11.4815Y-3.7661
X11.6335Y-3.3013
X11.7618Y-4.4597
X11.9137Y-3.9949
X12.035Y-3.1391
X12.1939Y-4.6885
X12.3152Y-3.8327
X12.5232Y-3.5066
X12.5954Y-4.5262
X12.8034Y-4.2002
X12.9247Y-3.3444
X13.0836Y-4.8937
X13.2049Y-4.038
X13.2167Y-3.2264
X13.4851Y-4.7315
X13.4969Y-3.92
X13.6183Y-3.0642
X13.7772Y-4.6135
X13.8985Y-3.7577
X14.1787Y-4.4513
T4
X2.8821Y-4.5324
X3.1623Y-3.8389
X3.4425Y-3.1453
X3.5756Y-4.8126
X3.8558Y-4.1191
X4.1361Y-3.4255
X4.4653Y-4.6074
X4.7456Y-3.9138
X5.0258Y-3.2202
X5.299Y-4.5408
X5.5792Y-3.8472
X5.795Y-5.7093
X5.8595Y-3.1537
X5.9365Y-4.9597
X6.2168Y-4.2662
X6.4886Y-5.9895
X6.497Y-3.5726
X6.6301Y-5.2399
X6.9103Y-4.5464
X7.1822Y-6.2698
X7.1905Y-3.8528
X9.6695Y-3.8528
X9.6778Y-6.2698
X9.9497Y-4.5464
X10.2299Y-5.2399
X10.363Y-3.5726
X10.3714Y-5.9895
X10.6432Y-4.2662
X10.9235Y-4.9597
X11.0005Y-3.1537
X11.065Y-5.7093
X11.2808Y-3.8472
X11.561Y-4.5408
X11.8342Y-3.2202
X12.1144Y-3.9138
X12.3947Y-4.6074
X12.7239Y-3.4255
X13.0042Y-4.1191
X13.2844Y-4.8126
X13.4175Y-3.1453
X13.6977Y-3.8389
X13.9779Y-4.5324
M30
