%TF.GenerationSoftware,KiCad,Pcbnew,8.0.3*%
%TF.CreationDate,2024-06-30T16:48:01+02:00*%
%TF.ProjectId,kbd,6b62642e-6b69-4636-9164-5f7063625858,2*%
%TF.SameCoordinates,Original*%
%TF.FileFunction,Soldermask,Top*%
%TF.FilePolarity,Negative*%
%FSLAX46Y46*%
G04 Gerber Fmt 4.6, Leading zero omitted, Abs format (unit mm)*
G04 Created by KiCad (PCBNEW 8.0.3) date 2024-06-30 16:48:01*
%MOMM*%
%LPD*%
G01*
G04 APERTURE LIST*
G04 Aperture macros list*
%AMRoundRect*
0 Rectangle with rounded corners*
0 $1 Rounding radius*
0 $2 $3 $4 $5 $6 $7 $8 $9 X,Y pos of 4 corners*
0 Add a 4 corners polygon primitive as box body*
4,1,4,$2,$3,$4,$5,$6,$7,$8,$9,$2,$3,0*
0 Add four circle primitives for the rounded corners*
1,1,$1+$1,$2,$3*
1,1,$1+$1,$4,$5*
1,1,$1+$1,$6,$7*
1,1,$1+$1,$8,$9*
0 Add four rect primitives between the rounded corners*
20,1,$1+$1,$2,$3,$4,$5,0*
20,1,$1+$1,$4,$5,$6,$7,0*
20,1,$1+$1,$6,$7,$8,$9,0*
20,1,$1+$1,$8,$9,$2,$3,0*%
G04 Aperture macros list end*
%ADD10RoundRect,0.275000X-0.151959X0.357992X-0.357992X-0.151959X0.151959X-0.357992X0.357992X0.151959X0*%
%ADD11RoundRect,0.275000X-0.357992X0.151959X-0.151959X-0.357992X0.357992X-0.151959X0.151959X0.357992X0*%
%ADD12C,1.900000*%
%ADD13C,4.100000*%
%ADD14C,2.300000*%
%ADD15C,2.600000*%
%ADD16C,1.852600*%
%ADD17RoundRect,0.050000X-0.876300X0.876300X-0.876300X-0.876300X0.876300X-0.876300X0.876300X0.876300X0*%
%ADD18RoundRect,0.050000X-0.500000X-0.400000X0.500000X-0.400000X0.500000X0.400000X-0.500000X0.400000X0*%
%ADD19C,1.000000*%
%ADD20RoundRect,0.050000X-0.350000X-0.750000X0.350000X-0.750000X0.350000X0.750000X-0.350000X0.750000X0*%
G04 APERTURE END LIST*
D10*
%TO.C,D15*%
X180673644Y-106166361D03*
X179737128Y-108484321D03*
%TD*%
D11*
%TO.C,D30*%
X294689960Y-97216260D03*
X295626476Y-99534220D03*
%TD*%
D10*
%TO.C,D3*%
X103090145Y-95312755D03*
X102153629Y-97630715D03*
%TD*%
%TO.C,D5*%
X113589114Y-120046773D03*
X112652598Y-122364733D03*
%TD*%
%TO.C,D18*%
X198290135Y-113283888D03*
X197353619Y-115601848D03*
%TD*%
%TO.C,D13*%
X166438592Y-141399351D03*
X165502076Y-143717311D03*
%TD*%
%TO.C,D17*%
X191172611Y-130900381D03*
X190236095Y-133218341D03*
%TD*%
D11*
%TO.C,D28*%
X308925012Y-132449246D03*
X309861528Y-134767206D03*
%TD*%
%TO.C,D35*%
X264439243Y-123782856D03*
X265375759Y-126100816D03*
%TD*%
%TO.C,D39*%
X239705223Y-113283889D03*
X240641739Y-115601849D03*
%TD*%
%TO.C,D27*%
X317288723Y-102430278D03*
X318225239Y-104748238D03*
%TD*%
D10*
%TO.C,D11*%
X157363129Y-113142032D03*
X156426613Y-115459992D03*
%TD*%
D11*
%TO.C,D41*%
X257534502Y-167556873D03*
X258471018Y-169874833D03*
%TD*%
%TO.C,D25*%
X331523772Y-137663264D03*
X332460288Y-139981224D03*
%TD*%
%TO.C,D23*%
X342022741Y-112929248D03*
X342959257Y-115247208D03*
%TD*%
%TO.C,D32*%
X280632231Y-113142031D03*
X281568747Y-115459991D03*
%TD*%
D10*
%TO.C,D20*%
X180460860Y-167556871D03*
X179524344Y-169874831D03*
%TD*%
%TO.C,D14*%
X173556118Y-123782856D03*
X172619602Y-126100816D03*
%TD*%
D11*
%TO.C,D40*%
X275150994Y-160439345D03*
X276087510Y-162757305D03*
%TD*%
D10*
%TO.C,D21*%
X198077353Y-174674397D03*
X197140837Y-176992357D03*
%TD*%
%TO.C,D7*%
X129070349Y-132449246D03*
X128133833Y-134767206D03*
%TD*%
%TO.C,D16*%
X184055087Y-148516874D03*
X183118571Y-150834834D03*
%TD*%
%TO.C,D1*%
X88855095Y-130545741D03*
X87918579Y-132863701D03*
%TD*%
D11*
%TO.C,D31*%
X287749756Y-130758523D03*
X288686272Y-133076483D03*
%TD*%
D10*
%TO.C,D6*%
X120706637Y-102430281D03*
X119770121Y-104748241D03*
%TD*%
D11*
%TO.C,D42*%
X239918008Y-174674397D03*
X240854524Y-176992357D03*
%TD*%
%TO.C,D29*%
X301807487Y-114832752D03*
X302744003Y-117150712D03*
%TD*%
D10*
%TO.C,D10*%
X150245605Y-130758525D03*
X149309089Y-133076485D03*
%TD*%
%TO.C,D8*%
X136187873Y-114832753D03*
X135251357Y-117150713D03*
%TD*%
D11*
%TO.C,D26*%
X324406249Y-120046772D03*
X325342765Y-122364732D03*
%TD*%
%TO.C,D24*%
X334905216Y-95312755D03*
X335841732Y-97630715D03*
%TD*%
D10*
%TO.C,D2*%
X95972619Y-112929248D03*
X95036103Y-115247208D03*
%TD*%
%TO.C,D4*%
X106471588Y-137663265D03*
X105535072Y-139981225D03*
%TD*%
%TO.C,D19*%
X162844365Y-160439348D03*
X161907849Y-162757308D03*
%TD*%
D11*
%TO.C,D22*%
X349140267Y-130545740D03*
X350076783Y-132863700D03*
%TD*%
%TO.C,D37*%
X253940274Y-148516874D03*
X254876790Y-150834834D03*
%TD*%
%TO.C,D36*%
X257321717Y-106166362D03*
X258258233Y-108484322D03*
%TD*%
%TO.C,D33*%
X273514706Y-95525540D03*
X274451222Y-97843500D03*
%TD*%
D10*
%TO.C,D12*%
X164480656Y-95525539D03*
X163544140Y-97843499D03*
%TD*%
%TO.C,D9*%
X143305400Y-97216261D03*
X142368884Y-99534221D03*
%TD*%
D11*
%TO.C,D34*%
X271556768Y-141399349D03*
X272493284Y-143717309D03*
%TD*%
%TO.C,D38*%
X246822750Y-130900381D03*
X247759266Y-133218341D03*
%TD*%
D12*
%TO.C,S37*%
X260005111Y-151728828D03*
D13*
X264715205Y-149825827D03*
D12*
X269425299Y-147922826D03*
D14*
X261502791Y-155222159D03*
D15*
X260231134Y-148898031D03*
D14*
X266925384Y-155296213D03*
D15*
X265167250Y-144164231D03*
%TD*%
D12*
%TO.C,S14*%
X158071093Y-123188805D03*
D13*
X162781187Y-125091807D03*
D12*
X167491281Y-126994809D03*
D14*
X156721762Y-126742072D03*
D15*
X160200118Y-121309509D03*
D14*
X160571008Y-130562193D03*
D15*
X167039235Y-121333213D03*
%TD*%
D16*
%TO.C,*%
X237997681Y-141953316D03*
%TD*%
%TO.C,*%
X237997682Y-126713314D03*
%TD*%
D12*
%TO.C,S8*%
X120702850Y-114238702D03*
D13*
X125412944Y-116141704D03*
D12*
X130123038Y-118044706D03*
D14*
X119353519Y-117791969D03*
D15*
X122831875Y-112359406D03*
D14*
X123202765Y-121612090D03*
D15*
X129670992Y-112383110D03*
%TD*%
D16*
%TO.C,*%
X207997679Y-131793316D03*
%TD*%
%TO.C,*%
X207997681Y-136873314D03*
%TD*%
D14*
%TO.C,_139*%
X318321385Y-92306244D03*
%TD*%
D12*
%TO.C,S4*%
X90986562Y-137069217D03*
D13*
X95696656Y-138972219D03*
D12*
X100406750Y-140875221D03*
D14*
X89637231Y-140622484D03*
D15*
X93115587Y-135189921D03*
D14*
X93486477Y-144442605D03*
D15*
X99954704Y-135213625D03*
%TD*%
D12*
%TO.C,S16*%
X168570062Y-147922825D03*
D13*
X173280156Y-149825827D03*
D12*
X177990250Y-151728829D03*
D14*
X167220731Y-151476092D03*
D15*
X170699087Y-146043529D03*
D14*
X171069977Y-155296213D03*
D15*
X177538204Y-146067233D03*
%TD*%
D16*
%TO.C,*%
X237997682Y-147033314D03*
%TD*%
D12*
%TO.C,S6*%
X105221613Y-101836229D03*
D13*
X109931707Y-103739231D03*
D12*
X114641801Y-105642233D03*
D14*
X103872282Y-105389496D03*
D15*
X107350638Y-99956933D03*
D14*
X107721528Y-109209617D03*
D15*
X114189755Y-99980637D03*
%TD*%
D12*
%TO.C,S42*%
X245982845Y-177886351D03*
D13*
X250692939Y-175983350D03*
D12*
X255403033Y-174080349D03*
D14*
X247480525Y-181379682D03*
D15*
X246208868Y-175055554D03*
D14*
X252903118Y-181453736D03*
D15*
X251144984Y-170321754D03*
%TD*%
D16*
%TO.C,*%
X207997680Y-126713314D03*
%TD*%
D12*
%TO.C,S26*%
X330471083Y-123258727D03*
D13*
X335181177Y-121355726D03*
D12*
X339891271Y-119452725D03*
D14*
X331968763Y-126752058D03*
D15*
X330697106Y-120427930D03*
D14*
X337391356Y-126826112D03*
D15*
X335633222Y-115694130D03*
%TD*%
D14*
%TO.C,_132*%
X229497679Y-178475316D03*
%TD*%
D16*
%TO.C,*%
X199997680Y-134333316D03*
%TD*%
D14*
%TO.C,_135*%
X119673975Y-92306243D03*
%TD*%
D12*
%TO.C,S20*%
X164975834Y-166962823D03*
D13*
X169685928Y-168865825D03*
D12*
X174396022Y-170768827D03*
D14*
X163626503Y-170516090D03*
D15*
X167104859Y-165083527D03*
D14*
X167475749Y-174336211D03*
D15*
X173943976Y-165107231D03*
%TD*%
D12*
%TO.C,S15*%
X165188618Y-105572313D03*
D13*
X169898712Y-107475315D03*
D12*
X174608806Y-109378317D03*
D14*
X163839287Y-109125580D03*
D15*
X167317643Y-103693017D03*
D14*
X167688533Y-112945701D03*
D15*
X174156760Y-103716721D03*
%TD*%
D16*
%TO.C,*%
X237997683Y-144493313D03*
%TD*%
D12*
%TO.C,S17*%
X175687587Y-130306332D03*
D13*
X180397681Y-132209334D03*
D12*
X185107775Y-134112336D03*
D14*
X174338256Y-133859599D03*
D15*
X177816612Y-128427036D03*
D14*
X178187502Y-137679720D03*
D15*
X184655729Y-128450740D03*
%TD*%
D14*
%TO.C,_137*%
X241449643Y-104921499D03*
%TD*%
D16*
%TO.C,*%
X229997681Y-126713314D03*
%TD*%
D12*
%TO.C,S29*%
X307872323Y-118044707D03*
D13*
X312582417Y-116141706D03*
D12*
X317292511Y-114238705D03*
D14*
X309370003Y-121538038D03*
D15*
X308098346Y-115213910D03*
D14*
X314792596Y-121612092D03*
D15*
X313034462Y-110480110D03*
%TD*%
D16*
%TO.C,*%
X229997679Y-131793315D03*
%TD*%
%TO.C,*%
X237997681Y-149573315D03*
%TD*%
D14*
%TO.C,_136*%
X129728408Y-143500467D03*
%TD*%
D16*
%TO.C,*%
X207997680Y-139413315D03*
%TD*%
D12*
%TO.C,S21*%
X182592327Y-174080350D03*
D13*
X187302421Y-175983352D03*
D12*
X192012515Y-177886354D03*
D14*
X181242996Y-177633617D03*
D15*
X184721352Y-172201054D03*
D14*
X185092242Y-181453738D03*
D15*
X191560469Y-172224758D03*
%TD*%
D16*
%TO.C,*%
X229997681Y-149573313D03*
%TD*%
D12*
%TO.C,S31*%
X293814593Y-133970479D03*
D13*
X298524687Y-132067478D03*
D12*
X303234781Y-130164477D03*
D14*
X295312273Y-137463810D03*
D15*
X294040616Y-131139682D03*
D14*
X300734866Y-137537864D03*
D15*
X298976732Y-126405882D03*
%TD*%
D16*
%TO.C,*%
X199997681Y-136873315D03*
%TD*%
%TO.C,*%
X220997680Y-145475317D03*
%TD*%
D12*
%TO.C,S12*%
X148995630Y-94931487D03*
D13*
X153705724Y-96834489D03*
D12*
X158415818Y-98737491D03*
D14*
X147646299Y-98484754D03*
D15*
X151124655Y-93052191D03*
D14*
X151495545Y-102304875D03*
D15*
X157963772Y-93075895D03*
%TD*%
D17*
%TO.C,MCU1*%
X211377681Y-110965316D03*
D16*
X211377680Y-113505317D03*
X211377681Y-116045317D03*
X211377679Y-118585315D03*
X211377681Y-121125316D03*
X211377680Y-123665317D03*
X211377681Y-126205317D03*
X211377679Y-128745315D03*
X211377681Y-131285316D03*
X211377680Y-133825317D03*
X211377681Y-136365317D03*
X211377679Y-138905315D03*
X211377681Y-141445316D03*
X226617682Y-110965315D03*
X226617681Y-113505316D03*
X226617683Y-116045317D03*
X226617681Y-118585315D03*
X226617682Y-121125315D03*
X226617681Y-123665316D03*
X226617683Y-126205317D03*
X226617681Y-128745315D03*
X226617682Y-131285315D03*
X226617681Y-133825316D03*
X226617683Y-136365317D03*
X226617681Y-138905315D03*
X226617682Y-141445315D03*
%TD*%
D18*
%TO.C,PWR1*%
X222647682Y-179090315D03*
X215347681Y-179090318D03*
D19*
X220497681Y-180200315D03*
X217497681Y-180200315D03*
D18*
X222647680Y-181300316D03*
X215347682Y-181300316D03*
D20*
X216747681Y-178440316D03*
X219747681Y-178440316D03*
X221247681Y-178440316D03*
%TD*%
D12*
%TO.C,S25*%
X337588610Y-140875220D03*
D13*
X342298704Y-138972219D03*
D12*
X347008798Y-137069218D03*
D14*
X339086290Y-144368551D03*
D15*
X337814633Y-138044423D03*
D14*
X344508883Y-144442605D03*
D15*
X342750749Y-133310623D03*
%TD*%
D16*
%TO.C,*%
X199997681Y-126713315D03*
%TD*%
D12*
%TO.C,S13*%
X150953568Y-140805297D03*
D13*
X155663662Y-142708299D03*
D12*
X160373756Y-144611301D03*
D14*
X149604237Y-144358564D03*
D15*
X153082593Y-138926001D03*
D14*
X153453483Y-148178685D03*
D15*
X159921710Y-138949705D03*
%TD*%
D14*
%TO.C,_129*%
X208497679Y-106475314D03*
%TD*%
D12*
%TO.C,S34*%
X277621603Y-144611302D03*
D13*
X282331697Y-142708301D03*
D12*
X287041791Y-140805300D03*
D14*
X279119283Y-148104633D03*
D15*
X277847626Y-141780505D03*
D14*
X284541876Y-148178687D03*
D15*
X282783742Y-137046705D03*
%TD*%
D12*
%TO.C,S23*%
X348087577Y-116141203D03*
D13*
X352797671Y-114238202D03*
D12*
X357507765Y-112335201D03*
D14*
X349585257Y-119634534D03*
D15*
X348313600Y-113310406D03*
D14*
X355007850Y-119708588D03*
D15*
X353249716Y-108576606D03*
%TD*%
D16*
%TO.C,*%
X237997683Y-134333313D03*
%TD*%
D14*
%TO.C,_140*%
X308266955Y-143500466D03*
%TD*%
D16*
%TO.C,*%
X229997682Y-144493314D03*
%TD*%
%TO.C,*%
X237997681Y-129253315D03*
%TD*%
D12*
%TO.C,S7*%
X113585324Y-131855196D03*
D13*
X118295418Y-133758198D03*
D12*
X123005512Y-135661200D03*
D14*
X112235993Y-135408463D03*
D15*
X115714349Y-129975900D03*
D14*
X116085239Y-139228584D03*
D15*
X122553466Y-129999604D03*
%TD*%
D16*
%TO.C,*%
X199997680Y-147033314D03*
%TD*%
D12*
%TO.C,S11*%
X141878105Y-112547982D03*
D13*
X146588199Y-114450984D03*
D12*
X151298293Y-116353986D03*
D14*
X140528774Y-116101249D03*
D15*
X144007130Y-110668686D03*
D14*
X144378020Y-119921370D03*
D15*
X150846247Y-110692390D03*
%TD*%
D14*
%TO.C,_133*%
X196545721Y-104921500D03*
%TD*%
D12*
%TO.C,S24*%
X340970053Y-98524708D03*
D13*
X345680147Y-96621707D03*
D12*
X350390241Y-94718706D03*
D14*
X342467733Y-102018039D03*
D15*
X341196076Y-95693911D03*
D14*
X347890326Y-102092093D03*
D15*
X346132192Y-90960111D03*
%TD*%
D16*
%TO.C,*%
X207997679Y-141953316D03*
%TD*%
D12*
%TO.C,S39*%
X245770060Y-116495843D03*
D13*
X250480154Y-114592842D03*
D12*
X255190248Y-112689841D03*
D14*
X247267740Y-119989174D03*
D15*
X245996083Y-113665046D03*
D14*
X252690333Y-120063228D03*
D15*
X250932199Y-108931246D03*
%TD*%
D16*
%TO.C,*%
X229997681Y-147033314D03*
%TD*%
D12*
%TO.C,S10*%
X134760578Y-130164475D03*
D13*
X139470672Y-132067477D03*
D12*
X144180766Y-133970479D03*
D14*
X133411247Y-133717742D03*
D15*
X136889603Y-128285179D03*
D14*
X137260493Y-137537863D03*
D15*
X143728720Y-128308883D03*
%TD*%
D12*
%TO.C,S35*%
X270504079Y-126994808D03*
D13*
X275214173Y-125091807D03*
D12*
X279924267Y-123188806D03*
D14*
X272001759Y-130488139D03*
D15*
X270730102Y-124164011D03*
D14*
X277424352Y-130562193D03*
D15*
X275666218Y-119430211D03*
%TD*%
D16*
%TO.C,*%
X207997680Y-129253315D03*
%TD*%
%TO.C,*%
X229997680Y-129253316D03*
%TD*%
D12*
%TO.C,S2*%
X80487595Y-112335197D03*
D13*
X85197689Y-114238199D03*
D12*
X89907783Y-116141201D03*
D14*
X79138264Y-115888464D03*
D15*
X82616620Y-110455901D03*
D14*
X82987510Y-119708585D03*
D15*
X89455737Y-110479605D03*
%TD*%
D12*
%TO.C,S18*%
X182805112Y-112689837D03*
D13*
X187515206Y-114592839D03*
D12*
X192225300Y-116495841D03*
D14*
X181455781Y-116243104D03*
D15*
X184934137Y-110810541D03*
D14*
X185305027Y-120063225D03*
D15*
X191773254Y-110834245D03*
%TD*%
D16*
%TO.C,*%
X199997680Y-129253315D03*
%TD*%
D12*
%TO.C,S36*%
X263386555Y-109378315D03*
D13*
X268096649Y-107475314D03*
D12*
X272806743Y-105572313D03*
D14*
X264884235Y-112871646D03*
D15*
X263612578Y-106547518D03*
D14*
X270306828Y-112945700D03*
D15*
X268548694Y-101813718D03*
%TD*%
D16*
%TO.C,*%
X207997681Y-147033314D03*
%TD*%
D12*
%TO.C,S1*%
X73370069Y-129951691D03*
D13*
X78080163Y-131854693D03*
D12*
X82790257Y-133757695D03*
D14*
X72020738Y-133504958D03*
D15*
X75499094Y-128072395D03*
D14*
X75869984Y-137325079D03*
D15*
X82338211Y-128096099D03*
%TD*%
D16*
%TO.C,*%
X237997682Y-136873314D03*
%TD*%
%TO.C,*%
X207997681Y-144493315D03*
%TD*%
D12*
%TO.C,S28*%
X314989848Y-135661199D03*
D13*
X319699942Y-133758198D03*
D12*
X324410036Y-131855197D03*
D14*
X316487528Y-139154530D03*
D15*
X315215871Y-132830402D03*
D14*
X321910121Y-139228584D03*
D15*
X320151987Y-128096602D03*
%TD*%
D16*
%TO.C,*%
X199997681Y-131793315D03*
%TD*%
%TO.C,*%
X207997680Y-149573315D03*
%TD*%
D12*
%TO.C,S3*%
X87605120Y-94718704D03*
D13*
X92315214Y-96621706D03*
D12*
X97025308Y-98524708D03*
D14*
X86255789Y-98271971D03*
D15*
X89734145Y-92839408D03*
D14*
X90105035Y-102092092D03*
D15*
X96573262Y-92863112D03*
%TD*%
D12*
%TO.C,S19*%
X147359342Y-159845297D03*
D13*
X152069436Y-161748299D03*
D12*
X156779530Y-163651301D03*
D14*
X146010011Y-163398564D03*
D15*
X149488367Y-157966001D03*
D14*
X149859257Y-167218685D03*
D15*
X156327484Y-157989705D03*
%TD*%
D16*
%TO.C,*%
X229997681Y-141953314D03*
%TD*%
%TO.C,*%
X237997681Y-139413315D03*
%TD*%
D14*
%TO.C,_131*%
X208497681Y-178475313D03*
%TD*%
D16*
%TO.C,*%
X229997681Y-139413313D03*
%TD*%
D12*
%TO.C,S33*%
X279579541Y-98737492D03*
D13*
X284289635Y-96834491D03*
D12*
X288999729Y-94931490D03*
D14*
X281077221Y-102230823D03*
D15*
X279805564Y-95906695D03*
D14*
X286499814Y-102304877D03*
D15*
X284741680Y-91172895D03*
%TD*%
D12*
%TO.C,S9*%
X127820376Y-96622210D03*
D13*
X132530470Y-98525212D03*
D12*
X137240564Y-100428214D03*
D14*
X126471045Y-100175477D03*
D15*
X129949401Y-94742914D03*
D14*
X130320291Y-103995598D03*
D15*
X136788518Y-94766618D03*
%TD*%
D12*
%TO.C,S30*%
X300754799Y-100428214D03*
D13*
X305464893Y-98525213D03*
D12*
X310174987Y-96622212D03*
D14*
X302252479Y-103921545D03*
D15*
X300980822Y-97597417D03*
D14*
X307675072Y-103995599D03*
D15*
X305916938Y-92863617D03*
%TD*%
D12*
%TO.C,S40*%
X281215831Y-163651301D03*
D13*
X285925925Y-161748300D03*
D12*
X290636019Y-159845299D03*
D14*
X282713511Y-167144632D03*
D15*
X281441854Y-160820504D03*
D14*
X288136104Y-167218686D03*
D15*
X286377970Y-156086704D03*
%TD*%
D16*
%TO.C,*%
X229997682Y-134333314D03*
%TD*%
D12*
%TO.C,S41*%
X263599338Y-170768826D03*
D13*
X268309432Y-168865825D03*
D12*
X273019526Y-166962824D03*
D14*
X265097018Y-174262157D03*
D15*
X263825361Y-167938029D03*
D14*
X270519611Y-174336211D03*
D15*
X268761477Y-163204229D03*
%TD*%
D12*
%TO.C,S32*%
X286697067Y-116353984D03*
D13*
X291407161Y-114450983D03*
D12*
X296117255Y-112547982D03*
D14*
X288194747Y-119847315D03*
D15*
X286923090Y-113523187D03*
D14*
X293617340Y-119921369D03*
D15*
X291859206Y-108789387D03*
%TD*%
D12*
%TO.C,S27*%
X323353560Y-105642234D03*
D13*
X328063654Y-103739233D03*
D12*
X332773748Y-101836232D03*
D14*
X324851240Y-109135565D03*
D15*
X323579583Y-102811437D03*
D14*
X330273833Y-109209619D03*
D15*
X328515699Y-98077637D03*
%TD*%
D16*
%TO.C,*%
X237997681Y-131793312D03*
%TD*%
%TO.C,*%
X207997681Y-134333315D03*
%TD*%
D14*
%TO.C,_138*%
X239259951Y-185725618D03*
%TD*%
D16*
%TO.C,*%
X199997681Y-149573314D03*
%TD*%
%TO.C,*%
X216997682Y-145475314D03*
%TD*%
%TO.C,*%
X199997680Y-139413315D03*
%TD*%
D14*
%TO.C,_130*%
X229497681Y-106475313D03*
%TD*%
D12*
%TO.C,S38*%
X252887586Y-134112334D03*
D13*
X257597680Y-132209333D03*
D12*
X262307774Y-130306332D03*
D14*
X254385266Y-137605665D03*
D15*
X253113609Y-131281537D03*
D14*
X259807859Y-137679719D03*
D15*
X258049725Y-126547737D03*
%TD*%
D12*
%TO.C,S22*%
X355205103Y-133757693D03*
D13*
X359915197Y-131854692D03*
D12*
X364625291Y-129951691D03*
D14*
X356702783Y-137251024D03*
D15*
X355431126Y-130926896D03*
D14*
X362125376Y-137325078D03*
D15*
X360367242Y-126193096D03*
%TD*%
D16*
%TO.C,*%
X229997681Y-136873314D03*
%TD*%
%TO.C,*%
X199997680Y-144493316D03*
%TD*%
D14*
%TO.C,_134*%
X198735411Y-185725617D03*
%TD*%
D12*
%TO.C,S5*%
X98104087Y-119452724D03*
D13*
X102814181Y-121355726D03*
D12*
X107524275Y-123258728D03*
D14*
X96754756Y-123005991D03*
D15*
X100233112Y-117573428D03*
D14*
X100604002Y-126826112D03*
D15*
X107072229Y-117597132D03*
%TD*%
D16*
%TO.C,*%
X199997681Y-141953315D03*
%TD*%
M02*
