%TF.GenerationSoftware,KiCad,Pcbnew,8.0.3*%
%TF.CreationDate,2024-06-30T01:12:36+02:00*%
%TF.ProjectId,kbd,6b62642e-6b69-4636-9164-5f7063625858,2*%
%TF.SameCoordinates,Original*%
%TF.FileFunction,Paste,Top*%
%TF.FilePolarity,Positive*%
%FSLAX46Y46*%
G04 Gerber Fmt 4.6, Leading zero omitted, Abs format (unit mm)*
G04 Created by KiCad (PCBNEW 8.0.3) date 2024-06-30 01:12:36*
%MOMM*%
%LPD*%
G01*
G04 APERTURE LIST*
G04 Aperture macros list*
%AMRoundRect*
0 Rectangle with rounded corners*
0 $1 Rounding radius*
0 $2 $3 $4 $5 $6 $7 $8 $9 X,Y pos of 4 corners*
0 Add a 4 corners polygon primitive as box body*
4,1,4,$2,$3,$4,$5,$6,$7,$8,$9,$2,$3,0*
0 Add four circle primitives for the rounded corners*
1,1,$1+$1,$2,$3*
1,1,$1+$1,$4,$5*
1,1,$1+$1,$6,$7*
1,1,$1+$1,$8,$9*
0 Add four rect primitives between the rounded corners*
20,1,$1+$1,$2,$3,$4,$5,0*
20,1,$1+$1,$4,$5,$6,$7,0*
20,1,$1+$1,$6,$7,$8,$9,0*
20,1,$1+$1,$8,$9,$2,$3,0*%
G04 Aperture macros list end*
%ADD10RoundRect,0.250000X-0.138144X0.325448X-0.325448X-0.138144X0.138144X-0.325448X0.325448X0.138144X0*%
%ADD11RoundRect,0.250000X-0.325448X0.138144X-0.138144X-0.325448X0.325448X-0.138144X0.138144X0.325448X0*%
%ADD12R,1.000000X0.800000*%
%ADD13R,0.700000X1.500000*%
G04 APERTURE END LIST*
D10*
%TO.C,D15*%
X175797962Y-89435047D03*
X174861446Y-91753007D03*
%TD*%
D11*
%TO.C,D30*%
X289814281Y-80484945D03*
X290750797Y-82802905D03*
%TD*%
D10*
%TO.C,D3*%
X98214465Y-78581440D03*
X97277949Y-80899400D03*
%TD*%
%TO.C,D5*%
X108713432Y-103315459D03*
X107776916Y-105633419D03*
%TD*%
%TO.C,D18*%
X193414455Y-96552572D03*
X192477939Y-98870532D03*
%TD*%
%TO.C,D13*%
X161562911Y-124668035D03*
X160626395Y-126985995D03*
%TD*%
%TO.C,D17*%
X186296931Y-114169067D03*
X185360415Y-116487027D03*
%TD*%
D11*
%TO.C,D28*%
X304049330Y-115717931D03*
X304985846Y-118035891D03*
%TD*%
%TO.C,D35*%
X259563561Y-107051541D03*
X260500077Y-109369501D03*
%TD*%
%TO.C,D39*%
X234829543Y-96552574D03*
X235766059Y-98870534D03*
%TD*%
%TO.C,D27*%
X312413041Y-85698964D03*
X313349557Y-88016924D03*
%TD*%
D10*
%TO.C,D11*%
X152487449Y-96410716D03*
X151550933Y-98728676D03*
%TD*%
D11*
%TO.C,D41*%
X252658820Y-150825558D03*
X253595336Y-153143518D03*
%TD*%
%TO.C,D25*%
X326648092Y-120931951D03*
X327584608Y-123249911D03*
%TD*%
%TO.C,D23*%
X337147059Y-96197933D03*
X338083575Y-98515893D03*
%TD*%
%TO.C,D32*%
X275756550Y-96410717D03*
X276693066Y-98728677D03*
%TD*%
D10*
%TO.C,D20*%
X175585178Y-150825557D03*
X174648662Y-153143517D03*
%TD*%
D12*
%TO.C,PWR1*%
X217771999Y-162359000D03*
X210471999Y-162359000D03*
X217771998Y-164569000D03*
X210472000Y-164569000D03*
D13*
X211871999Y-161709000D03*
X214871999Y-161709000D03*
X216371999Y-161709000D03*
%TD*%
D10*
%TO.C,D14*%
X168680438Y-107051541D03*
X167743922Y-109369501D03*
%TD*%
D11*
%TO.C,D40*%
X270275313Y-143708031D03*
X271211829Y-146025991D03*
%TD*%
D10*
%TO.C,D21*%
X193201671Y-157943082D03*
X192265155Y-160261042D03*
%TD*%
%TO.C,D7*%
X124194667Y-115717931D03*
X123258151Y-118035891D03*
%TD*%
%TO.C,D16*%
X179179405Y-131785560D03*
X178242889Y-134103520D03*
%TD*%
%TO.C,D1*%
X83979413Y-113814427D03*
X83042897Y-116132387D03*
%TD*%
D11*
%TO.C,D31*%
X282874074Y-114027209D03*
X283810590Y-116345169D03*
%TD*%
D10*
%TO.C,D6*%
X115830957Y-85698965D03*
X114894441Y-88016925D03*
%TD*%
D11*
%TO.C,D42*%
X235042326Y-157943083D03*
X235978842Y-160261043D03*
%TD*%
%TO.C,D29*%
X296931805Y-98101438D03*
X297868321Y-100419398D03*
%TD*%
D10*
%TO.C,D10*%
X145369923Y-114027210D03*
X144433407Y-116345170D03*
%TD*%
%TO.C,D8*%
X131312194Y-98101438D03*
X130375678Y-100419398D03*
%TD*%
D11*
%TO.C,D26*%
X319530567Y-103315458D03*
X320467083Y-105633418D03*
%TD*%
%TO.C,D24*%
X330029535Y-78581440D03*
X330966051Y-80899400D03*
%TD*%
D10*
%TO.C,D2*%
X91096937Y-96197933D03*
X90160421Y-98515893D03*
%TD*%
%TO.C,D4*%
X101595907Y-120931951D03*
X100659391Y-123249911D03*
%TD*%
%TO.C,D19*%
X157968685Y-143708033D03*
X157032169Y-146025993D03*
%TD*%
D11*
%TO.C,D22*%
X344264586Y-113814426D03*
X345201102Y-116132386D03*
%TD*%
%TO.C,D37*%
X249064594Y-131785558D03*
X250001110Y-134103518D03*
%TD*%
%TO.C,D36*%
X252446036Y-89435048D03*
X253382552Y-91753008D03*
%TD*%
%TO.C,D33*%
X268639024Y-78794225D03*
X269575540Y-81112185D03*
%TD*%
D10*
%TO.C,D12*%
X159604975Y-78794224D03*
X158668459Y-81112184D03*
%TD*%
%TO.C,D9*%
X138429718Y-80484945D03*
X137493202Y-82802905D03*
%TD*%
D11*
%TO.C,D34*%
X266681086Y-124668034D03*
X267617602Y-126985994D03*
%TD*%
%TO.C,D38*%
X241947068Y-114169065D03*
X242883584Y-116487025D03*
%TD*%
M02*
