%TF.GenerationSoftware,KiCad,Pcbnew,8.0.3*%
%TF.CreationDate,2024-06-30T16:48:01+02:00*%
%TF.ProjectId,kbd,6b62642e-6b69-4636-9164-5f7063625858,2*%
%TF.SameCoordinates,Original*%
%TF.FileFunction,Legend,Top*%
%TF.FilePolarity,Positive*%
%FSLAX46Y46*%
G04 Gerber Fmt 4.6, Leading zero omitted, Abs format (unit mm)*
G04 Created by KiCad (PCBNEW 8.0.3) date 2024-06-30 16:48:01*
%MOMM*%
%LPD*%
G01*
G04 APERTURE LIST*
G04 Aperture macros list*
%AMRoundRect*
0 Rectangle with rounded corners*
0 $1 Rounding radius*
0 $2 $3 $4 $5 $6 $7 $8 $9 X,Y pos of 4 corners*
0 Add a 4 corners polygon primitive as box body*
4,1,4,$2,$3,$4,$5,$6,$7,$8,$9,$2,$3,0*
0 Add four circle primitives for the rounded corners*
1,1,$1+$1,$2,$3*
1,1,$1+$1,$4,$5*
1,1,$1+$1,$6,$7*
1,1,$1+$1,$8,$9*
0 Add four rect primitives between the rounded corners*
20,1,$1+$1,$2,$3,$4,$5,0*
20,1,$1+$1,$4,$5,$6,$7,0*
20,1,$1+$1,$6,$7,$8,$9,0*
20,1,$1+$1,$8,$9,$2,$3,0*%
G04 Aperture macros list end*
%ADD10C,0.150000*%
%ADD11C,0.120000*%
%ADD12RoundRect,0.275000X-0.151959X0.357992X-0.357992X-0.151959X0.151959X-0.357992X0.357992X0.151959X0*%
%ADD13RoundRect,0.275000X-0.357992X0.151959X-0.151959X-0.357992X0.357992X-0.151959X0.151959X0.357992X0*%
%ADD14C,1.900000*%
%ADD15C,4.100000*%
%ADD16C,2.300000*%
%ADD17C,2.600000*%
%ADD18C,1.852600*%
%ADD19RoundRect,0.050000X-0.876300X0.876300X-0.876300X-0.876300X0.876300X-0.876300X0.876300X0.876300X0*%
%ADD20RoundRect,0.050000X-0.500000X-0.400000X0.500000X-0.400000X0.500000X0.400000X-0.500000X0.400000X0*%
%ADD21C,1.000000*%
%ADD22RoundRect,0.050000X-0.350000X-0.750000X0.350000X-0.750000X0.350000X0.750000X-0.350000X0.750000X0*%
G04 APERTURE END LIST*
D10*
X212074847Y-145572670D02*
X212217704Y-145620289D01*
X212217704Y-145620289D02*
X212265323Y-145667908D01*
X212265323Y-145667908D02*
X212312942Y-145763146D01*
X212312942Y-145763146D02*
X212312942Y-145906003D01*
X212312942Y-145906003D02*
X212265323Y-146001241D01*
X212265323Y-146001241D02*
X212217704Y-146048861D01*
X212217704Y-146048861D02*
X212122466Y-146096480D01*
X212122466Y-146096480D02*
X211741514Y-146096480D01*
X211741514Y-146096480D02*
X211741514Y-145096480D01*
X211741514Y-145096480D02*
X212074847Y-145096480D01*
X212074847Y-145096480D02*
X212170085Y-145144099D01*
X212170085Y-145144099D02*
X212217704Y-145191718D01*
X212217704Y-145191718D02*
X212265323Y-145286956D01*
X212265323Y-145286956D02*
X212265323Y-145382194D01*
X212265323Y-145382194D02*
X212217704Y-145477432D01*
X212217704Y-145477432D02*
X212170085Y-145525051D01*
X212170085Y-145525051D02*
X212074847Y-145572670D01*
X212074847Y-145572670D02*
X211741514Y-145572670D01*
X212693895Y-145810765D02*
X213170085Y-145810765D01*
X212598657Y-146096480D02*
X212931990Y-145096480D01*
X212931990Y-145096480D02*
X213265323Y-146096480D01*
X213455800Y-145096480D02*
X214027228Y-145096480D01*
X213741514Y-146096480D02*
X213741514Y-145096480D01*
X214360562Y-145715527D02*
X215122467Y-145715527D01*
X214741514Y-146096480D02*
X214741514Y-145334575D01*
X215636173Y-171756136D02*
X215636173Y-172470421D01*
X215636173Y-172470421D02*
X215588554Y-172613278D01*
X215588554Y-172613278D02*
X215493316Y-172708517D01*
X215493316Y-172708517D02*
X215350459Y-172756136D01*
X215350459Y-172756136D02*
X215255221Y-172756136D01*
X216588554Y-172756136D02*
X216112364Y-172756136D01*
X216112364Y-172756136D02*
X216112364Y-171756136D01*
X217493316Y-172660897D02*
X217445697Y-172708517D01*
X217445697Y-172708517D02*
X217302840Y-172756136D01*
X217302840Y-172756136D02*
X217207602Y-172756136D01*
X217207602Y-172756136D02*
X217064745Y-172708517D01*
X217064745Y-172708517D02*
X216969507Y-172613278D01*
X216969507Y-172613278D02*
X216921888Y-172518040D01*
X216921888Y-172518040D02*
X216874269Y-172327564D01*
X216874269Y-172327564D02*
X216874269Y-172184707D01*
X216874269Y-172184707D02*
X216921888Y-171994231D01*
X216921888Y-171994231D02*
X216969507Y-171898993D01*
X216969507Y-171898993D02*
X217064745Y-171803755D01*
X217064745Y-171803755D02*
X217207602Y-171756136D01*
X217207602Y-171756136D02*
X217302840Y-171756136D01*
X217302840Y-171756136D02*
X217445697Y-171803755D01*
X217445697Y-171803755D02*
X217493316Y-171851374D01*
X218207602Y-171756136D02*
X218207602Y-172470421D01*
X218207602Y-172470421D02*
X218159983Y-172613278D01*
X218159983Y-172613278D02*
X218064745Y-172708517D01*
X218064745Y-172708517D02*
X217921888Y-172756136D01*
X217921888Y-172756136D02*
X217826650Y-172756136D01*
X219159983Y-172756136D02*
X218683793Y-172756136D01*
X218683793Y-172756136D02*
X218683793Y-171756136D01*
X220064745Y-172660897D02*
X220017126Y-172708517D01*
X220017126Y-172708517D02*
X219874269Y-172756136D01*
X219874269Y-172756136D02*
X219779031Y-172756136D01*
X219779031Y-172756136D02*
X219636174Y-172708517D01*
X219636174Y-172708517D02*
X219540936Y-172613278D01*
X219540936Y-172613278D02*
X219493317Y-172518040D01*
X219493317Y-172518040D02*
X219445698Y-172327564D01*
X219445698Y-172327564D02*
X219445698Y-172184707D01*
X219445698Y-172184707D02*
X219493317Y-171994231D01*
X219493317Y-171994231D02*
X219540936Y-171898993D01*
X219540936Y-171898993D02*
X219636174Y-171803755D01*
X219636174Y-171803755D02*
X219779031Y-171756136D01*
X219779031Y-171756136D02*
X219874269Y-171756136D01*
X219874269Y-171756136D02*
X220017126Y-171803755D01*
X220017126Y-171803755D02*
X220064745Y-171851374D01*
X220779031Y-171756136D02*
X220779031Y-172470421D01*
X220779031Y-172470421D02*
X220731412Y-172613278D01*
X220731412Y-172613278D02*
X220636174Y-172708517D01*
X220636174Y-172708517D02*
X220493317Y-172756136D01*
X220493317Y-172756136D02*
X220398079Y-172756136D01*
X221731412Y-172756136D02*
X221255222Y-172756136D01*
X221255222Y-172756136D02*
X221255222Y-171756136D01*
X222636174Y-172660897D02*
X222588555Y-172708517D01*
X222588555Y-172708517D02*
X222445698Y-172756136D01*
X222445698Y-172756136D02*
X222350460Y-172756136D01*
X222350460Y-172756136D02*
X222207603Y-172708517D01*
X222207603Y-172708517D02*
X222112365Y-172613278D01*
X222112365Y-172613278D02*
X222064746Y-172518040D01*
X222064746Y-172518040D02*
X222017127Y-172327564D01*
X222017127Y-172327564D02*
X222017127Y-172184707D01*
X222017127Y-172184707D02*
X222064746Y-171994231D01*
X222064746Y-171994231D02*
X222112365Y-171898993D01*
X222112365Y-171898993D02*
X222207603Y-171803755D01*
X222207603Y-171803755D02*
X222350460Y-171756136D01*
X222350460Y-171756136D02*
X222445698Y-171756136D01*
X222445698Y-171756136D02*
X222588555Y-171803755D01*
X222588555Y-171803755D02*
X222636174Y-171851374D01*
X223350460Y-171756136D02*
X223350460Y-172470421D01*
X223350460Y-172470421D02*
X223302841Y-172613278D01*
X223302841Y-172613278D02*
X223207603Y-172708517D01*
X223207603Y-172708517D02*
X223064746Y-172756136D01*
X223064746Y-172756136D02*
X222969508Y-172756136D01*
X224302841Y-172756136D02*
X223826651Y-172756136D01*
X223826651Y-172756136D02*
X223826651Y-171756136D01*
X225207603Y-172660897D02*
X225159984Y-172708517D01*
X225159984Y-172708517D02*
X225017127Y-172756136D01*
X225017127Y-172756136D02*
X224921889Y-172756136D01*
X224921889Y-172756136D02*
X224779032Y-172708517D01*
X224779032Y-172708517D02*
X224683794Y-172613278D01*
X224683794Y-172613278D02*
X224636175Y-172518040D01*
X224636175Y-172518040D02*
X224588556Y-172327564D01*
X224588556Y-172327564D02*
X224588556Y-172184707D01*
X224588556Y-172184707D02*
X224636175Y-171994231D01*
X224636175Y-171994231D02*
X224683794Y-171898993D01*
X224683794Y-171898993D02*
X224779032Y-171803755D01*
X224779032Y-171803755D02*
X224921889Y-171756136D01*
X224921889Y-171756136D02*
X225017127Y-171756136D01*
X225017127Y-171756136D02*
X225159984Y-171803755D01*
X225159984Y-171803755D02*
X225207603Y-171851374D01*
X213050460Y-158756135D02*
X213050460Y-157756135D01*
X213050460Y-158137087D02*
X213145698Y-158089468D01*
X213145698Y-158089468D02*
X213336174Y-158089468D01*
X213336174Y-158089468D02*
X213431412Y-158137087D01*
X213431412Y-158137087D02*
X213479031Y-158184706D01*
X213479031Y-158184706D02*
X213526650Y-158279944D01*
X213526650Y-158279944D02*
X213526650Y-158565658D01*
X213526650Y-158565658D02*
X213479031Y-158660896D01*
X213479031Y-158660896D02*
X213431412Y-158708516D01*
X213431412Y-158708516D02*
X213336174Y-158756135D01*
X213336174Y-158756135D02*
X213145698Y-158756135D01*
X213145698Y-158756135D02*
X213050460Y-158708516D01*
X213859984Y-158089468D02*
X214098079Y-158756135D01*
X214336174Y-158089468D02*
X214098079Y-158756135D01*
X214098079Y-158756135D02*
X214002841Y-158994230D01*
X214002841Y-158994230D02*
X213955222Y-159041849D01*
X213955222Y-159041849D02*
X213859984Y-159089468D01*
X216098079Y-158279944D02*
X216050460Y-158232325D01*
X216050460Y-158232325D02*
X215955222Y-158184706D01*
X215955222Y-158184706D02*
X215859984Y-158184706D01*
X215859984Y-158184706D02*
X215764746Y-158232325D01*
X215764746Y-158232325D02*
X215717127Y-158279944D01*
X215717127Y-158279944D02*
X215669508Y-158375182D01*
X215669508Y-158375182D02*
X215669508Y-158470420D01*
X215669508Y-158470420D02*
X215717127Y-158565658D01*
X215717127Y-158565658D02*
X215764746Y-158613277D01*
X215764746Y-158613277D02*
X215859984Y-158660896D01*
X215859984Y-158660896D02*
X215955222Y-158660896D01*
X215955222Y-158660896D02*
X216050460Y-158613277D01*
X216050460Y-158613277D02*
X216098079Y-158565658D01*
X216098079Y-158184706D02*
X216098079Y-158565658D01*
X216098079Y-158565658D02*
X216145698Y-158613277D01*
X216145698Y-158613277D02*
X216193317Y-158613277D01*
X216193317Y-158613277D02*
X216288556Y-158565658D01*
X216288556Y-158565658D02*
X216336175Y-158470420D01*
X216336175Y-158470420D02*
X216336175Y-158232325D01*
X216336175Y-158232325D02*
X216240937Y-158089468D01*
X216240937Y-158089468D02*
X216098079Y-157994230D01*
X216098079Y-157994230D02*
X215907603Y-157946611D01*
X215907603Y-157946611D02*
X215717127Y-157994230D01*
X215717127Y-157994230D02*
X215574270Y-158089468D01*
X215574270Y-158089468D02*
X215479032Y-158232325D01*
X215479032Y-158232325D02*
X215431413Y-158422801D01*
X215431413Y-158422801D02*
X215479032Y-158613277D01*
X215479032Y-158613277D02*
X215574270Y-158756135D01*
X215574270Y-158756135D02*
X215717127Y-158851373D01*
X215717127Y-158851373D02*
X215907603Y-158898992D01*
X215907603Y-158898992D02*
X216098079Y-158851373D01*
X216098079Y-158851373D02*
X216240937Y-158756135D01*
X216764746Y-158756135D02*
X216764746Y-157756135D01*
X216859984Y-158375182D02*
X217145698Y-158756135D01*
X217145698Y-158089468D02*
X216764746Y-158470420D01*
X218002841Y-158089468D02*
X218002841Y-158756135D01*
X217574270Y-158089468D02*
X217574270Y-158613277D01*
X217574270Y-158613277D02*
X217621889Y-158708516D01*
X217621889Y-158708516D02*
X217717127Y-158756135D01*
X217717127Y-158756135D02*
X217859984Y-158756135D01*
X217859984Y-158756135D02*
X217955222Y-158708516D01*
X217955222Y-158708516D02*
X218002841Y-158660896D01*
X218479032Y-158756135D02*
X218479032Y-158089468D01*
X218479032Y-158184706D02*
X218526651Y-158137087D01*
X218526651Y-158137087D02*
X218621889Y-158089468D01*
X218621889Y-158089468D02*
X218764746Y-158089468D01*
X218764746Y-158089468D02*
X218859984Y-158137087D01*
X218859984Y-158137087D02*
X218907603Y-158232325D01*
X218907603Y-158232325D02*
X218907603Y-158756135D01*
X218907603Y-158232325D02*
X218955222Y-158137087D01*
X218955222Y-158137087D02*
X219050460Y-158089468D01*
X219050460Y-158089468D02*
X219193317Y-158089468D01*
X219193317Y-158089468D02*
X219288556Y-158137087D01*
X219288556Y-158137087D02*
X219336175Y-158232325D01*
X219336175Y-158232325D02*
X219336175Y-158756135D01*
X220193317Y-158708516D02*
X220098079Y-158756135D01*
X220098079Y-158756135D02*
X219907603Y-158756135D01*
X219907603Y-158756135D02*
X219812365Y-158708516D01*
X219812365Y-158708516D02*
X219764746Y-158613277D01*
X219764746Y-158613277D02*
X219764746Y-158232325D01*
X219764746Y-158232325D02*
X219812365Y-158137087D01*
X219812365Y-158137087D02*
X219907603Y-158089468D01*
X219907603Y-158089468D02*
X220098079Y-158089468D01*
X220098079Y-158089468D02*
X220193317Y-158137087D01*
X220193317Y-158137087D02*
X220240936Y-158232325D01*
X220240936Y-158232325D02*
X220240936Y-158327563D01*
X220240936Y-158327563D02*
X219764746Y-158422801D01*
X220669508Y-158756135D02*
X220669508Y-157756135D01*
X220764746Y-158375182D02*
X221050460Y-158756135D01*
X221050460Y-158089468D02*
X220669508Y-158470420D01*
X221907603Y-158756135D02*
X221907603Y-158232325D01*
X221907603Y-158232325D02*
X221859984Y-158137087D01*
X221859984Y-158137087D02*
X221764746Y-158089468D01*
X221764746Y-158089468D02*
X221574270Y-158089468D01*
X221574270Y-158089468D02*
X221479032Y-158137087D01*
X221907603Y-158708516D02*
X221812365Y-158756135D01*
X221812365Y-158756135D02*
X221574270Y-158756135D01*
X221574270Y-158756135D02*
X221479032Y-158708516D01*
X221479032Y-158708516D02*
X221431413Y-158613277D01*
X221431413Y-158613277D02*
X221431413Y-158518039D01*
X221431413Y-158518039D02*
X221479032Y-158422801D01*
X221479032Y-158422801D02*
X221574270Y-158375182D01*
X221574270Y-158375182D02*
X221812365Y-158375182D01*
X221812365Y-158375182D02*
X221907603Y-158327563D01*
X222288556Y-158089468D02*
X222526651Y-158756135D01*
X222764746Y-158089468D02*
X222526651Y-158756135D01*
X222526651Y-158756135D02*
X222431413Y-158994230D01*
X222431413Y-158994230D02*
X222383794Y-159041849D01*
X222383794Y-159041849D02*
X222288556Y-159089468D01*
X223859985Y-157851373D02*
X223907604Y-157803754D01*
X223907604Y-157803754D02*
X224002842Y-157756135D01*
X224002842Y-157756135D02*
X224240937Y-157756135D01*
X224240937Y-157756135D02*
X224336175Y-157803754D01*
X224336175Y-157803754D02*
X224383794Y-157851373D01*
X224383794Y-157851373D02*
X224431413Y-157946611D01*
X224431413Y-157946611D02*
X224431413Y-158041849D01*
X224431413Y-158041849D02*
X224383794Y-158184706D01*
X224383794Y-158184706D02*
X223812366Y-158756135D01*
X223812366Y-158756135D02*
X224431413Y-158756135D01*
X225050461Y-157756135D02*
X225145699Y-157756135D01*
X225145699Y-157756135D02*
X225240937Y-157803754D01*
X225240937Y-157803754D02*
X225288556Y-157851373D01*
X225288556Y-157851373D02*
X225336175Y-157946611D01*
X225336175Y-157946611D02*
X225383794Y-158137087D01*
X225383794Y-158137087D02*
X225383794Y-158375182D01*
X225383794Y-158375182D02*
X225336175Y-158565658D01*
X225336175Y-158565658D02*
X225288556Y-158660896D01*
X225288556Y-158660896D02*
X225240937Y-158708516D01*
X225240937Y-158708516D02*
X225145699Y-158756135D01*
X225145699Y-158756135D02*
X225050461Y-158756135D01*
X225050461Y-158756135D02*
X224955223Y-158708516D01*
X224955223Y-158708516D02*
X224907604Y-158660896D01*
X224907604Y-158660896D02*
X224859985Y-158565658D01*
X224859985Y-158565658D02*
X224812366Y-158375182D01*
X224812366Y-158375182D02*
X224812366Y-158137087D01*
X224812366Y-158137087D02*
X224859985Y-157946611D01*
X224859985Y-157946611D02*
X224907604Y-157851373D01*
X224907604Y-157851373D02*
X224955223Y-157803754D01*
X224955223Y-157803754D02*
X225050461Y-157756135D01*
X225764747Y-157851373D02*
X225812366Y-157803754D01*
X225812366Y-157803754D02*
X225907604Y-157756135D01*
X225907604Y-157756135D02*
X226145699Y-157756135D01*
X226145699Y-157756135D02*
X226240937Y-157803754D01*
X226240937Y-157803754D02*
X226288556Y-157851373D01*
X226288556Y-157851373D02*
X226336175Y-157946611D01*
X226336175Y-157946611D02*
X226336175Y-158041849D01*
X226336175Y-158041849D02*
X226288556Y-158184706D01*
X226288556Y-158184706D02*
X225717128Y-158756135D01*
X225717128Y-158756135D02*
X226336175Y-158756135D01*
X227193318Y-158089468D02*
X227193318Y-158756135D01*
X226955223Y-157708516D02*
X226717128Y-158422801D01*
X226717128Y-158422801D02*
X227336175Y-158422801D01*
X223495358Y-145572670D02*
X223638215Y-145620289D01*
X223638215Y-145620289D02*
X223685834Y-145667908D01*
X223685834Y-145667908D02*
X223733453Y-145763146D01*
X223733453Y-145763146D02*
X223733453Y-145906003D01*
X223733453Y-145906003D02*
X223685834Y-146001241D01*
X223685834Y-146001241D02*
X223638215Y-146048861D01*
X223638215Y-146048861D02*
X223542977Y-146096480D01*
X223542977Y-146096480D02*
X223162025Y-146096480D01*
X223162025Y-146096480D02*
X223162025Y-145096480D01*
X223162025Y-145096480D02*
X223495358Y-145096480D01*
X223495358Y-145096480D02*
X223590596Y-145144099D01*
X223590596Y-145144099D02*
X223638215Y-145191718D01*
X223638215Y-145191718D02*
X223685834Y-145286956D01*
X223685834Y-145286956D02*
X223685834Y-145382194D01*
X223685834Y-145382194D02*
X223638215Y-145477432D01*
X223638215Y-145477432D02*
X223590596Y-145525051D01*
X223590596Y-145525051D02*
X223495358Y-145572670D01*
X223495358Y-145572670D02*
X223162025Y-145572670D01*
X224114406Y-145810765D02*
X224590596Y-145810765D01*
X224019168Y-146096480D02*
X224352501Y-145096480D01*
X224352501Y-145096480D02*
X224685834Y-146096480D01*
X224876311Y-145096480D02*
X225447739Y-145096480D01*
X225162025Y-146096480D02*
X225162025Y-145096480D01*
X225781073Y-145715527D02*
X226542978Y-145715527D01*
X213779031Y-156708517D02*
X213683793Y-156756136D01*
X213683793Y-156756136D02*
X213493317Y-156756136D01*
X213493317Y-156756136D02*
X213398079Y-156708517D01*
X213398079Y-156708517D02*
X213350460Y-156660897D01*
X213350460Y-156660897D02*
X213302841Y-156565659D01*
X213302841Y-156565659D02*
X213302841Y-156279945D01*
X213302841Y-156279945D02*
X213350460Y-156184707D01*
X213350460Y-156184707D02*
X213398079Y-156137088D01*
X213398079Y-156137088D02*
X213493317Y-156089469D01*
X213493317Y-156089469D02*
X213683793Y-156089469D01*
X213683793Y-156089469D02*
X213779031Y-156137088D01*
X214207603Y-156756136D02*
X214207603Y-156089469D01*
X214207603Y-156279945D02*
X214255222Y-156184707D01*
X214255222Y-156184707D02*
X214302841Y-156137088D01*
X214302841Y-156137088D02*
X214398079Y-156089469D01*
X214398079Y-156089469D02*
X214493317Y-156089469D01*
X215255222Y-156756136D02*
X215255222Y-156232326D01*
X215255222Y-156232326D02*
X215207603Y-156137088D01*
X215207603Y-156137088D02*
X215112365Y-156089469D01*
X215112365Y-156089469D02*
X214921889Y-156089469D01*
X214921889Y-156089469D02*
X214826651Y-156137088D01*
X215255222Y-156708517D02*
X215159984Y-156756136D01*
X215159984Y-156756136D02*
X214921889Y-156756136D01*
X214921889Y-156756136D02*
X214826651Y-156708517D01*
X214826651Y-156708517D02*
X214779032Y-156613278D01*
X214779032Y-156613278D02*
X214779032Y-156518040D01*
X214779032Y-156518040D02*
X214826651Y-156422802D01*
X214826651Y-156422802D02*
X214921889Y-156375183D01*
X214921889Y-156375183D02*
X215159984Y-156375183D01*
X215159984Y-156375183D02*
X215255222Y-156327564D01*
X215731413Y-156756136D02*
X215731413Y-155756136D01*
X215731413Y-156137088D02*
X215826651Y-156089469D01*
X215826651Y-156089469D02*
X216017127Y-156089469D01*
X216017127Y-156089469D02*
X216112365Y-156137088D01*
X216112365Y-156137088D02*
X216159984Y-156184707D01*
X216159984Y-156184707D02*
X216207603Y-156279945D01*
X216207603Y-156279945D02*
X216207603Y-156565659D01*
X216207603Y-156565659D02*
X216159984Y-156660897D01*
X216159984Y-156660897D02*
X216112365Y-156708517D01*
X216112365Y-156708517D02*
X216017127Y-156756136D01*
X216017127Y-156756136D02*
X215826651Y-156756136D01*
X215826651Y-156756136D02*
X215731413Y-156708517D01*
X217064746Y-156756136D02*
X217064746Y-156232326D01*
X217064746Y-156232326D02*
X217017127Y-156137088D01*
X217017127Y-156137088D02*
X216921889Y-156089469D01*
X216921889Y-156089469D02*
X216731413Y-156089469D01*
X216731413Y-156089469D02*
X216636175Y-156137088D01*
X217064746Y-156708517D02*
X216969508Y-156756136D01*
X216969508Y-156756136D02*
X216731413Y-156756136D01*
X216731413Y-156756136D02*
X216636175Y-156708517D01*
X216636175Y-156708517D02*
X216588556Y-156613278D01*
X216588556Y-156613278D02*
X216588556Y-156518040D01*
X216588556Y-156518040D02*
X216636175Y-156422802D01*
X216636175Y-156422802D02*
X216731413Y-156375183D01*
X216731413Y-156375183D02*
X216969508Y-156375183D01*
X216969508Y-156375183D02*
X217064746Y-156327564D01*
X217540937Y-156089469D02*
X217540937Y-157089469D01*
X217540937Y-156137088D02*
X217636175Y-156089469D01*
X217636175Y-156089469D02*
X217826651Y-156089469D01*
X217826651Y-156089469D02*
X217921889Y-156137088D01*
X217921889Y-156137088D02*
X217969508Y-156184707D01*
X217969508Y-156184707D02*
X218017127Y-156279945D01*
X218017127Y-156279945D02*
X218017127Y-156565659D01*
X218017127Y-156565659D02*
X217969508Y-156660897D01*
X217969508Y-156660897D02*
X217921889Y-156708517D01*
X217921889Y-156708517D02*
X217826651Y-156756136D01*
X217826651Y-156756136D02*
X217636175Y-156756136D01*
X217636175Y-156756136D02*
X217540937Y-156708517D01*
X218445699Y-156089469D02*
X218445699Y-157089469D01*
X218445699Y-156137088D02*
X218540937Y-156089469D01*
X218540937Y-156089469D02*
X218731413Y-156089469D01*
X218731413Y-156089469D02*
X218826651Y-156137088D01*
X218826651Y-156137088D02*
X218874270Y-156184707D01*
X218874270Y-156184707D02*
X218921889Y-156279945D01*
X218921889Y-156279945D02*
X218921889Y-156565659D01*
X218921889Y-156565659D02*
X218874270Y-156660897D01*
X218874270Y-156660897D02*
X218826651Y-156708517D01*
X218826651Y-156708517D02*
X218731413Y-156756136D01*
X218731413Y-156756136D02*
X218540937Y-156756136D01*
X218540937Y-156756136D02*
X218445699Y-156708517D01*
X219493318Y-156756136D02*
X219398080Y-156708517D01*
X219398080Y-156708517D02*
X219350461Y-156613278D01*
X219350461Y-156613278D02*
X219350461Y-155756136D01*
X220255223Y-156708517D02*
X220159985Y-156756136D01*
X220159985Y-156756136D02*
X219969509Y-156756136D01*
X219969509Y-156756136D02*
X219874271Y-156708517D01*
X219874271Y-156708517D02*
X219826652Y-156613278D01*
X219826652Y-156613278D02*
X219826652Y-156232326D01*
X219826652Y-156232326D02*
X219874271Y-156137088D01*
X219874271Y-156137088D02*
X219969509Y-156089469D01*
X219969509Y-156089469D02*
X220159985Y-156089469D01*
X220159985Y-156089469D02*
X220255223Y-156137088D01*
X220255223Y-156137088D02*
X220302842Y-156232326D01*
X220302842Y-156232326D02*
X220302842Y-156327564D01*
X220302842Y-156327564D02*
X219826652Y-156422802D01*
X220731414Y-156089469D02*
X220731414Y-157089469D01*
X220731414Y-156137088D02*
X220826652Y-156089469D01*
X220826652Y-156089469D02*
X221017128Y-156089469D01*
X221017128Y-156089469D02*
X221112366Y-156137088D01*
X221112366Y-156137088D02*
X221159985Y-156184707D01*
X221159985Y-156184707D02*
X221207604Y-156279945D01*
X221207604Y-156279945D02*
X221207604Y-156565659D01*
X221207604Y-156565659D02*
X221159985Y-156660897D01*
X221159985Y-156660897D02*
X221112366Y-156708517D01*
X221112366Y-156708517D02*
X221017128Y-156756136D01*
X221017128Y-156756136D02*
X220826652Y-156756136D01*
X220826652Y-156756136D02*
X220731414Y-156708517D01*
X222064747Y-156756136D02*
X222064747Y-156232326D01*
X222064747Y-156232326D02*
X222017128Y-156137088D01*
X222017128Y-156137088D02*
X221921890Y-156089469D01*
X221921890Y-156089469D02*
X221731414Y-156089469D01*
X221731414Y-156089469D02*
X221636176Y-156137088D01*
X222064747Y-156708517D02*
X221969509Y-156756136D01*
X221969509Y-156756136D02*
X221731414Y-156756136D01*
X221731414Y-156756136D02*
X221636176Y-156708517D01*
X221636176Y-156708517D02*
X221588557Y-156613278D01*
X221588557Y-156613278D02*
X221588557Y-156518040D01*
X221588557Y-156518040D02*
X221636176Y-156422802D01*
X221636176Y-156422802D02*
X221731414Y-156375183D01*
X221731414Y-156375183D02*
X221969509Y-156375183D01*
X221969509Y-156375183D02*
X222064747Y-156327564D01*
X222969509Y-156756136D02*
X222969509Y-155756136D01*
X222969509Y-156708517D02*
X222874271Y-156756136D01*
X222874271Y-156756136D02*
X222683795Y-156756136D01*
X222683795Y-156756136D02*
X222588557Y-156708517D01*
X222588557Y-156708517D02*
X222540938Y-156660897D01*
X222540938Y-156660897D02*
X222493319Y-156565659D01*
X222493319Y-156565659D02*
X222493319Y-156279945D01*
X222493319Y-156279945D02*
X222540938Y-156184707D01*
X222540938Y-156184707D02*
X222588557Y-156137088D01*
X222588557Y-156137088D02*
X222683795Y-156089469D01*
X222683795Y-156089469D02*
X222874271Y-156089469D01*
X222874271Y-156089469D02*
X222969509Y-156137088D01*
X224112367Y-156089469D02*
X224350462Y-156756136D01*
X224350462Y-156756136D02*
X224588557Y-156089469D01*
X224921891Y-155851374D02*
X224969510Y-155803755D01*
X224969510Y-155803755D02*
X225064748Y-155756136D01*
X225064748Y-155756136D02*
X225302843Y-155756136D01*
X225302843Y-155756136D02*
X225398081Y-155803755D01*
X225398081Y-155803755D02*
X225445700Y-155851374D01*
X225445700Y-155851374D02*
X225493319Y-155946612D01*
X225493319Y-155946612D02*
X225493319Y-156041850D01*
X225493319Y-156041850D02*
X225445700Y-156184707D01*
X225445700Y-156184707D02*
X224874272Y-156756136D01*
X224874272Y-156756136D02*
X225493319Y-156756136D01*
X225921891Y-156660897D02*
X225969510Y-156708517D01*
X225969510Y-156708517D02*
X225921891Y-156756136D01*
X225921891Y-156756136D02*
X225874272Y-156708517D01*
X225874272Y-156708517D02*
X225921891Y-156660897D01*
X225921891Y-156660897D02*
X225921891Y-156756136D01*
X226588557Y-155756136D02*
X226683795Y-155756136D01*
X226683795Y-155756136D02*
X226779033Y-155803755D01*
X226779033Y-155803755D02*
X226826652Y-155851374D01*
X226826652Y-155851374D02*
X226874271Y-155946612D01*
X226874271Y-155946612D02*
X226921890Y-156137088D01*
X226921890Y-156137088D02*
X226921890Y-156375183D01*
X226921890Y-156375183D02*
X226874271Y-156565659D01*
X226874271Y-156565659D02*
X226826652Y-156660897D01*
X226826652Y-156660897D02*
X226779033Y-156708517D01*
X226779033Y-156708517D02*
X226683795Y-156756136D01*
X226683795Y-156756136D02*
X226588557Y-156756136D01*
X226588557Y-156756136D02*
X226493319Y-156708517D01*
X226493319Y-156708517D02*
X226445700Y-156660897D01*
X226445700Y-156660897D02*
X226398081Y-156565659D01*
X226398081Y-156565659D02*
X226350462Y-156375183D01*
X226350462Y-156375183D02*
X226350462Y-156137088D01*
X226350462Y-156137088D02*
X226398081Y-155946612D01*
X226398081Y-155946612D02*
X226445700Y-155851374D01*
X226445700Y-155851374D02*
X226493319Y-155803755D01*
X226493319Y-155803755D02*
X226588557Y-155756136D01*
X212807205Y-139360135D02*
X212807205Y-138360135D01*
X212807205Y-138360135D02*
X213188157Y-138360135D01*
X213188157Y-138360135D02*
X213283395Y-138407754D01*
X213283395Y-138407754D02*
X213331014Y-138455373D01*
X213331014Y-138455373D02*
X213378633Y-138550611D01*
X213378633Y-138550611D02*
X213378633Y-138693468D01*
X213378633Y-138693468D02*
X213331014Y-138788706D01*
X213331014Y-138788706D02*
X213283395Y-138836325D01*
X213283395Y-138836325D02*
X213188157Y-138883944D01*
X213188157Y-138883944D02*
X212807205Y-138883944D01*
X213997681Y-138360135D02*
X214092919Y-138360135D01*
X214092919Y-138360135D02*
X214188157Y-138407754D01*
X214188157Y-138407754D02*
X214235776Y-138455373D01*
X214235776Y-138455373D02*
X214283395Y-138550611D01*
X214283395Y-138550611D02*
X214331014Y-138741087D01*
X214331014Y-138741087D02*
X214331014Y-138979182D01*
X214331014Y-138979182D02*
X214283395Y-139169658D01*
X214283395Y-139169658D02*
X214235776Y-139264896D01*
X214235776Y-139264896D02*
X214188157Y-139312516D01*
X214188157Y-139312516D02*
X214092919Y-139360135D01*
X214092919Y-139360135D02*
X213997681Y-139360135D01*
X213997681Y-139360135D02*
X213902443Y-139312516D01*
X213902443Y-139312516D02*
X213854824Y-139264896D01*
X213854824Y-139264896D02*
X213807205Y-139169658D01*
X213807205Y-139169658D02*
X213759586Y-138979182D01*
X213759586Y-138979182D02*
X213759586Y-138741087D01*
X213759586Y-138741087D02*
X213807205Y-138550611D01*
X213807205Y-138550611D02*
X213854824Y-138455373D01*
X213854824Y-138455373D02*
X213902443Y-138407754D01*
X213902443Y-138407754D02*
X213997681Y-138360135D01*
X215283395Y-139360135D02*
X214711967Y-139360135D01*
X214997681Y-139360135D02*
X214997681Y-138360135D01*
X214997681Y-138360135D02*
X214902443Y-138502992D01*
X214902443Y-138502992D02*
X214807205Y-138598230D01*
X214807205Y-138598230D02*
X214711967Y-138645849D01*
X215902443Y-138360135D02*
X215997681Y-138360135D01*
X215997681Y-138360135D02*
X216092919Y-138407754D01*
X216092919Y-138407754D02*
X216140538Y-138455373D01*
X216140538Y-138455373D02*
X216188157Y-138550611D01*
X216188157Y-138550611D02*
X216235776Y-138741087D01*
X216235776Y-138741087D02*
X216235776Y-138979182D01*
X216235776Y-138979182D02*
X216188157Y-139169658D01*
X216188157Y-139169658D02*
X216140538Y-139264896D01*
X216140538Y-139264896D02*
X216092919Y-139312516D01*
X216092919Y-139312516D02*
X215997681Y-139360135D01*
X215997681Y-139360135D02*
X215902443Y-139360135D01*
X215902443Y-139360135D02*
X215807205Y-139312516D01*
X215807205Y-139312516D02*
X215759586Y-139264896D01*
X215759586Y-139264896D02*
X215711967Y-139169658D01*
X215711967Y-139169658D02*
X215664348Y-138979182D01*
X215664348Y-138979182D02*
X215664348Y-138741087D01*
X215664348Y-138741087D02*
X215711967Y-138550611D01*
X215711967Y-138550611D02*
X215759586Y-138455373D01*
X215759586Y-138455373D02*
X215807205Y-138407754D01*
X215807205Y-138407754D02*
X215902443Y-138360135D01*
X221807205Y-126660135D02*
X221807205Y-125660135D01*
X221807205Y-125660135D02*
X222188157Y-125660135D01*
X222188157Y-125660135D02*
X222283395Y-125707754D01*
X222283395Y-125707754D02*
X222331014Y-125755373D01*
X222331014Y-125755373D02*
X222378633Y-125850611D01*
X222378633Y-125850611D02*
X222378633Y-125993468D01*
X222378633Y-125993468D02*
X222331014Y-126088706D01*
X222331014Y-126088706D02*
X222283395Y-126136325D01*
X222283395Y-126136325D02*
X222188157Y-126183944D01*
X222188157Y-126183944D02*
X221807205Y-126183944D01*
X222997681Y-125660135D02*
X223092919Y-125660135D01*
X223092919Y-125660135D02*
X223188157Y-125707754D01*
X223188157Y-125707754D02*
X223235776Y-125755373D01*
X223235776Y-125755373D02*
X223283395Y-125850611D01*
X223283395Y-125850611D02*
X223331014Y-126041087D01*
X223331014Y-126041087D02*
X223331014Y-126279182D01*
X223331014Y-126279182D02*
X223283395Y-126469658D01*
X223283395Y-126469658D02*
X223235776Y-126564896D01*
X223235776Y-126564896D02*
X223188157Y-126612516D01*
X223188157Y-126612516D02*
X223092919Y-126660135D01*
X223092919Y-126660135D02*
X222997681Y-126660135D01*
X222997681Y-126660135D02*
X222902443Y-126612516D01*
X222902443Y-126612516D02*
X222854824Y-126564896D01*
X222854824Y-126564896D02*
X222807205Y-126469658D01*
X222807205Y-126469658D02*
X222759586Y-126279182D01*
X222759586Y-126279182D02*
X222759586Y-126041087D01*
X222759586Y-126041087D02*
X222807205Y-125850611D01*
X222807205Y-125850611D02*
X222854824Y-125755373D01*
X222854824Y-125755373D02*
X222902443Y-125707754D01*
X222902443Y-125707754D02*
X222997681Y-125660135D01*
X223711967Y-125755373D02*
X223759586Y-125707754D01*
X223759586Y-125707754D02*
X223854824Y-125660135D01*
X223854824Y-125660135D02*
X224092919Y-125660135D01*
X224092919Y-125660135D02*
X224188157Y-125707754D01*
X224188157Y-125707754D02*
X224235776Y-125755373D01*
X224235776Y-125755373D02*
X224283395Y-125850611D01*
X224283395Y-125850611D02*
X224283395Y-125945849D01*
X224283395Y-125945849D02*
X224235776Y-126088706D01*
X224235776Y-126088706D02*
X223664348Y-126660135D01*
X223664348Y-126660135D02*
X224283395Y-126660135D01*
X224902443Y-125660135D02*
X224997681Y-125660135D01*
X224997681Y-125660135D02*
X225092919Y-125707754D01*
X225092919Y-125707754D02*
X225140538Y-125755373D01*
X225140538Y-125755373D02*
X225188157Y-125850611D01*
X225188157Y-125850611D02*
X225235776Y-126041087D01*
X225235776Y-126041087D02*
X225235776Y-126279182D01*
X225235776Y-126279182D02*
X225188157Y-126469658D01*
X225188157Y-126469658D02*
X225140538Y-126564896D01*
X225140538Y-126564896D02*
X225092919Y-126612516D01*
X225092919Y-126612516D02*
X224997681Y-126660135D01*
X224997681Y-126660135D02*
X224902443Y-126660135D01*
X224902443Y-126660135D02*
X224807205Y-126612516D01*
X224807205Y-126612516D02*
X224759586Y-126564896D01*
X224759586Y-126564896D02*
X224711967Y-126469658D01*
X224711967Y-126469658D02*
X224664348Y-126279182D01*
X224664348Y-126279182D02*
X224664348Y-126041087D01*
X224664348Y-126041087D02*
X224711967Y-125850611D01*
X224711967Y-125850611D02*
X224759586Y-125755373D01*
X224759586Y-125755373D02*
X224807205Y-125707754D01*
X224807205Y-125707754D02*
X224902443Y-125660135D01*
X213950061Y-119040135D02*
X213616728Y-118563944D01*
X213378633Y-119040135D02*
X213378633Y-118040135D01*
X213378633Y-118040135D02*
X213759585Y-118040135D01*
X213759585Y-118040135D02*
X213854823Y-118087754D01*
X213854823Y-118087754D02*
X213902442Y-118135373D01*
X213902442Y-118135373D02*
X213950061Y-118230611D01*
X213950061Y-118230611D02*
X213950061Y-118373468D01*
X213950061Y-118373468D02*
X213902442Y-118468706D01*
X213902442Y-118468706D02*
X213854823Y-118516325D01*
X213854823Y-118516325D02*
X213759585Y-118563944D01*
X213759585Y-118563944D02*
X213378633Y-118563944D01*
X214331014Y-118992516D02*
X214473871Y-119040135D01*
X214473871Y-119040135D02*
X214711966Y-119040135D01*
X214711966Y-119040135D02*
X214807204Y-118992516D01*
X214807204Y-118992516D02*
X214854823Y-118944896D01*
X214854823Y-118944896D02*
X214902442Y-118849658D01*
X214902442Y-118849658D02*
X214902442Y-118754420D01*
X214902442Y-118754420D02*
X214854823Y-118659182D01*
X214854823Y-118659182D02*
X214807204Y-118611563D01*
X214807204Y-118611563D02*
X214711966Y-118563944D01*
X214711966Y-118563944D02*
X214521490Y-118516325D01*
X214521490Y-118516325D02*
X214426252Y-118468706D01*
X214426252Y-118468706D02*
X214378633Y-118421087D01*
X214378633Y-118421087D02*
X214331014Y-118325849D01*
X214331014Y-118325849D02*
X214331014Y-118230611D01*
X214331014Y-118230611D02*
X214378633Y-118135373D01*
X214378633Y-118135373D02*
X214426252Y-118087754D01*
X214426252Y-118087754D02*
X214521490Y-118040135D01*
X214521490Y-118040135D02*
X214759585Y-118040135D01*
X214759585Y-118040135D02*
X214902442Y-118087754D01*
X215188157Y-118040135D02*
X215759585Y-118040135D01*
X215473871Y-119040135D02*
X215473871Y-118040135D01*
X212807205Y-129200135D02*
X212807205Y-128200135D01*
X212807205Y-128200135D02*
X213188157Y-128200135D01*
X213188157Y-128200135D02*
X213283395Y-128247754D01*
X213283395Y-128247754D02*
X213331014Y-128295373D01*
X213331014Y-128295373D02*
X213378633Y-128390611D01*
X213378633Y-128390611D02*
X213378633Y-128533468D01*
X213378633Y-128533468D02*
X213331014Y-128628706D01*
X213331014Y-128628706D02*
X213283395Y-128676325D01*
X213283395Y-128676325D02*
X213188157Y-128723944D01*
X213188157Y-128723944D02*
X212807205Y-128723944D01*
X213997681Y-128200135D02*
X214092919Y-128200135D01*
X214092919Y-128200135D02*
X214188157Y-128247754D01*
X214188157Y-128247754D02*
X214235776Y-128295373D01*
X214235776Y-128295373D02*
X214283395Y-128390611D01*
X214283395Y-128390611D02*
X214331014Y-128581087D01*
X214331014Y-128581087D02*
X214331014Y-128819182D01*
X214331014Y-128819182D02*
X214283395Y-129009658D01*
X214283395Y-129009658D02*
X214235776Y-129104896D01*
X214235776Y-129104896D02*
X214188157Y-129152516D01*
X214188157Y-129152516D02*
X214092919Y-129200135D01*
X214092919Y-129200135D02*
X213997681Y-129200135D01*
X213997681Y-129200135D02*
X213902443Y-129152516D01*
X213902443Y-129152516D02*
X213854824Y-129104896D01*
X213854824Y-129104896D02*
X213807205Y-129009658D01*
X213807205Y-129009658D02*
X213759586Y-128819182D01*
X213759586Y-128819182D02*
X213759586Y-128581087D01*
X213759586Y-128581087D02*
X213807205Y-128390611D01*
X213807205Y-128390611D02*
X213854824Y-128295373D01*
X213854824Y-128295373D02*
X213902443Y-128247754D01*
X213902443Y-128247754D02*
X213997681Y-128200135D01*
X214950062Y-128200135D02*
X215045300Y-128200135D01*
X215045300Y-128200135D02*
X215140538Y-128247754D01*
X215140538Y-128247754D02*
X215188157Y-128295373D01*
X215188157Y-128295373D02*
X215235776Y-128390611D01*
X215235776Y-128390611D02*
X215283395Y-128581087D01*
X215283395Y-128581087D02*
X215283395Y-128819182D01*
X215283395Y-128819182D02*
X215235776Y-129009658D01*
X215235776Y-129009658D02*
X215188157Y-129104896D01*
X215188157Y-129104896D02*
X215140538Y-129152516D01*
X215140538Y-129152516D02*
X215045300Y-129200135D01*
X215045300Y-129200135D02*
X214950062Y-129200135D01*
X214950062Y-129200135D02*
X214854824Y-129152516D01*
X214854824Y-129152516D02*
X214807205Y-129104896D01*
X214807205Y-129104896D02*
X214759586Y-129009658D01*
X214759586Y-129009658D02*
X214711967Y-128819182D01*
X214711967Y-128819182D02*
X214711967Y-128581087D01*
X214711967Y-128581087D02*
X214759586Y-128390611D01*
X214759586Y-128390611D02*
X214807205Y-128295373D01*
X214807205Y-128295373D02*
X214854824Y-128247754D01*
X214854824Y-128247754D02*
X214950062Y-128200135D01*
X215664348Y-128295373D02*
X215711967Y-128247754D01*
X215711967Y-128247754D02*
X215807205Y-128200135D01*
X215807205Y-128200135D02*
X216045300Y-128200135D01*
X216045300Y-128200135D02*
X216140538Y-128247754D01*
X216140538Y-128247754D02*
X216188157Y-128295373D01*
X216188157Y-128295373D02*
X216235776Y-128390611D01*
X216235776Y-128390611D02*
X216235776Y-128485849D01*
X216235776Y-128485849D02*
X216188157Y-128628706D01*
X216188157Y-128628706D02*
X215616729Y-129200135D01*
X215616729Y-129200135D02*
X216235776Y-129200135D01*
X213164348Y-120580135D02*
X213497681Y-121580135D01*
X213497681Y-121580135D02*
X213831014Y-120580135D01*
X214735776Y-121484896D02*
X214688157Y-121532516D01*
X214688157Y-121532516D02*
X214545300Y-121580135D01*
X214545300Y-121580135D02*
X214450062Y-121580135D01*
X214450062Y-121580135D02*
X214307205Y-121532516D01*
X214307205Y-121532516D02*
X214211967Y-121437277D01*
X214211967Y-121437277D02*
X214164348Y-121342039D01*
X214164348Y-121342039D02*
X214116729Y-121151563D01*
X214116729Y-121151563D02*
X214116729Y-121008706D01*
X214116729Y-121008706D02*
X214164348Y-120818230D01*
X214164348Y-120818230D02*
X214211967Y-120722992D01*
X214211967Y-120722992D02*
X214307205Y-120627754D01*
X214307205Y-120627754D02*
X214450062Y-120580135D01*
X214450062Y-120580135D02*
X214545300Y-120580135D01*
X214545300Y-120580135D02*
X214688157Y-120627754D01*
X214688157Y-120627754D02*
X214735776Y-120675373D01*
X215735776Y-121484896D02*
X215688157Y-121532516D01*
X215688157Y-121532516D02*
X215545300Y-121580135D01*
X215545300Y-121580135D02*
X215450062Y-121580135D01*
X215450062Y-121580135D02*
X215307205Y-121532516D01*
X215307205Y-121532516D02*
X215211967Y-121437277D01*
X215211967Y-121437277D02*
X215164348Y-121342039D01*
X215164348Y-121342039D02*
X215116729Y-121151563D01*
X215116729Y-121151563D02*
X215116729Y-121008706D01*
X215116729Y-121008706D02*
X215164348Y-120818230D01*
X215164348Y-120818230D02*
X215211967Y-120722992D01*
X215211967Y-120722992D02*
X215307205Y-120627754D01*
X215307205Y-120627754D02*
X215450062Y-120580135D01*
X215450062Y-120580135D02*
X215545300Y-120580135D01*
X215545300Y-120580135D02*
X215688157Y-120627754D01*
X215688157Y-120627754D02*
X215735776Y-120675373D01*
X213807204Y-113960134D02*
X213473871Y-113483943D01*
X213235776Y-113960134D02*
X213235776Y-112960134D01*
X213235776Y-112960134D02*
X213616728Y-112960134D01*
X213616728Y-112960134D02*
X213711966Y-113007753D01*
X213711966Y-113007753D02*
X213759585Y-113055372D01*
X213759585Y-113055372D02*
X213807204Y-113150610D01*
X213807204Y-113150610D02*
X213807204Y-113293467D01*
X213807204Y-113293467D02*
X213759585Y-113388705D01*
X213759585Y-113388705D02*
X213711966Y-113436324D01*
X213711966Y-113436324D02*
X213616728Y-113483943D01*
X213616728Y-113483943D02*
X213235776Y-113483943D01*
X214188157Y-113674419D02*
X214664347Y-113674419D01*
X214092919Y-113960134D02*
X214426252Y-112960134D01*
X214426252Y-112960134D02*
X214759585Y-113960134D01*
X214997681Y-112960134D02*
X215235776Y-113960134D01*
X215235776Y-113960134D02*
X215426252Y-113245848D01*
X215426252Y-113245848D02*
X215616728Y-113960134D01*
X215616728Y-113960134D02*
X215854824Y-112960134D01*
X221807204Y-113960135D02*
X221807204Y-112960135D01*
X221807204Y-112960135D02*
X222188156Y-112960135D01*
X222188156Y-112960135D02*
X222283394Y-113007754D01*
X222283394Y-113007754D02*
X222331013Y-113055373D01*
X222331013Y-113055373D02*
X222378632Y-113150611D01*
X222378632Y-113150611D02*
X222378632Y-113293468D01*
X222378632Y-113293468D02*
X222331013Y-113388706D01*
X222331013Y-113388706D02*
X222283394Y-113436325D01*
X222283394Y-113436325D02*
X222188156Y-113483944D01*
X222188156Y-113483944D02*
X221807204Y-113483944D01*
X222997680Y-112960135D02*
X223092918Y-112960135D01*
X223092918Y-112960135D02*
X223188156Y-113007754D01*
X223188156Y-113007754D02*
X223235775Y-113055373D01*
X223235775Y-113055373D02*
X223283394Y-113150611D01*
X223283394Y-113150611D02*
X223331013Y-113341087D01*
X223331013Y-113341087D02*
X223331013Y-113579182D01*
X223331013Y-113579182D02*
X223283394Y-113769658D01*
X223283394Y-113769658D02*
X223235775Y-113864896D01*
X223235775Y-113864896D02*
X223188156Y-113912516D01*
X223188156Y-113912516D02*
X223092918Y-113960135D01*
X223092918Y-113960135D02*
X222997680Y-113960135D01*
X222997680Y-113960135D02*
X222902442Y-113912516D01*
X222902442Y-113912516D02*
X222854823Y-113864896D01*
X222854823Y-113864896D02*
X222807204Y-113769658D01*
X222807204Y-113769658D02*
X222759585Y-113579182D01*
X222759585Y-113579182D02*
X222759585Y-113341087D01*
X222759585Y-113341087D02*
X222807204Y-113150611D01*
X222807204Y-113150611D02*
X222854823Y-113055373D01*
X222854823Y-113055373D02*
X222902442Y-113007754D01*
X222902442Y-113007754D02*
X222997680Y-112960135D01*
X223950061Y-112960135D02*
X224045299Y-112960135D01*
X224045299Y-112960135D02*
X224140537Y-113007754D01*
X224140537Y-113007754D02*
X224188156Y-113055373D01*
X224188156Y-113055373D02*
X224235775Y-113150611D01*
X224235775Y-113150611D02*
X224283394Y-113341087D01*
X224283394Y-113341087D02*
X224283394Y-113579182D01*
X224283394Y-113579182D02*
X224235775Y-113769658D01*
X224235775Y-113769658D02*
X224188156Y-113864896D01*
X224188156Y-113864896D02*
X224140537Y-113912516D01*
X224140537Y-113912516D02*
X224045299Y-113960135D01*
X224045299Y-113960135D02*
X223950061Y-113960135D01*
X223950061Y-113960135D02*
X223854823Y-113912516D01*
X223854823Y-113912516D02*
X223807204Y-113864896D01*
X223807204Y-113864896D02*
X223759585Y-113769658D01*
X223759585Y-113769658D02*
X223711966Y-113579182D01*
X223711966Y-113579182D02*
X223711966Y-113341087D01*
X223711966Y-113341087D02*
X223759585Y-113150611D01*
X223759585Y-113150611D02*
X223807204Y-113055373D01*
X223807204Y-113055373D02*
X223854823Y-113007754D01*
X223854823Y-113007754D02*
X223950061Y-112960135D01*
X225140537Y-112960135D02*
X224950061Y-112960135D01*
X224950061Y-112960135D02*
X224854823Y-113007754D01*
X224854823Y-113007754D02*
X224807204Y-113055373D01*
X224807204Y-113055373D02*
X224711966Y-113198230D01*
X224711966Y-113198230D02*
X224664347Y-113388706D01*
X224664347Y-113388706D02*
X224664347Y-113769658D01*
X224664347Y-113769658D02*
X224711966Y-113864896D01*
X224711966Y-113864896D02*
X224759585Y-113912516D01*
X224759585Y-113912516D02*
X224854823Y-113960135D01*
X224854823Y-113960135D02*
X225045299Y-113960135D01*
X225045299Y-113960135D02*
X225140537Y-113912516D01*
X225140537Y-113912516D02*
X225188156Y-113864896D01*
X225188156Y-113864896D02*
X225235775Y-113769658D01*
X225235775Y-113769658D02*
X225235775Y-113531563D01*
X225235775Y-113531563D02*
X225188156Y-113436325D01*
X225188156Y-113436325D02*
X225140537Y-113388706D01*
X225140537Y-113388706D02*
X225045299Y-113341087D01*
X225045299Y-113341087D02*
X224854823Y-113341087D01*
X224854823Y-113341087D02*
X224759585Y-113388706D01*
X224759585Y-113388706D02*
X224711966Y-113436325D01*
X224711966Y-113436325D02*
X224664347Y-113531563D01*
X221807205Y-141900136D02*
X221807205Y-140900136D01*
X221807205Y-140900136D02*
X222188157Y-140900136D01*
X222188157Y-140900136D02*
X222283395Y-140947755D01*
X222283395Y-140947755D02*
X222331014Y-140995374D01*
X222331014Y-140995374D02*
X222378633Y-141090612D01*
X222378633Y-141090612D02*
X222378633Y-141233469D01*
X222378633Y-141233469D02*
X222331014Y-141328707D01*
X222331014Y-141328707D02*
X222283395Y-141376326D01*
X222283395Y-141376326D02*
X222188157Y-141423945D01*
X222188157Y-141423945D02*
X221807205Y-141423945D01*
X223331014Y-141900136D02*
X222759586Y-141900136D01*
X223045300Y-141900136D02*
X223045300Y-140900136D01*
X223045300Y-140900136D02*
X222950062Y-141042993D01*
X222950062Y-141042993D02*
X222854824Y-141138231D01*
X222854824Y-141138231D02*
X222759586Y-141185850D01*
X223950062Y-140900136D02*
X224045300Y-140900136D01*
X224045300Y-140900136D02*
X224140538Y-140947755D01*
X224140538Y-140947755D02*
X224188157Y-140995374D01*
X224188157Y-140995374D02*
X224235776Y-141090612D01*
X224235776Y-141090612D02*
X224283395Y-141281088D01*
X224283395Y-141281088D02*
X224283395Y-141519183D01*
X224283395Y-141519183D02*
X224235776Y-141709659D01*
X224235776Y-141709659D02*
X224188157Y-141804897D01*
X224188157Y-141804897D02*
X224140538Y-141852517D01*
X224140538Y-141852517D02*
X224045300Y-141900136D01*
X224045300Y-141900136D02*
X223950062Y-141900136D01*
X223950062Y-141900136D02*
X223854824Y-141852517D01*
X223854824Y-141852517D02*
X223807205Y-141804897D01*
X223807205Y-141804897D02*
X223759586Y-141709659D01*
X223759586Y-141709659D02*
X223711967Y-141519183D01*
X223711967Y-141519183D02*
X223711967Y-141281088D01*
X223711967Y-141281088D02*
X223759586Y-141090612D01*
X223759586Y-141090612D02*
X223807205Y-140995374D01*
X223807205Y-140995374D02*
X223854824Y-140947755D01*
X223854824Y-140947755D02*
X223950062Y-140900136D01*
X225140538Y-140900136D02*
X224950062Y-140900136D01*
X224950062Y-140900136D02*
X224854824Y-140947755D01*
X224854824Y-140947755D02*
X224807205Y-140995374D01*
X224807205Y-140995374D02*
X224711967Y-141138231D01*
X224711967Y-141138231D02*
X224664348Y-141328707D01*
X224664348Y-141328707D02*
X224664348Y-141709659D01*
X224664348Y-141709659D02*
X224711967Y-141804897D01*
X224711967Y-141804897D02*
X224759586Y-141852517D01*
X224759586Y-141852517D02*
X224854824Y-141900136D01*
X224854824Y-141900136D02*
X225045300Y-141900136D01*
X225045300Y-141900136D02*
X225140538Y-141852517D01*
X225140538Y-141852517D02*
X225188157Y-141804897D01*
X225188157Y-141804897D02*
X225235776Y-141709659D01*
X225235776Y-141709659D02*
X225235776Y-141471564D01*
X225235776Y-141471564D02*
X225188157Y-141376326D01*
X225188157Y-141376326D02*
X225140538Y-141328707D01*
X225140538Y-141328707D02*
X225045300Y-141281088D01*
X225045300Y-141281088D02*
X224854824Y-141281088D01*
X224854824Y-141281088D02*
X224759586Y-141328707D01*
X224759586Y-141328707D02*
X224711967Y-141376326D01*
X224711967Y-141376326D02*
X224664348Y-141471564D01*
X212807205Y-134280134D02*
X212807205Y-133280134D01*
X212807205Y-133280134D02*
X213188157Y-133280134D01*
X213188157Y-133280134D02*
X213283395Y-133327753D01*
X213283395Y-133327753D02*
X213331014Y-133375372D01*
X213331014Y-133375372D02*
X213378633Y-133470610D01*
X213378633Y-133470610D02*
X213378633Y-133613467D01*
X213378633Y-133613467D02*
X213331014Y-133708705D01*
X213331014Y-133708705D02*
X213283395Y-133756324D01*
X213283395Y-133756324D02*
X213188157Y-133803943D01*
X213188157Y-133803943D02*
X212807205Y-133803943D01*
X214331014Y-134280134D02*
X213759586Y-134280134D01*
X214045300Y-134280134D02*
X214045300Y-133280134D01*
X214045300Y-133280134D02*
X213950062Y-133422991D01*
X213950062Y-133422991D02*
X213854824Y-133518229D01*
X213854824Y-133518229D02*
X213759586Y-133565848D01*
X215283395Y-134280134D02*
X214711967Y-134280134D01*
X214997681Y-134280134D02*
X214997681Y-133280134D01*
X214997681Y-133280134D02*
X214902443Y-133422991D01*
X214902443Y-133422991D02*
X214807205Y-133518229D01*
X214807205Y-133518229D02*
X214711967Y-133565848D01*
X215616729Y-133280134D02*
X216235776Y-133280134D01*
X216235776Y-133280134D02*
X215902443Y-133661086D01*
X215902443Y-133661086D02*
X216045300Y-133661086D01*
X216045300Y-133661086D02*
X216140538Y-133708705D01*
X216140538Y-133708705D02*
X216188157Y-133756324D01*
X216188157Y-133756324D02*
X216235776Y-133851562D01*
X216235776Y-133851562D02*
X216235776Y-134089657D01*
X216235776Y-134089657D02*
X216188157Y-134184895D01*
X216188157Y-134184895D02*
X216140538Y-134232515D01*
X216140538Y-134232515D02*
X216045300Y-134280134D01*
X216045300Y-134280134D02*
X215759586Y-134280134D01*
X215759586Y-134280134D02*
X215664348Y-134232515D01*
X215664348Y-134232515D02*
X215616729Y-134184895D01*
X221807205Y-134280135D02*
X221807205Y-133280135D01*
X221807205Y-133280135D02*
X222188157Y-133280135D01*
X222188157Y-133280135D02*
X222283395Y-133327754D01*
X222283395Y-133327754D02*
X222331014Y-133375373D01*
X222331014Y-133375373D02*
X222378633Y-133470611D01*
X222378633Y-133470611D02*
X222378633Y-133613468D01*
X222378633Y-133613468D02*
X222331014Y-133708706D01*
X222331014Y-133708706D02*
X222283395Y-133756325D01*
X222283395Y-133756325D02*
X222188157Y-133803944D01*
X222188157Y-133803944D02*
X221807205Y-133803944D01*
X223331014Y-134280135D02*
X222759586Y-134280135D01*
X223045300Y-134280135D02*
X223045300Y-133280135D01*
X223045300Y-133280135D02*
X222950062Y-133422992D01*
X222950062Y-133422992D02*
X222854824Y-133518230D01*
X222854824Y-133518230D02*
X222759586Y-133565849D01*
X223950062Y-133280135D02*
X224045300Y-133280135D01*
X224045300Y-133280135D02*
X224140538Y-133327754D01*
X224140538Y-133327754D02*
X224188157Y-133375373D01*
X224188157Y-133375373D02*
X224235776Y-133470611D01*
X224235776Y-133470611D02*
X224283395Y-133661087D01*
X224283395Y-133661087D02*
X224283395Y-133899182D01*
X224283395Y-133899182D02*
X224235776Y-134089658D01*
X224235776Y-134089658D02*
X224188157Y-134184896D01*
X224188157Y-134184896D02*
X224140538Y-134232516D01*
X224140538Y-134232516D02*
X224045300Y-134280135D01*
X224045300Y-134280135D02*
X223950062Y-134280135D01*
X223950062Y-134280135D02*
X223854824Y-134232516D01*
X223854824Y-134232516D02*
X223807205Y-134184896D01*
X223807205Y-134184896D02*
X223759586Y-134089658D01*
X223759586Y-134089658D02*
X223711967Y-133899182D01*
X223711967Y-133899182D02*
X223711967Y-133661087D01*
X223711967Y-133661087D02*
X223759586Y-133470611D01*
X223759586Y-133470611D02*
X223807205Y-133375373D01*
X223807205Y-133375373D02*
X223854824Y-133327754D01*
X223854824Y-133327754D02*
X223950062Y-133280135D01*
X224902443Y-133280135D02*
X224997681Y-133280135D01*
X224997681Y-133280135D02*
X225092919Y-133327754D01*
X225092919Y-133327754D02*
X225140538Y-133375373D01*
X225140538Y-133375373D02*
X225188157Y-133470611D01*
X225188157Y-133470611D02*
X225235776Y-133661087D01*
X225235776Y-133661087D02*
X225235776Y-133899182D01*
X225235776Y-133899182D02*
X225188157Y-134089658D01*
X225188157Y-134089658D02*
X225140538Y-134184896D01*
X225140538Y-134184896D02*
X225092919Y-134232516D01*
X225092919Y-134232516D02*
X224997681Y-134280135D01*
X224997681Y-134280135D02*
X224902443Y-134280135D01*
X224902443Y-134280135D02*
X224807205Y-134232516D01*
X224807205Y-134232516D02*
X224759586Y-134184896D01*
X224759586Y-134184896D02*
X224711967Y-134089658D01*
X224711967Y-134089658D02*
X224664348Y-133899182D01*
X224664348Y-133899182D02*
X224664348Y-133661087D01*
X224664348Y-133661087D02*
X224711967Y-133470611D01*
X224711967Y-133470611D02*
X224759586Y-133375373D01*
X224759586Y-133375373D02*
X224807205Y-133327754D01*
X224807205Y-133327754D02*
X224902443Y-133280135D01*
X212807205Y-136820135D02*
X212807205Y-135820135D01*
X212807205Y-135820135D02*
X213188157Y-135820135D01*
X213188157Y-135820135D02*
X213283395Y-135867754D01*
X213283395Y-135867754D02*
X213331014Y-135915373D01*
X213331014Y-135915373D02*
X213378633Y-136010611D01*
X213378633Y-136010611D02*
X213378633Y-136153468D01*
X213378633Y-136153468D02*
X213331014Y-136248706D01*
X213331014Y-136248706D02*
X213283395Y-136296325D01*
X213283395Y-136296325D02*
X213188157Y-136343944D01*
X213188157Y-136343944D02*
X212807205Y-136343944D01*
X214331014Y-136820135D02*
X213759586Y-136820135D01*
X214045300Y-136820135D02*
X214045300Y-135820135D01*
X214045300Y-135820135D02*
X213950062Y-135962992D01*
X213950062Y-135962992D02*
X213854824Y-136058230D01*
X213854824Y-136058230D02*
X213759586Y-136105849D01*
X215283395Y-136820135D02*
X214711967Y-136820135D01*
X214997681Y-136820135D02*
X214997681Y-135820135D01*
X214997681Y-135820135D02*
X214902443Y-135962992D01*
X214902443Y-135962992D02*
X214807205Y-136058230D01*
X214807205Y-136058230D02*
X214711967Y-136105849D01*
X216235776Y-136820135D02*
X215664348Y-136820135D01*
X215950062Y-136820135D02*
X215950062Y-135820135D01*
X215950062Y-135820135D02*
X215854824Y-135962992D01*
X215854824Y-135962992D02*
X215759586Y-136058230D01*
X215759586Y-136058230D02*
X215664348Y-136105849D01*
X222735776Y-120627755D02*
X222640538Y-120580136D01*
X222640538Y-120580136D02*
X222497681Y-120580136D01*
X222497681Y-120580136D02*
X222354824Y-120627755D01*
X222354824Y-120627755D02*
X222259586Y-120722993D01*
X222259586Y-120722993D02*
X222211967Y-120818231D01*
X222211967Y-120818231D02*
X222164348Y-121008707D01*
X222164348Y-121008707D02*
X222164348Y-121151564D01*
X222164348Y-121151564D02*
X222211967Y-121342040D01*
X222211967Y-121342040D02*
X222259586Y-121437278D01*
X222259586Y-121437278D02*
X222354824Y-121532517D01*
X222354824Y-121532517D02*
X222497681Y-121580136D01*
X222497681Y-121580136D02*
X222592919Y-121580136D01*
X222592919Y-121580136D02*
X222735776Y-121532517D01*
X222735776Y-121532517D02*
X222783395Y-121484897D01*
X222783395Y-121484897D02*
X222783395Y-121151564D01*
X222783395Y-121151564D02*
X222592919Y-121151564D01*
X223211967Y-121580136D02*
X223211967Y-120580136D01*
X223211967Y-120580136D02*
X223783395Y-121580136D01*
X223783395Y-121580136D02*
X223783395Y-120580136D01*
X224259586Y-121580136D02*
X224259586Y-120580136D01*
X224259586Y-120580136D02*
X224497681Y-120580136D01*
X224497681Y-120580136D02*
X224640538Y-120627755D01*
X224640538Y-120627755D02*
X224735776Y-120722993D01*
X224735776Y-120722993D02*
X224783395Y-120818231D01*
X224783395Y-120818231D02*
X224831014Y-121008707D01*
X224831014Y-121008707D02*
X224831014Y-121151564D01*
X224831014Y-121151564D02*
X224783395Y-121342040D01*
X224783395Y-121342040D02*
X224735776Y-121437278D01*
X224735776Y-121437278D02*
X224640538Y-121532517D01*
X224640538Y-121532517D02*
X224497681Y-121580136D01*
X224497681Y-121580136D02*
X224259586Y-121580136D01*
X221807205Y-116500135D02*
X221807205Y-115500135D01*
X221807205Y-115500135D02*
X222188157Y-115500135D01*
X222188157Y-115500135D02*
X222283395Y-115547754D01*
X222283395Y-115547754D02*
X222331014Y-115595373D01*
X222331014Y-115595373D02*
X222378633Y-115690611D01*
X222378633Y-115690611D02*
X222378633Y-115833468D01*
X222378633Y-115833468D02*
X222331014Y-115928706D01*
X222331014Y-115928706D02*
X222283395Y-115976325D01*
X222283395Y-115976325D02*
X222188157Y-116023944D01*
X222188157Y-116023944D02*
X221807205Y-116023944D01*
X222997681Y-115500135D02*
X223092919Y-115500135D01*
X223092919Y-115500135D02*
X223188157Y-115547754D01*
X223188157Y-115547754D02*
X223235776Y-115595373D01*
X223235776Y-115595373D02*
X223283395Y-115690611D01*
X223283395Y-115690611D02*
X223331014Y-115881087D01*
X223331014Y-115881087D02*
X223331014Y-116119182D01*
X223331014Y-116119182D02*
X223283395Y-116309658D01*
X223283395Y-116309658D02*
X223235776Y-116404896D01*
X223235776Y-116404896D02*
X223188157Y-116452516D01*
X223188157Y-116452516D02*
X223092919Y-116500135D01*
X223092919Y-116500135D02*
X222997681Y-116500135D01*
X222997681Y-116500135D02*
X222902443Y-116452516D01*
X222902443Y-116452516D02*
X222854824Y-116404896D01*
X222854824Y-116404896D02*
X222807205Y-116309658D01*
X222807205Y-116309658D02*
X222759586Y-116119182D01*
X222759586Y-116119182D02*
X222759586Y-115881087D01*
X222759586Y-115881087D02*
X222807205Y-115690611D01*
X222807205Y-115690611D02*
X222854824Y-115595373D01*
X222854824Y-115595373D02*
X222902443Y-115547754D01*
X222902443Y-115547754D02*
X222997681Y-115500135D01*
X223950062Y-115500135D02*
X224045300Y-115500135D01*
X224045300Y-115500135D02*
X224140538Y-115547754D01*
X224140538Y-115547754D02*
X224188157Y-115595373D01*
X224188157Y-115595373D02*
X224235776Y-115690611D01*
X224235776Y-115690611D02*
X224283395Y-115881087D01*
X224283395Y-115881087D02*
X224283395Y-116119182D01*
X224283395Y-116119182D02*
X224235776Y-116309658D01*
X224235776Y-116309658D02*
X224188157Y-116404896D01*
X224188157Y-116404896D02*
X224140538Y-116452516D01*
X224140538Y-116452516D02*
X224045300Y-116500135D01*
X224045300Y-116500135D02*
X223950062Y-116500135D01*
X223950062Y-116500135D02*
X223854824Y-116452516D01*
X223854824Y-116452516D02*
X223807205Y-116404896D01*
X223807205Y-116404896D02*
X223759586Y-116309658D01*
X223759586Y-116309658D02*
X223711967Y-116119182D01*
X223711967Y-116119182D02*
X223711967Y-115881087D01*
X223711967Y-115881087D02*
X223759586Y-115690611D01*
X223759586Y-115690611D02*
X223807205Y-115595373D01*
X223807205Y-115595373D02*
X223854824Y-115547754D01*
X223854824Y-115547754D02*
X223950062Y-115500135D01*
X224854824Y-115928706D02*
X224759586Y-115881087D01*
X224759586Y-115881087D02*
X224711967Y-115833468D01*
X224711967Y-115833468D02*
X224664348Y-115738230D01*
X224664348Y-115738230D02*
X224664348Y-115690611D01*
X224664348Y-115690611D02*
X224711967Y-115595373D01*
X224711967Y-115595373D02*
X224759586Y-115547754D01*
X224759586Y-115547754D02*
X224854824Y-115500135D01*
X224854824Y-115500135D02*
X225045300Y-115500135D01*
X225045300Y-115500135D02*
X225140538Y-115547754D01*
X225140538Y-115547754D02*
X225188157Y-115595373D01*
X225188157Y-115595373D02*
X225235776Y-115690611D01*
X225235776Y-115690611D02*
X225235776Y-115738230D01*
X225235776Y-115738230D02*
X225188157Y-115833468D01*
X225188157Y-115833468D02*
X225140538Y-115881087D01*
X225140538Y-115881087D02*
X225045300Y-115928706D01*
X225045300Y-115928706D02*
X224854824Y-115928706D01*
X224854824Y-115928706D02*
X224759586Y-115976325D01*
X224759586Y-115976325D02*
X224711967Y-116023944D01*
X224711967Y-116023944D02*
X224664348Y-116119182D01*
X224664348Y-116119182D02*
X224664348Y-116309658D01*
X224664348Y-116309658D02*
X224711967Y-116404896D01*
X224711967Y-116404896D02*
X224759586Y-116452516D01*
X224759586Y-116452516D02*
X224854824Y-116500135D01*
X224854824Y-116500135D02*
X225045300Y-116500135D01*
X225045300Y-116500135D02*
X225140538Y-116452516D01*
X225140538Y-116452516D02*
X225188157Y-116404896D01*
X225188157Y-116404896D02*
X225235776Y-116309658D01*
X225235776Y-116309658D02*
X225235776Y-116119182D01*
X225235776Y-116119182D02*
X225188157Y-116023944D01*
X225188157Y-116023944D02*
X225140538Y-115976325D01*
X225140538Y-115976325D02*
X225045300Y-115928706D01*
X213140538Y-110896325D02*
X213283395Y-110943944D01*
X213283395Y-110943944D02*
X213331014Y-110991563D01*
X213331014Y-110991563D02*
X213378633Y-111086801D01*
X213378633Y-111086801D02*
X213378633Y-111229658D01*
X213378633Y-111229658D02*
X213331014Y-111324896D01*
X213331014Y-111324896D02*
X213283395Y-111372516D01*
X213283395Y-111372516D02*
X213188157Y-111420135D01*
X213188157Y-111420135D02*
X212807205Y-111420135D01*
X212807205Y-111420135D02*
X212807205Y-110420135D01*
X212807205Y-110420135D02*
X213140538Y-110420135D01*
X213140538Y-110420135D02*
X213235776Y-110467754D01*
X213235776Y-110467754D02*
X213283395Y-110515373D01*
X213283395Y-110515373D02*
X213331014Y-110610611D01*
X213331014Y-110610611D02*
X213331014Y-110705849D01*
X213331014Y-110705849D02*
X213283395Y-110801087D01*
X213283395Y-110801087D02*
X213235776Y-110848706D01*
X213235776Y-110848706D02*
X213140538Y-110896325D01*
X213140538Y-110896325D02*
X212807205Y-110896325D01*
X213759586Y-111134420D02*
X214235776Y-111134420D01*
X213664348Y-111420135D02*
X213997681Y-110420135D01*
X213997681Y-110420135D02*
X214331014Y-111420135D01*
X214521491Y-110420135D02*
X215092919Y-110420135D01*
X214807205Y-111420135D02*
X214807205Y-110420135D01*
X215426253Y-111039182D02*
X216188158Y-111039182D01*
X215807205Y-111420135D02*
X215807205Y-110658230D01*
X222735776Y-118087754D02*
X222640538Y-118040135D01*
X222640538Y-118040135D02*
X222497681Y-118040135D01*
X222497681Y-118040135D02*
X222354824Y-118087754D01*
X222354824Y-118087754D02*
X222259586Y-118182992D01*
X222259586Y-118182992D02*
X222211967Y-118278230D01*
X222211967Y-118278230D02*
X222164348Y-118468706D01*
X222164348Y-118468706D02*
X222164348Y-118611563D01*
X222164348Y-118611563D02*
X222211967Y-118802039D01*
X222211967Y-118802039D02*
X222259586Y-118897277D01*
X222259586Y-118897277D02*
X222354824Y-118992516D01*
X222354824Y-118992516D02*
X222497681Y-119040135D01*
X222497681Y-119040135D02*
X222592919Y-119040135D01*
X222592919Y-119040135D02*
X222735776Y-118992516D01*
X222735776Y-118992516D02*
X222783395Y-118944896D01*
X222783395Y-118944896D02*
X222783395Y-118611563D01*
X222783395Y-118611563D02*
X222592919Y-118611563D01*
X223211967Y-119040135D02*
X223211967Y-118040135D01*
X223211967Y-118040135D02*
X223783395Y-119040135D01*
X223783395Y-119040135D02*
X223783395Y-118040135D01*
X224259586Y-119040135D02*
X224259586Y-118040135D01*
X224259586Y-118040135D02*
X224497681Y-118040135D01*
X224497681Y-118040135D02*
X224640538Y-118087754D01*
X224640538Y-118087754D02*
X224735776Y-118182992D01*
X224735776Y-118182992D02*
X224783395Y-118278230D01*
X224783395Y-118278230D02*
X224831014Y-118468706D01*
X224831014Y-118468706D02*
X224831014Y-118611563D01*
X224831014Y-118611563D02*
X224783395Y-118802039D01*
X224783395Y-118802039D02*
X224735776Y-118897277D01*
X224735776Y-118897277D02*
X224640538Y-118992516D01*
X224640538Y-118992516D02*
X224497681Y-119040135D01*
X224497681Y-119040135D02*
X224259586Y-119040135D01*
X221807205Y-131740136D02*
X221807205Y-130740136D01*
X221807205Y-130740136D02*
X222188157Y-130740136D01*
X222188157Y-130740136D02*
X222283395Y-130787755D01*
X222283395Y-130787755D02*
X222331014Y-130835374D01*
X222331014Y-130835374D02*
X222378633Y-130930612D01*
X222378633Y-130930612D02*
X222378633Y-131073469D01*
X222378633Y-131073469D02*
X222331014Y-131168707D01*
X222331014Y-131168707D02*
X222283395Y-131216326D01*
X222283395Y-131216326D02*
X222188157Y-131263945D01*
X222188157Y-131263945D02*
X221807205Y-131263945D01*
X222997681Y-130740136D02*
X223092919Y-130740136D01*
X223092919Y-130740136D02*
X223188157Y-130787755D01*
X223188157Y-130787755D02*
X223235776Y-130835374D01*
X223235776Y-130835374D02*
X223283395Y-130930612D01*
X223283395Y-130930612D02*
X223331014Y-131121088D01*
X223331014Y-131121088D02*
X223331014Y-131359183D01*
X223331014Y-131359183D02*
X223283395Y-131549659D01*
X223283395Y-131549659D02*
X223235776Y-131644897D01*
X223235776Y-131644897D02*
X223188157Y-131692517D01*
X223188157Y-131692517D02*
X223092919Y-131740136D01*
X223092919Y-131740136D02*
X222997681Y-131740136D01*
X222997681Y-131740136D02*
X222902443Y-131692517D01*
X222902443Y-131692517D02*
X222854824Y-131644897D01*
X222854824Y-131644897D02*
X222807205Y-131549659D01*
X222807205Y-131549659D02*
X222759586Y-131359183D01*
X222759586Y-131359183D02*
X222759586Y-131121088D01*
X222759586Y-131121088D02*
X222807205Y-130930612D01*
X222807205Y-130930612D02*
X222854824Y-130835374D01*
X222854824Y-130835374D02*
X222902443Y-130787755D01*
X222902443Y-130787755D02*
X222997681Y-130740136D01*
X223711967Y-130835374D02*
X223759586Y-130787755D01*
X223759586Y-130787755D02*
X223854824Y-130740136D01*
X223854824Y-130740136D02*
X224092919Y-130740136D01*
X224092919Y-130740136D02*
X224188157Y-130787755D01*
X224188157Y-130787755D02*
X224235776Y-130835374D01*
X224235776Y-130835374D02*
X224283395Y-130930612D01*
X224283395Y-130930612D02*
X224283395Y-131025850D01*
X224283395Y-131025850D02*
X224235776Y-131168707D01*
X224235776Y-131168707D02*
X223664348Y-131740136D01*
X223664348Y-131740136D02*
X224283395Y-131740136D01*
X225140538Y-131073469D02*
X225140538Y-131740136D01*
X224902443Y-130692517D02*
X224664348Y-131406802D01*
X224664348Y-131406802D02*
X225283395Y-131406802D01*
X212807205Y-126660135D02*
X212807205Y-125660135D01*
X212807205Y-125660135D02*
X213188157Y-125660135D01*
X213188157Y-125660135D02*
X213283395Y-125707754D01*
X213283395Y-125707754D02*
X213331014Y-125755373D01*
X213331014Y-125755373D02*
X213378633Y-125850611D01*
X213378633Y-125850611D02*
X213378633Y-125993468D01*
X213378633Y-125993468D02*
X213331014Y-126088706D01*
X213331014Y-126088706D02*
X213283395Y-126136325D01*
X213283395Y-126136325D02*
X213188157Y-126183944D01*
X213188157Y-126183944D02*
X212807205Y-126183944D01*
X213997681Y-125660135D02*
X214092919Y-125660135D01*
X214092919Y-125660135D02*
X214188157Y-125707754D01*
X214188157Y-125707754D02*
X214235776Y-125755373D01*
X214235776Y-125755373D02*
X214283395Y-125850611D01*
X214283395Y-125850611D02*
X214331014Y-126041087D01*
X214331014Y-126041087D02*
X214331014Y-126279182D01*
X214331014Y-126279182D02*
X214283395Y-126469658D01*
X214283395Y-126469658D02*
X214235776Y-126564896D01*
X214235776Y-126564896D02*
X214188157Y-126612516D01*
X214188157Y-126612516D02*
X214092919Y-126660135D01*
X214092919Y-126660135D02*
X213997681Y-126660135D01*
X213997681Y-126660135D02*
X213902443Y-126612516D01*
X213902443Y-126612516D02*
X213854824Y-126564896D01*
X213854824Y-126564896D02*
X213807205Y-126469658D01*
X213807205Y-126469658D02*
X213759586Y-126279182D01*
X213759586Y-126279182D02*
X213759586Y-126041087D01*
X213759586Y-126041087D02*
X213807205Y-125850611D01*
X213807205Y-125850611D02*
X213854824Y-125755373D01*
X213854824Y-125755373D02*
X213902443Y-125707754D01*
X213902443Y-125707754D02*
X213997681Y-125660135D01*
X214711967Y-125755373D02*
X214759586Y-125707754D01*
X214759586Y-125707754D02*
X214854824Y-125660135D01*
X214854824Y-125660135D02*
X215092919Y-125660135D01*
X215092919Y-125660135D02*
X215188157Y-125707754D01*
X215188157Y-125707754D02*
X215235776Y-125755373D01*
X215235776Y-125755373D02*
X215283395Y-125850611D01*
X215283395Y-125850611D02*
X215283395Y-125945849D01*
X215283395Y-125945849D02*
X215235776Y-126088706D01*
X215235776Y-126088706D02*
X214664348Y-126660135D01*
X214664348Y-126660135D02*
X215283395Y-126660135D01*
X215759586Y-126660135D02*
X215950062Y-126660135D01*
X215950062Y-126660135D02*
X216045300Y-126612516D01*
X216045300Y-126612516D02*
X216092919Y-126564896D01*
X216092919Y-126564896D02*
X216188157Y-126422039D01*
X216188157Y-126422039D02*
X216235776Y-126231563D01*
X216235776Y-126231563D02*
X216235776Y-125850611D01*
X216235776Y-125850611D02*
X216188157Y-125755373D01*
X216188157Y-125755373D02*
X216140538Y-125707754D01*
X216140538Y-125707754D02*
X216045300Y-125660135D01*
X216045300Y-125660135D02*
X215854824Y-125660135D01*
X215854824Y-125660135D02*
X215759586Y-125707754D01*
X215759586Y-125707754D02*
X215711967Y-125755373D01*
X215711967Y-125755373D02*
X215664348Y-125850611D01*
X215664348Y-125850611D02*
X215664348Y-126088706D01*
X215664348Y-126088706D02*
X215711967Y-126183944D01*
X215711967Y-126183944D02*
X215759586Y-126231563D01*
X215759586Y-126231563D02*
X215854824Y-126279182D01*
X215854824Y-126279182D02*
X216045300Y-126279182D01*
X216045300Y-126279182D02*
X216140538Y-126231563D01*
X216140538Y-126231563D02*
X216188157Y-126183944D01*
X216188157Y-126183944D02*
X216235776Y-126088706D01*
X213735776Y-115547754D02*
X213640538Y-115500135D01*
X213640538Y-115500135D02*
X213497681Y-115500135D01*
X213497681Y-115500135D02*
X213354824Y-115547754D01*
X213354824Y-115547754D02*
X213259586Y-115642992D01*
X213259586Y-115642992D02*
X213211967Y-115738230D01*
X213211967Y-115738230D02*
X213164348Y-115928706D01*
X213164348Y-115928706D02*
X213164348Y-116071563D01*
X213164348Y-116071563D02*
X213211967Y-116262039D01*
X213211967Y-116262039D02*
X213259586Y-116357277D01*
X213259586Y-116357277D02*
X213354824Y-116452516D01*
X213354824Y-116452516D02*
X213497681Y-116500135D01*
X213497681Y-116500135D02*
X213592919Y-116500135D01*
X213592919Y-116500135D02*
X213735776Y-116452516D01*
X213735776Y-116452516D02*
X213783395Y-116404896D01*
X213783395Y-116404896D02*
X213783395Y-116071563D01*
X213783395Y-116071563D02*
X213592919Y-116071563D01*
X214211967Y-116500135D02*
X214211967Y-115500135D01*
X214211967Y-115500135D02*
X214783395Y-116500135D01*
X214783395Y-116500135D02*
X214783395Y-115500135D01*
X215259586Y-116500135D02*
X215259586Y-115500135D01*
X215259586Y-115500135D02*
X215497681Y-115500135D01*
X215497681Y-115500135D02*
X215640538Y-115547754D01*
X215640538Y-115547754D02*
X215735776Y-115642992D01*
X215735776Y-115642992D02*
X215783395Y-115738230D01*
X215783395Y-115738230D02*
X215831014Y-115928706D01*
X215831014Y-115928706D02*
X215831014Y-116071563D01*
X215831014Y-116071563D02*
X215783395Y-116262039D01*
X215783395Y-116262039D02*
X215735776Y-116357277D01*
X215735776Y-116357277D02*
X215640538Y-116452516D01*
X215640538Y-116452516D02*
X215497681Y-116500135D01*
X215497681Y-116500135D02*
X215259586Y-116500135D01*
X221807205Y-129200135D02*
X221807205Y-128200135D01*
X221807205Y-128200135D02*
X222188157Y-128200135D01*
X222188157Y-128200135D02*
X222283395Y-128247754D01*
X222283395Y-128247754D02*
X222331014Y-128295373D01*
X222331014Y-128295373D02*
X222378633Y-128390611D01*
X222378633Y-128390611D02*
X222378633Y-128533468D01*
X222378633Y-128533468D02*
X222331014Y-128628706D01*
X222331014Y-128628706D02*
X222283395Y-128676325D01*
X222283395Y-128676325D02*
X222188157Y-128723944D01*
X222188157Y-128723944D02*
X221807205Y-128723944D01*
X222997681Y-128200135D02*
X223092919Y-128200135D01*
X223092919Y-128200135D02*
X223188157Y-128247754D01*
X223188157Y-128247754D02*
X223235776Y-128295373D01*
X223235776Y-128295373D02*
X223283395Y-128390611D01*
X223283395Y-128390611D02*
X223331014Y-128581087D01*
X223331014Y-128581087D02*
X223331014Y-128819182D01*
X223331014Y-128819182D02*
X223283395Y-129009658D01*
X223283395Y-129009658D02*
X223235776Y-129104896D01*
X223235776Y-129104896D02*
X223188157Y-129152516D01*
X223188157Y-129152516D02*
X223092919Y-129200135D01*
X223092919Y-129200135D02*
X222997681Y-129200135D01*
X222997681Y-129200135D02*
X222902443Y-129152516D01*
X222902443Y-129152516D02*
X222854824Y-129104896D01*
X222854824Y-129104896D02*
X222807205Y-129009658D01*
X222807205Y-129009658D02*
X222759586Y-128819182D01*
X222759586Y-128819182D02*
X222759586Y-128581087D01*
X222759586Y-128581087D02*
X222807205Y-128390611D01*
X222807205Y-128390611D02*
X222854824Y-128295373D01*
X222854824Y-128295373D02*
X222902443Y-128247754D01*
X222902443Y-128247754D02*
X222997681Y-128200135D01*
X223711967Y-128295373D02*
X223759586Y-128247754D01*
X223759586Y-128247754D02*
X223854824Y-128200135D01*
X223854824Y-128200135D02*
X224092919Y-128200135D01*
X224092919Y-128200135D02*
X224188157Y-128247754D01*
X224188157Y-128247754D02*
X224235776Y-128295373D01*
X224235776Y-128295373D02*
X224283395Y-128390611D01*
X224283395Y-128390611D02*
X224283395Y-128485849D01*
X224283395Y-128485849D02*
X224235776Y-128628706D01*
X224235776Y-128628706D02*
X223664348Y-129200135D01*
X223664348Y-129200135D02*
X224283395Y-129200135D01*
X224664348Y-128295373D02*
X224711967Y-128247754D01*
X224711967Y-128247754D02*
X224807205Y-128200135D01*
X224807205Y-128200135D02*
X225045300Y-128200135D01*
X225045300Y-128200135D02*
X225140538Y-128247754D01*
X225140538Y-128247754D02*
X225188157Y-128295373D01*
X225188157Y-128295373D02*
X225235776Y-128390611D01*
X225235776Y-128390611D02*
X225235776Y-128485849D01*
X225235776Y-128485849D02*
X225188157Y-128628706D01*
X225188157Y-128628706D02*
X224616729Y-129200135D01*
X224616729Y-129200135D02*
X225235776Y-129200135D01*
X212807205Y-124252480D02*
X212807205Y-123252480D01*
X212807205Y-123252480D02*
X213188157Y-123252480D01*
X213188157Y-123252480D02*
X213283395Y-123300099D01*
X213283395Y-123300099D02*
X213331014Y-123347718D01*
X213331014Y-123347718D02*
X213378633Y-123442956D01*
X213378633Y-123442956D02*
X213378633Y-123585813D01*
X213378633Y-123585813D02*
X213331014Y-123681051D01*
X213331014Y-123681051D02*
X213283395Y-123728670D01*
X213283395Y-123728670D02*
X213188157Y-123776289D01*
X213188157Y-123776289D02*
X212807205Y-123776289D01*
X213997681Y-123252480D02*
X214092919Y-123252480D01*
X214092919Y-123252480D02*
X214188157Y-123300099D01*
X214188157Y-123300099D02*
X214235776Y-123347718D01*
X214235776Y-123347718D02*
X214283395Y-123442956D01*
X214283395Y-123442956D02*
X214331014Y-123633432D01*
X214331014Y-123633432D02*
X214331014Y-123871527D01*
X214331014Y-123871527D02*
X214283395Y-124062003D01*
X214283395Y-124062003D02*
X214235776Y-124157241D01*
X214235776Y-124157241D02*
X214188157Y-124204861D01*
X214188157Y-124204861D02*
X214092919Y-124252480D01*
X214092919Y-124252480D02*
X213997681Y-124252480D01*
X213997681Y-124252480D02*
X213902443Y-124204861D01*
X213902443Y-124204861D02*
X213854824Y-124157241D01*
X213854824Y-124157241D02*
X213807205Y-124062003D01*
X213807205Y-124062003D02*
X213759586Y-123871527D01*
X213759586Y-123871527D02*
X213759586Y-123633432D01*
X213759586Y-123633432D02*
X213807205Y-123442956D01*
X213807205Y-123442956D02*
X213854824Y-123347718D01*
X213854824Y-123347718D02*
X213902443Y-123300099D01*
X213902443Y-123300099D02*
X213997681Y-123252480D01*
X214664348Y-123252480D02*
X215283395Y-123252480D01*
X215283395Y-123252480D02*
X214950062Y-123633432D01*
X214950062Y-123633432D02*
X215092919Y-123633432D01*
X215092919Y-123633432D02*
X215188157Y-123681051D01*
X215188157Y-123681051D02*
X215235776Y-123728670D01*
X215235776Y-123728670D02*
X215283395Y-123823908D01*
X215283395Y-123823908D02*
X215283395Y-124062003D01*
X215283395Y-124062003D02*
X215235776Y-124157241D01*
X215235776Y-124157241D02*
X215188157Y-124204861D01*
X215188157Y-124204861D02*
X215092919Y-124252480D01*
X215092919Y-124252480D02*
X214807205Y-124252480D01*
X214807205Y-124252480D02*
X214711967Y-124204861D01*
X214711967Y-124204861D02*
X214664348Y-124157241D01*
X216235776Y-124252480D02*
X215664348Y-124252480D01*
X215950062Y-124252480D02*
X215950062Y-123252480D01*
X215950062Y-123252480D02*
X215854824Y-123395337D01*
X215854824Y-123395337D02*
X215759586Y-123490575D01*
X215759586Y-123490575D02*
X215664348Y-123538194D01*
X221807205Y-139360135D02*
X221807205Y-138360135D01*
X221807205Y-138360135D02*
X222188157Y-138360135D01*
X222188157Y-138360135D02*
X222283395Y-138407754D01*
X222283395Y-138407754D02*
X222331014Y-138455373D01*
X222331014Y-138455373D02*
X222378633Y-138550611D01*
X222378633Y-138550611D02*
X222378633Y-138693468D01*
X222378633Y-138693468D02*
X222331014Y-138788706D01*
X222331014Y-138788706D02*
X222283395Y-138836325D01*
X222283395Y-138836325D02*
X222188157Y-138883944D01*
X222188157Y-138883944D02*
X221807205Y-138883944D01*
X223331014Y-139360135D02*
X222759586Y-139360135D01*
X223045300Y-139360135D02*
X223045300Y-138360135D01*
X223045300Y-138360135D02*
X222950062Y-138502992D01*
X222950062Y-138502992D02*
X222854824Y-138598230D01*
X222854824Y-138598230D02*
X222759586Y-138645849D01*
X223950062Y-138360135D02*
X224045300Y-138360135D01*
X224045300Y-138360135D02*
X224140538Y-138407754D01*
X224140538Y-138407754D02*
X224188157Y-138455373D01*
X224188157Y-138455373D02*
X224235776Y-138550611D01*
X224235776Y-138550611D02*
X224283395Y-138741087D01*
X224283395Y-138741087D02*
X224283395Y-138979182D01*
X224283395Y-138979182D02*
X224235776Y-139169658D01*
X224235776Y-139169658D02*
X224188157Y-139264896D01*
X224188157Y-139264896D02*
X224140538Y-139312516D01*
X224140538Y-139312516D02*
X224045300Y-139360135D01*
X224045300Y-139360135D02*
X223950062Y-139360135D01*
X223950062Y-139360135D02*
X223854824Y-139312516D01*
X223854824Y-139312516D02*
X223807205Y-139264896D01*
X223807205Y-139264896D02*
X223759586Y-139169658D01*
X223759586Y-139169658D02*
X223711967Y-138979182D01*
X223711967Y-138979182D02*
X223711967Y-138741087D01*
X223711967Y-138741087D02*
X223759586Y-138550611D01*
X223759586Y-138550611D02*
X223807205Y-138455373D01*
X223807205Y-138455373D02*
X223854824Y-138407754D01*
X223854824Y-138407754D02*
X223950062Y-138360135D01*
X225140538Y-138693468D02*
X225140538Y-139360135D01*
X224902443Y-138312516D02*
X224664348Y-139026801D01*
X224664348Y-139026801D02*
X225283395Y-139026801D01*
X221807204Y-124120135D02*
X221807204Y-123120135D01*
X221807204Y-123120135D02*
X222188156Y-123120135D01*
X222188156Y-123120135D02*
X222283394Y-123167754D01*
X222283394Y-123167754D02*
X222331013Y-123215373D01*
X222331013Y-123215373D02*
X222378632Y-123310611D01*
X222378632Y-123310611D02*
X222378632Y-123453468D01*
X222378632Y-123453468D02*
X222331013Y-123548706D01*
X222331013Y-123548706D02*
X222283394Y-123596325D01*
X222283394Y-123596325D02*
X222188156Y-123643944D01*
X222188156Y-123643944D02*
X221807204Y-123643944D01*
X222997680Y-123120135D02*
X223092918Y-123120135D01*
X223092918Y-123120135D02*
X223188156Y-123167754D01*
X223188156Y-123167754D02*
X223235775Y-123215373D01*
X223235775Y-123215373D02*
X223283394Y-123310611D01*
X223283394Y-123310611D02*
X223331013Y-123501087D01*
X223331013Y-123501087D02*
X223331013Y-123739182D01*
X223331013Y-123739182D02*
X223283394Y-123929658D01*
X223283394Y-123929658D02*
X223235775Y-124024896D01*
X223235775Y-124024896D02*
X223188156Y-124072516D01*
X223188156Y-124072516D02*
X223092918Y-124120135D01*
X223092918Y-124120135D02*
X222997680Y-124120135D01*
X222997680Y-124120135D02*
X222902442Y-124072516D01*
X222902442Y-124072516D02*
X222854823Y-124024896D01*
X222854823Y-124024896D02*
X222807204Y-123929658D01*
X222807204Y-123929658D02*
X222759585Y-123739182D01*
X222759585Y-123739182D02*
X222759585Y-123501087D01*
X222759585Y-123501087D02*
X222807204Y-123310611D01*
X222807204Y-123310611D02*
X222854823Y-123215373D01*
X222854823Y-123215373D02*
X222902442Y-123167754D01*
X222902442Y-123167754D02*
X222997680Y-123120135D01*
X224283394Y-124120135D02*
X223711966Y-124120135D01*
X223997680Y-124120135D02*
X223997680Y-123120135D01*
X223997680Y-123120135D02*
X223902442Y-123262992D01*
X223902442Y-123262992D02*
X223807204Y-123358230D01*
X223807204Y-123358230D02*
X223711966Y-123405849D01*
X224616728Y-123120135D02*
X225283394Y-123120135D01*
X225283394Y-123120135D02*
X224854823Y-124120135D01*
X212807206Y-141900135D02*
X212807206Y-140900135D01*
X212807206Y-140900135D02*
X213188158Y-140900135D01*
X213188158Y-140900135D02*
X213283396Y-140947754D01*
X213283396Y-140947754D02*
X213331015Y-140995373D01*
X213331015Y-140995373D02*
X213378634Y-141090611D01*
X213378634Y-141090611D02*
X213378634Y-141233468D01*
X213378634Y-141233468D02*
X213331015Y-141328706D01*
X213331015Y-141328706D02*
X213283396Y-141376325D01*
X213283396Y-141376325D02*
X213188158Y-141423944D01*
X213188158Y-141423944D02*
X212807206Y-141423944D01*
X213997682Y-140900135D02*
X214092920Y-140900135D01*
X214092920Y-140900135D02*
X214188158Y-140947754D01*
X214188158Y-140947754D02*
X214235777Y-140995373D01*
X214235777Y-140995373D02*
X214283396Y-141090611D01*
X214283396Y-141090611D02*
X214331015Y-141281087D01*
X214331015Y-141281087D02*
X214331015Y-141519182D01*
X214331015Y-141519182D02*
X214283396Y-141709658D01*
X214283396Y-141709658D02*
X214235777Y-141804896D01*
X214235777Y-141804896D02*
X214188158Y-141852516D01*
X214188158Y-141852516D02*
X214092920Y-141900135D01*
X214092920Y-141900135D02*
X213997682Y-141900135D01*
X213997682Y-141900135D02*
X213902444Y-141852516D01*
X213902444Y-141852516D02*
X213854825Y-141804896D01*
X213854825Y-141804896D02*
X213807206Y-141709658D01*
X213807206Y-141709658D02*
X213759587Y-141519182D01*
X213759587Y-141519182D02*
X213759587Y-141281087D01*
X213759587Y-141281087D02*
X213807206Y-141090611D01*
X213807206Y-141090611D02*
X213854825Y-140995373D01*
X213854825Y-140995373D02*
X213902444Y-140947754D01*
X213902444Y-140947754D02*
X213997682Y-140900135D01*
X214950063Y-140900135D02*
X215045301Y-140900135D01*
X215045301Y-140900135D02*
X215140539Y-140947754D01*
X215140539Y-140947754D02*
X215188158Y-140995373D01*
X215188158Y-140995373D02*
X215235777Y-141090611D01*
X215235777Y-141090611D02*
X215283396Y-141281087D01*
X215283396Y-141281087D02*
X215283396Y-141519182D01*
X215283396Y-141519182D02*
X215235777Y-141709658D01*
X215235777Y-141709658D02*
X215188158Y-141804896D01*
X215188158Y-141804896D02*
X215140539Y-141852516D01*
X215140539Y-141852516D02*
X215045301Y-141900135D01*
X215045301Y-141900135D02*
X214950063Y-141900135D01*
X214950063Y-141900135D02*
X214854825Y-141852516D01*
X214854825Y-141852516D02*
X214807206Y-141804896D01*
X214807206Y-141804896D02*
X214759587Y-141709658D01*
X214759587Y-141709658D02*
X214711968Y-141519182D01*
X214711968Y-141519182D02*
X214711968Y-141281087D01*
X214711968Y-141281087D02*
X214759587Y-141090611D01*
X214759587Y-141090611D02*
X214807206Y-140995373D01*
X214807206Y-140995373D02*
X214854825Y-140947754D01*
X214854825Y-140947754D02*
X214950063Y-140900135D01*
X215759587Y-141900135D02*
X215950063Y-141900135D01*
X215950063Y-141900135D02*
X216045301Y-141852516D01*
X216045301Y-141852516D02*
X216092920Y-141804896D01*
X216092920Y-141804896D02*
X216188158Y-141662039D01*
X216188158Y-141662039D02*
X216235777Y-141471563D01*
X216235777Y-141471563D02*
X216235777Y-141090611D01*
X216235777Y-141090611D02*
X216188158Y-140995373D01*
X216188158Y-140995373D02*
X216140539Y-140947754D01*
X216140539Y-140947754D02*
X216045301Y-140900135D01*
X216045301Y-140900135D02*
X215854825Y-140900135D01*
X215854825Y-140900135D02*
X215759587Y-140947754D01*
X215759587Y-140947754D02*
X215711968Y-140995373D01*
X215711968Y-140995373D02*
X215664349Y-141090611D01*
X215664349Y-141090611D02*
X215664349Y-141328706D01*
X215664349Y-141328706D02*
X215711968Y-141423944D01*
X215711968Y-141423944D02*
X215759587Y-141471563D01*
X215759587Y-141471563D02*
X215854825Y-141519182D01*
X215854825Y-141519182D02*
X216045301Y-141519182D01*
X216045301Y-141519182D02*
X216140539Y-141471563D01*
X216140539Y-141471563D02*
X216188158Y-141423944D01*
X216188158Y-141423944D02*
X216235777Y-141328706D01*
X212807206Y-131740135D02*
X212807206Y-130740135D01*
X212807206Y-130740135D02*
X213188158Y-130740135D01*
X213188158Y-130740135D02*
X213283396Y-130787754D01*
X213283396Y-130787754D02*
X213331015Y-130835373D01*
X213331015Y-130835373D02*
X213378634Y-130930611D01*
X213378634Y-130930611D02*
X213378634Y-131073468D01*
X213378634Y-131073468D02*
X213331015Y-131168706D01*
X213331015Y-131168706D02*
X213283396Y-131216325D01*
X213283396Y-131216325D02*
X213188158Y-131263944D01*
X213188158Y-131263944D02*
X212807206Y-131263944D01*
X214331015Y-131740135D02*
X213759587Y-131740135D01*
X214045301Y-131740135D02*
X214045301Y-130740135D01*
X214045301Y-130740135D02*
X213950063Y-130882992D01*
X213950063Y-130882992D02*
X213854825Y-130978230D01*
X213854825Y-130978230D02*
X213759587Y-131025849D01*
X215283396Y-131740135D02*
X214711968Y-131740135D01*
X214997682Y-131740135D02*
X214997682Y-130740135D01*
X214997682Y-130740135D02*
X214902444Y-130882992D01*
X214902444Y-130882992D02*
X214807206Y-130978230D01*
X214807206Y-130978230D02*
X214711968Y-131025849D01*
X216188158Y-130740135D02*
X215711968Y-130740135D01*
X215711968Y-130740135D02*
X215664349Y-131216325D01*
X215664349Y-131216325D02*
X215711968Y-131168706D01*
X215711968Y-131168706D02*
X215807206Y-131121087D01*
X215807206Y-131121087D02*
X216045301Y-131121087D01*
X216045301Y-131121087D02*
X216140539Y-131168706D01*
X216140539Y-131168706D02*
X216188158Y-131216325D01*
X216188158Y-131216325D02*
X216235777Y-131311563D01*
X216235777Y-131311563D02*
X216235777Y-131549658D01*
X216235777Y-131549658D02*
X216188158Y-131644896D01*
X216188158Y-131644896D02*
X216140539Y-131692516D01*
X216140539Y-131692516D02*
X216045301Y-131740135D01*
X216045301Y-131740135D02*
X215807206Y-131740135D01*
X215807206Y-131740135D02*
X215711968Y-131692516D01*
X215711968Y-131692516D02*
X215664349Y-131644896D01*
X222140538Y-110896326D02*
X222283395Y-110943945D01*
X222283395Y-110943945D02*
X222331014Y-110991564D01*
X222331014Y-110991564D02*
X222378633Y-111086802D01*
X222378633Y-111086802D02*
X222378633Y-111229659D01*
X222378633Y-111229659D02*
X222331014Y-111324897D01*
X222331014Y-111324897D02*
X222283395Y-111372517D01*
X222283395Y-111372517D02*
X222188157Y-111420136D01*
X222188157Y-111420136D02*
X221807205Y-111420136D01*
X221807205Y-111420136D02*
X221807205Y-110420136D01*
X221807205Y-110420136D02*
X222140538Y-110420136D01*
X222140538Y-110420136D02*
X222235776Y-110467755D01*
X222235776Y-110467755D02*
X222283395Y-110515374D01*
X222283395Y-110515374D02*
X222331014Y-110610612D01*
X222331014Y-110610612D02*
X222331014Y-110705850D01*
X222331014Y-110705850D02*
X222283395Y-110801088D01*
X222283395Y-110801088D02*
X222235776Y-110848707D01*
X222235776Y-110848707D02*
X222140538Y-110896326D01*
X222140538Y-110896326D02*
X221807205Y-110896326D01*
X222759586Y-111134421D02*
X223235776Y-111134421D01*
X222664348Y-111420136D02*
X222997681Y-110420136D01*
X222997681Y-110420136D02*
X223331014Y-111420136D01*
X223521491Y-110420136D02*
X224092919Y-110420136D01*
X223807205Y-111420136D02*
X223807205Y-110420136D01*
X224426253Y-111039183D02*
X225188158Y-111039183D01*
X221807205Y-136820135D02*
X221807205Y-135820135D01*
X221807205Y-135820135D02*
X222188157Y-135820135D01*
X222188157Y-135820135D02*
X222283395Y-135867754D01*
X222283395Y-135867754D02*
X222331014Y-135915373D01*
X222331014Y-135915373D02*
X222378633Y-136010611D01*
X222378633Y-136010611D02*
X222378633Y-136153468D01*
X222378633Y-136153468D02*
X222331014Y-136248706D01*
X222331014Y-136248706D02*
X222283395Y-136296325D01*
X222283395Y-136296325D02*
X222188157Y-136343944D01*
X222188157Y-136343944D02*
X221807205Y-136343944D01*
X222997681Y-135820135D02*
X223092919Y-135820135D01*
X223092919Y-135820135D02*
X223188157Y-135867754D01*
X223188157Y-135867754D02*
X223235776Y-135915373D01*
X223235776Y-135915373D02*
X223283395Y-136010611D01*
X223283395Y-136010611D02*
X223331014Y-136201087D01*
X223331014Y-136201087D02*
X223331014Y-136439182D01*
X223331014Y-136439182D02*
X223283395Y-136629658D01*
X223283395Y-136629658D02*
X223235776Y-136724896D01*
X223235776Y-136724896D02*
X223188157Y-136772516D01*
X223188157Y-136772516D02*
X223092919Y-136820135D01*
X223092919Y-136820135D02*
X222997681Y-136820135D01*
X222997681Y-136820135D02*
X222902443Y-136772516D01*
X222902443Y-136772516D02*
X222854824Y-136724896D01*
X222854824Y-136724896D02*
X222807205Y-136629658D01*
X222807205Y-136629658D02*
X222759586Y-136439182D01*
X222759586Y-136439182D02*
X222759586Y-136201087D01*
X222759586Y-136201087D02*
X222807205Y-136010611D01*
X222807205Y-136010611D02*
X222854824Y-135915373D01*
X222854824Y-135915373D02*
X222902443Y-135867754D01*
X222902443Y-135867754D02*
X222997681Y-135820135D01*
X224283395Y-136820135D02*
X223711967Y-136820135D01*
X223997681Y-136820135D02*
X223997681Y-135820135D01*
X223997681Y-135820135D02*
X223902443Y-135962992D01*
X223902443Y-135962992D02*
X223807205Y-136058230D01*
X223807205Y-136058230D02*
X223711967Y-136105849D01*
X225235776Y-136820135D02*
X224664348Y-136820135D01*
X224950062Y-136820135D02*
X224950062Y-135820135D01*
X224950062Y-135820135D02*
X224854824Y-135962992D01*
X224854824Y-135962992D02*
X224759586Y-136058230D01*
X224759586Y-136058230D02*
X224664348Y-136105849D01*
X223452500Y-180794363D02*
X223452500Y-180603887D01*
X223452500Y-180603887D02*
X223500119Y-180508649D01*
X223500119Y-180508649D02*
X223595357Y-180413411D01*
X223595357Y-180413411D02*
X223785833Y-180365792D01*
X223785833Y-180365792D02*
X224119166Y-180365792D01*
X224119166Y-180365792D02*
X224309642Y-180413411D01*
X224309642Y-180413411D02*
X224404881Y-180508649D01*
X224404881Y-180508649D02*
X224452500Y-180603887D01*
X224452500Y-180603887D02*
X224452500Y-180794363D01*
X224452500Y-180794363D02*
X224404881Y-180889601D01*
X224404881Y-180889601D02*
X224309642Y-180984839D01*
X224309642Y-180984839D02*
X224119166Y-181032458D01*
X224119166Y-181032458D02*
X223785833Y-181032458D01*
X223785833Y-181032458D02*
X223595357Y-180984839D01*
X223595357Y-180984839D02*
X223500119Y-180889601D01*
X223500119Y-180889601D02*
X223452500Y-180794363D01*
X224452500Y-179937220D02*
X223452500Y-179937220D01*
X223452500Y-179937220D02*
X224452500Y-179365792D01*
X224452500Y-179365792D02*
X223452500Y-179365792D01*
X213452500Y-181127696D02*
X213452500Y-180937220D01*
X213452500Y-180937220D02*
X213500119Y-180841982D01*
X213500119Y-180841982D02*
X213595357Y-180746744D01*
X213595357Y-180746744D02*
X213785833Y-180699125D01*
X213785833Y-180699125D02*
X214119166Y-180699125D01*
X214119166Y-180699125D02*
X214309642Y-180746744D01*
X214309642Y-180746744D02*
X214404881Y-180841982D01*
X214404881Y-180841982D02*
X214452500Y-180937220D01*
X214452500Y-180937220D02*
X214452500Y-181127696D01*
X214452500Y-181127696D02*
X214404881Y-181222934D01*
X214404881Y-181222934D02*
X214309642Y-181318172D01*
X214309642Y-181318172D02*
X214119166Y-181365791D01*
X214119166Y-181365791D02*
X213785833Y-181365791D01*
X213785833Y-181365791D02*
X213595357Y-181318172D01*
X213595357Y-181318172D02*
X213500119Y-181222934D01*
X213500119Y-181222934D02*
X213452500Y-181127696D01*
X213928690Y-179937220D02*
X213928690Y-180270553D01*
X214452500Y-180270553D02*
X213452500Y-180270553D01*
X213452500Y-180270553D02*
X213452500Y-179794363D01*
X213928690Y-179080077D02*
X213928690Y-179413410D01*
X214452500Y-179413410D02*
X213452500Y-179413410D01*
X213452500Y-179413410D02*
X213452500Y-178937220D01*
D11*
%TO.C,D15*%
X181746452Y-105780117D02*
X180170239Y-105143286D01*
%TO.C,D30*%
X295193365Y-96193185D02*
X293617152Y-96830016D01*
%TO.C,D3*%
X104162953Y-94926511D02*
X102586740Y-94289680D01*
%TO.C,D5*%
X114661922Y-119660529D02*
X113085709Y-119023698D01*
%TO.C,D18*%
X199362943Y-112897644D02*
X197786730Y-112260813D01*
%TO.C,D13*%
X167511400Y-141013107D02*
X165935187Y-140376276D01*
%TO.C,D17*%
X192245419Y-130514137D02*
X190669206Y-129877306D01*
%TO.C,D28*%
X309428417Y-131426171D02*
X307852204Y-132063002D01*
%TO.C,D35*%
X264942648Y-122759781D02*
X263366435Y-123396612D01*
%TO.C,D39*%
X240208628Y-112260814D02*
X238632415Y-112897645D01*
%TO.C,D27*%
X317792128Y-101407203D02*
X316215915Y-102044034D01*
%TO.C,D11*%
X158435937Y-112755788D02*
X156859724Y-112118957D01*
%TO.C,D41*%
X258037907Y-166533798D02*
X256461694Y-167170629D01*
%TO.C,D25*%
X332027177Y-136640189D02*
X330450964Y-137277020D01*
%TO.C,D23*%
X342526146Y-111906173D02*
X340949933Y-112543004D01*
%TO.C,D32*%
X281135636Y-112118956D02*
X279559423Y-112755787D01*
%TO.C,D20*%
X181533668Y-167170627D02*
X179957455Y-166533796D01*
%TO.C,D14*%
X174628926Y-123396612D02*
X173052713Y-122759781D01*
%TO.C,D40*%
X275654399Y-159416270D02*
X274078186Y-160053101D01*
%TO.C,D21*%
X199150161Y-174288153D02*
X197573948Y-173651322D01*
%TO.C,D7*%
X130143157Y-132063002D02*
X128566944Y-131426171D01*
%TO.C,D16*%
X185127895Y-148130630D02*
X183551682Y-147493799D01*
%TO.C,D1*%
X89927903Y-130159497D02*
X88351690Y-129522666D01*
%TO.C,D31*%
X288253161Y-129735448D02*
X286676948Y-130372279D01*
%TO.C,D6*%
X121779445Y-102044037D02*
X120203232Y-101407206D01*
%TO.C,D42*%
X240421413Y-173651322D02*
X238845200Y-174288153D01*
%TO.C,D29*%
X302310892Y-113809677D02*
X300734679Y-114446508D01*
%TO.C,D10*%
X151318413Y-130372281D02*
X149742200Y-129735450D01*
%TO.C,D8*%
X137260681Y-114446509D02*
X135684468Y-113809678D01*
%TO.C,D26*%
X324909654Y-119023697D02*
X323333441Y-119660528D01*
%TO.C,D24*%
X335408621Y-94289680D02*
X333832408Y-94926511D01*
%TO.C,D2*%
X97045427Y-112543004D02*
X95469214Y-111906173D01*
%TO.C,D4*%
X107544396Y-137277021D02*
X105968183Y-136640190D01*
%TO.C,D19*%
X163917173Y-160053104D02*
X162340960Y-159416273D01*
%TO.C,D22*%
X349643672Y-129522665D02*
X348067459Y-130159496D01*
%TO.C,D37*%
X254443679Y-147493799D02*
X252867466Y-148130630D01*
%TO.C,D36*%
X257825122Y-105143287D02*
X256248909Y-105780118D01*
%TO.C,D33*%
X274018111Y-94502465D02*
X272441898Y-95139296D01*
%TO.C,D12*%
X165553464Y-95139295D02*
X163977251Y-94502464D01*
%TO.C,D9*%
X144378208Y-96830017D02*
X142801995Y-96193186D01*
%TO.C,D34*%
X272060173Y-140376274D02*
X270483960Y-141013105D01*
%TO.C,D38*%
X247326155Y-129877306D02*
X245749942Y-130514137D01*
%TO.C,PWR1*%
X215547681Y-179800316D02*
X215547680Y-180590315D01*
X216147679Y-181600315D02*
X221847680Y-181600315D01*
X217397681Y-178750316D02*
X219097682Y-178750315D01*
X220397681Y-178750316D02*
X220597682Y-178750316D01*
X222447680Y-180590316D02*
X222447681Y-179800316D01*
%TD*%
%LPC*%
D12*
%TO.C,D15*%
X180673644Y-106166361D03*
X179737128Y-108484321D03*
%TD*%
D13*
%TO.C,D30*%
X294689960Y-97216260D03*
X295626476Y-99534220D03*
%TD*%
D12*
%TO.C,D3*%
X103090145Y-95312755D03*
X102153629Y-97630715D03*
%TD*%
%TO.C,D5*%
X113589114Y-120046773D03*
X112652598Y-122364733D03*
%TD*%
%TO.C,D18*%
X198290135Y-113283888D03*
X197353619Y-115601848D03*
%TD*%
%TO.C,D13*%
X166438592Y-141399351D03*
X165502076Y-143717311D03*
%TD*%
%TO.C,D17*%
X191172611Y-130900381D03*
X190236095Y-133218341D03*
%TD*%
D13*
%TO.C,D28*%
X308925012Y-132449246D03*
X309861528Y-134767206D03*
%TD*%
%TO.C,D35*%
X264439243Y-123782856D03*
X265375759Y-126100816D03*
%TD*%
%TO.C,D39*%
X239705223Y-113283889D03*
X240641739Y-115601849D03*
%TD*%
%TO.C,D27*%
X317288723Y-102430278D03*
X318225239Y-104748238D03*
%TD*%
D12*
%TO.C,D11*%
X157363129Y-113142032D03*
X156426613Y-115459992D03*
%TD*%
D13*
%TO.C,D41*%
X257534502Y-167556873D03*
X258471018Y-169874833D03*
%TD*%
%TO.C,D25*%
X331523772Y-137663264D03*
X332460288Y-139981224D03*
%TD*%
%TO.C,D23*%
X342022741Y-112929248D03*
X342959257Y-115247208D03*
%TD*%
%TO.C,D32*%
X280632231Y-113142031D03*
X281568747Y-115459991D03*
%TD*%
D12*
%TO.C,D20*%
X180460860Y-167556871D03*
X179524344Y-169874831D03*
%TD*%
%TO.C,D14*%
X173556118Y-123782856D03*
X172619602Y-126100816D03*
%TD*%
D13*
%TO.C,D40*%
X275150994Y-160439345D03*
X276087510Y-162757305D03*
%TD*%
D12*
%TO.C,D21*%
X198077353Y-174674397D03*
X197140837Y-176992357D03*
%TD*%
%TO.C,D7*%
X129070349Y-132449246D03*
X128133833Y-134767206D03*
%TD*%
%TO.C,D16*%
X184055087Y-148516874D03*
X183118571Y-150834834D03*
%TD*%
%TO.C,D1*%
X88855095Y-130545741D03*
X87918579Y-132863701D03*
%TD*%
D13*
%TO.C,D31*%
X287749756Y-130758523D03*
X288686272Y-133076483D03*
%TD*%
D12*
%TO.C,D6*%
X120706637Y-102430281D03*
X119770121Y-104748241D03*
%TD*%
D13*
%TO.C,D42*%
X239918008Y-174674397D03*
X240854524Y-176992357D03*
%TD*%
%TO.C,D29*%
X301807487Y-114832752D03*
X302744003Y-117150712D03*
%TD*%
D12*
%TO.C,D10*%
X150245605Y-130758525D03*
X149309089Y-133076485D03*
%TD*%
%TO.C,D8*%
X136187873Y-114832753D03*
X135251357Y-117150713D03*
%TD*%
D13*
%TO.C,D26*%
X324406249Y-120046772D03*
X325342765Y-122364732D03*
%TD*%
%TO.C,D24*%
X334905216Y-95312755D03*
X335841732Y-97630715D03*
%TD*%
D12*
%TO.C,D2*%
X95972619Y-112929248D03*
X95036103Y-115247208D03*
%TD*%
%TO.C,D4*%
X106471588Y-137663265D03*
X105535072Y-139981225D03*
%TD*%
%TO.C,D19*%
X162844365Y-160439348D03*
X161907849Y-162757308D03*
%TD*%
D13*
%TO.C,D22*%
X349140267Y-130545740D03*
X350076783Y-132863700D03*
%TD*%
%TO.C,D37*%
X253940274Y-148516874D03*
X254876790Y-150834834D03*
%TD*%
%TO.C,D36*%
X257321717Y-106166362D03*
X258258233Y-108484322D03*
%TD*%
%TO.C,D33*%
X273514706Y-95525540D03*
X274451222Y-97843500D03*
%TD*%
D12*
%TO.C,D12*%
X164480656Y-95525539D03*
X163544140Y-97843499D03*
%TD*%
%TO.C,D9*%
X143305400Y-97216261D03*
X142368884Y-99534221D03*
%TD*%
D13*
%TO.C,D34*%
X271556768Y-141399349D03*
X272493284Y-143717309D03*
%TD*%
%TO.C,D38*%
X246822750Y-130900381D03*
X247759266Y-133218341D03*
%TD*%
D14*
%TO.C,S37*%
X260005111Y-151728828D03*
D15*
X264715205Y-149825827D03*
D14*
X269425299Y-147922826D03*
D16*
X261502791Y-155222159D03*
D17*
X260231134Y-148898031D03*
D16*
X266925384Y-155296213D03*
D17*
X265167250Y-144164231D03*
%TD*%
D14*
%TO.C,S14*%
X158071093Y-123188805D03*
D15*
X162781187Y-125091807D03*
D14*
X167491281Y-126994809D03*
D16*
X156721762Y-126742072D03*
D17*
X160200118Y-121309509D03*
D16*
X160571008Y-130562193D03*
D17*
X167039235Y-121333213D03*
%TD*%
D18*
%TO.C,*%
X237997681Y-141953316D03*
%TD*%
%TO.C,*%
X237997682Y-126713314D03*
%TD*%
D14*
%TO.C,S8*%
X120702850Y-114238702D03*
D15*
X125412944Y-116141704D03*
D14*
X130123038Y-118044706D03*
D16*
X119353519Y-117791969D03*
D17*
X122831875Y-112359406D03*
D16*
X123202765Y-121612090D03*
D17*
X129670992Y-112383110D03*
%TD*%
D18*
%TO.C,*%
X207997679Y-131793316D03*
%TD*%
%TO.C,*%
X207997681Y-136873314D03*
%TD*%
D16*
%TO.C,_139*%
X318321385Y-92306244D03*
%TD*%
D14*
%TO.C,S4*%
X90986562Y-137069217D03*
D15*
X95696656Y-138972219D03*
D14*
X100406750Y-140875221D03*
D16*
X89637231Y-140622484D03*
D17*
X93115587Y-135189921D03*
D16*
X93486477Y-144442605D03*
D17*
X99954704Y-135213625D03*
%TD*%
D14*
%TO.C,S16*%
X168570062Y-147922825D03*
D15*
X173280156Y-149825827D03*
D14*
X177990250Y-151728829D03*
D16*
X167220731Y-151476092D03*
D17*
X170699087Y-146043529D03*
D16*
X171069977Y-155296213D03*
D17*
X177538204Y-146067233D03*
%TD*%
D18*
%TO.C,*%
X237997682Y-147033314D03*
%TD*%
D14*
%TO.C,S6*%
X105221613Y-101836229D03*
D15*
X109931707Y-103739231D03*
D14*
X114641801Y-105642233D03*
D16*
X103872282Y-105389496D03*
D17*
X107350638Y-99956933D03*
D16*
X107721528Y-109209617D03*
D17*
X114189755Y-99980637D03*
%TD*%
D14*
%TO.C,S42*%
X245982845Y-177886351D03*
D15*
X250692939Y-175983350D03*
D14*
X255403033Y-174080349D03*
D16*
X247480525Y-181379682D03*
D17*
X246208868Y-175055554D03*
D16*
X252903118Y-181453736D03*
D17*
X251144984Y-170321754D03*
%TD*%
D18*
%TO.C,*%
X207997680Y-126713314D03*
%TD*%
D14*
%TO.C,S26*%
X330471083Y-123258727D03*
D15*
X335181177Y-121355726D03*
D14*
X339891271Y-119452725D03*
D16*
X331968763Y-126752058D03*
D17*
X330697106Y-120427930D03*
D16*
X337391356Y-126826112D03*
D17*
X335633222Y-115694130D03*
%TD*%
D16*
%TO.C,_132*%
X229497679Y-178475316D03*
%TD*%
D18*
%TO.C,*%
X199997680Y-134333316D03*
%TD*%
D16*
%TO.C,_135*%
X119673975Y-92306243D03*
%TD*%
D14*
%TO.C,S20*%
X164975834Y-166962823D03*
D15*
X169685928Y-168865825D03*
D14*
X174396022Y-170768827D03*
D16*
X163626503Y-170516090D03*
D17*
X167104859Y-165083527D03*
D16*
X167475749Y-174336211D03*
D17*
X173943976Y-165107231D03*
%TD*%
D14*
%TO.C,S15*%
X165188618Y-105572313D03*
D15*
X169898712Y-107475315D03*
D14*
X174608806Y-109378317D03*
D16*
X163839287Y-109125580D03*
D17*
X167317643Y-103693017D03*
D16*
X167688533Y-112945701D03*
D17*
X174156760Y-103716721D03*
%TD*%
D18*
%TO.C,*%
X237997683Y-144493313D03*
%TD*%
D14*
%TO.C,S17*%
X175687587Y-130306332D03*
D15*
X180397681Y-132209334D03*
D14*
X185107775Y-134112336D03*
D16*
X174338256Y-133859599D03*
D17*
X177816612Y-128427036D03*
D16*
X178187502Y-137679720D03*
D17*
X184655729Y-128450740D03*
%TD*%
D16*
%TO.C,_137*%
X241449643Y-104921499D03*
%TD*%
D18*
%TO.C,*%
X229997681Y-126713314D03*
%TD*%
D14*
%TO.C,S29*%
X307872323Y-118044707D03*
D15*
X312582417Y-116141706D03*
D14*
X317292511Y-114238705D03*
D16*
X309370003Y-121538038D03*
D17*
X308098346Y-115213910D03*
D16*
X314792596Y-121612092D03*
D17*
X313034462Y-110480110D03*
%TD*%
D18*
%TO.C,*%
X229997679Y-131793315D03*
%TD*%
%TO.C,*%
X237997681Y-149573315D03*
%TD*%
D16*
%TO.C,_136*%
X129728408Y-143500467D03*
%TD*%
D18*
%TO.C,*%
X207997680Y-139413315D03*
%TD*%
D14*
%TO.C,S21*%
X182592327Y-174080350D03*
D15*
X187302421Y-175983352D03*
D14*
X192012515Y-177886354D03*
D16*
X181242996Y-177633617D03*
D17*
X184721352Y-172201054D03*
D16*
X185092242Y-181453738D03*
D17*
X191560469Y-172224758D03*
%TD*%
D18*
%TO.C,*%
X229997681Y-149573313D03*
%TD*%
D14*
%TO.C,S31*%
X293814593Y-133970479D03*
D15*
X298524687Y-132067478D03*
D14*
X303234781Y-130164477D03*
D16*
X295312273Y-137463810D03*
D17*
X294040616Y-131139682D03*
D16*
X300734866Y-137537864D03*
D17*
X298976732Y-126405882D03*
%TD*%
D18*
%TO.C,*%
X199997681Y-136873315D03*
%TD*%
%TO.C,*%
X220997680Y-145475317D03*
%TD*%
D14*
%TO.C,S12*%
X148995630Y-94931487D03*
D15*
X153705724Y-96834489D03*
D14*
X158415818Y-98737491D03*
D16*
X147646299Y-98484754D03*
D17*
X151124655Y-93052191D03*
D16*
X151495545Y-102304875D03*
D17*
X157963772Y-93075895D03*
%TD*%
D19*
%TO.C,MCU1*%
X211377681Y-110965316D03*
D18*
X211377680Y-113505317D03*
X211377681Y-116045317D03*
X211377679Y-118585315D03*
X211377681Y-121125316D03*
X211377680Y-123665317D03*
X211377681Y-126205317D03*
X211377679Y-128745315D03*
X211377681Y-131285316D03*
X211377680Y-133825317D03*
X211377681Y-136365317D03*
X211377679Y-138905315D03*
X211377681Y-141445316D03*
X226617682Y-110965315D03*
X226617681Y-113505316D03*
X226617683Y-116045317D03*
X226617681Y-118585315D03*
X226617682Y-121125315D03*
X226617681Y-123665316D03*
X226617683Y-126205317D03*
X226617681Y-128745315D03*
X226617682Y-131285315D03*
X226617681Y-133825316D03*
X226617683Y-136365317D03*
X226617681Y-138905315D03*
X226617682Y-141445315D03*
%TD*%
D20*
%TO.C,PWR1*%
X222647682Y-179090315D03*
X215347681Y-179090318D03*
D21*
X220497681Y-180200315D03*
X217497681Y-180200315D03*
D20*
X222647680Y-181300316D03*
X215347682Y-181300316D03*
D22*
X216747681Y-178440316D03*
X219747681Y-178440316D03*
X221247681Y-178440316D03*
%TD*%
D14*
%TO.C,S25*%
X337588610Y-140875220D03*
D15*
X342298704Y-138972219D03*
D14*
X347008798Y-137069218D03*
D16*
X339086290Y-144368551D03*
D17*
X337814633Y-138044423D03*
D16*
X344508883Y-144442605D03*
D17*
X342750749Y-133310623D03*
%TD*%
D18*
%TO.C,*%
X199997681Y-126713315D03*
%TD*%
D14*
%TO.C,S13*%
X150953568Y-140805297D03*
D15*
X155663662Y-142708299D03*
D14*
X160373756Y-144611301D03*
D16*
X149604237Y-144358564D03*
D17*
X153082593Y-138926001D03*
D16*
X153453483Y-148178685D03*
D17*
X159921710Y-138949705D03*
%TD*%
D16*
%TO.C,_129*%
X208497679Y-106475314D03*
%TD*%
D14*
%TO.C,S34*%
X277621603Y-144611302D03*
D15*
X282331697Y-142708301D03*
D14*
X287041791Y-140805300D03*
D16*
X279119283Y-148104633D03*
D17*
X277847626Y-141780505D03*
D16*
X284541876Y-148178687D03*
D17*
X282783742Y-137046705D03*
%TD*%
D14*
%TO.C,S23*%
X348087577Y-116141203D03*
D15*
X352797671Y-114238202D03*
D14*
X357507765Y-112335201D03*
D16*
X349585257Y-119634534D03*
D17*
X348313600Y-113310406D03*
D16*
X355007850Y-119708588D03*
D17*
X353249716Y-108576606D03*
%TD*%
D18*
%TO.C,*%
X237997683Y-134333313D03*
%TD*%
D16*
%TO.C,_140*%
X308266955Y-143500466D03*
%TD*%
D18*
%TO.C,*%
X229997682Y-144493314D03*
%TD*%
%TO.C,*%
X237997681Y-129253315D03*
%TD*%
D14*
%TO.C,S7*%
X113585324Y-131855196D03*
D15*
X118295418Y-133758198D03*
D14*
X123005512Y-135661200D03*
D16*
X112235993Y-135408463D03*
D17*
X115714349Y-129975900D03*
D16*
X116085239Y-139228584D03*
D17*
X122553466Y-129999604D03*
%TD*%
D18*
%TO.C,*%
X199997680Y-147033314D03*
%TD*%
D14*
%TO.C,S11*%
X141878105Y-112547982D03*
D15*
X146588199Y-114450984D03*
D14*
X151298293Y-116353986D03*
D16*
X140528774Y-116101249D03*
D17*
X144007130Y-110668686D03*
D16*
X144378020Y-119921370D03*
D17*
X150846247Y-110692390D03*
%TD*%
D16*
%TO.C,_133*%
X196545721Y-104921500D03*
%TD*%
D14*
%TO.C,S24*%
X340970053Y-98524708D03*
D15*
X345680147Y-96621707D03*
D14*
X350390241Y-94718706D03*
D16*
X342467733Y-102018039D03*
D17*
X341196076Y-95693911D03*
D16*
X347890326Y-102092093D03*
D17*
X346132192Y-90960111D03*
%TD*%
D18*
%TO.C,*%
X207997679Y-141953316D03*
%TD*%
D14*
%TO.C,S39*%
X245770060Y-116495843D03*
D15*
X250480154Y-114592842D03*
D14*
X255190248Y-112689841D03*
D16*
X247267740Y-119989174D03*
D17*
X245996083Y-113665046D03*
D16*
X252690333Y-120063228D03*
D17*
X250932199Y-108931246D03*
%TD*%
D18*
%TO.C,*%
X229997681Y-147033314D03*
%TD*%
D14*
%TO.C,S10*%
X134760578Y-130164475D03*
D15*
X139470672Y-132067477D03*
D14*
X144180766Y-133970479D03*
D16*
X133411247Y-133717742D03*
D17*
X136889603Y-128285179D03*
D16*
X137260493Y-137537863D03*
D17*
X143728720Y-128308883D03*
%TD*%
D14*
%TO.C,S35*%
X270504079Y-126994808D03*
D15*
X275214173Y-125091807D03*
D14*
X279924267Y-123188806D03*
D16*
X272001759Y-130488139D03*
D17*
X270730102Y-124164011D03*
D16*
X277424352Y-130562193D03*
D17*
X275666218Y-119430211D03*
%TD*%
D18*
%TO.C,*%
X207997680Y-129253315D03*
%TD*%
%TO.C,*%
X229997680Y-129253316D03*
%TD*%
D14*
%TO.C,S2*%
X80487595Y-112335197D03*
D15*
X85197689Y-114238199D03*
D14*
X89907783Y-116141201D03*
D16*
X79138264Y-115888464D03*
D17*
X82616620Y-110455901D03*
D16*
X82987510Y-119708585D03*
D17*
X89455737Y-110479605D03*
%TD*%
D14*
%TO.C,S18*%
X182805112Y-112689837D03*
D15*
X187515206Y-114592839D03*
D14*
X192225300Y-116495841D03*
D16*
X181455781Y-116243104D03*
D17*
X184934137Y-110810541D03*
D16*
X185305027Y-120063225D03*
D17*
X191773254Y-110834245D03*
%TD*%
D18*
%TO.C,*%
X199997680Y-129253315D03*
%TD*%
D14*
%TO.C,S36*%
X263386555Y-109378315D03*
D15*
X268096649Y-107475314D03*
D14*
X272806743Y-105572313D03*
D16*
X264884235Y-112871646D03*
D17*
X263612578Y-106547518D03*
D16*
X270306828Y-112945700D03*
D17*
X268548694Y-101813718D03*
%TD*%
D18*
%TO.C,*%
X207997681Y-147033314D03*
%TD*%
D14*
%TO.C,S1*%
X73370069Y-129951691D03*
D15*
X78080163Y-131854693D03*
D14*
X82790257Y-133757695D03*
D16*
X72020738Y-133504958D03*
D17*
X75499094Y-128072395D03*
D16*
X75869984Y-137325079D03*
D17*
X82338211Y-128096099D03*
%TD*%
D18*
%TO.C,*%
X237997682Y-136873314D03*
%TD*%
%TO.C,*%
X207997681Y-144493315D03*
%TD*%
D14*
%TO.C,S28*%
X314989848Y-135661199D03*
D15*
X319699942Y-133758198D03*
D14*
X324410036Y-131855197D03*
D16*
X316487528Y-139154530D03*
D17*
X315215871Y-132830402D03*
D16*
X321910121Y-139228584D03*
D17*
X320151987Y-128096602D03*
%TD*%
D18*
%TO.C,*%
X199997681Y-131793315D03*
%TD*%
%TO.C,*%
X207997680Y-149573315D03*
%TD*%
D14*
%TO.C,S3*%
X87605120Y-94718704D03*
D15*
X92315214Y-96621706D03*
D14*
X97025308Y-98524708D03*
D16*
X86255789Y-98271971D03*
D17*
X89734145Y-92839408D03*
D16*
X90105035Y-102092092D03*
D17*
X96573262Y-92863112D03*
%TD*%
D14*
%TO.C,S19*%
X147359342Y-159845297D03*
D15*
X152069436Y-161748299D03*
D14*
X156779530Y-163651301D03*
D16*
X146010011Y-163398564D03*
D17*
X149488367Y-157966001D03*
D16*
X149859257Y-167218685D03*
D17*
X156327484Y-157989705D03*
%TD*%
D18*
%TO.C,*%
X229997681Y-141953314D03*
%TD*%
%TO.C,*%
X237997681Y-139413315D03*
%TD*%
D16*
%TO.C,_131*%
X208497681Y-178475313D03*
%TD*%
D18*
%TO.C,*%
X229997681Y-139413313D03*
%TD*%
D14*
%TO.C,S33*%
X279579541Y-98737492D03*
D15*
X284289635Y-96834491D03*
D14*
X288999729Y-94931490D03*
D16*
X281077221Y-102230823D03*
D17*
X279805564Y-95906695D03*
D16*
X286499814Y-102304877D03*
D17*
X284741680Y-91172895D03*
%TD*%
D14*
%TO.C,S9*%
X127820376Y-96622210D03*
D15*
X132530470Y-98525212D03*
D14*
X137240564Y-100428214D03*
D16*
X126471045Y-100175477D03*
D17*
X129949401Y-94742914D03*
D16*
X130320291Y-103995598D03*
D17*
X136788518Y-94766618D03*
%TD*%
D14*
%TO.C,S30*%
X300754799Y-100428214D03*
D15*
X305464893Y-98525213D03*
D14*
X310174987Y-96622212D03*
D16*
X302252479Y-103921545D03*
D17*
X300980822Y-97597417D03*
D16*
X307675072Y-103995599D03*
D17*
X305916938Y-92863617D03*
%TD*%
D14*
%TO.C,S40*%
X281215831Y-163651301D03*
D15*
X285925925Y-161748300D03*
D14*
X290636019Y-159845299D03*
D16*
X282713511Y-167144632D03*
D17*
X281441854Y-160820504D03*
D16*
X288136104Y-167218686D03*
D17*
X286377970Y-156086704D03*
%TD*%
D18*
%TO.C,*%
X229997682Y-134333314D03*
%TD*%
D14*
%TO.C,S41*%
X263599338Y-170768826D03*
D15*
X268309432Y-168865825D03*
D14*
X273019526Y-166962824D03*
D16*
X265097018Y-174262157D03*
D17*
X263825361Y-167938029D03*
D16*
X270519611Y-174336211D03*
D17*
X268761477Y-163204229D03*
%TD*%
D14*
%TO.C,S32*%
X286697067Y-116353984D03*
D15*
X291407161Y-114450983D03*
D14*
X296117255Y-112547982D03*
D16*
X288194747Y-119847315D03*
D17*
X286923090Y-113523187D03*
D16*
X293617340Y-119921369D03*
D17*
X291859206Y-108789387D03*
%TD*%
D14*
%TO.C,S27*%
X323353560Y-105642234D03*
D15*
X328063654Y-103739233D03*
D14*
X332773748Y-101836232D03*
D16*
X324851240Y-109135565D03*
D17*
X323579583Y-102811437D03*
D16*
X330273833Y-109209619D03*
D17*
X328515699Y-98077637D03*
%TD*%
D18*
%TO.C,*%
X237997681Y-131793312D03*
%TD*%
%TO.C,*%
X207997681Y-134333315D03*
%TD*%
D16*
%TO.C,_138*%
X239259951Y-185725618D03*
%TD*%
D18*
%TO.C,*%
X199997681Y-149573314D03*
%TD*%
%TO.C,*%
X216997682Y-145475314D03*
%TD*%
%TO.C,*%
X199997680Y-139413315D03*
%TD*%
D16*
%TO.C,_130*%
X229497681Y-106475313D03*
%TD*%
D14*
%TO.C,S38*%
X252887586Y-134112334D03*
D15*
X257597680Y-132209333D03*
D14*
X262307774Y-130306332D03*
D16*
X254385266Y-137605665D03*
D17*
X253113609Y-131281537D03*
D16*
X259807859Y-137679719D03*
D17*
X258049725Y-126547737D03*
%TD*%
D14*
%TO.C,S22*%
X355205103Y-133757693D03*
D15*
X359915197Y-131854692D03*
D14*
X364625291Y-129951691D03*
D16*
X356702783Y-137251024D03*
D17*
X355431126Y-130926896D03*
D16*
X362125376Y-137325078D03*
D17*
X360367242Y-126193096D03*
%TD*%
D18*
%TO.C,*%
X229997681Y-136873314D03*
%TD*%
%TO.C,*%
X199997680Y-144493316D03*
%TD*%
D16*
%TO.C,_134*%
X198735411Y-185725617D03*
%TD*%
D14*
%TO.C,S5*%
X98104087Y-119452724D03*
D15*
X102814181Y-121355726D03*
D14*
X107524275Y-123258728D03*
D16*
X96754756Y-123005991D03*
D17*
X100233112Y-117573428D03*
D16*
X100604002Y-126826112D03*
D17*
X107072229Y-117597132D03*
%TD*%
D18*
%TO.C,*%
X199997681Y-141953315D03*
%TD*%
%LPD*%
M02*
